<svg xmlns="http://www.w3.org/2000/svg" viewBox="0 0 12.7 5.556"><path d="M85.46 232.701h.529v.529h-.529zM84.402 232.701h.529v.529h-.529zM83.344 232.701h.529v.529h-.529zM83.873 232.172h.529v.529h-.529zM82.815 232.172h.529v.529h-.529zM83.873 231.643h.529v.529h-.529zM83.344 231.643h.529v.529h-.529zM82.815 231.114h.529v.529h-.529zM81.756 230.584h.529v.529h-.529zM82.285 231.643h.529v.529h-.529zM81.756 231.114h.529v.529h-.529zM81.756 232.172h.529v.529h-.529zM82.285 232.701h.529v.529h-.529z" style="fill:#60a6eb;fill-opacity:1;stroke-width:.0669999" transform="translate(-81.756 -227.674)"/><path d="M81.756 227.674h.529v.529h-.529z" style="fill:#030703;fill-opacity:1;stroke-width:.0547052" transform="translate(-81.756 -227.674)"/><path d="M82.285 228.203h.794v.794h-.794zM83.079 228.997h1.323v.529h-1.323zM84.402 229.526h1.587v.794h-1.587z" style="fill:#030703;fill-opacity:1;stroke-width:.0669999" transform="translate(-81.756 -227.674)"/><path d="M85.99 230.32h2.117v.794H85.99z" style="fill:#030703;fill-opacity:1;stroke-width:.0506472" transform="translate(-81.756 -227.674)"/><path d="M85.99 231.114h2.117v.794H85.99zM84.402 230.32h1.587v.794h-1.587zM83.079 229.526h1.323v.794h-1.323zM82.285 228.997h.794v.529h-.794z" style="fill:#e8f4f8;fill-opacity:1;stroke-width:.0669999" transform="translate(-81.756 -227.674)"/><path d="M81.756 228.203h.529v.794h-.529z" style="fill:#e8f4f8;fill-opacity:1;stroke-width:.0547052" transform="translate(-81.756 -227.674)"/><path d="M85.99 231.907h2.117v1.323H85.99zM84.402 231.114h1.587v1.587h-1.587z" style="fill:#60a6eb;fill-opacity:1;stroke-width:.0669999" transform="translate(-81.756 -227.674)"/><path d="M83.079 230.32h1.323v1.323h-1.323z" style="fill:#60a6eb;fill-opacity:1;stroke-width:.061162" transform="translate(-81.756 -227.674)"/><path d="M82.285 229.526h.794v1.587h-.794z" style="fill:#60a6eb;fill-opacity:1;stroke-width:.0669999" transform="translate(-81.756 -227.674)"/><path d="M81.756 228.997h.529v1.587h-.529z" style="fill:#60a6eb;fill-opacity:1;stroke-width:.0547052" transform="translate(-81.756 -227.674)"/><path d="M-83.608 229.24h.529v.529h-.529zM-84.667 229.24h.529v.529h-.529zM-85.725 229.24h.529v.529h-.529zM-85.196 228.711h.529v.529h-.529zM-86.254 228.711h.529v.529h-.529zM-84.667 228.182h.529v.529h-.529zM-85.725 228.181h.529v.529h-.529zM-86.254 227.652h.529v.529h-.529zM-86.783 227.123h.529v.529h-.529zM-86.783 228.181h.529v.529h-.529zM-86.783 229.24h.529v.529h-.529z" style="fill:#60a6eb;fill-opacity:1;stroke-width:.0669999" transform="matrix(-1 0 0 1 -74.083 -224.213)"/><path d="M-86.783 224.213h.529v.529h-.529z" style="fill:#030703;fill-opacity:1;stroke-width:.0547052" transform="matrix(-1 0 0 1 -74.083 -224.213)"/><path d="M-86.254 224.742h.794v.794h-.794zM-85.46 225.536h1.323v.529h-1.323zM-84.138 226.065h1.587v.794h-1.587z" style="fill:#030703;fill-opacity:1;stroke-width:.0669999" transform="matrix(-1 0 0 1 -74.083 -224.213)"/><path d="M-82.55 226.859h2.117v.794h-2.117z" style="fill:#030703;fill-opacity:1;stroke-width:.0506472" transform="matrix(-1 0 0 1 -74.083 -224.213)"/><path d="M-82.55 227.652h2.117v.794h-2.117zM-84.138 226.859h1.587v.794h-1.587zM-85.46 226.065h1.323v.794h-1.323zM-86.254 225.536h.794v.529h-.794z" style="fill:#e8f4f8;fill-opacity:1;stroke-width:.0669999" transform="matrix(-1 0 0 1 -74.083 -224.213)"/><path d="M-86.783 224.742h.529v.794h-.529z" style="fill:#e8f4f8;fill-opacity:1;stroke-width:.0547052" transform="matrix(-1 0 0 1 -74.083 -224.213)"/><path d="M-82.55 228.446h2.117v1.323h-2.117zM-84.138 227.652h1.587v1.587h-1.587z" style="fill:#60a6eb;fill-opacity:1;stroke-width:.0669999" transform="matrix(-1 0 0 1 -74.083 -224.213)"/><path d="M-85.46 226.859h1.323v1.323h-1.323z" style="fill:#60a6eb;fill-opacity:1;stroke-width:.061162" transform="matrix(-1 0 0 1 -74.083 -224.213)"/><path d="M-86.254 226.065h.794v1.587h-.794z" style="fill:#60a6eb;fill-opacity:1;stroke-width:.0669999" transform="matrix(-1 0 0 1 -74.083 -224.213)"/><path d="M-86.783 225.536h.529v1.587h-.529z" style="fill:#60a6eb;fill-opacity:1;stroke-width:.0547052" transform="matrix(-1 0 0 1 -74.083 -224.213)"/></svg>