<svg xmlns="http://www.w3.org/2000/svg" width="50px" height="50px" viewBox="0 0 20.407 19.002"><defs><filter id="a" width="1" height="1" x="0" y="0" color-interpolation-filters="sRGB"><feGaussianBlur/></filter><filter id="b" width="1" height="1" x="0" y="0" color-interpolation-filters="sRGB"><feGaussianBlur/></filter><filter id="c" width="1" height="1" x="0" y="0" color-interpolation-filters="sRGB"><feGaussianBlur/></filter></defs><g fill-opacity=".996"><g fill="#010100" filter="url(#a)" opacity=".996" transform="matrix(1.311 0 0 1.4102 -95.03 -90.646)"><path d="M74.75 64.28h11.328v13.474H74.75z" opacity=".996"/><path d="M73.377 65.395h13.695v11.269H73.377z" opacity=".996"/><path d="M72.487 65.986h15.566v10.072H72.487z" opacity=".996"/></g><g fill="#725525" stroke-width=".265" filter="url(#b)" transform="matrix(1.311 0 0 1.4102 -95.212 -90.718)"><path d="M73.616 65.925h13.582v10.133H73.616z" opacity=".996"/><path d="M74.715 65.314h11.354V76.82H74.715z" opacity=".996"/></g><g fill="#d3a24f" stroke-width=".265"><path d="M1.939 2.852h16.525v13.342H1.939z" opacity=".996"/><path d="M3.339 1.905h14.004V17.1H3.339z" opacity=".996"/></g><g fill="#f8db50" filter="url(#c)" transform="matrix(1.311 0 0 1.4102 -94.628 -89.814)"><path d="M74.559 66.657h10.808v7.783H74.559z" opacity=".996"/><path d="M75.447 65.467h9.065v9.919h-9.065z" opacity=".996"/></g><g fill="#f1eefc" stroke-width=".265" opacity=".996"><path d="M1.914 7.371h1v1.42h-1zM1.914 2.766h1.16v3.486h-1.16z" opacity=".996"/><path d="M2.953 1.905h.961V3.67h-.96zM3.914 1.905h2.843v1.198H3.914z" opacity=".996"/></g></g><path fill="#010100" fill-opacity=".988" d="M4.288 4.29h1.195v5.085H4.288zM3.297 5.836h.991V7.78h-.99zM7.856 11.22h4.256v5.02H7.856z" opacity=".996"/><path fill="#010100" fill-opacity=".988" d="M6.865 12.818h6.387V14.7H6.865zM6.865 3.011h7.437v8.219H6.865z" opacity=".996"/><path fill="#010100" fill-opacity=".988" d="M14.1 4.237h1.545v5.927h-1.546z" opacity=".996"/><path fill="#010100" fill-opacity=".988" d="M15.536 5.836h1.283v3.326h-1.283zM5.478 3.011H6.88v6.37H5.478z" opacity=".996"/><path fill="#f1eefb" d="M4.338 5.943H8.01v2.084H4.338z" opacity=".996"/><path fill="#f1eefb" d="M5.527 4.45h8.661v2.265h-8.66z" opacity=".996"/><path fill="#f1eefb" d="M11.968 5.943h3.796v3.283h-3.796z" opacity=".996"/><path fill="#f1eefb" d="M7.856 9.14h6.516v1.019H7.856z" opacity=".996"/><path fill="#f1eefb" d="M7.856 9.78h4.043v1.68H7.856zM7.856 12.712h4.083v2.132H7.856z" opacity=".996"/></svg>
