<svg xmlns="http://www.w3.org/2000/svg" width="50px" height="50px" viewBox="0 0 20.407 19.002"><defs><filter id="a" width="1" height="1" x="0" y="0" color-interpolation-filters="sRGB"><feGaussianBlur/></filter><filter id="b" width="1" height="1" x="0" y="0" color-interpolation-filters="sRGB"><feGaussianBlur/></filter><filter id="c" width="1" height="1" x="0" y="0" color-interpolation-filters="sRGB"><feGaussianBlur/></filter></defs><g fill="#010100" fill-opacity=".996" filter="url(#a)" opacity=".996" transform="matrix(-1.311 0 0 1.4102 115.439 -90.65)"><path d="M74.75 64.28h11.328v13.474H74.75z" opacity=".996"/><path d="M73.377 65.395h13.695v11.269H73.377z" opacity=".996"/><path d="M72.487 65.986h15.566v10.072H72.487z" opacity=".996"/></g><g fill="#725525" fill-opacity=".996" stroke-width=".265" filter="url(#b)" transform="matrix(-1.311 0 0 1.4102 115.619 -90.722)"><path d="M73.616 65.925h13.582v10.133H73.616z" opacity=".996"/><path d="M74.715 65.314h11.354V76.82H74.715z" opacity=".996"/></g><g fill="#d3a24f" fill-opacity=".996" stroke-width=".265"><path d="M18.468 2.848H1.943V16.19h16.525z" opacity=".996"/><path d="M17.068 1.901H3.064v15.194h14.004z" opacity=".996"/></g><g fill="#f8db50" fill-opacity=".996" filter="url(#c)" transform="matrix(-1.311 0 0 1.4102 115.039 -89.853)"><path d="M74.559 66.657h10.808v7.783H74.559z" opacity=".996"/><path d="M75.447 65.467h9.065v9.919h-9.065z" opacity=".996"/></g><path fill="#010100" fill-opacity=".988" d="M18.989 11.064h-4.258v5.019h4.258z" opacity=".996"/><path fill="#010100" fill-opacity=".988" d="M19.959 12.634h-6.387v1.882h6.387zM19.959 2.844h-7.437v8.219h7.437z" opacity=".996"/><path fill="#010100" fill-opacity=".988" d="M12.719 4.064h-1.546v5.929h1.546z" opacity=".996"/><path fill="#010100" fill-opacity=".988" d="M11.289 5.634h-1.283v3.325h1.283zM6.829 7.234H5.546v5.292h1.283z" opacity=".996"/><path fill="#f1eefb" d="M19.039 5.754h-.216v2.085h.216z" opacity=".996"/><path fill="#f1eefb" d="M19.039 4.254h-6.402v2.263h6.402z" opacity=".996"/><path fill="#f1eefb" d="M14.859 5.754h-3.794v3.283h3.794z" opacity=".996"/><path fill="#f1eefb" d="M18.989 8.954h-6.517v1.02h6.517z" opacity=".996"/><path fill="#f1eefb" d="M18.989 9.574h-4.042v1.68h4.042zM18.989 12.544h-4.083v2.13h4.083z" opacity=".996"/><g fill="#f1eefc" fill-opacity=".996" stroke-width=".265" opacity=".996"><path d="M1.89 7.367h1v1.42h-1zM1.89 2.762h1.16v3.486H1.89z" opacity=".996"/><path d="M2.93 1.902h.96v1.764h-.96zM3.89 1.902h2.843v1.197H3.89z" opacity=".996"/></g></svg>
