<svg xmlns="http://www.w3.org/2000/svg" width="50px" height="50px" viewBox="0 0 20.407 19.002"><defs><filter id="a" width="1" height="1" x="0" y="0" color-interpolation-filters="sRGB"><feGaussianBlur/></filter><filter id="b" width="1" height="1" x="0" y="0" color-interpolation-filters="sRGB"><feGaussianBlur/></filter><filter id="c" width="1" height="1" x="0" y="0" color-interpolation-filters="sRGB"><feGaussianBlur/></filter></defs><g fill="#010100" fill-opacity=".996" filter="url(#a)" opacity=".996" transform="matrix(1.311 0 0 1.4102 -95.03 -90.65)"><path d="M74.75 64.28h11.328v13.474H74.75z" opacity=".996"/><path d="M73.377 65.395h13.695v11.269H73.377z" opacity=".996"/><path d="M72.487 65.986h15.566v10.072H72.487z" opacity=".996"/></g><g fill="#725525" fill-opacity=".996" stroke-width=".265" filter="url(#b)" transform="matrix(1.311 0 0 1.4102 -95.211 -90.722)"><path d="M73.616 65.925h13.582v10.133H73.616z" opacity=".996"/><path d="M74.715 65.314h11.354V76.82H74.715z" opacity=".996"/></g><g fill="#d3a24f" fill-opacity=".996" stroke-width=".265"><path d="M1.94 2.848h16.525V16.19H1.94z" opacity=".996"/><path d="M3.34 1.901h14.004v15.194H3.34z" opacity=".996"/></g><g fill="#f8db50" fill-opacity=".996" filter="url(#c)" transform="matrix(1.311 0 0 1.4102 -94.628 -89.853)"><path d="M74.559 66.657h10.808v7.783H74.559z" opacity=".996"/><path d="M75.447 65.467h9.065v9.919h-9.065z" opacity=".996"/></g><path fill="#010100" fill-opacity=".988" d="M1.411 11.065h4.258v5.02H1.411z" opacity=".996"/><path fill="#010100" fill-opacity=".988" d="M.451 12.635h6.387v1.882H.451zM.451 2.845h7.437v8.22H.451z" opacity=".996"/><path fill="#010100" fill-opacity=".988" d="M7.681 4.065h1.546v5.93H7.681z" opacity=".996"/><path fill="#010100" fill-opacity=".988" d="M9.111 5.635h1.283V8.96H9.111zM13.581 7.235h1.283v5.292h-1.283z" opacity=".996"/><path fill="#f1eefb" d="M1.371 5.755h.216V7.84h-.216z" opacity=".996"/><path fill="#f1eefb" d="M1.371 4.245h6.402v2.263H1.371z" opacity=".996"/><path fill="#f1eefb" d="M5.551 5.755h3.794v3.283H5.551z" opacity=".996"/><path fill="#f1eefb" d="M1.421 8.955h6.517v1.02H1.421z" opacity=".996"/><path fill="#f1eefb" d="M1.421 9.575h4.042v1.68H1.421zM1.421 12.545h4.083v2.13H1.421z" opacity=".996"/><g fill="#f1eefc" fill-opacity=".996" stroke-width=".265" opacity=".996"><path d="M1.914 7.367h1v1.42h-1zM1.914 2.762h1.16v3.486h-1.16z" opacity=".996"/><path d="M2.954 1.902h.96v1.764h-.96zM3.915 1.902h2.842v1.197H3.915z" opacity=".996"/></g></svg>
