<svg xmlns="http://www.w3.org/2000/svg" width="50px" height="50px" viewBox="0 0 20.407 19.002"><defs><filter id="a" width="1" height="1" x="0" y="0" color-interpolation-filters="sRGB"><feGaussianBlur/></filter><filter id="b" width="1" height="1" x="0" y="0" color-interpolation-filters="sRGB"><feGaussianBlur/></filter><filter id="c" width="1" height="1" x="0" y="0" color-interpolation-filters="sRGB"><feGaussianBlur/></filter></defs><g fill="#010100" fill-opacity=".996" filter="url(#a)" opacity=".996" transform="matrix(1.311 0 0 1.4102 -95.03 -90.655)"><path d="M74.75 64.28h11.328v13.474H74.75z" opacity=".996"/><path d="M73.377 65.395h13.695v11.269H73.377z" opacity=".996"/><path d="M72.487 65.986h15.566v10.072H72.487z" opacity=".996"/></g><g fill="#725525" fill-opacity=".996" stroke-width=".265" filter="url(#b)" transform="matrix(1.311 0 0 1.4102 -95.211 -90.725)"><path d="M73.616 65.925h13.582v10.133H73.616z" opacity=".996"/><path d="M74.715 65.314h11.354V76.82H74.715z" opacity=".996"/></g><g fill="#d3a24f" fill-opacity=".996" stroke-width=".265"><path d="M1.94 2.845h16.525v13.342H1.94z" opacity=".996"/><path d="M3.34 1.898h14.004v15.194H3.34z" opacity=".996"/></g><g fill="#f8db50" fill-opacity=".996" filter="url(#c)" transform="matrix(1.311 0 0 1.4102 -94.628 -89.815)"><path d="M74.559 66.657h10.808v7.783H74.559z" opacity=".996"/><path d="M75.447 65.467h9.065v9.919h-9.065z" opacity=".996"/></g><path fill="#010100" fill-opacity=".988" d="M1.108 11.255h2.66v5.019h-2.66z" opacity=".996"/><path fill="#010100" fill-opacity=".988" d="M1.108 12.825h3.827v1.882H1.108zM1.165 3.035h4.819v8.219H1.165z" opacity=".996"/><path fill="#010100" fill-opacity=".988" d="M5.78 4.255h1.546v5.929H5.78zM7.458 5.825h1.035v5.374H7.458z" opacity=".996"/><path fill="#f1eefb" d="M1.902 4.445h3.969v2.263H1.902z" opacity=".996"/><path fill="#f1eefb" d="M3.643 5.945h3.794v3.283H3.643z" opacity=".996"/><path fill="#f1eefb" d="M1.902 9.145h4.134v1.02H1.902z" opacity=".996"/><path fill="#f1eefb" d="M1.902 9.775h1.659v1.68H1.902zM1.902 12.735h1.701v2.13H1.902z" opacity=".996"/><g fill="#f1eefc" fill-opacity=".996" stroke-width=".265" opacity=".996"><path d="M1.914 7.366h1v1.42h-1zM1.914 2.76h1.16v3.487h-1.16z" opacity=".996"/><path d="M2.954 1.9h.96v1.765h-.96zM3.915 1.9h2.842v1.198H3.915z" opacity=".996"/></g><path fill="#010100" fill-opacity=".988" d="M14.573 4.265h1.196v5.082h-1.196zM13.581 5.765h.992V11.2h-.992zM18.131 11.195h.989v5.019h-.989z" opacity=".996"/><path fill="#010100" fill-opacity=".988" d="M17.169 12.765h1.952v1.882h-1.952zM17.169 2.975H19.1v8.219h-1.931zM15.769 2.975h1.4v6.369h-1.4z" opacity=".996"/><path fill="#f1eefb" d="M14.635 5.885h3.671V7.97h-3.671z" opacity=".996"/><path fill="#f1eefb" d="M15.831 4.385h3.29v2.263h-3.29zM18.141 9.085h.96v1.02h-.96z" opacity=".996"/><path fill="#f1eefb" d="M18.141 9.705h.96v1.68h-.96zM18.141 12.675h.98v2.13h-.98z" opacity=".996"/></svg>
