<?xml version="1.0" encoding="UTF-8"?>
<svg version="1.1" viewBox="0 0 20.407 19.002" xmlns="http://www.w3.org/2000/svg">
<defs>
<filter id="c" x="-1.0074e-5" y="-1.1638e-5" width="1" height="1" color-interpolation-filters="sRGB">
<feGaussianBlur stdDeviation="6.5338697e-05"/>
</filter>
<filter id="b" x="0" y="0" width="1" height="1" color-interpolation-filters="sRGB">
<feGaussianBlur stdDeviation="8.9130634e-20"/>
</filter>
<filter id="a" x="-4.6026e-6" y="-5.015e-6" width="1" height="1" color-interpolation-filters="sRGB">
<feGaussianBlur stdDeviation="2.0727186e-05"/>
</filter>
</defs>
<g transform="translate(-94.25 -139)">
<g transform="translate(31.064 -61.465)">
<g transform="matrix(1.311 0 0 1.4102 -31.844 109.81)" fill="#010100" fill-opacity=".99608" filter="url(#c)" opacity=".996">
<rect x="74.75" y="64.28" width="11.328" height="13.474" opacity=".996" stroke-width=".265"/>
<rect x="73.377" y="65.395" width="13.695" height="11.269" opacity=".996" stroke-width=".27484"/>
<rect x="72.487" y="65.986" width="15.566" height="10.072" opacity=".996" stroke-width=".265"/>
</g>
<g transform="matrix(1.311 0 0 1.4102 -32.025 109.74)" fill="#725525" fill-opacity=".99608" filter="url(#b)" stroke-width=".265">
<rect x="73.616" y="65.925" width="13.582" height="10.133" opacity=".996"/>
<rect x="74.715" y="65.314" width="11.354" height="11.506" opacity=".996"/>
</g>
<g transform="matrix(1.311 0 0 1.4102 -31.465 110.3)" fill="#d3a24f" fill-opacity=".99608" stroke-width=".265">
<rect x="73.677" y="65.955" width="12.605" height="9.4614" opacity=".996"/>
<rect x="74.745" y="65.284" width="10.682" height="10.774" opacity=".996"/>
</g>
<g transform="matrix(1.311 0 0 1.4102 -31.442 110.65)" fill="#f8db50" fill-opacity=".99608" filter="url(#a)">
<rect x="74.559" y="66.657" width="10.808" height="7.7828" opacity=".996" stroke-width=".26655"/>
<rect x="75.447" y="65.467" width="9.0647" height="9.9192" opacity=".996" stroke-width=".265"/>
</g>
<rect x="64.294" y="211.72" width="2.66" height="5.0194" fill="#010100" fill-opacity=".98824" opacity=".996" stroke-width=".28479"/>
<rect x="64.294" y="213.29" width="3.8267" height="1.8822" fill="#010100" fill-opacity=".98824" opacity=".996" stroke-width=".27891"/>
<rect x="64.351" y="203.5" width="4.8194" height="8.2194" fill="#010100" fill-opacity=".98824" opacity=".996" stroke-width=".29006"/>
<rect x="68.966" y="204.72" width="1.5457" height="5.9292" fill="#010100" fill-opacity=".98824" opacity=".996" stroke-width=".36032"/>
<rect x="70.644" y="206.29" width="1.0347" height="5.3744" fill="#010100" fill-opacity=".98824" opacity=".996" stroke-width=".41134"/>
<rect x="65.088" y="204.91" width="3.9687" height="2.2627" fill="#f1eefb" opacity=".996" stroke-width=".24391"/>
<rect x="66.829" y="206.41" width="3.7944" height="3.2832" fill="#f1eefb" opacity=".996" stroke-width=".36032"/>
<rect x="65.088" y="209.61" width="4.134" height="1.0204" fill="#f1eefb" opacity=".996" stroke-width=".28699"/>
<rect x="65.088" y="210.24" width="1.6594" height="1.6797" fill="#f1eefb" opacity=".996" stroke-width=".26379"/>
<rect x="65.088" y="213.2" width="1.7007" height="2.1296" fill="#f1eefb" opacity=".996" stroke-width=".23254"/>
<g transform="matrix(1.311 0 0 1.4102 -31.771 110.13)" fill="#f1eefc" fill-opacity=".99608" opacity=".996" stroke-width=".265">
<rect x="73.891" y="69.282" width=".76302" height="1.0072" opacity=".996"/>
<rect x="73.891" y="66.016" width=".8851" height="2.4722" opacity=".996"/>
<rect x="74.684" y="65.406" width=".7325" height="1.2514" opacity=".996"/>
<rect x="75.417" y="65.406" width="2.1685" height=".84902" opacity=".996"/>
</g>
<rect x="77.759" y="204.73" width="1.1957" height="5.0822" fill="#010100" fill-opacity=".98824" opacity=".996" stroke-width=".36032"/>
<rect x="76.767" y="206.23" width=".99158" height="5.4352" fill="#010100" fill-opacity=".98824" opacity=".996" stroke-width=".60234"/>
<rect x="81.317" y="211.66" width=".98921" height="5.0194" fill="#010100" fill-opacity=".98824" opacity=".996" stroke-width=".17367"/>
<rect x="80.355" y="213.23" width="1.9515" height="1.8822" fill="#010100" fill-opacity=".98824" opacity=".996" stroke-width=".19917"/>
<rect x="80.355" y="203.44" width="1.931" height="8.2194" fill="#010100" fill-opacity=".98824" opacity=".996" stroke-width=".18361"/>
<rect x="78.955" y="203.44" width="1.3999" height="6.3685" fill="#010100" fill-opacity=".98824" opacity=".996" stroke-width=".36032"/>
<rect x="77.821" y="206.35" width="3.6708" height="2.0852" fill="#f1eefb" opacity=".996" stroke-width=".36032"/>
<rect x="79.017" y="204.85" width="3.29" height="2.2627" fill="#f1eefb" opacity=".996" stroke-width=".22208"/>
<rect x="81.327" y="209.55" width=".95966" height="1.0204" fill="#f1eefb" opacity=".996" stroke-width=".13827"/>
<rect x="81.327" y="210.17" width=".95966" height="1.6797" fill="#f1eefb" opacity=".996" stroke-width=".2006"/>
<rect x="81.327" y="213.14" width=".98006" height="2.1296" fill="#f1eefb" opacity=".996" stroke-width=".17653"/>
</g>
</g>
</svg>
