<?xml version="1.0" encoding="UTF-8"?>
<svg version="1.1" viewBox="0 0 20.407 19.002" xmlns="http://www.w3.org/2000/svg">
<defs>
<filter id="c" x="-1.0074e-5" y="-1.1638e-5" width="1" height="1" color-interpolation-filters="sRGB">
<feGaussianBlur stdDeviation="6.5338697e-05"/>
</filter>
<filter id="b" x="0" y="0" width="1" height="1" color-interpolation-filters="sRGB">
<feGaussianBlur stdDeviation="8.9130634e-20"/>
</filter>
<filter id="a" x="-4.6026e-6" y="-5.015e-6" width="1" height="1" color-interpolation-filters="sRGB">
<feGaussianBlur stdDeviation="2.0727186e-05"/>
</filter>
</defs>
<g transform="translate(-94.25 -139)">
<g transform="translate(-34.699 2.966)">
<g transform="matrix(1.311 0 0 1.4102 33.919 45.384)" fill="#010100" fill-opacity=".99608" filter="url(#c)" opacity=".996">
<rect x="74.75" y="64.28" width="11.328" height="13.474" opacity=".996" stroke-width=".265"/>
<rect x="73.377" y="65.395" width="13.695" height="11.269" opacity=".996" stroke-width=".27484"/>
<rect x="72.487" y="65.986" width="15.566" height="10.072" opacity=".996" stroke-width=".265"/>
</g>
<g transform="matrix(1.311 0 0 1.4102 33.738 45.312)" fill="#725525" fill-opacity=".99608" filter="url(#b)" stroke-width=".265">
<rect x="73.616" y="65.925" width="13.582" height="10.133" opacity=".996"/>
<rect x="74.715" y="65.314" width="11.354" height="11.506" opacity=".996"/>
</g>
<g transform="matrix(1.311 0 0 1.4102 34.298 45.872)" fill="#d3a24f" fill-opacity=".99608" stroke-width=".265">
<rect x="73.677" y="65.955" width="12.605" height="9.4614" opacity=".996"/>
<rect x="74.745" y="65.284" width="10.682" height="10.774" opacity=".996"/>
</g>
<g transform="matrix(1.311 0 0 1.4102 34.321 46.181)" fill="#f8db50" fill-opacity=".99608" filter="url(#a)">
<rect x="74.559" y="66.657" width="10.808" height="7.7828" opacity=".996" stroke-width=".26655"/>
<rect x="75.447" y="65.467" width="9.0647" height="9.9192" opacity=".996" stroke-width=".265"/>
</g>
<rect transform="translate(.94005 -.93071)" x="129.42" y="148.03" width="4.258" height="5.0194" fill="#010100" fill-opacity=".98824" opacity=".996" stroke-width=".36032"/>
<rect transform="translate(.94005 -.93071)" x="128.46" y="149.6" width="6.3869" height="1.8822" fill="#010100" fill-opacity=".98824" opacity=".996" stroke-width=".36032"/>
<rect transform="translate(.94005 -.93071)" x="128.46" y="139.81" width="7.4369" height="8.2194" fill="#010100" fill-opacity=".98824" opacity=".996" stroke-width=".36032"/>
<rect transform="translate(.94005 -.93071)" x="135.69" y="141.03" width="1.5457" height="5.9292" fill="#010100" fill-opacity=".98824" opacity=".996" stroke-width=".36032"/>
<rect transform="translate(.94005 -.93071)" x="137.12" y="142.6" width="1.2832" height="3.3253" fill="#010100" fill-opacity=".98824" opacity=".996" stroke-width=".36032"/>
<rect transform="translate(.94005 -.93071)" x="141.59" y="144.2" width="1.2832" height="5.2917" fill="#010100" fill-opacity=".98824" opacity=".996" stroke-width=".45454"/>
<rect transform="translate(.94005 -.93071)" x="129.38" y="142.72" width=".21576" height="2.0852" fill="#f1eefb" opacity=".996" stroke-width=".087356"/>
<rect transform="translate(.94005 -.93071)" x="129.38" y="141.21" width="6.4018" height="2.2627" fill="#f1eefb" opacity=".996" stroke-width=".30978"/>
<rect transform="translate(.94005 -.93071)" x="133.56" y="142.72" width="3.7944" height="3.2832" fill="#f1eefb" opacity=".996" stroke-width=".36032"/>
<rect transform="translate(.94005 -.93071)" x="129.43" y="145.92" width="6.5166" height="1.0204" fill="#f1eefb" opacity=".996" stroke-width=".36032"/>
<rect transform="translate(.94005 -.93071)" x="129.43" y="146.54" width="4.0419" height="1.6797" fill="#f1eefb" opacity=".996" stroke-width=".41169"/>
<rect transform="translate(.94005 -.93071)" x="129.43" y="149.51" width="4.0832" height="2.1296" fill="#f1eefb" opacity=".996" stroke-width=".36032"/>
<g transform="matrix(1.311 0 0 1.4102 33.992 45.7)" fill="#f1eefc" fill-opacity=".99608" opacity=".996" stroke-width=".265">
<rect x="73.891" y="69.282" width=".76302" height="1.0072" opacity=".996"/>
<rect x="73.891" y="66.016" width=".8851" height="2.4722" opacity=".996"/>
<rect x="74.684" y="65.406" width=".7325" height="1.2514" opacity=".996"/>
<rect x="75.417" y="65.406" width="2.1685" height=".84902" opacity=".996"/>
</g>
</g>
</g>
</svg>
