<?xml version="1.0" encoding="UTF-8"?>
<svg version="1.1" viewBox="0 0 134.94 134.94" xmlns="http://www.w3.org/2000/svg" xmlns:cc="http://creativecommons.org/ns#" xmlns:dc="http://purl.org/dc/elements/1.1/" xmlns:rdf="http://www.w3.org/1999/02/22-rdf-syntax-ns#">
 <metadata>
  <rdf:RDF>
   <cc:Work rdf:about="">
    <dc:format>image/svg+xml</dc:format>
    <dc:type rdf:resource="http://purl.org/dc/dcmitype/StillImage"/>
    <dc:title/>
   </cc:Work>
  </rdf:RDF>
 </metadata>
 <g transform="translate(-31.75 -55.562)">
  <g>
   <rect x="37.042" y="119.06" width="2.6458" height="71.438" stroke-width=".067"/>
   <rect x="39.688" y="119.06" width="5.2917" height="2.6458" stroke-width=".067"/>
   <rect x="44.979" y="119.06" width="116.42" height="1.3229" stroke-width=".083989"/>
   <rect x="150.81" y="120.39" width="10.583" height="2.6458" stroke-width=".071626"/>
   <rect x="157.43" y="123.03" width="3.9688" height="67.469" stroke-width=".19534"/>
   <rect x="35.719" y="116.42" width="125.68" height="2.6458" stroke-width=".11368"/>
   <rect x="34.396" y="113.77" width="6.6146" height="2.6458" stroke-width=".067"/>
   <rect x="31.75" y="112.45" width="3.9688" height="1.3229" stroke-width=".067"/>
   <rect x="31.75" y="59.531" width="2.6458" height="52.917" stroke-width=".11325"/>
   <rect x="34.396" y="56.885" width="1.3229" height="3.9688" stroke-width=".067"/>
   <rect x="35.719" y="55.562" width="2.6458" height="3.9688" stroke-width=".067"/>
   <rect x="38.365" y="55.562" width="124.35" height="1.3229" stroke-width=".22966"/>
   <rect x="161.4" y="56.885" width="3.9688" height="2.6458" stroke-width=".067"/>
   <rect x="161.4" y="59.531" width="5.2917" height="54.24" stroke-width=".13566"/>
   <rect x="154.78" y="113.77" width="10.583" height="2.6458" stroke-width=".067"/>
  </g>
  <g fill="#fff">
   <rect x="52.917" y="56.885" width="58.208" height="3.9687" stroke-width=".10286"/>
   <rect x="60.854" y="60.854" width="13.229" height="52.917" stroke-width=".094752"/>
   <rect x="70.115" y="123.03" width="13.229" height="67.469" stroke-width=".23924"/>
  </g>
  <g>
   <g fill="#00f800">
    <rect x="44.979" y="56.885" width="7.9375" height="3.9688" stroke-width=".067"/>
    <rect x="52.917" y="60.854" width="7.9375" height="51.594" stroke-width=".1046"/>
    <rect x="55.562" y="112.45" width="5.2917" height="1.3229" stroke-width=".067"/>
    <rect x="60.854" y="113.77" width="13.229" height="2.6458" stroke-width=".067"/>
    <rect x="74.083" y="60.854" width="37.042" height="51.594" stroke-width=".065835"/>
    <g stroke-width=".067">
     <rect x="74.083" y="112.45" width="35.719" height="1.3229"/>
     <rect x="111.12" y="56.885" width="18.521" height="3.9688"/>
     <rect x="133.61" y="56.885" width="3.9688" height="3.9688"/>
     <rect x="70.115" y="120.39" width="11.906" height="2.6458"/>
    </g>
    <rect x="60.854" y="123.03" width="9.2604" height="67.469" stroke-width=".12354"/>
    <rect x="83.344" y="123.03" width="19.844" height="67.469" stroke-width=".12354"/>
   </g>
   <g fill="#008000">
    <g stroke-width=".067">
     <rect x="38.365" y="56.885" width="6.6146" height="55.562"/>
     <rect x="46.302" y="113.77" width="6.6146" height="2.6458"/>
     <rect x="41.01" y="112.45" width="5.2917" height="3.9688"/>
     <rect x="129.65" y="60.854" width="3.9688" height="51.594"/>
     <rect x="127" y="112.45" width="3.9688" height="1.3229"/>
     <rect x="109.8" y="113.77" width="19.844" height="2.6458"/>
     <rect x="133.61" y="113.77" width="3.9688" height="2.6458"/>
     <rect x="136.26" y="112.45" width="18.521" height="1.3229"/>
     <rect x="137.58" y="60.854" width="19.844" height="51.594"/>
     <rect x="157.43" y="56.885" width="3.9688" height="2.6458"/>
     <rect x="52.917" y="120.39" width="7.9375" height="2.6458"/>
    </g>
    <rect x="44.979" y="123.03" width="7.9375" height="67.469" stroke-width=".13812"/>
    <rect x="103.19" y="120.39" width="17.198" height="2.6458" stroke-width=".067"/>
    <rect x="124.35" y="120.39" width="5.2917" height="2.6458" stroke-width=".067"/>
    <rect x="120.39" y="123.03" width="3.9688" height="67.469" stroke-width=".14427"/>
    <rect x="129.65" y="123.03" width="21.167" height="67.469" stroke-width=".28531"/>
   </g>
   <g fill="#00c800">
    <g stroke-width=".067">
     <rect x="44.979" y="60.854" width="7.9375" height="51.594"/>
     <rect x="46.302" y="112.45" width="9.2604" height="1.3229"/>
     <rect x="52.917" y="113.77" width="7.9375" height="2.6458"/>
     <rect x="74.083" y="113.77" width="35.719" height="2.6458"/>
     <rect x="109.8" y="112.45" width="17.198" height="1.3229"/>
    </g>
    <rect x="111.12" y="60.854" width="18.521" height="51.594" stroke-width=".15815"/>
    <rect x="130.97" y="112.45" width="5.2917" height="1.3229" stroke-width=".067"/>
    <rect x="133.61" y="60.854" width="3.9688" height="51.594" stroke-width=".24157"/>
    <g stroke-width=".067">
     <rect x="129.65" y="56.885" width="3.9688" height="3.9688"/>
     <rect x="137.58" y="56.885" width="19.844" height="3.9688"/>
     <rect x="60.854" y="120.39" width="9.2604" height="2.6458"/>
     <rect x="82.021" y="120.39" width="21.167" height="2.6458"/>
    </g>
    <rect x="52.917" y="123.03" width="7.9375" height="67.469" stroke-width=".15949"/>
    <rect x="103.19" y="123.03" width="17.198" height="67.469" stroke-width=".15131"/>
    <rect x="124.35" y="123.03" width="5.2917" height="67.469" stroke-width=".13812"/>
   </g>
   <g fill="#004c00">
    <rect x="35.719" y="59.531" width="2.6458" height="1.3229" stroke-width=".067"/>
    <rect x="34.396" y="60.854" width="3.9688" height="51.594" stroke-width=".082058"/>
    <g stroke-width=".067">
     <rect x="35.719" y="112.45" width="5.2917" height="1.3229"/>
     <rect x="129.65" y="113.77" width="3.9688" height="2.6458"/>
     <rect x="137.58" y="113.77" width="17.198" height="2.6458"/>
     <rect x="154.78" y="112.45" width="6.6146" height="1.3229"/>
    </g>
    <rect x="157.43" y="59.531" width="3.9688" height="52.917" stroke-width=".072672"/>
    <rect x="120.39" y="120.39" width="3.9688" height="2.6458" stroke-width=".067"/>
    <rect x="129.65" y="120.39" width="21.167" height="2.6458" stroke-width=".067"/>
    <rect x="150.81" y="123.03" width="6.6146" height="67.469" stroke-width=".16917"/>
    <rect x="44.979" y="120.39" width="7.9375" height="2.6458" stroke-width=".067"/>
    <rect x="39.688" y="121.71" width="5.2917" height="68.792" stroke-width=".18261"/>
   </g>
  </g>
 </g>
</svg>
