<svg xmlns="http://www.w3.org/2000/svg" width="100px" height="100px" viewBox="0 0 134.94 134.94"><path d="M5.292 63.498h2.646v71.438H5.292zM7.938 63.498h5.292v2.646H7.938z"/><path d="M13.229 63.498h116.42v1.323H13.229zM119.06 64.828h10.583v2.646H119.06z"/><path d="M125.68 67.468h3.969v67.469h-3.969zM3.969 60.858h125.68v2.646H3.969zM2.646 58.208h6.615v2.646H2.646z"/><path d="M0 56.888h3.969v1.323H0zM0 3.969h2.646v52.917H0zM2.646 1.323h1.323v3.969H2.646zM3.969 0h2.646v3.969H3.969zM6.615 0h124.35v1.323H6.615zM129.65 1.323h3.969v2.646h-3.969zM129.65 3.969h5.292v54.24h-5.292z"/><path d="M123.03 58.208h10.583v2.646H123.03z"/><g fill="#fff"><path d="M21.167 1.323h58.208v3.969H21.167zM29.104 5.292h13.229v52.917H29.104zM38.365 67.468h13.229v67.469H38.365z"/></g><g fill="#00f800"><path d="M13.229 1.323h7.938v3.969h-7.938zM21.167 5.292h7.938v51.594h-7.938zM23.812 56.888h5.292v1.323h-5.292zM29.104 58.208h13.229v2.646H29.104zM42.333 5.292h37.042v51.594H42.333z"/><g stroke-width=".067"><path d="M42.333 56.888h35.719v1.323H42.333zM79.37 1.323h18.521v3.969H79.37zM101.86 1.323h3.969v3.969h-3.969zM38.365 64.828h11.906v2.646H38.365z"/></g><path d="M29.104 67.468h9.26v67.469h-9.26zM51.594 67.468h19.844v67.469H51.594z"/></g><g fill="green"><g stroke-width=".067"><path d="M6.615 1.323h6.615v55.562H6.615zM14.552 58.208h6.615v2.646h-6.615zM9.26 56.888h5.292v3.969H9.26zM97.9 5.292h3.969v51.594H97.9zM95.25 56.888h3.969v1.323H95.25z"/><path d="M78.05 58.208h19.844v2.646H78.05zM101.86 58.208h3.969v2.646h-3.969z"/><path d="M104.51 56.888h18.521v1.323H104.51zM105.83 5.292h19.844v51.594H105.83zM125.68 1.323h3.969v2.646h-3.969zM21.167 64.828h7.938v2.646h-7.938z"/></g><path d="M13.229 67.468h7.938v67.469h-7.938zM71.44 64.828h17.198v2.646H71.44zM92.6 64.828h5.292v2.646H92.6z"/><path d="M88.64 67.468h3.969v67.469H88.64zM97.9 67.468h21.167v67.469H97.9z"/></g><g fill="#00c800"><g stroke-width=".067"><path d="M13.229 5.292h7.938v51.594h-7.938zM14.552 56.888h9.26v1.323h-9.26z"/><path d="M21.167 58.208h7.938v2.646h-7.938zM42.333 58.208h35.719v2.646H42.333z"/><path d="M78.05 56.888h17.198v1.323H78.05z"/></g><path d="M79.37 5.292h18.521v51.594H79.37zM99.22 56.888h5.292v1.323H99.22zM101.86 5.292h3.969v51.594h-3.969z"/><g stroke-width=".067"><path d="M97.9 1.323h3.969v3.969H97.9zM105.83 1.323h19.844v3.969H105.83zM29.104 64.828h9.26v2.646h-9.26zM50.271 64.828h21.167v2.646H50.271z"/></g><path d="M21.167 67.468h7.938v67.469h-7.938zM71.44 67.468h17.198v67.469H71.44zM92.6 67.468h5.292v67.469H92.6z"/></g><g fill="#004c00"><path d="M3.969 3.969h2.646v1.323H3.969zM2.646 5.292h3.969v51.594H2.646z"/><g stroke-width=".067"><path d="M3.969 56.888h5.292v1.323H3.969zM97.9 58.208h3.969v2.646H97.9zM105.83 58.208h17.198v2.646H105.83zM123.03 56.888h6.615v1.323h-6.615z"/></g><path d="M125.68 3.969h3.969v52.917h-3.969zM88.64 64.828h3.969v2.646H88.64zM97.9 64.828h21.167v2.646H97.9z"/><path d="M119.06 67.468h6.615v67.469h-6.615zM13.229 64.828h7.938v2.646h-7.938z"/><path d="M7.938 66.148h5.292v68.792H7.938z"/></g></svg>
