<svg xmlns="http://www.w3.org/2000/svg" width="182.56" height="59.536" viewBox="0 0 182.56 59.536"><path fill="#5dc8a1" d="M3.969 57.48v-.595h1.323v-1.323h1.323v-1.323h1.323v-1.323H9.26v-1.323h1.323V50.27h1.323v-1.323h1.323v-1.323h1.323v-1.323h1.323V44.98h1.323v-1.323h1.323v-1.323h1.323V41.01h1.323v-1.323h1.323v-1.323h1.322v-1.323h1.323v-1.323h1.323v-1.323h1.323v-1.323h1.323V31.75h1.323v-1.323h1.323v-1.323h1.323V27.78h1.323v-1.323h1.323v-1.323h1.322v-1.323h1.323V22.49h3.97v1.323h1.322v1.323h1.323v1.323h1.323v1.323h1.323v1.323h1.323v1.323h1.322v1.323h1.323v1.322h1.323v1.323h1.323v1.323h1.323v1.323h1.323v1.323h1.323v1.323h1.323v1.323h1.323v1.323h1.323v1.323h1.322v1.323h1.323V46.3h1.323v1.323h1.323v1.323h1.323v1.323h1.323v1.323h1.323v1.323h1.323v1.323h1.323v1.323h1.323v1.323h1.322v1.313l-36.38.066-36.38-.066zm72.76-.595h1.323v1.323h-1.323zm-1.323-1.323h1.323v1.323h-1.323zm-1.323-1.323h1.323v1.323h-1.323zm-1.323-1.323h1.323v1.323H72.76zm-1.323-1.323h1.323v1.323h-1.323zm-1.323-1.323h1.323v1.323h-1.323zm-1.323-1.323h1.323v1.323h-1.323zm-1.323-1.323h1.323v1.323h-1.323zm-1.322-1.323h1.322v1.323h-1.322zm-1.323-1.322h1.323V46.3h-1.323zM63.5 43.656h1.323v1.323H63.5zm-1.323-1.323H63.5v1.323h-1.323zm-1.323-1.323h1.323v1.323h-1.323zm-1.323-1.323h1.323v1.323h-1.323zm-1.323-1.323h1.323v1.323h-1.323zm-1.323-1.323h1.323v1.323h-1.323zm-1.323-1.323h1.323v1.323h-1.323zm-1.322-1.323h1.322v1.323H54.24zm-1.323-1.323h1.323v1.323h-1.323zm-1.323-1.322h1.323v1.322h-1.323zm-1.323-1.323h1.323v1.323H50.27zm-1.323-1.323h1.323v1.323h-1.323zm-1.323-1.323h1.323v1.323h-1.323zm-1.323-1.323h1.323v1.323h-1.323zm-1.323-1.323h1.323v1.323H44.98zm-1.323-1.323h1.323v1.323h-1.323zm-1.323-1.323h1.323v1.323h-1.323zm-3.968-1.323h3.968v1.323h-3.968zM2.645 58.208H1.324v1.323h1.323zm1.324-1.323H2.646v1.323h1.323zm1.322-1.322H3.97v1.322H5.29zm1.323-1.323H5.291v1.322h1.323zm1.323-1.323H6.614v1.323h1.323zm1.323-1.323H7.937v1.323H9.26zm1.323-1.323H9.26v1.323h1.323zm1.323-1.323h-1.323v1.323h1.323zm1.323-1.323h-1.323v1.323h1.323zm1.323-1.323h-1.323v1.323h1.323zm1.323-1.323h-1.323v1.323h1.323zm1.323-1.323h-1.323v1.323h1.323zm1.323-1.323h-1.323v1.323h1.323zm1.322-1.323h-1.322v1.323h1.322zm1.323-1.322h-1.323v1.322h1.323zm1.323-1.323h-1.323v1.323h1.323zm1.323-1.323H22.49v1.323h1.323zm1.323-1.323h-1.323v1.323h1.323zm1.323-1.323h-1.323v1.323h1.323zm1.323-1.323h-1.323v1.323h1.323zm1.323-1.323H27.78v1.323h1.323zm1.323-1.323h-1.323v1.323h1.323zm1.323-1.323h-1.323v1.323h1.323zm1.322-1.323H31.75v1.323h1.322zm1.323-1.322h-1.323v1.322h1.323zm1.323-1.323h-1.323v1.323h1.323zm1.323-1.323h-1.323v1.323h1.323zm1.323-1.323h-1.323v1.323h1.323zM2.645 58.209h76.729v1.323H2.645z"/><path fill="#5eb288" d="M121.707 0h1.323v1.323h-1.323zM123.027 1.33h1.323v1.323h-1.323zM124.357 1.33h1.323v1.323h-1.323z"/><path fill="#5eb288" d="M125.677 2.65H127v1.323h-1.323z"/><path fill="#5eb288" d="M126.997 3.97h1.323v1.323h-1.323zM128.327 5.29h1.323v1.323h-1.323zM41.01 19.85h1.323v1.323H41.01zM42.333 21.17h1.323v1.323h-1.323zM43.656 22.49h1.323v1.323h-1.323zM44.979 23.82h1.323v1.323h-1.323zM46.302 25.14h1.323v1.323h-1.323zM47.625 26.46h1.323v1.323h-1.323zM48.948 27.78h1.323v1.323h-1.323zM50.27 29.11h1.324v1.323H50.27zM51.594 30.43h1.323v1.323h-1.323zM52.917 31.75h1.323v1.323h-1.323zM54.24 33.08h1.323v1.323H54.24zM55.563 34.4h1.323v1.323h-1.323z"/><path fill="#5eb288" d="M56.885 35.72h1.323v1.323h-1.323zM58.208 37.04h1.323v1.323h-1.323zM59.53 38.37h1.324v1.323H59.53zM60.854 39.69h1.323v1.323h-1.323zM62.177 41.01H63.5v1.323h-1.323zM63.5 42.34h1.323v1.323H63.5zM64.823 43.66h1.323v1.323h-1.323zM66.146 44.98h1.323v1.323h-1.323zM67.469 46.31h1.323v1.323h-1.323zM68.792 47.63h1.323v1.323h-1.323zM70.115 48.95h1.323v1.323h-1.323zM71.438 50.27h1.323v1.323h-1.323zM72.76 51.6h1.323v1.323H72.76zM74.083 52.92h1.323v1.323h-1.323zM75.406 54.24h1.323v1.323h-1.323zM76.729 55.57h1.323v1.323h-1.323zM78.052 56.89h1.323v1.323h-1.323zM79.375 58.21h1.323v1.323h-1.323zM129.647 6.62h1.323v1.323h-1.323z"/><path fill="#5eb288" d="M130.967 7.94h1.323v1.323h-1.323z"/><path fill="#5eb288" d="M132.287 9.26h1.323v1.323h-1.323zM133.617 10.59h1.323v1.323h-1.323z"/><path fill="#5eb288" d="M134.937 11.91h1.323v1.323h-1.323z"/><path fill="#5eb288" d="M136.257 13.23h1.323v1.323h-1.323zM137.587 14.56h1.323v1.323h-1.323z"/><path fill="#5eb288" d="M138.907 15.88h1.323v1.323h-1.323z"/><path fill="#5eb288" d="M140.227 17.2h1.323v1.323h-1.323z"/><path fill="#5eb288" d="M141.547 18.52h1.323v1.323h-1.323zM142.877 19.85h1.323v1.323h-1.323z"/><path fill="#5eb288" d="M144.197 21.17h1.323v1.323h-1.323z"/><path fill="#5eb288" d="M145.517 22.49h1.323v1.323h-1.323zM146.847 23.82h1.323v1.323h-1.323z"/><path fill="#5eb288" d="M148.167 25.14h1.323v1.323h-1.323z"/><path fill="#5eb288" d="M149.487 26.46h1.323v1.323h-1.323z"/><path fill="#5eb288" d="M150.807 27.78h1.323v1.323h-1.323zM152.137 29.11h1.323v1.323h-1.323z"/><path fill="#5eb288" d="M153.457 30.43h1.323v1.323h-1.323z"/><path fill="#5eb288" d="M154.777 31.75h1.323v1.323h-1.323zM156.107 33.08h1.323v1.323h-1.323z"/><path fill="#5eb288" d="M157.427 34.4h1.323v1.323h-1.323z"/><path fill="#5eb288" d="M158.747 35.72h1.323v1.323h-1.323z"/><path fill="#5eb288" d="M160.067 37.04h1.323v1.323h-1.323zM161.397 38.37h1.323v1.323h-1.323z"/><path fill="#5eb288" d="M162.717 39.69h1.323v1.323h-1.323z"/><path fill="#5eb288" d="M164.037 41.01h1.323v1.323h-1.323zM165.367 42.34h1.323v1.323h-1.323z"/><path fill="#5eb288" d="M166.687 43.66h1.323v1.323h-1.323z"/><path fill="#5eb288" d="M168.007 44.98h1.323v1.323h-1.323zM169.337 46.31h1.323v1.323h-1.323z"/><path fill="#5eb288" d="M170.657 47.63h1.323v1.323h-1.323z"/><path fill="#5eb288" d="M171.977 48.95h1.323v1.323h-1.323z"/><path fill="#5eb288" d="M173.297 50.27h1.323v1.323h-1.323zM174.627 51.6h1.323v1.323h-1.323z"/><path fill="#5eb288" d="M175.947 52.92h1.323v1.323h-1.323z"/><path fill="#5eb288" d="M177.267 54.24h1.323v1.323h-1.323zM178.597 55.57h1.323v1.323h-1.323z"/><path fill="#5eb288" d="M179.917 56.89h1.323v1.323h-1.323z"/><path fill="#5eb288" d="M181.237 58.21h1.323v1.193h-1.323zM121.707 0h-1.323v1.323h1.323zM120.387 1.33h-1.323v1.323h1.323zM119.057 1.33h-1.323v1.323h1.323z"/><path fill="#5eb288" d="M117.737 2.65h-1.323v1.323h1.323z"/><path fill="#5eb288" d="M116.417 3.97h-1.323v1.323h1.323z"/><path fill="#5eb288" d="M115.097 5.29h-1.323v1.323h1.323zM113.767 6.62h-1.323v1.323h1.323z"/><path fill="#5eb288" d="M112.447 7.94h-1.323v1.323h1.323z"/><path fill="#5eb288" d="M111.127 9.26h-1.323v1.323h1.323zM109.797 10.59h-1.323v1.323h1.323z"/><path fill="#5eb288" d="M108.477 11.91h-1.323v1.323h1.323z"/><path fill="#5eb288" d="M107.157 13.23h-1.323v1.323h1.323zM105.837 14.56h-1.323v1.323h1.323zM104.507 15.88h-1.323v1.323h1.323z"/><path fill="#5eb288" d="M103.187 17.2h-1.323v1.323h1.323z"/><path fill="#5eb288" d="M101.867 18.52h-1.323v1.323h1.323zM100.537 19.85h-1.323v1.323h1.323z"/><path fill="#5eb288" d="M99.217 21.17h-1.323v1.323h1.323z"/><path fill="#5eb288" d="M97.898 22.49h-1.323v1.323h1.323zM96.578 23.82h-1.323v1.323h1.323zM95.248 25.14h-1.323v1.323h1.323z"/><path fill="#5eb288" d="M93.928 26.46h-1.323v1.323h1.323z"/><path fill="#5eb288" d="M92.608 27.78h-1.323v1.323h1.323zM91.278 29.11h-1.323v1.323h1.323z"/><path fill="#5eb288" d="M89.958 30.43h-1.323v1.323h1.323z"/><path fill="#5eb288" d="M88.638 31.75h-1.323v1.323h1.323zM87.308 33.08h-1.323v1.323h1.323z"/><path fill="#5eb288" d="M85.988 34.4h-1.323v1.323h1.323z"/><path fill="#5eb288" d="M84.667 35.72h-1.323v1.323h1.323zM83.344 37.04H82.02v1.323h1.323zM82.02 38.37h-1.322v1.323h1.323zM80.698 39.69h-1.323v1.323h1.323zM79.375 41.01h-1.323v1.323h1.323zM78.052 42.34h-1.323v1.323h1.323zM76.729 43.66h-1.323v1.323h1.323zM75.406 44.98h-1.323v1.323h1.323zM74.083 46.31H72.76v1.323h1.323zM72.76 47.63h-1.323v1.323h1.323z"/><path fill="#5eb288" d="M71.438 48.95h-1.323v1.323h1.323zM41.01 19.85h-1.323v1.323h1.323z"/><path fill="#5eb288" d="M39.688 19.85h-1.323v1.323h1.323zM38.365 21.17h-1.323v1.323h1.323zM37.042 22.49h-1.323v1.323h1.323zM35.719 23.82h-1.323v1.323h1.323zM34.396 25.14h-1.323v1.323h1.323zM33.073 26.46H31.75v1.323h1.323zM31.75 27.78h-1.323v1.323h1.323zM30.427 29.11h-1.323v1.323h1.323zM29.104 30.43H27.78v1.323h1.323z"/><path fill="#5eb288" d="M27.78 31.75h-1.322v1.323h1.323zM26.458 33.08h-1.323v1.323h1.323z"/><path fill="#5eb288" d="M25.135 34.4h-1.323v1.323h1.323z"/><path fill="#5eb288" d="M23.813 35.72H22.49v1.323h1.323zM22.49 37.04h-1.323v1.323h1.323zM21.167 38.37h-1.323v1.323h1.323zM19.844 39.69H18.52v1.323h1.323z"/><path fill="#5eb288" d="M18.52 41.01h-1.322v1.323h1.323zM17.198 42.34h-1.323v1.323h1.323zM15.875 43.66h-1.323v1.323h1.323zM14.552 44.98h-1.323v1.323h1.323zM13.229 46.3h-1.323v1.323h1.323zM11.906 47.63h-1.323v1.323h1.323zM10.583 48.95H9.26v1.323h1.323zM9.26 50.27H7.937v1.323H9.26zM7.938 51.6H6.615v1.323h1.323zM6.615 52.92H5.292v1.323h1.323zM5.292 54.24H3.969v1.323h1.323zM3.969 55.57H2.646v1.323h1.323zM2.646 56.89H1.323v1.323h1.323zM1.323 58.21H0v1.323h1.323z"/><path fill="#5dc8a1" d="M80.698 58.87v-.661h-1.323v-1.323h-1.323v-1.323H76.73V54.24h-1.323v-1.323h-1.323v-1.323H72.76v-1.323h-1.322v-1.32h1.322V47.63h1.323v-1.323h1.323v-1.323h1.323V43.66h1.323v-1.323h1.323v-1.322h1.323v-1.323h1.323v-1.323h1.323v-1.323h1.323v-1.323h1.323V34.4h1.322v-1.323h1.323v-1.323h1.323v-1.323h1.323v-1.323h1.323v-1.322h1.323v-1.323h1.323V25.14h1.323v-1.323h1.323v-1.323h1.323V21.17h1.322v-1.323h1.323v-1.323h1.323v-1.323h1.323V15.88h1.323v-1.322h1.323v-1.323h1.323V11.91h1.323v-1.323h1.323V9.265h1.323V7.942h1.322V6.619h1.323V5.296h1.323V3.973h1.323V2.65h2.646V1.328h2.65V2.65h2.646v1.323h1.323v1.323h1.323V6.62h1.322v1.323h1.323v1.323h1.323v1.323h1.323v1.323h1.323v1.323h1.323v1.323h1.323v1.322h1.323v1.323h1.323v1.323h1.323v1.323h1.322v1.323h1.323v1.323h1.323v1.323h1.323v1.323h1.323v1.323h1.323v1.323h1.323v1.322h1.323v1.323h1.323v1.323h1.323v1.323h1.322V34.4h1.323v1.323h1.323v1.323h1.323v1.323h1.323v1.323h1.323v1.323h1.323v1.322h1.323v1.323h1.323v1.323h1.323v1.323h1.322v1.323h1.323v1.323h1.323v1.323h1.323v1.323h1.323v1.323h1.323v1.323h1.323v1.322h1.323v1.323h1.323v1.323h1.323v1.19h-50.205l-50.341.13z"/><path fill="#3c855a" d="M16.525 57.43v-.631h1.31v-1.357h1.356v-1.31h.655l.527-.153v-2.502l.265-2.26h1.847l1.847-.01v-.281h.398l.362-.054.029-.203v-.258h.993l.035-1.022v-1.172l.738-.232h.125v-1.213h3.678v1.076h.523l1.218-.033v2.105l.513.033h.645v-.28h2.6v-.258c0-.243.006-.257.117-.257.098 0 .116-.022.116-.14v-.14h2.386v-1.03l1.64.066h1.31v2.105h1.029v1.31h.28v1.87h1.076v.515h3.415v4.49h.795v1.357h1.076v.935l-16.485.165-16.42-.132zm-1.179-1.863h1.323v2.645h-1.323zm-1.323 2.645h1.323v1.323h-1.323zm16.14-13.758h2.381v1.588h-2.38zm-2.91-1.058h3.175v1.588h-3.175zm-1.323 1.058h1.587v1.852H25.93zm-1.058 1.323h1.322v2.646h-1.322zm-1.059 1.588h1.323v1.587h-1.323zm-3.44.794h3.97v1.058h-3.97zm-1.058.793h1.323v5.292h-1.323zm-1.323 3.97h1.323v2.645h-1.323zm-1.322 1.322h1.322v2.646H16.67zm-1.323 3.969h34.13v1.323h-34.13zm33.867-1.852h1.323v3.175h-1.323zm-1.059-1.323h1.323v2.645h-1.323zm-.793-1.323h1.323v2.646h-1.323zm0-2.117h1.323v2.646h-1.323zm-3.44-1.323h3.704v1.588h-3.704zm-1.058-1.587h1.323v2.645h-1.323zm-.265-1.852h1.323v2.645H42.6zm-1.058-1.323h1.323v2.645H41.54zm-3.704-1.059h4.233v1.588h-4.233zm-1.588 1.323h2.646V47.1h-2.646zm-1.058 0h1.323v1.588H35.19zM33.339 47.1h2.91v.794h-2.91zm-1.059-1.587h1.323v2.645H32.28zM98.707 57.353v-.628h1.31v-1.349h1.356v-1.302h.655l.527-.153v-2.489l.265-2.247h1.847l1.847-.01v-.28h.398l.362-.053.029-.202v-.256h.993l.035-1.017v-1.166l.738-.23h.125v-1.206h3.678v1.07h.523l1.218-.033v2.093l.513.033h.645v-.28h2.6v-.255c0-.242.006-.256.116-.256.1 0 .117-.022.117-.14v-.139h2.386v-1.023l1.64.065h1.31v2.094h1.029v1.302h.28v1.86h1.076v.512h3.415v4.466h.795v1.349h1.076v.93l-16.485.164-16.42-.131zM97.528 55.5h1.323v2.631h-1.323zm-1.323 2.631h1.323v1.316h-1.323zm16.14-13.682h2.381v1.579h-2.38zm-2.91-1.052h3.175v1.578h-3.175zm-1.323 1.052h1.587v1.842h-1.587zm-1.058 1.316h1.323v2.631h-1.323zm-1.059 1.578h1.323v1.58h-1.323zm-3.44.79h3.97v1.052h-3.97zm-1.058.79h1.323v5.262h-1.323zm-1.323 3.946h1.323v2.632h-1.323zm-1.322 1.316h1.322v2.631h-1.322zm-1.323 3.947h34.13v1.315H97.53zm33.867-1.842h1.323v3.157h-1.323zm-1.059-1.316h1.323v2.632h-1.323zm-.793-1.315h1.323v2.631h-1.323zm0-2.105h1.323v2.63h-1.323zm-3.44-1.316h3.704v1.579h-3.704zm-1.058-1.579h1.323v2.631h-1.323zm-.265-1.842h1.323v2.632h-1.323zm-1.058-1.315h1.323v2.631h-1.323zm-3.704-1.053h4.233v1.579h-4.233zm-1.588 1.316h2.646v1.315h-2.646zm-1.058 0h1.323v1.579h-1.323zm-1.852 1.315h2.91v.79h-2.91zm-1.059-1.578h1.323v2.63h-1.323z"/></svg>
