<?xml version="1.0" encoding="UTF-8"?>
<svg version="1.1" viewBox="0 0 182.56 59.536" xmlns="http://www.w3.org/2000/svg">
<g transform="translate(-1.3231 .0079927)">
<path d="m5.292 57.472v-0.59531h1.3229v-1.3229h1.3229v-1.3229h1.3229v-1.3229h1.3229v-1.3229h1.3229v-1.3229h1.3229v-1.3229h1.3229v-1.3229h1.3229v-1.3229h1.3229v-1.3229h1.3229v-1.3229h1.3229v-1.3229h1.3229v-1.3229h1.3229v-1.3229h1.3229v-1.3229h1.3229v-1.3229h1.3229v-1.3229h1.3229v-1.3229h1.3229v-1.3229h1.3229v-1.3229h1.3229v-1.3229h1.3229v-1.3229h1.3229v-1.3229h1.3229v-1.3229h1.3229v-1.3229h1.3229v-1.3229h1.3229v-1.3229h3.9688v1.3229h1.3229v1.3229h1.3229v1.3229h1.3229v1.3229h1.3229v1.3229h1.3229v1.3229h1.3229v1.3229h1.3229v1.3229h1.3229v1.3229h1.3229v1.3229h1.3229v1.3229h1.3229v1.3229h1.3229v1.3229h1.3229v1.3229h1.3229v1.3229h1.3229v1.3229h1.3229v1.3229h1.3229v1.3229h1.3229v1.3229h1.3229v1.3229h1.3229v1.3229h1.3229v1.3229h1.3229v1.3229h1.3229v1.3229h1.3229v1.3229h1.3229v1.3229h1.3229v1.3134l-36.38 0.0661-36.38-0.0661zm72.76-0.59532h1.3229v1.3229h-1.3229zm-1.3229-1.3229h1.3229v1.3229h-1.3229zm-1.3229-1.3229h1.3229v1.3229h-1.3229zm-1.3229-1.3229h1.3229v1.3229h-1.3229zm-1.3229-1.3229h1.3229v1.3229h-1.3229zm-1.323-1.3229h1.3229v1.3229h-1.3229zm-1.3229-1.3229h1.3229v1.3229h-1.3229zm-1.3229-1.3229h1.3229v1.3229h-1.3229zm-1.3229-1.3229h1.3229v1.3229h-1.3229zm-1.3229-1.3229h1.3229v1.3229h-1.3229zm-1.3229-1.3229h1.3229v1.3229h-1.3229zm-1.3229-1.3229h1.3229v1.3229h-1.3229zm-1.3229-1.3229h1.3229v1.3229h-1.3229zm-1.3229-1.3229h1.3229v1.3229h-1.3229zm-1.3229-1.3229h1.3229v1.3229h-1.3229zm-1.3229-1.3229h1.3229v1.3229h-1.3229zm-1.3229-1.3229h1.3229v1.3229h-1.3229zm-1.3229-1.3229h1.3229v1.3229h-1.3229zm-1.3229-1.3229h1.3229v1.3229h-1.3229zm-1.3229-1.3229h1.3229v1.3229h-1.3229zm-1.3229-1.3229h1.3229v1.3229h-1.3229zm-1.3229-1.3229h1.3229v1.3229h-1.3229zm-1.3229-1.3229h1.3229v1.3229h-1.3229zm-1.3229-1.3229h1.3229v1.3229h-1.3229zm-1.3229-1.3229h1.3229v1.3229h-1.3229zm-1.3229-1.3229h1.3229v1.3229h-1.3229zm-1.3229-1.3229h1.3229v1.3229h-1.3229zm-3.9688-1.3229h3.9687v1.3229h-3.9687zm-35.719 37.042h-1.3229v1.3229h1.3229zm1.3229-1.3229h-1.3229v1.3229h1.3229zm1.3229-1.3229h-1.3229v1.3229h1.3229zm1.3229-1.323h-1.3229v1.3229h1.3229zm1.3229-1.3229h-1.3229v1.3229h1.3229zm1.3229-1.3229h-1.3229v1.3229h1.3229zm1.323-1.3229h-1.3229v1.3229h1.3229zm1.3229-1.3229h-1.3229v1.3229h1.3229zm1.3229-1.3229h-1.3229v1.3229h1.3229zm1.3229-1.323h-1.3229v1.3229h1.3229zm1.3229-1.3229h-1.3229v1.3229h1.3229zm1.3229-1.3229h-1.3229v1.3229h1.3229zm1.3229-1.3229h-1.3229v1.3229h1.3229zm1.3229-1.3229h-1.3229v1.3229h1.3229zm1.3229-1.3229h-1.3229v1.3229h1.3229zm1.3229-1.3229h-1.3229v1.3229h1.3229zm1.3229-1.3229h-1.3229v1.3229h1.3229zm1.3229-1.3229h-1.3229v1.3229h1.3229zm1.3229-1.3229h-1.3229v1.3229h1.3229zm1.3229-1.3229h-1.3229v1.3229h1.3229zm1.3229-1.3229h-1.3229v1.3229h1.3229zm1.3229-1.3229h-1.3229v1.3229h1.3229zm1.3229-1.3229h-1.3229v1.3229h1.3229zm1.3229-1.3229h-1.3229v1.3229h1.3229zm1.3229-1.3229h-1.3229v1.3229h1.3229zm1.3229-1.3229h-1.3229v1.3229h1.3229zm1.3229-1.3229h-1.3229v1.3229h1.3229zm1.3229-1.3229h-1.3229v1.3229h1.3229zm-35.719 35.719h76.729v1.3229h-76.729z" fill="#5dc8a1"/>
<rect x="123.03" y="-.0079927" width="1.3229" height="1.3229" fill="#5eb288"/>
<rect x="124.35" y="1.322" width="1.3229" height="1.3229" fill="#5eb288"/>
<rect x="125.68" y="1.322" width="1.3229" height="1.3229" fill="#5eb288"/>
<rect x="127" y="2.642" width="1.3229" height="1.3229" fill="#5eb288"/>
<rect x="128.32" y="3.962" width="1.3229" height="1.3229" fill="#5eb288"/>
<rect x="129.65" y="5.282" width="1.3229" height="1.3229" fill="#5eb288"/>
<rect x="42.333" y="19.842" width="1.3229" height="1.3229" fill="#5eb288"/>
<rect x="43.656" y="21.162" width="1.3229" height="1.3229" fill="#5eb288"/>
<rect x="44.979" y="22.482" width="1.3229" height="1.3229" fill="#5eb288"/>
<rect x="46.302" y="23.812" width="1.3229" height="1.3229" fill="#5eb288"/>
<rect x="47.625" y="25.132" width="1.3229" height="1.3229" fill="#5eb288"/>
<rect x="48.948" y="26.452" width="1.3229" height="1.3229" fill="#5eb288"/>
<rect x="50.271" y="27.772" width="1.3229" height="1.3229" fill="#5eb288"/>
<rect x="51.594" y="29.102" width="1.3229" height="1.3229" fill="#5eb288"/>
<rect x="52.917" y="30.422" width="1.3229" height="1.3229" fill="#5eb288"/>
<rect x="54.24" y="31.742" width="1.3229" height="1.3229" fill="#5eb288"/>
<rect x="55.563" y="33.072" width="1.3229" height="1.3229" fill="#5eb288"/>
<rect x="56.886" y="34.392" width="1.3229" height="1.3229" fill="#5eb288"/>
<rect x="58.208" y="35.712" width="1.3229" height="1.3229" fill="#5eb288"/>
<rect x="59.531" y="37.032" width="1.3229" height="1.3229" fill="#5eb288"/>
<rect x="60.854" y="38.362" width="1.3229" height="1.3229" fill="#5eb288"/>
<rect x="62.177" y="39.682" width="1.3229" height="1.3229" fill="#5eb288"/>
<rect x="63.5" y="41.002" width="1.3229" height="1.3229" fill="#5eb288"/>
<rect x="64.823" y="42.332" width="1.3229" height="1.3229" fill="#5eb288"/>
<rect x="66.146" y="43.652" width="1.3229" height="1.3229" fill="#5eb288"/>
<rect x="67.469" y="44.972" width="1.3229" height="1.3229" fill="#5eb288"/>
<rect x="68.792" y="46.302" width="1.3229" height="1.3229" fill="#5eb288"/>
<rect x="70.115" y="47.622" width="1.3229" height="1.3229" fill="#5eb288"/>
<rect x="71.438" y="48.942" width="1.3229" height="1.3229" fill="#5eb288"/>
<rect x="72.761" y="50.262" width="1.3229" height="1.3229" fill="#5eb288"/>
<rect x="74.083" y="51.592" width="1.3229" height="1.3229" fill="#5eb288"/>
<rect x="75.406" y="52.912" width="1.3229" height="1.3229" fill="#5eb288"/>
<rect x="76.729" y="54.232" width="1.3229" height="1.3229" fill="#5eb288"/>
<rect x="78.052" y="55.562" width="1.3229" height="1.3229" fill="#5eb288"/>
<rect x="79.375" y="56.882" width="1.3229" height="1.3229" fill="#5eb288"/>
<rect x="80.698" y="58.202" width="1.3229" height="1.3229" fill="#5eb288"/>
<rect x="130.97" y="6.612" width="1.3229" height="1.3229" fill="#5eb288"/>
<rect x="132.29" y="7.932" width="1.3229" height="1.3229" fill="#5eb288"/>
<rect x="133.61" y="9.252" width="1.3229" height="1.3229" fill="#5eb288"/>
<rect x="134.94" y="10.582" width="1.3229" height="1.3229" fill="#5eb288"/>
<rect x="136.26" y="11.902" width="1.3229" height="1.3229" fill="#5eb288"/>
<rect x="137.58" y="13.222" width="1.3229" height="1.3229" fill="#5eb288"/>
<rect x="138.91" y="14.552" width="1.3229" height="1.3229" fill="#5eb288"/>
<rect x="140.23" y="15.872" width="1.3229" height="1.3229" fill="#5eb288"/>
<rect x="141.55" y="17.192" width="1.3229" height="1.3229" fill="#5eb288"/>
<rect x="142.87" y="18.512" width="1.3229" height="1.3229" fill="#5eb288"/>
<rect x="144.2" y="19.842" width="1.3229" height="1.3229" fill="#5eb288"/>
<rect x="145.52" y="21.162" width="1.3229" height="1.3229" fill="#5eb288"/>
<rect x="146.84" y="22.482" width="1.3229" height="1.3229" fill="#5eb288"/>
<rect x="148.17" y="23.812" width="1.3229" height="1.3229" fill="#5eb288"/>
<rect x="149.49" y="25.132" width="1.3229" height="1.3229" fill="#5eb288"/>
<rect x="150.81" y="26.452" width="1.3229" height="1.3229" fill="#5eb288"/>
<rect x="152.13" y="27.772" width="1.3229" height="1.3229" fill="#5eb288"/>
<rect x="153.46" y="29.102" width="1.3229" height="1.3229" fill="#5eb288"/>
<rect x="154.78" y="30.422" width="1.3229" height="1.3229" fill="#5eb288"/>
<rect x="156.1" y="31.742" width="1.3229" height="1.3229" fill="#5eb288"/>
<rect x="157.43" y="33.072" width="1.3229" height="1.3229" fill="#5eb288"/>
<rect x="158.75" y="34.392" width="1.3229" height="1.3229" fill="#5eb288"/>
<rect x="160.07" y="35.712" width="1.3229" height="1.3229" fill="#5eb288"/>
<rect x="161.39" y="37.032" width="1.3229" height="1.3229" fill="#5eb288"/>
<rect x="162.72" y="38.362" width="1.3229" height="1.3229" fill="#5eb288"/>
<rect x="164.04" y="39.682" width="1.3229" height="1.3229" fill="#5eb288"/>
<rect x="165.36" y="41.002" width="1.3229" height="1.3229" fill="#5eb288"/>
<rect x="166.69" y="42.332" width="1.3229" height="1.3229" fill="#5eb288"/>
<rect x="168.01" y="43.652" width="1.3229" height="1.3229" fill="#5eb288"/>
<rect x="169.33" y="44.972" width="1.3229" height="1.3229" fill="#5eb288"/>
<rect x="170.66" y="46.302" width="1.3229" height="1.3229" fill="#5eb288"/>
<rect x="171.98" y="47.622" width="1.3229" height="1.3229" fill="#5eb288"/>
<rect x="173.3" y="48.942" width="1.3229" height="1.3229" fill="#5eb288"/>
<rect x="174.62" y="50.262" width="1.3229" height="1.3229" fill="#5eb288"/>
<rect x="175.95" y="51.592" width="1.3229" height="1.3229" fill="#5eb288"/>
<rect x="177.27" y="52.912" width="1.3229" height="1.3229" fill="#5eb288"/>
<rect x="178.59" y="54.232" width="1.3229" height="1.3229" fill="#5eb288"/>
<rect x="179.92" y="55.562" width="1.3229" height="1.3229" fill="#5eb288"/>
<rect x="181.24" y="56.882" width="1.3229" height="1.3229" fill="#5eb288"/>
<rect x="182.56" y="58.202" width="1.3229" height="1.1928" fill="#5eb288" stroke-width=".94957"/>
<rect transform="scale(-1,1)" x="-123.03" y="-.0079927" width="1.3229" height="1.3229" fill="#5eb288"/>
<rect transform="scale(-1,1)" x="-121.71" y="1.322" width="1.3229" height="1.3229" fill="#5eb288"/>
<rect transform="scale(-1,1)" x="-120.38" y="1.322" width="1.3229" height="1.3229" fill="#5eb288"/>
<rect transform="scale(-1,1)" x="-119.06" y="2.642" width="1.3229" height="1.3229" fill="#5eb288"/>
<rect transform="scale(-1,1)" x="-117.74" y="3.962" width="1.3229" height="1.3229" fill="#5eb288"/>
<rect transform="scale(-1,1)" x="-116.42" y="5.282" width="1.3229" height="1.3229" fill="#5eb288"/>
<rect transform="scale(-1,1)" x="-115.09" y="6.612" width="1.3229" height="1.3229" fill="#5eb288"/>
<rect transform="scale(-1,1)" x="-113.77" y="7.932" width="1.3229" height="1.3229" fill="#5eb288"/>
<rect transform="scale(-1,1)" x="-112.45" y="9.252" width="1.3229" height="1.3229" fill="#5eb288"/>
<rect transform="scale(-1,1)" x="-111.12" y="10.582" width="1.3229" height="1.3229" fill="#5eb288"/>
<rect transform="scale(-1,1)" x="-109.8" y="11.902" width="1.3229" height="1.3229" fill="#5eb288"/>
<rect transform="scale(-1,1)" x="-108.48" y="13.222" width="1.3229" height="1.3229" fill="#5eb288"/>
<rect transform="scale(-1,1)" x="-107.16" y="14.552" width="1.3229" height="1.3229" fill="#5eb288"/>
<rect transform="scale(-1,1)" x="-105.83" y="15.872" width="1.3229" height="1.3229" fill="#5eb288"/>
<rect transform="scale(-1,1)" x="-104.51" y="17.192" width="1.3229" height="1.3229" fill="#5eb288"/>
<rect transform="scale(-1,1)" x="-103.19" y="18.512" width="1.3229" height="1.3229" fill="#5eb288"/>
<rect transform="scale(-1,1)" x="-101.86" y="19.842" width="1.3229" height="1.3229" fill="#5eb288"/>
<rect transform="scale(-1,1)" x="-100.54" y="21.162" width="1.3229" height="1.3229" fill="#5eb288"/>
<rect transform="scale(-1,1)" x="-99.221" y="22.482" width="1.3229" height="1.3229" fill="#5eb288"/>
<rect transform="scale(-1,1)" x="-97.901" y="23.812" width="1.3229" height="1.3229" fill="#5eb288"/>
<rect transform="scale(-1,1)" x="-96.571" y="25.132" width="1.3229" height="1.3229" fill="#5eb288"/>
<rect transform="scale(-1,1)" x="-95.251" y="26.452" width="1.3229" height="1.3229" fill="#5eb288"/>
<rect transform="scale(-1,1)" x="-93.931" y="27.772" width="1.3229" height="1.3229" fill="#5eb288"/>
<rect transform="scale(-1,1)" x="-92.601" y="29.102" width="1.3229" height="1.3229" fill="#5eb288"/>
<rect transform="scale(-1,1)" x="-91.281" y="30.422" width="1.3229" height="1.3229" fill="#5eb288"/>
<rect transform="scale(-1,1)" x="-89.961" y="31.742" width="1.3229" height="1.3229" fill="#5eb288"/>
<rect transform="scale(-1,1)" x="-88.631" y="33.072" width="1.3229" height="1.3229" fill="#5eb288"/>
<rect transform="scale(-1,1)" x="-87.311" y="34.392" width="1.3229" height="1.3229" fill="#5eb288"/>
<rect transform="scale(-1,1)" x="-85.99" y="35.712" width="1.3229" height="1.3229" fill="#5eb288"/>
<rect transform="scale(-1,1)" x="-84.667" y="37.032" width="1.3229" height="1.3229" fill="#5eb288"/>
<rect transform="scale(-1,1)" x="-83.344" y="38.362" width="1.3229" height="1.3229" fill="#5eb288"/>
<rect transform="scale(-1,1)" x="-82.021" y="39.682" width="1.3229" height="1.3229" fill="#5eb288"/>
<rect transform="scale(-1,1)" x="-80.698" y="41.002" width="1.3229" height="1.3229" fill="#5eb288"/>
<rect transform="scale(-1,1)" x="-79.375" y="42.332" width="1.3229" height="1.3229" fill="#5eb288"/>
<rect transform="scale(-1,1)" x="-78.052" y="43.652" width="1.3229" height="1.3229" fill="#5eb288"/>
<rect transform="scale(-1,1)" x="-76.729" y="44.972" width="1.3229" height="1.3229" fill="#5eb288"/>
<rect transform="scale(-1,1)" x="-75.406" y="46.302" width="1.3229" height="1.3229" fill="#5eb288"/>
<rect transform="scale(-1,1)" x="-74.083" y="47.622" width="1.3229" height="1.3229" fill="#5eb288"/>
<rect transform="scale(-1,1)" x="-72.761" y="48.942" width="1.3229" height="1.3229" fill="#5eb288"/>
<rect transform="scale(-1,1)" x="-42.333" y="19.842" width="1.3229" height="1.3229" fill="#5eb288"/>
<rect transform="scale(-1,1)" x="-41.011" y="19.842" width="1.3229" height="1.3229" fill="#5eb288"/>
<rect transform="scale(-1,1)" x="-39.688" y="21.162" width="1.3229" height="1.3229" fill="#5eb288"/>
<rect transform="scale(-1,1)" x="-38.365" y="22.482" width="1.3229" height="1.3229" fill="#5eb288"/>
<rect transform="scale(-1,1)" x="-37.042" y="23.812" width="1.3229" height="1.3229" fill="#5eb288"/>
<rect transform="scale(-1,1)" x="-35.719" y="25.132" width="1.3229" height="1.3229" fill="#5eb288"/>
<rect transform="scale(-1,1)" x="-34.396" y="26.452" width="1.3229" height="1.3229" fill="#5eb288"/>
<rect transform="scale(-1,1)" x="-33.073" y="27.772" width="1.3229" height="1.3229" fill="#5eb288"/>
<rect transform="scale(-1,1)" x="-31.75" y="29.102" width="1.3229" height="1.3229" fill="#5eb288"/>
<rect transform="scale(-1,1)" x="-30.427" y="30.422" width="1.3229" height="1.3229" fill="#5eb288"/>
<rect transform="scale(-1,1)" x="-29.104" y="31.742" width="1.3229" height="1.3229" fill="#5eb288"/>
<rect transform="scale(-1,1)" x="-27.781" y="33.072" width="1.3229" height="1.3229" fill="#5eb288"/>
<rect transform="scale(-1,1)" x="-26.458" y="34.392" width="1.3229" height="1.3229" fill="#5eb288"/>
<rect transform="scale(-1,1)" x="-25.136" y="35.712" width="1.3229" height="1.3229" fill="#5eb288"/>
<rect transform="scale(-1,1)" x="-23.813" y="37.032" width="1.3229" height="1.3229" fill="#5eb288"/>
<rect transform="scale(-1,1)" x="-22.49" y="38.362" width="1.3229" height="1.3229" fill="#5eb288"/>
<rect transform="scale(-1,1)" x="-21.167" y="39.682" width="1.3229" height="1.3229" fill="#5eb288"/>
<rect transform="scale(-1,1)" x="-19.844" y="41.002" width="1.3229" height="1.3229" fill="#5eb288"/>
<rect transform="scale(-1,1)" x="-18.521" y="42.332" width="1.3229" height="1.3229" fill="#5eb288"/>
<rect transform="scale(-1,1)" x="-17.198" y="43.652" width="1.3229" height="1.3229" fill="#5eb288"/>
<rect transform="scale(-1,1)" x="-15.875" y="44.972" width="1.3229" height="1.3229" fill="#5eb288"/>
<rect transform="scale(-1,1)" x="-14.552" y="46.292" width="1.3229" height="1.3229" fill="#5eb288"/>
<rect transform="scale(-1,1)" x="-13.229" y="47.622" width="1.3229" height="1.3229" fill="#5eb288"/>
<rect transform="scale(-1,1)" x="-11.906" y="48.942" width="1.3229" height="1.3229" fill="#5eb288"/>
<rect transform="scale(-1,1)" x="-10.583" y="50.262" width="1.3229" height="1.3229" fill="#5eb288"/>
<rect transform="scale(-1,1)" x="-9.261" y="51.592" width="1.3229" height="1.3229" fill="#5eb288"/>
<rect transform="scale(-1,1)" x="-7.938" y="52.912" width="1.3229" height="1.3229" fill="#5eb288"/>
<rect transform="scale(-1,1)" x="-6.615" y="54.232" width="1.3229" height="1.3229" fill="#5eb288"/>
<rect transform="scale(-1,1)" x="-5.292" y="55.562" width="1.3229" height="1.3229" fill="#5eb288"/>
<rect transform="scale(-1,1)" x="-3.969" y="56.882" width="1.3229" height="1.3229" fill="#5eb288"/>
<rect transform="scale(-1,1)" x="-2.646" y="58.202" width="1.3229" height="1.3229" fill="#5eb288"/>
<path d="m82.021 58.862v-0.66146h-1.3229v-1.3229h-1.3229v-1.3229h-1.3229v-1.3229h-1.3229v-1.3229h-1.3229v-1.3229h-1.3229v-1.3229h-1.3229v-1.3192h1.3229v-1.3229h1.3229v-1.3229h1.3229v-1.3229h1.3229v-1.3229h1.3229v-1.3229h1.3229v-1.3229h1.3229v-1.3229h1.3229v-1.3229h1.3229v-1.3229h1.3229v-1.3229h1.3229v-1.3229h1.3229v-1.3229h1.3229v-1.3229h1.3229v-1.3229h1.3229v-1.3229h1.3229v-1.3229h1.3229v-1.3229h1.3229v-1.3229h1.3229v-1.3229h1.3229v-1.3229h1.3229v-1.3229h1.3229v-1.3229h1.3229v-1.3229h1.3229v-1.3229h1.3229v-1.3229h1.3229v-1.3229h1.3229v-1.3229h1.3229v-1.3229h1.3229v-1.3229h1.3229v-1.3229h1.3229v-1.3229h1.3229v-1.3229h1.3229v-1.3229h1.3229v-1.3229h1.3229v-1.3229h2.6458v-1.3229h2.65v1.3229h2.6458v1.3229h1.3229v1.3229h1.3229v1.3229h1.3229v1.3229h1.3229v1.3229h1.3229v1.3229h1.3229v1.3229h1.3229v1.3229h1.3229v1.3229h1.3229v1.3229h1.3229v1.3229h1.3229v1.3229h1.3229v1.3229h1.3229v1.3229h1.3229v1.3229h1.3229v1.3229h1.3229v1.3229h1.3229v1.3229h1.3229v1.3229h1.3229v1.3229h1.3229v1.3229h1.3229v1.3229h1.3229v1.3229h1.3229v1.3229h1.3229v1.3229h1.3229v1.3229h1.3229v1.3229h1.3229v1.3229h1.3229v1.3229h1.3229v1.3229h1.3229v1.3229h1.3229v1.3229h1.3229v1.3229h1.3229v1.3229h1.3229v1.3229h1.3229v1.3229h1.3229v1.3229h1.3229v1.3229h1.3229v1.3229h1.3229v1.3229h1.3229v1.3229h1.3229v1.3229h1.3229v1.1906h-50.205l-50.341 0.12862z" fill="#5dc8a1"/>
<path d="m17.848 57.422v-0.63142h1.3096v-1.3564h1.3564v-1.3096h0.65481l0.52748-0.15352v-2.5023l0.26458-2.2602h1.8475l1.8467-0.0101v-0.28063h0.39756l0.36243-0.0538 0.02894-0.2035v-0.25725h0.99308l0.03514-1.022v-1.1723l0.73749-0.23151h0.12564v-1.2131h3.6776v1.0758h0.52321l1.2177-0.0331v2.1048l0.51283 0.0331h0.64512v-0.28063h2.5999v-0.25725c0-0.24321 0.0064-0.25724 0.11693-0.25724 0.09874 0 0.11693-0.0218 0.11693-0.14032v-0.14032h2.3854v-1.029l1.6404 0.0661h1.3096v2.1048h1.029v1.3096h0.28063v1.8709h1.0758v0.51449h3.4144v4.4901h0.79513v1.3564h1.0758v0.93545l-16.485 0.16536-16.419-0.13229zm-1.1788-1.8634h1.3229v2.6458h-1.3229zm-1.3229 2.6458h1.3229v1.3229h-1.3229zm16.14-13.758h2.3812v1.5875h-2.3812zm-2.9104-1.0583h3.175v1.5875h-3.175zm-1.3229 1.0583h1.5875v1.8521h-1.5875zm-1.0583 1.3229h1.3229v2.6458h-1.3229zm-1.0583 1.5875h1.3229v1.5875h-1.3229zm-3.4396 0.79376h3.9687v1.0583h-3.9687zm-1.0583 0.79374h1.3229v5.2917h-1.3229zm-1.3229 3.9688h1.3229v2.6458h-1.3229zm-1.3229 1.3229h1.3229v2.6458h-1.3229zm-1.3229 3.9687h34.131v1.3229h-34.131zm33.867-1.8521h1.3229v3.175h-1.3229zm-1.0583-1.3229h1.3229v2.6458h-1.3229zm-0.79374-1.3229h1.3229v2.6458h-1.3229zm0-2.1167h1.3229v2.6458h-1.3229zm-3.4396-1.3229h3.7042v1.5875h-3.7042zm-1.0583-1.5875h1.3229v2.6458h-1.3229zm-0.26459-1.8521h1.3229v2.6458h-1.3229zm-1.0583-1.3229h1.3229v2.6458h-1.3229zm-3.7042-1.0583h4.2333v1.5875h-4.2333zm-1.5875 1.3229h2.6458v1.3229h-2.6458zm-1.0583 0h1.3229v1.5875h-1.3229zm-1.8521 1.3229h2.9104v0.79375h-2.9104zm-1.0583-1.5875h1.3229v2.6458h-1.3229z" fill="#3c855a"/>
<path d="m100.03 57.345v-0.62795h1.3096v-1.349h1.3564v-1.3024h0.65481l0.52748-0.15268v-2.4886l0.26459-2.2478h1.8475l1.8467-0.01004v-0.27909h0.39756l0.36243-0.0535 0.0289-0.20238v-0.25584h0.99307l0.0351-1.0164v-1.1659l0.7375-0.23024h0.12564v-1.2064h3.6776v1.0699h0.52321l1.2177-0.03292v2.0932l0.51284 0.03292h0.64512v-0.27909h2.5999v-0.25584c0-0.24187 6e-3 -0.25583 0.11693-0.25583 0.0987 0 0.11693-0.02168 0.11693-0.13955v-0.13955h2.3854v-1.0233l1.6404 0.06573h1.3096v2.0932h1.029v1.3024h0.28063v1.8606h1.0758v0.51166h3.4144v4.4654h0.79512v1.349h1.0758v0.93031l-16.485 0.16445-16.419-0.13156zm-1.1788-1.8532h1.3229v2.6313h-1.3229zm-1.3229 2.6313h1.3229v1.3156h-1.3229zm16.14-13.682h2.3812v1.5788h-2.3812zm-2.9104-1.0525h3.175v1.5788h-3.175zm-1.3229 1.0525h1.5875v1.8419h-1.5875zm-1.0583 1.3156h1.3229v2.6313h-1.3229zm-1.0583 1.5788h1.3229v1.5788h-1.3229zm-3.4396 0.7894h3.9687v1.0525h-3.9687zm-1.0583 0.78938h1.3229v5.2626h-1.3229zm-1.3229 3.947h1.3229v2.6313h-1.3229zm-1.3229 1.3156h1.3229v2.6313h-1.3229zm-1.3229 3.9469h34.131v1.3156h-34.131zm33.867-1.8419h1.3229v3.1576h-1.3229zm-1.0583-1.3156h1.3229v2.6313h-1.3229zm-0.79374-1.3156h1.3229v2.6313h-1.3229zm0-2.1051h1.3229v2.6313h-1.3229zm-3.4396-1.3156h3.7042v1.5788h-3.7042zm-1.0583-1.5788h1.3229v2.6313h-1.3229zm-0.2646-1.8419h1.3229v2.6313h-1.3229zm-1.0583-1.3156h1.3229v2.6313h-1.3229zm-3.7042-1.0525h4.2333v1.5788h-4.2333zm-1.5875 1.3156h2.6458v1.3156h-2.6458zm-1.0583 0h1.3229v1.5788h-1.3229zm-1.8521 1.3156h2.9104v0.78939h-2.9104zm-1.0583-1.5788h1.3229v2.6313h-1.3229z" fill="#3c855a" stroke-width=".99725"/>
</g>
</svg>
