<?xml version="1.0" encoding="UTF-8"?>
<svg version="1.1" viewBox="0 0 16.933 16.404" xmlns="http://www.w3.org/2000/svg">
<g transform="translate(-15.444 -233.43)">
<g transform="translate(-16.306 144.26)">
<rect x="32.279" y="94.721" width="15.346" height="5.8208" fill="#02f600" stroke-width=".041981"/>
<rect x="33.867" y="91.546" width="12.7" height="3.175" fill="#02f600" stroke-width=".028206"/>
<rect x="35.983" y="90.223" width="8.4667" height="1.3229" fill="#02f600" stroke-width=".014866"/>
<rect x="31.75" y="101.34" width="1.0583" height="4.2333" fill="#060704" stroke-width=".061483"/>
<rect x="33.337" y="102.13" width=".52917" height="2.6458" fill="#060704" stroke-width=".03437"/>
<rect x="32.808" y="102.13" width=".52917" height="2.6458" fill="#7a4c0b" stroke-width=".03437"/>
<rect x="33.867" y="102.13" width="1.0583" height="2.6458" fill="#7a4c0b" stroke-width=".048607"/>
<rect x="35.454" y="102.13" width=".52917" height="2.6458" fill="#7a4c0b" stroke-width=".03437"/>
<rect x="33.337" y="101.34" width=".52917" height=".79375" fill="#7a4c0b" stroke-width=".018825"/>
<rect x="34.925" y="102.39" width=".52917" height="2.3813" fill="#d59323" stroke-width=".032606"/>
<rect x="35.983" y="102.39" width="1.5875" height="2.3813" fill="#d59323" stroke-width=".056476"/>
<rect x="38.1" y="102.39" width=".52917" height="2.3813" fill="#d59323" stroke-width=".032606"/>
<rect x="37.571" y="102.13" width=".52917" height="2.6458" fill="#fcd50f" stroke-width=".03437"/>
<rect x="38.629" y="102.13" width="1.0583" height="2.6458" fill="#fcd50f" stroke-width=".048607"/>
<rect x="38.1" y="101.34" width=".52917" height="1.0583" fill="#fcd50f" stroke-width=".021738"/>
<rect x="35.983" y="101.34" width="1.5875" height="1.0583" fill="#fcd50f" stroke-width=".037651"/>
<rect x="39.687" y="101.34" width=".52917" height="3.4396" fill="#e9f2f9" stroke-width=".039188"/>
<rect x="38.629" y="101.34" width="1.0583" height=".79375" fill="#e9f2f9" stroke-width=".026623"/>
<rect x="37.571" y="101.34" width=".52917" height=".79375" fill="#e9f2f9" stroke-width=".018825"/>
<rect x="31.75" y="100.54" width="8.4667" height=".79375" fill="#060704" stroke-width=".075301"/>
<rect x="31.75" y="95.515" width=".52917" height="5.0271" fill="#060704" stroke-width=".047376"/>
<rect x="32.279" y="94.456" width=".52917" height="1.3229" fill="#060704" stroke-width=".024303"/>
<rect x="32.808" y="93.398" width=".52917" height="1.3229" fill="#060704" stroke-width=".024303"/>
<rect x="33.337" y="92.34" width=".52917" height="1.3229" fill="#060704" stroke-width=".024303"/>
<rect x="33.867" y="91.546" width=".52917" height="1.0583" fill="#060704" stroke-width=".021738"/>
<rect x="34.396" y="91.017" width=".52917" height="1.0583" fill="#060704" stroke-width=".021738"/>
<rect x="34.925" y="90.487" width=".52917" height="1.0583" fill="#060704" stroke-width=".021738"/>
<rect x="35.454" y="90.223" width=".52917" height="1.0583" fill="#060704" stroke-width=".021738"/>
<rect x="35.983" y="90.223" width="1.0583" height=".52917" fill="#060704" stroke-width=".021738"/>
<rect x="36.512" y="89.694" width="1.5875" height=".52917" fill="#060704" stroke-width=".026623"/>
<rect x="38.1" y="89.165" width="2.1167" height=".52917" fill="#060704" stroke-width=".030742"/>
<rect x="39.158" y="91.281" width="1.0583" height=".26458" fill="#060704" stroke-width=".015371"/>
<rect x="38.629" y="91.546" width=".52917" height=".26458" fill="#060704" stroke-width=".010869"/>
<rect x="38.629" y="91.81" width=".26458" height=".52916" fill="#060704" stroke-width=".010869"/>
<rect x="38.1" y="92.34" width=".52916" height="2.3812" fill="#060704" stroke-width=".032606"/>
<rect x="38.629" y="94.721" width=".52916" height="1.0583" fill="#060704" stroke-width=".021738"/>
<rect x="39.158" y="95.779" width=".52916" height="1.0583" fill="#060704" stroke-width=".021738"/>
<rect x="39.688" y="96.837" width=".52916" height=".52917" fill="#060704" stroke-width=".015371"/>
<rect x="39.158" y="97.367" width=".52916" height=".52917" fill="#060704" stroke-width=".015371"/>
<rect x="38.629" y="97.896" width=".52916" height="1.0583" fill="#060704" stroke-width=".021738"/>
<rect x="39.158" y="98.954" width=".52916" height=".52917" fill="#060704" stroke-width=".015371"/>
<rect x="39.687" y="99.483" width=".52916" height=".52917" fill="#060704" stroke-width=".015371"/>
<rect x="39.687" y="97.367" width=".52916" height="2.1167" fill="#e9f2f9" stroke-width=".030742"/>
<rect x="39.158" y="97.896" width=".52916" height="1.0583" fill="#e9f2f9" stroke-width=".021738"/>
<rect x="39.688" y="91.546" width=".52916" height="5.2917" fill="#e9f2f9" stroke-width=".048607"/>
<rect x="39.158" y="91.546" width=".52916" height="4.2333" fill="#e9f2f9" stroke-width=".043475"/>
<rect x="38.629" y="92.34" width=".52916" height="2.3813" fill="#e9f2f9" stroke-width=".032606"/>
<rect x="38.894" y="91.81" width=".26459" height=".52917" fill="#e9f2f9" stroke-width=".010869"/>
<rect x="32.288" y="104.77" width="7.9291" height=".79375" fill="#060704" stroke-width=".072871"/>
<rect x="33.867" y="101.34" width="2.1167" height=".78304" fill="#fcd50f" stroke-width=".037396"/>
<rect x="32.808" y="101.34" width=".52917" height=".78304" fill="#fcd50f" stroke-width=".018698"/>
<rect x="34.925" y="102.14" width=".52917" height=".25388" fill="#fcd50f" stroke-width=".010647"/>
<rect transform="scale(-1,1)" x="-48.683" y="101.34" width="1.0583" height="4.2333" fill="#060704" stroke-width=".061483"/>
<rect transform="scale(-1,1)" x="-47.096" y="102.13" width=".52917" height="2.6458" fill="#060704" stroke-width=".03437"/>
<rect transform="scale(-1,1)" x="-47.625" y="102.13" width=".52917" height="2.6458" fill="#7a4c0b" stroke-width=".03437"/>
<rect transform="scale(-1,1)" x="-46.567" y="102.13" width="1.0583" height="2.6458" fill="#7a4c0b" stroke-width=".048607"/>
<rect transform="scale(-1,1)" x="-44.979" y="102.13" width=".52917" height="2.6458" fill="#7a4c0b" stroke-width=".03437"/>
<rect transform="scale(-1,1)" x="-47.096" y="101.34" width=".52917" height=".79375" fill="#7a4c0b" stroke-width=".018825"/>
<rect transform="scale(-1,1)" x="-45.508" y="102.39" width=".52917" height="2.3813" fill="#d59323" stroke-width=".032606"/>
<rect transform="scale(-1,1)" x="-44.45" y="102.39" width="1.5875" height="2.3813" fill="#d59323" stroke-width=".056476"/>
<rect transform="scale(-1,1)" x="-42.333" y="102.39" width=".52917" height="2.3813" fill="#d59323" stroke-width=".032606"/>
<rect transform="scale(-1,1)" x="-42.862" y="102.13" width=".52917" height="2.6458" fill="#fcd50f" stroke-width=".03437"/>
<rect transform="scale(-1,1)" x="-41.804" y="102.13" width="1.0583" height="2.6458" fill="#fcd50f" stroke-width=".048607"/>
<rect transform="scale(-1,1)" x="-42.333" y="101.34" width=".52917" height="1.0583" fill="#fcd50f" stroke-width=".021738"/>
<rect transform="scale(-1,1)" x="-44.45" y="101.34" width="1.5875" height="1.0583" fill="#fcd50f" stroke-width=".037651"/>
<rect transform="scale(-1,1)" x="-40.746" y="101.34" width=".52917" height="3.4396" fill="#e9f2f9" stroke-width=".039188"/>
<rect transform="scale(-1,1)" x="-41.804" y="101.34" width="1.0583" height=".79375" fill="#e9f2f9" stroke-width=".026623"/>
<rect transform="scale(-1,1)" x="-42.862" y="101.34" width=".52917" height=".79375" fill="#e9f2f9" stroke-width=".018825"/>
<rect transform="scale(-1,1)" x="-48.683" y="100.54" width="8.4667" height=".79375" fill="#060704" stroke-width=".075301"/>
<rect transform="scale(-1,1)" x="-48.683" y="95.515" width=".52917" height="5.0271" fill="#060704" stroke-width=".047376"/>
<rect transform="scale(-1,1)" x="-48.154" y="94.456" width=".52917" height="1.3229" fill="#060704" stroke-width=".024303"/>
<rect transform="scale(-1,1)" x="-47.625" y="93.398" width=".52917" height="1.3229" fill="#060704" stroke-width=".024303"/>
<rect transform="scale(-1,1)" x="-47.096" y="92.34" width=".52917" height="1.3229" fill="#060704" stroke-width=".024303"/>
<rect transform="scale(-1,1)" x="-46.567" y="91.546" width=".52917" height="1.0583" fill="#060704" stroke-width=".021738"/>
<rect transform="scale(-1,1)" x="-46.037" y="91.017" width=".52917" height="1.0583" fill="#060704" stroke-width=".021738"/>
<rect transform="scale(-1,1)" x="-45.508" y="90.487" width=".52917" height="1.0583" fill="#060704" stroke-width=".021738"/>
<rect transform="scale(-1,1)" x="-44.979" y="90.223" width=".52917" height="1.0583" fill="#060704" stroke-width=".021738"/>
<rect transform="scale(-1,1)" x="-44.45" y="90.223" width="1.0583" height=".52917" fill="#060704" stroke-width=".021738"/>
<rect transform="scale(-1,1)" x="-43.921" y="89.694" width="1.5875" height=".52917" fill="#060704" stroke-width=".026623"/>
<rect transform="scale(-1,1)" x="-42.333" y="89.165" width="2.1167" height=".52917" fill="#060704" stroke-width=".030742"/>
<rect transform="scale(-1,1)" x="-41.275" y="91.281" width="1.0583" height=".26458" fill="#060704" stroke-width=".015371"/>
<rect transform="scale(-1,1)" x="-41.804" y="91.546" width=".52917" height=".26458" fill="#060704" stroke-width=".010869"/>
<rect transform="scale(-1,1)" x="-41.804" y="91.81" width=".26458" height=".52916" fill="#060704" stroke-width=".010869"/>
<rect transform="scale(-1,1)" x="-42.333" y="92.34" width=".52916" height="2.3812" fill="#060704" stroke-width=".032606"/>
<rect transform="scale(-1,1)" x="-41.804" y="94.721" width=".52916" height="1.0583" fill="#060704" stroke-width=".021738"/>
<rect transform="scale(-1,1)" x="-41.275" y="95.779" width=".52916" height="1.0583" fill="#060704" stroke-width=".021738"/>
<rect transform="scale(-1,1)" x="-40.746" y="96.837" width=".52916" height=".52917" fill="#060704" stroke-width=".015371"/>
<rect transform="scale(-1,1)" x="-41.275" y="97.367" width=".52916" height=".52917" fill="#060704" stroke-width=".015371"/>
<rect transform="scale(-1,1)" x="-41.804" y="97.896" width=".52916" height="1.0583" fill="#060704" stroke-width=".021738"/>
<rect transform="scale(-1,1)" x="-41.275" y="98.954" width=".52916" height=".52917" fill="#060704" stroke-width=".015371"/>
<rect transform="scale(-1,1)" x="-40.746" y="99.483" width=".52916" height=".52917" fill="#060704" stroke-width=".015371"/>
<rect transform="scale(-1,1)" x="-40.746" y="97.367" width=".52916" height="2.1167" fill="#e9f2f9" stroke-width=".030742"/>
<rect transform="scale(-1,1)" x="-41.275" y="97.896" width=".52916" height="1.0583" fill="#e9f2f9" stroke-width=".021738"/>
<rect transform="scale(-1,1)" x="-40.746" y="91.546" width=".52916" height="5.2917" fill="#e9f2f9" stroke-width=".048607"/>
<rect transform="scale(-1,1)" x="-41.275" y="91.546" width=".52916" height="4.2333" fill="#e9f2f9" stroke-width=".043475"/>
<rect transform="scale(-1,1)" x="-41.804" y="92.34" width=".52916" height="2.3813" fill="#e9f2f9" stroke-width=".032606"/>
<rect transform="scale(-1,1)" x="-41.54" y="91.81" width=".26459" height=".52917" fill="#e9f2f9" stroke-width=".010869"/>
<g transform="translate(-44.979 -68.262)" fill="#067806">
<rect x="83.079" y="157.96" width="2.1167" height=".52917" stroke-width=".030742"/>
<rect x="82.021" y="158.49" width="1.0583" height=".52917" stroke-width=".021738"/>
<rect x="80.963" y="159.01" width="1.0583" height=".52917" stroke-width=".021738"/>
<rect x="80.433" y="159.54" width=".52917" height=".52917" stroke-width=".015371"/>
<rect x="79.904" y="159.81" width=".52917" height=".52917" stroke-width=".015371"/>
<rect x="79.375" y="160.34" width=".79375" height=".52917" stroke-width=".018825"/>
<rect x="78.846" y="160.87" width=".52917" height="1.3229" stroke-width=".024303"/>
<rect x="78.317" y="161.92" width=".52917" height="1.0583" stroke-width=".021738"/>
<rect x="77.787" y="162.98" width=".52917" height="1.0583" stroke-width=".021738"/>
<rect x="77.258" y="164.04" width=".52917" height="4.7625" stroke-width=".046112"/>
<rect transform="scale(-1,1)" x="-87.312" y="157.96" width="2.1167" height=".52917" stroke-width=".030742"/>
<rect transform="scale(-1,1)" x="-88.371" y="158.49" width="1.0583" height=".52917" stroke-width=".021738"/>
<rect transform="scale(-1,1)" x="-89.429" y="159.01" width="1.0583" height=".52917" stroke-width=".021738"/>
<rect transform="scale(-1,1)" x="-89.958" y="159.54" width=".52917" height=".52917" stroke-width=".015371"/>
<rect transform="scale(-1,1)" x="-90.487" y="159.81" width=".52917" height=".52917" stroke-width=".015371"/>
<rect transform="scale(-1,1)" x="-91.017" y="160.34" width=".79375" height=".52917" stroke-width=".018825"/>
<rect transform="scale(-1,1)" x="-91.546" y="160.87" width=".52917" height="1.3229" stroke-width=".024303"/>
<rect transform="scale(-1,1)" x="-92.075" y="161.92" width=".52917" height="1.0583" stroke-width=".021738"/>
<rect transform="scale(-1,1)" x="-92.604" y="162.98" width=".52917" height="1.0583" stroke-width=".021738"/>
<rect transform="scale(-1,1)" x="-93.133" y="164.04" width=".52917" height="4.7625" stroke-width=".046112"/>
</g>
<rect transform="scale(-1,1)" x="-48.146" y="104.77" width="7.9291" height=".79375" fill="#060704" stroke-width=".072871"/>
<rect transform="scale(-1,1)" x="-46.567" y="101.34" width="2.1167" height=".78304" fill="#fcd50f" stroke-width=".037396"/>
<rect transform="scale(-1,1)" x="-47.625" y="101.34" width=".52917" height=".78304" fill="#fcd50f" stroke-width=".018698"/>
<rect transform="scale(-1,1)" x="-45.508" y="102.14" width=".52917" height=".25388" fill="#fcd50f" stroke-width=".010647"/>
</g>
</g>
</svg>
