<svg xmlns="http://www.w3.org/2000/svg" viewBox="0 0 16.933 16.404"><path fill="#7675c3" d="M.526 5.558h15.346v5.821H.526zM2.113 2.378h12.7v3.175h-12.7z"/><path fill="#7675c3" d="M4.23 1.058h8.467v1.323H4.23z"/><path fill="#060704" d="M-.003 12.168h1.058v4.233H-.003zM1.584 12.968h.529v2.646h-.529z"/><path fill="#7a4c0b" d="M1.055 12.968h.529v2.646h-.529zM2.113 12.968h1.058v2.646H2.113zM3.701 12.968h.529v2.646h-.529zM1.584 12.168h.529v.794h-.529z"/><path fill="#d59323" d="M3.172 13.228h.529v2.381h-.529zM4.23 13.228h1.587v2.381H4.23zM6.347 13.228h.529v2.381h-.529z"/><path fill="#fcd50f" d="M5.818 12.968h.529v2.646h-.529zM6.876 12.968h1.058v2.646H6.876zM6.347 12.168h.529v1.058h-.529zM4.23 12.168h1.587v1.058H4.23z"/><path fill="#e9f2f9" d="M7.934 12.168h.529v3.44h-.529zM6.876 12.168h1.058v.794H6.876zM5.818 12.168h.529v.794h-.529z"/><path fill="#060704" d="M-.003 11.378h8.467v.794H-.003zM-.003 6.348h.529v5.027h-.529zM.526 5.288h.529v1.323H.526z"/><path fill="#060704" d="M1.055 4.238h.529v1.323h-.529zM1.584 3.178h.529v1.323h-.529zM2.113 2.378h.529v1.058h-.529zM2.643 1.858h.529v1.058h-.529zM3.172 1.328h.529v1.058h-.529zM3.701 1.058h.529v1.058h-.529zM4.23 1.058h1.058v.529H4.23zM4.759.528h1.587v.529H4.759zM6.347-.002h2.117v.529H6.347zM7.405 2.118h1.058v.265H7.405zM6.876 2.378h.529v.265h-.529zM6.876 2.648h.265v.529h-.265zM6.347 3.178h.529v2.381h-.529zM6.876 5.558h.529v1.058h-.529zM7.405 6.618h.529v1.058h-.529zM7.934 7.678h.529v.529h-.529zM7.405 8.198h.529v.529h-.529zM6.876 8.728h.529v1.058h-.529zM7.405 9.788h.529v.529h-.529zM7.934 10.318h.529v.529h-.529z"/><path fill="#e9f2f9" d="M7.934 8.198h.529v2.117h-.529zM7.405 8.728h.529v1.058h-.529zM7.934 2.378h.529V7.67h-.529zM7.405 2.378h.529v4.233h-.529zM6.876 3.178h.529v2.381h-.529zM7.14 2.648h.265v.529H7.14z"/><path fill="#060704" d="M.534 15.608h7.929v.794H.534z"/><path fill="#fcd50f" d="M2.113 12.168H4.23v.783H2.113zM1.055 12.168h.529v.783h-.529zM3.172 12.978h.529v.254h-.529z"/><path fill="#060704" d="M16.93 12.168h-1.058v4.233h1.058zM15.343 12.968h-.529v2.646h.529z"/><path fill="#7a4c0b" d="M15.872 12.968h-.529v2.646h.529zM14.813 12.968h-1.058v2.646h1.058zM13.226 12.968h-.529v2.646h.529zM15.343 12.168h-.529v.794h.529z"/><path fill="#d59323" d="M13.755 13.228h-.529v2.381h.529zM12.697 13.228H11.11v2.381h1.587zM10.58 13.228h-.529v2.381h.529z"/><path fill="#fcd50f" d="M11.109 12.968h-.529v2.646h.529zM10.051 12.968H8.993v2.646h1.058zM10.58 12.168h-.529v1.058h.529zM12.697 12.168H11.11v1.058h1.587z"/><path fill="#e9f2f9" d="M8.992 12.168h-.529v3.44h.529zM10.051 12.168H8.993v.794h1.058zM11.109 12.168h-.529v.794h.529z"/><path fill="#060704" d="M16.93 11.378H8.463v.794h8.467zM16.93 6.348h-.529v5.027h.529zM16.401 5.288h-.529v1.323h.529zM15.872 4.238h-.529v1.323h.529zM15.343 3.178h-.529v1.323h.529zM14.813 2.378h-.529v1.058h.529zM14.284 1.858h-.529v1.058h.529zM13.755 1.328h-.529v1.058h.529zM13.226 1.058h-.529v1.058h.529zM12.697 1.058h-1.058v.529h1.058zM12.168.528h-1.587v.529h1.587zM10.58-.002H8.463v.529h2.117zM9.522 2.118H8.464v.265h1.058zM10.051 2.378h-.529v.265h.529zM10.051 2.648h-.265v.529h.265zM10.58 3.178h-.529v2.381h.529zM10.051 5.558h-.529v1.058h.529zM9.522 6.618h-.529v1.058h.529zM8.992 7.678h-.529v.529h.529zM9.522 8.198h-.529v.529h.529zM10.051 8.728h-.529v1.058h.529zM9.522 9.788h-.529v.529h.529zM8.992 10.318h-.529v.529h.529z"/><path fill="#e9f2f9" d="M8.992 8.198h-.529v2.117h.529zM9.522 8.728h-.529v1.058h.529zM8.992 2.378h-.529V7.67h.529zM9.522 2.378h-.529v4.233h.529zM10.051 3.178h-.529v2.381h.529z"/><path fill="#e9f2f9" d="M9.786 2.648h-.265v.529h.265z"/><g fill="#414570"><path d="M6.347.526h2.117v.529H6.347zM5.289 1.056h1.058v.529H5.289zM4.23 1.586h1.058v.529H4.23zM3.701 2.116h.529v.529h-.529zM3.172 2.386h.529v.529h-.529zM2.643 2.916h.794v.529h-.794zM2.114 3.436h.529v1.323h-.529zM1.584 4.496h.529v1.058h-.529zM1.055 5.556h.529v1.058h-.529zM.526 6.616h.529v4.763H.526z"/><path d="M10.58.526H8.463v.529h2.117zM11.638 1.056H10.58v.529h1.058zM12.697 1.586h-1.058v.529h1.058zM13.226 2.116h-.529v.529h.529zM13.755 2.386h-.529v.529h.529zM14.284 2.916h-.794v.529h.794zM14.813 3.436h-.529v1.323h.529zM15.343 4.496h-.529v1.058h.529zM15.872 5.556h-.529v1.058h.529zM16.401 6.616h-.529v4.763h.529z"/></g><path fill="#060704" d="M16.392 15.608H8.463v.794h7.929z"/><path fill="#fcd50f" d="M14.813 12.168h-2.117v.783h2.117zM15.872 12.168h-.529v.783h.529zM13.755 12.978h-.529v.254h.529z"/></svg>