<?xml version="1.0" encoding="UTF-8"?>
<svg version="1.1" viewBox="0 0 16.933 16.404" xmlns="http://www.w3.org/2000/svg">
<g transform="translate(-105 -105.06)">
<g transform="translate(75.102 67.754)">
<rect x="30.427" y="42.862" width="15.346" height="5.8208" fill="#f7f703" stroke-width=".041981"/>
<rect x="32.015" y="39.688" width="12.7" height="3.175" fill="#f7f703" stroke-width=".028206"/>
<rect x="34.131" y="38.365" width="8.4667" height="1.3229" fill="#f7f703" stroke-width=".014866"/>
<rect x="29.898" y="49.477" width="1.0583" height="4.2333" fill="#060704" stroke-width=".061483"/>
<rect x="31.485" y="50.271" width=".52917" height="2.6458" fill="#060704" stroke-width=".03437"/>
<rect x="30.956" y="50.271" width=".52917" height="2.6458" fill="#7a4c0b" stroke-width=".03437"/>
<rect x="32.015" y="50.271" width="1.0583" height="2.6458" fill="#7a4c0b" stroke-width=".048607"/>
<rect x="33.602" y="50.271" width=".52917" height="2.6458" fill="#7a4c0b" stroke-width=".03437"/>
<rect x="31.485" y="49.477" width=".52917" height=".79375" fill="#7a4c0b" stroke-width=".018825"/>
<rect x="33.073" y="50.535" width=".52917" height="2.3813" fill="#d59323" stroke-width=".032606"/>
<rect x="34.131" y="50.535" width="1.5875" height="2.3813" fill="#d59323" stroke-width=".056476"/>
<rect x="36.248" y="50.535" width=".52917" height="2.3813" fill="#d59323" stroke-width=".032606"/>
<rect x="35.719" y="50.271" width=".52917" height="2.6458" fill="#fcd50f" stroke-width=".03437"/>
<rect x="36.777" y="50.271" width="1.0583" height="2.6458" fill="#fcd50f" stroke-width=".048607"/>
<rect x="36.248" y="49.477" width=".52917" height="1.0583" fill="#fcd50f" stroke-width=".021738"/>
<rect x="34.131" y="49.477" width="1.5875" height="1.0583" fill="#fcd50f" stroke-width=".037651"/>
<rect x="37.835" y="49.477" width=".52917" height="3.4396" fill="#e9f2f9" stroke-width=".039188"/>
<rect x="36.777" y="49.477" width="1.0583" height=".79375" fill="#e9f2f9" stroke-width=".026623"/>
<rect x="35.719" y="49.477" width=".52917" height=".79375" fill="#e9f2f9" stroke-width=".018825"/>
<rect x="29.898" y="48.683" width="8.4667" height=".79375" fill="#060704" stroke-width=".075301"/>
<rect x="29.898" y="43.656" width=".52917" height="5.0271" fill="#060704" stroke-width=".047376"/>
<rect x="30.427" y="42.598" width=".52917" height="1.3229" fill="#060704" stroke-width=".024303"/>
<rect x="30.956" y="41.54" width=".52917" height="1.3229" fill="#060704" stroke-width=".024303"/>
<rect x="31.485" y="40.481" width=".52917" height="1.3229" fill="#060704" stroke-width=".024303"/>
<rect x="32.015" y="39.688" width=".52917" height="1.0583" fill="#060704" stroke-width=".021738"/>
<rect x="32.544" y="39.158" width=".52917" height="1.0583" fill="#060704" stroke-width=".021738"/>
<rect x="33.073" y="38.629" width=".52917" height="1.0583" fill="#060704" stroke-width=".021738"/>
<rect x="33.602" y="38.365" width=".52917" height="1.0583" fill="#060704" stroke-width=".021738"/>
<rect x="34.131" y="38.365" width="1.0583" height=".52917" fill="#060704" stroke-width=".021738"/>
<rect x="34.66" y="37.835" width="1.5875" height=".52917" fill="#060704" stroke-width=".026623"/>
<rect x="36.248" y="37.306" width="2.1167" height=".52917" fill="#060704" stroke-width=".030742"/>
<rect x="37.306" y="39.423" width="1.0583" height=".26458" fill="#060704" stroke-width=".015371"/>
<rect x="36.777" y="39.688" width=".52917" height=".26458" fill="#060704" stroke-width=".010869"/>
<rect x="36.777" y="39.952" width=".26458" height=".52916" fill="#060704" stroke-width=".010869"/>
<rect x="36.248" y="40.481" width=".52916" height="2.3812" fill="#060704" stroke-width=".032606"/>
<rect x="36.777" y="42.862" width=".52916" height="1.0583" fill="#060704" stroke-width=".021738"/>
<rect x="37.306" y="43.921" width=".52916" height="1.0583" fill="#060704" stroke-width=".021738"/>
<rect x="37.835" y="44.979" width=".52916" height=".52917" fill="#060704" stroke-width=".015371"/>
<rect x="37.306" y="45.508" width=".52916" height=".52917" fill="#060704" stroke-width=".015371"/>
<rect x="36.777" y="46.037" width=".52916" height="1.0583" fill="#060704" stroke-width=".021738"/>
<rect x="37.306" y="47.096" width=".52916" height=".52917" fill="#060704" stroke-width=".015371"/>
<rect x="37.835" y="47.625" width=".52916" height=".52917" fill="#060704" stroke-width=".015371"/>
<rect x="37.835" y="45.508" width=".52916" height="2.1167" fill="#e9f2f9" stroke-width=".030742"/>
<rect x="37.306" y="46.037" width=".52916" height="1.0583" fill="#e9f2f9" stroke-width=".021738"/>
<rect x="37.835" y="39.688" width=".52916" height="5.2917" fill="#e9f2f9" stroke-width=".048607"/>
<rect x="37.306" y="39.688" width=".52916" height="4.2333" fill="#e9f2f9" stroke-width=".043475"/>
<rect x="36.777" y="40.481" width=".52916" height="2.3813" fill="#e9f2f9" stroke-width=".032606"/>
<rect x="37.042" y="39.952" width=".26459" height=".52917" fill="#e9f2f9" stroke-width=".010869"/>
<rect x="30.435" y="52.917" width="7.9291" height=".79375" fill="#060704" stroke-width=".072871"/>
<rect x="32.015" y="49.477" width="2.1167" height=".78304" fill="#fcd50f" stroke-width=".037396"/>
<rect x="30.956" y="49.477" width=".52917" height=".78304" fill="#fcd50f" stroke-width=".018698"/>
<rect x="33.073" y="50.282" width=".52917" height=".25388" fill="#fcd50f" stroke-width=".010647"/>
<rect transform="scale(-1,1)" x="-46.831" y="49.477" width="1.0583" height="4.2333" fill="#060704" stroke-width=".061483"/>
<rect transform="scale(-1,1)" x="-45.244" y="50.271" width=".52917" height="2.6458" fill="#060704" stroke-width=".03437"/>
<rect transform="scale(-1,1)" x="-45.773" y="50.271" width=".52917" height="2.6458" fill="#7a4c0b" stroke-width=".03437"/>
<rect transform="scale(-1,1)" x="-44.715" y="50.271" width="1.0583" height="2.6458" fill="#7a4c0b" stroke-width=".048607"/>
<rect transform="scale(-1,1)" x="-43.127" y="50.271" width=".52917" height="2.6458" fill="#7a4c0b" stroke-width=".03437"/>
<rect transform="scale(-1,1)" x="-45.244" y="49.477" width=".52917" height=".79375" fill="#7a4c0b" stroke-width=".018825"/>
<rect transform="scale(-1,1)" x="-43.656" y="50.535" width=".52917" height="2.3813" fill="#d59323" stroke-width=".032606"/>
<rect transform="scale(-1,1)" x="-42.598" y="50.535" width="1.5875" height="2.3813" fill="#d59323" stroke-width=".056476"/>
<rect transform="scale(-1,1)" x="-40.481" y="50.535" width=".52917" height="2.3813" fill="#d59323" stroke-width=".032606"/>
<rect transform="scale(-1,1)" x="-41.01" y="50.271" width=".52917" height="2.6458" fill="#fcd50f" stroke-width=".03437"/>
<rect transform="scale(-1,1)" x="-39.952" y="50.271" width="1.0583" height="2.6458" fill="#fcd50f" stroke-width=".048607"/>
<rect transform="scale(-1,1)" x="-40.481" y="49.477" width=".52917" height="1.0583" fill="#fcd50f" stroke-width=".021738"/>
<rect transform="scale(-1,1)" x="-42.598" y="49.477" width="1.5875" height="1.0583" fill="#fcd50f" stroke-width=".037651"/>
<rect transform="scale(-1,1)" x="-38.894" y="49.477" width=".52917" height="3.4396" fill="#e9f2f9" stroke-width=".039188"/>
<rect transform="scale(-1,1)" x="-39.952" y="49.477" width="1.0583" height=".79375" fill="#e9f2f9" stroke-width=".026623"/>
<rect transform="scale(-1,1)" x="-41.01" y="49.477" width=".52917" height=".79375" fill="#e9f2f9" stroke-width=".018825"/>
<rect transform="scale(-1,1)" x="-46.831" y="48.683" width="8.4667" height=".79375" fill="#060704" stroke-width=".075301"/>
<rect transform="scale(-1,1)" x="-46.831" y="43.656" width=".52917" height="5.0271" fill="#060704" stroke-width=".047376"/>
<rect transform="scale(-1,1)" x="-46.302" y="42.598" width=".52917" height="1.3229" fill="#060704" stroke-width=".024303"/>
<rect transform="scale(-1,1)" x="-45.773" y="41.54" width=".52917" height="1.3229" fill="#060704" stroke-width=".024303"/>
<rect transform="scale(-1,1)" x="-45.244" y="40.481" width=".52917" height="1.3229" fill="#060704" stroke-width=".024303"/>
<rect transform="scale(-1,1)" x="-44.715" y="39.688" width=".52917" height="1.0583" fill="#060704" stroke-width=".021738"/>
<rect transform="scale(-1,1)" x="-44.185" y="39.158" width=".52917" height="1.0583" fill="#060704" stroke-width=".021738"/>
<rect transform="scale(-1,1)" x="-43.656" y="38.629" width=".52917" height="1.0583" fill="#060704" stroke-width=".021738"/>
<rect transform="scale(-1,1)" x="-43.127" y="38.365" width=".52917" height="1.0583" fill="#060704" stroke-width=".021738"/>
<rect transform="scale(-1,1)" x="-42.598" y="38.365" width="1.0583" height=".52917" fill="#060704" stroke-width=".021738"/>
<rect transform="scale(-1,1)" x="-42.069" y="37.835" width="1.5875" height=".52917" fill="#060704" stroke-width=".026623"/>
<rect transform="scale(-1,1)" x="-40.481" y="37.306" width="2.1167" height=".52917" fill="#060704" stroke-width=".030742"/>
<rect transform="scale(-1,1)" x="-39.423" y="39.423" width="1.0583" height=".26458" fill="#060704" stroke-width=".015371"/>
<rect transform="scale(-1,1)" x="-39.952" y="39.688" width=".52917" height=".26458" fill="#060704" stroke-width=".010869"/>
<rect transform="scale(-1,1)" x="-39.952" y="39.952" width=".26458" height=".52916" fill="#060704" stroke-width=".010869"/>
<rect transform="scale(-1,1)" x="-40.481" y="40.481" width=".52916" height="2.3812" fill="#060704" stroke-width=".032606"/>
<rect transform="scale(-1,1)" x="-39.952" y="42.862" width=".52916" height="1.0583" fill="#060704" stroke-width=".021738"/>
<rect transform="scale(-1,1)" x="-39.423" y="43.921" width=".52916" height="1.0583" fill="#060704" stroke-width=".021738"/>
<rect transform="scale(-1,1)" x="-38.894" y="44.979" width=".52916" height=".52917" fill="#060704" stroke-width=".015371"/>
<rect transform="scale(-1,1)" x="-39.423" y="45.508" width=".52916" height=".52917" fill="#060704" stroke-width=".015371"/>
<rect transform="scale(-1,1)" x="-39.952" y="46.037" width=".52916" height="1.0583" fill="#060704" stroke-width=".021738"/>
<rect transform="scale(-1,1)" x="-39.423" y="47.096" width=".52916" height=".52917" fill="#060704" stroke-width=".015371"/>
<rect transform="scale(-1,1)" x="-38.894" y="47.625" width=".52916" height=".52917" fill="#060704" stroke-width=".015371"/>
<rect transform="scale(-1,1)" x="-38.894" y="45.508" width=".52916" height="2.1167" fill="#e9f2f9" stroke-width=".030742"/>
<rect transform="scale(-1,1)" x="-39.423" y="46.037" width=".52916" height="1.0583" fill="#e9f2f9" stroke-width=".021738"/>
<rect transform="scale(-1,1)" x="-38.894" y="39.688" width=".52916" height="5.2917" fill="#e9f2f9" stroke-width=".048607"/>
<rect transform="scale(-1,1)" x="-39.423" y="39.688" width=".52916" height="4.2333" fill="#e9f2f9" stroke-width=".043475"/>
<rect transform="scale(-1,1)" x="-39.952" y="40.481" width=".52916" height="2.3813" fill="#e9f2f9" stroke-width=".032606"/>
<rect transform="scale(-1,1)" x="-39.687" y="39.952" width=".26459" height=".52917" fill="#e9f2f9" stroke-width=".010869"/>
<g transform="translate(-44.979 -68.263)" fill="#e05e0c">
<rect x="81.227" y="106.1" width="2.1167" height=".52917" stroke-width=".030742"/>
<rect x="80.169" y="106.63" width="1.0583" height=".52917" stroke-width=".021738"/>
<rect x="79.11" y="107.16" width="1.0583" height=".52917" stroke-width=".021738"/>
<rect x="78.581" y="107.69" width=".52917" height=".52917" stroke-width=".015371"/>
<rect x="78.052" y="107.95" width=".52917" height=".52917" stroke-width=".015371"/>
<rect x="77.523" y="108.48" width=".79375" height=".52917" stroke-width=".018825"/>
<rect x="76.994" y="109.01" width=".52917" height="1.3229" stroke-width=".024303"/>
<rect x="76.465" y="110.07" width=".52917" height="1.0583" stroke-width=".021738"/>
<rect x="75.935" y="111.12" width=".52917" height="1.0583" stroke-width=".021738"/>
<rect x="75.406" y="112.18" width=".52917" height="4.7625" stroke-width=".046112"/>
<rect transform="scale(-1,1)" x="-85.46" y="106.1" width="2.1167" height=".52917" stroke-width=".030742"/>
<rect transform="scale(-1,1)" x="-86.519" y="106.63" width="1.0583" height=".52917" stroke-width=".021738"/>
<rect transform="scale(-1,1)" x="-87.577" y="107.16" width="1.0583" height=".52917" stroke-width=".021738"/>
<rect transform="scale(-1,1)" x="-88.106" y="107.69" width=".52917" height=".52917" stroke-width=".015371"/>
<rect transform="scale(-1,1)" x="-88.635" y="107.95" width=".52917" height=".52917" stroke-width=".015371"/>
<rect transform="scale(-1,1)" x="-89.165" y="108.48" width=".79375" height=".52917" stroke-width=".018825"/>
<rect transform="scale(-1,1)" x="-89.694" y="109.01" width=".52917" height="1.3229" stroke-width=".024303"/>
<rect transform="scale(-1,1)" x="-90.223" y="110.07" width=".52917" height="1.0583" stroke-width=".021738"/>
<rect transform="scale(-1,1)" x="-90.752" y="111.12" width=".52917" height="1.0583" stroke-width=".021738"/>
<rect transform="scale(-1,1)" x="-91.281" y="112.18" width=".52917" height="4.7625" stroke-width=".046112"/>
</g>
<rect transform="scale(-1,1)" x="-46.294" y="52.917" width="7.9291" height=".79375" fill="#060704" stroke-width=".072871"/>
<rect transform="scale(-1,1)" x="-44.715" y="49.477" width="2.1167" height=".78304" fill="#fcd50f" stroke-width=".037396"/>
<rect transform="scale(-1,1)" x="-45.773" y="49.477" width=".52917" height=".78304" fill="#fcd50f" stroke-width=".018698"/>
<rect transform="scale(-1,1)" x="-43.656" y="50.282" width=".52917" height=".25388" fill="#fcd50f" stroke-width=".010647"/>
</g>
</g>
</svg>
