<?xml version="1.0" encoding="UTF-8"?>
<svg version="1.1" viewBox="0 0 16.933 16.404" xmlns="http://www.w3.org/2000/svg">
<g transform="translate(-326.29 -212.03)">
<g transform="translate(292.42 96.408)">
<rect x="34.396" y="121.18" width="15.346" height="5.8208" fill="#7675c3" stroke-width=".041981"/>
<rect x="35.983" y="118" width="12.7" height="3.175" fill="#7675c3" stroke-width=".028206"/>
<rect x="38.1" y="116.68" width="8.4667" height="1.3229" fill="#7675c3" stroke-width=".014866"/>
<rect x="33.867" y="127.79" width="1.0583" height="4.2333" fill="#060704" stroke-width=".061483"/>
<rect x="35.454" y="128.59" width=".52917" height="2.6458" fill="#060704" stroke-width=".03437"/>
<rect x="34.925" y="128.59" width=".52917" height="2.6458" fill="#7a4c0b" stroke-width=".03437"/>
<rect x="35.983" y="128.59" width="1.0583" height="2.6458" fill="#7a4c0b" stroke-width=".048607"/>
<rect x="37.571" y="128.59" width=".52917" height="2.6458" fill="#7a4c0b" stroke-width=".03437"/>
<rect x="35.454" y="127.79" width=".52917" height=".79375" fill="#7a4c0b" stroke-width=".018825"/>
<rect x="37.042" y="128.85" width=".52917" height="2.3813" fill="#d59323" stroke-width=".032606"/>
<rect x="38.1" y="128.85" width="1.5875" height="2.3813" fill="#d59323" stroke-width=".056476"/>
<rect x="40.217" y="128.85" width=".52917" height="2.3813" fill="#d59323" stroke-width=".032606"/>
<rect x="39.688" y="128.59" width=".52917" height="2.6458" fill="#fcd50f" stroke-width=".03437"/>
<rect x="40.746" y="128.59" width="1.0583" height="2.6458" fill="#fcd50f" stroke-width=".048607"/>
<rect x="40.217" y="127.79" width=".52917" height="1.0583" fill="#fcd50f" stroke-width=".021738"/>
<rect x="38.1" y="127.79" width="1.5875" height="1.0583" fill="#fcd50f" stroke-width=".037651"/>
<rect x="41.804" y="127.79" width=".52917" height="3.4396" fill="#e9f2f9" stroke-width=".039188"/>
<rect x="40.746" y="127.79" width="1.0583" height=".79375" fill="#e9f2f9" stroke-width=".026623"/>
<rect x="39.688" y="127.79" width=".52917" height=".79375" fill="#e9f2f9" stroke-width=".018825"/>
<rect x="33.867" y="127" width="8.4667" height=".79375" fill="#060704" stroke-width=".075301"/>
<rect x="33.867" y="121.97" width=".52917" height="5.0271" fill="#060704" stroke-width=".047376"/>
<rect x="34.396" y="120.91" width=".52917" height="1.3229" fill="#060704" stroke-width=".024303"/>
<rect x="34.925" y="119.86" width=".52917" height="1.3229" fill="#060704" stroke-width=".024303"/>
<rect x="35.454" y="118.8" width=".52917" height="1.3229" fill="#060704" stroke-width=".024303"/>
<rect x="35.983" y="118" width=".52917" height="1.0583" fill="#060704" stroke-width=".021738"/>
<rect x="36.513" y="117.48" width=".52917" height="1.0583" fill="#060704" stroke-width=".021738"/>
<rect x="37.042" y="116.95" width=".52917" height="1.0583" fill="#060704" stroke-width=".021738"/>
<rect x="37.571" y="116.68" width=".52917" height="1.0583" fill="#060704" stroke-width=".021738"/>
<rect x="38.1" y="116.68" width="1.0583" height=".52917" fill="#060704" stroke-width=".021738"/>
<rect x="38.629" y="116.15" width="1.5875" height=".52917" fill="#060704" stroke-width=".026623"/>
<rect x="40.217" y="115.62" width="2.1167" height=".52917" fill="#060704" stroke-width=".030742"/>
<rect x="41.275" y="117.74" width="1.0583" height=".26458" fill="#060704" stroke-width=".015371"/>
<rect x="40.746" y="118" width=".52917" height=".26458" fill="#060704" stroke-width=".010869"/>
<rect x="40.746" y="118.27" width=".26458" height=".52916" fill="#060704" stroke-width=".010869"/>
<rect x="40.217" y="118.8" width=".52916" height="2.3812" fill="#060704" stroke-width=".032606"/>
<rect x="40.746" y="121.18" width=".52916" height="1.0583" fill="#060704" stroke-width=".021738"/>
<rect x="41.275" y="122.24" width=".52916" height="1.0583" fill="#060704" stroke-width=".021738"/>
<rect x="41.804" y="123.3" width=".52916" height=".52917" fill="#060704" stroke-width=".015371"/>
<rect x="41.275" y="123.82" width=".52916" height=".52917" fill="#060704" stroke-width=".015371"/>
<rect x="40.746" y="124.35" width=".52916" height="1.0583" fill="#060704" stroke-width=".021738"/>
<rect x="41.275" y="125.41" width=".52916" height=".52917" fill="#060704" stroke-width=".015371"/>
<rect x="41.804" y="125.94" width=".52916" height=".52917" fill="#060704" stroke-width=".015371"/>
<rect x="41.804" y="123.82" width=".52916" height="2.1167" fill="#e9f2f9" stroke-width=".030742"/>
<rect x="41.275" y="124.35" width=".52916" height="1.0583" fill="#e9f2f9" stroke-width=".021738"/>
<rect x="41.804" y="118" width=".52916" height="5.2917" fill="#e9f2f9" stroke-width=".048607"/>
<rect x="41.275" y="118" width=".52916" height="4.2333" fill="#e9f2f9" stroke-width=".043475"/>
<rect x="40.746" y="118.8" width=".52916" height="2.3813" fill="#e9f2f9" stroke-width=".032606"/>
<rect x="41.01" y="118.27" width=".26459" height=".52917" fill="#e9f2f9" stroke-width=".010869"/>
<rect x="34.404" y="131.23" width="7.9291" height=".79375" fill="#060704" stroke-width=".072871"/>
<rect x="35.983" y="127.79" width="2.1167" height=".78304" fill="#fcd50f" stroke-width=".037396"/>
<rect x="34.925" y="127.79" width=".52917" height=".78304" fill="#fcd50f" stroke-width=".018698"/>
<rect x="37.042" y="128.6" width=".52917" height=".25388" fill="#fcd50f" stroke-width=".010647"/>
<rect transform="scale(-1,1)" x="-50.8" y="127.79" width="1.0583" height="4.2333" fill="#060704" stroke-width=".061483"/>
<rect transform="scale(-1,1)" x="-49.213" y="128.59" width=".52917" height="2.6458" fill="#060704" stroke-width=".03437"/>
<rect transform="scale(-1,1)" x="-49.742" y="128.59" width=".52917" height="2.6458" fill="#7a4c0b" stroke-width=".03437"/>
<rect transform="scale(-1,1)" x="-48.683" y="128.59" width="1.0583" height="2.6458" fill="#7a4c0b" stroke-width=".048607"/>
<rect transform="scale(-1,1)" x="-47.096" y="128.59" width=".52917" height="2.6458" fill="#7a4c0b" stroke-width=".03437"/>
<rect transform="scale(-1,1)" x="-49.213" y="127.79" width=".52917" height=".79375" fill="#7a4c0b" stroke-width=".018825"/>
<rect transform="scale(-1,1)" x="-47.625" y="128.85" width=".52917" height="2.3813" fill="#d59323" stroke-width=".032606"/>
<rect transform="scale(-1,1)" x="-46.567" y="128.85" width="1.5875" height="2.3813" fill="#d59323" stroke-width=".056476"/>
<rect transform="scale(-1,1)" x="-44.45" y="128.85" width=".52917" height="2.3813" fill="#d59323" stroke-width=".032606"/>
<rect transform="scale(-1,1)" x="-44.979" y="128.59" width=".52917" height="2.6458" fill="#fcd50f" stroke-width=".03437"/>
<rect transform="scale(-1,1)" x="-43.921" y="128.59" width="1.0583" height="2.6458" fill="#fcd50f" stroke-width=".048607"/>
<rect transform="scale(-1,1)" x="-44.45" y="127.79" width=".52917" height="1.0583" fill="#fcd50f" stroke-width=".021738"/>
<rect transform="scale(-1,1)" x="-46.567" y="127.79" width="1.5875" height="1.0583" fill="#fcd50f" stroke-width=".037651"/>
<rect transform="scale(-1,1)" x="-42.862" y="127.79" width=".52917" height="3.4396" fill="#e9f2f9" stroke-width=".039188"/>
<rect transform="scale(-1,1)" x="-43.921" y="127.79" width="1.0583" height=".79375" fill="#e9f2f9" stroke-width=".026623"/>
<rect transform="scale(-1,1)" x="-44.979" y="127.79" width=".52917" height=".79375" fill="#e9f2f9" stroke-width=".018825"/>
<rect transform="scale(-1,1)" x="-50.8" y="127" width="8.4667" height=".79375" fill="#060704" stroke-width=".075301"/>
<rect transform="scale(-1,1)" x="-50.8" y="121.97" width=".52917" height="5.0271" fill="#060704" stroke-width=".047376"/>
<rect transform="scale(-1,1)" x="-50.271" y="120.91" width=".52917" height="1.3229" fill="#060704" stroke-width=".024303"/>
<rect transform="scale(-1,1)" x="-49.742" y="119.86" width=".52917" height="1.3229" fill="#060704" stroke-width=".024303"/>
<rect transform="scale(-1,1)" x="-49.213" y="118.8" width=".52917" height="1.3229" fill="#060704" stroke-width=".024303"/>
<rect transform="scale(-1,1)" x="-48.683" y="118" width=".52917" height="1.0583" fill="#060704" stroke-width=".021738"/>
<rect transform="scale(-1,1)" x="-48.154" y="117.48" width=".52917" height="1.0583" fill="#060704" stroke-width=".021738"/>
<rect transform="scale(-1,1)" x="-47.625" y="116.95" width=".52917" height="1.0583" fill="#060704" stroke-width=".021738"/>
<rect transform="scale(-1,1)" x="-47.096" y="116.68" width=".52917" height="1.0583" fill="#060704" stroke-width=".021738"/>
<rect transform="scale(-1,1)" x="-46.567" y="116.68" width="1.0583" height=".52917" fill="#060704" stroke-width=".021738"/>
<rect transform="scale(-1,1)" x="-46.038" y="116.15" width="1.5875" height=".52917" fill="#060704" stroke-width=".026623"/>
<rect transform="scale(-1,1)" x="-44.45" y="115.62" width="2.1167" height=".52917" fill="#060704" stroke-width=".030742"/>
<rect transform="scale(-1,1)" x="-43.392" y="117.74" width="1.0583" height=".26458" fill="#060704" stroke-width=".015371"/>
<rect transform="scale(-1,1)" x="-43.921" y="118" width=".52917" height=".26458" fill="#060704" stroke-width=".010869"/>
<rect transform="scale(-1,1)" x="-43.921" y="118.27" width=".26458" height=".52916" fill="#060704" stroke-width=".010869"/>
<rect transform="scale(-1,1)" x="-44.45" y="118.8" width=".52916" height="2.3812" fill="#060704" stroke-width=".032606"/>
<rect transform="scale(-1,1)" x="-43.921" y="121.18" width=".52916" height="1.0583" fill="#060704" stroke-width=".021738"/>
<rect transform="scale(-1,1)" x="-43.392" y="122.24" width=".52916" height="1.0583" fill="#060704" stroke-width=".021738"/>
<rect transform="scale(-1,1)" x="-42.862" y="123.3" width=".52916" height=".52917" fill="#060704" stroke-width=".015371"/>
<rect transform="scale(-1,1)" x="-43.392" y="123.82" width=".52916" height=".52917" fill="#060704" stroke-width=".015371"/>
<rect transform="scale(-1,1)" x="-43.921" y="124.35" width=".52916" height="1.0583" fill="#060704" stroke-width=".021738"/>
<rect transform="scale(-1,1)" x="-43.392" y="125.41" width=".52916" height=".52917" fill="#060704" stroke-width=".015371"/>
<rect transform="scale(-1,1)" x="-42.862" y="125.94" width=".52916" height=".52917" fill="#060704" stroke-width=".015371"/>
<rect transform="scale(-1,1)" x="-42.862" y="123.82" width=".52916" height="2.1167" fill="#e9f2f9" stroke-width=".030742"/>
<rect transform="scale(-1,1)" x="-43.392" y="124.35" width=".52916" height="1.0583" fill="#e9f2f9" stroke-width=".021738"/>
<rect transform="scale(-1,1)" x="-42.862" y="118" width=".52916" height="5.2917" fill="#e9f2f9" stroke-width=".048607"/>
<rect transform="scale(-1,1)" x="-43.392" y="118" width=".52916" height="4.2333" fill="#e9f2f9" stroke-width=".043475"/>
<rect transform="scale(-1,1)" x="-43.921" y="118.8" width=".52916" height="2.3813" fill="#e9f2f9" stroke-width=".032606"/>
<rect transform="scale(-1,1)" x="-43.656" y="118.27" width=".26459" height=".52917" fill="#e9f2f9" stroke-width=".010869"/>
<g transform="translate(-44.979 -68.262)" fill="#414570">
<rect x="85.196" y="184.41" width="2.1167" height=".52917" stroke-width=".030742"/>
<rect x="84.138" y="184.94" width="1.0583" height=".52917" stroke-width=".021738"/>
<rect x="83.079" y="185.47" width="1.0583" height=".52917" stroke-width=".021738"/>
<rect x="82.55" y="186" width=".52917" height=".52917" stroke-width=".015371"/>
<rect x="82.021" y="186.27" width=".52917" height=".52917" stroke-width=".015371"/>
<rect x="81.492" y="186.8" width=".79375" height=".52917" stroke-width=".018825"/>
<rect x="80.963" y="187.32" width=".52917" height="1.3229" stroke-width=".024303"/>
<rect x="80.433" y="188.38" width=".52917" height="1.0583" stroke-width=".021738"/>
<rect x="79.904" y="189.44" width=".52917" height="1.0583" stroke-width=".021738"/>
<rect x="79.375" y="190.5" width=".52917" height="4.7625" stroke-width=".046112"/>
<rect transform="scale(-1,1)" x="-89.429" y="184.41" width="2.1167" height=".52917" stroke-width=".030742"/>
<rect transform="scale(-1,1)" x="-90.487" y="184.94" width="1.0583" height=".52917" stroke-width=".021738"/>
<rect transform="scale(-1,1)" x="-91.546" y="185.47" width="1.0583" height=".52917" stroke-width=".021738"/>
<rect transform="scale(-1,1)" x="-92.075" y="186" width=".52917" height=".52917" stroke-width=".015371"/>
<rect transform="scale(-1,1)" x="-92.604" y="186.27" width=".52917" height=".52917" stroke-width=".015371"/>
<rect transform="scale(-1,1)" x="-93.133" y="186.8" width=".79375" height=".52917" stroke-width=".018825"/>
<rect transform="scale(-1,1)" x="-93.662" y="187.32" width=".52917" height="1.3229" stroke-width=".024303"/>
<rect transform="scale(-1,1)" x="-94.192" y="188.38" width=".52917" height="1.0583" stroke-width=".021738"/>
<rect transform="scale(-1,1)" x="-94.721" y="189.44" width=".52917" height="1.0583" stroke-width=".021738"/>
<rect transform="scale(-1,1)" x="-95.25" y="190.5" width=".52917" height="4.7625" stroke-width=".046112"/>
</g>
<rect transform="scale(-1,1)" x="-50.262" y="131.23" width="7.9291" height=".79375" fill="#060704" stroke-width=".072871"/>
<rect transform="scale(-1,1)" x="-48.683" y="127.79" width="2.1167" height=".78304" fill="#fcd50f" stroke-width=".037396"/>
<rect transform="scale(-1,1)" x="-49.742" y="127.79" width=".52917" height=".78304" fill="#fcd50f" stroke-width=".018698"/>
<rect transform="scale(-1,1)" x="-47.625" y="128.6" width=".52917" height=".25388" fill="#fcd50f" stroke-width=".010647"/>
</g>
</g>
</svg>
