<?xml version="1.0" encoding="UTF-8"?>
<svg version="1.1" viewBox="0 0 16.933 16.404" xmlns="http://www.w3.org/2000/svg">
<g transform="translate(-136.26 -118.9)">
<g transform="translate(107.68 56.198)">
<rect x="29.104" y="68.262" width="15.346" height="5.8208" fill="#f80078" stroke-width=".041981"/>
<rect x="30.692" y="65.088" width="12.7" height="3.175" fill="#f80078" stroke-width=".028206"/>
<rect x="32.808" y="63.765" width="8.4667" height="1.3229" fill="#f80078" stroke-width=".014866"/>
<rect x="28.575" y="74.877" width="1.0583" height="4.2333" fill="#060704" stroke-width=".061483"/>
<rect x="30.163" y="75.671" width=".52917" height="2.6458" fill="#060704" stroke-width=".03437"/>
<rect x="29.633" y="75.671" width=".52917" height="2.6458" fill="#7a4c0b" stroke-width=".03437"/>
<rect x="30.692" y="75.671" width="1.0583" height="2.6458" fill="#7a4c0b" stroke-width=".048607"/>
<rect x="32.279" y="75.671" width=".52917" height="2.6458" fill="#7a4c0b" stroke-width=".03437"/>
<rect x="30.163" y="74.877" width=".52917" height=".79375" fill="#7a4c0b" stroke-width=".018825"/>
<rect x="31.75" y="75.935" width=".52917" height="2.3813" fill="#d59323" stroke-width=".032606"/>
<rect x="32.808" y="75.935" width="1.5875" height="2.3813" fill="#d59323" stroke-width=".056476"/>
<rect x="34.925" y="75.935" width=".52917" height="2.3813" fill="#d59323" stroke-width=".032606"/>
<rect x="34.396" y="75.671" width=".52917" height="2.6458" fill="#fcd50f" stroke-width=".03437"/>
<rect x="35.454" y="75.671" width="1.0583" height="2.6458" fill="#fcd50f" stroke-width=".048607"/>
<rect x="34.925" y="74.877" width=".52917" height="1.0583" fill="#fcd50f" stroke-width=".021738"/>
<rect x="32.808" y="74.877" width="1.5875" height="1.0583" fill="#fcd50f" stroke-width=".037651"/>
<rect x="36.513" y="74.877" width=".52917" height="3.4396" fill="#e9f2f9" stroke-width=".039188"/>
<rect x="35.454" y="74.877" width="1.0583" height=".79375" fill="#e9f2f9" stroke-width=".026623"/>
<rect x="34.396" y="74.877" width=".52917" height=".79375" fill="#e9f2f9" stroke-width=".018825"/>
<rect x="28.575" y="74.083" width="8.4667" height=".79375" fill="#060704" stroke-width=".075301"/>
<rect x="28.575" y="69.056" width=".52917" height="5.0271" fill="#060704" stroke-width=".047376"/>
<rect x="29.104" y="67.998" width=".52917" height="1.3229" fill="#060704" stroke-width=".024303"/>
<rect x="29.633" y="66.94" width=".52917" height="1.3229" fill="#060704" stroke-width=".024303"/>
<rect x="30.163" y="65.881" width=".52917" height="1.3229" fill="#060704" stroke-width=".024303"/>
<rect x="30.692" y="65.088" width=".52917" height="1.0583" fill="#060704" stroke-width=".021738"/>
<rect x="31.221" y="64.558" width=".52917" height="1.0583" fill="#060704" stroke-width=".021738"/>
<rect x="31.75" y="64.029" width=".52917" height="1.0583" fill="#060704" stroke-width=".021738"/>
<rect x="32.279" y="63.765" width=".52917" height="1.0583" fill="#060704" stroke-width=".021738"/>
<rect x="32.808" y="63.765" width="1.0583" height=".52917" fill="#060704" stroke-width=".021738"/>
<rect x="33.338" y="63.235" width="1.5875" height=".52917" fill="#060704" stroke-width=".026623"/>
<rect x="34.925" y="62.706" width="2.1167" height=".52917" fill="#060704" stroke-width=".030742"/>
<rect x="35.983" y="64.823" width="1.0583" height=".26458" fill="#060704" stroke-width=".015371"/>
<rect x="35.454" y="65.088" width=".52917" height=".26458" fill="#060704" stroke-width=".010869"/>
<rect x="35.454" y="65.352" width=".26458" height=".52916" fill="#060704" stroke-width=".010869"/>
<rect x="34.925" y="65.881" width=".52916" height="2.3812" fill="#060704" stroke-width=".032606"/>
<rect x="35.454" y="68.262" width=".52916" height="1.0583" fill="#060704" stroke-width=".021738"/>
<rect x="35.983" y="69.321" width=".52916" height="1.0583" fill="#060704" stroke-width=".021738"/>
<rect x="36.513" y="70.379" width=".52916" height=".52917" fill="#060704" stroke-width=".015371"/>
<rect x="35.983" y="70.908" width=".52916" height=".52917" fill="#060704" stroke-width=".015371"/>
<rect x="35.454" y="71.438" width=".52916" height="1.0583" fill="#060704" stroke-width=".021738"/>
<rect x="35.983" y="72.496" width=".52916" height=".52917" fill="#060704" stroke-width=".015371"/>
<rect x="36.513" y="73.025" width=".52916" height=".52917" fill="#060704" stroke-width=".015371"/>
<rect x="36.513" y="70.908" width=".52916" height="2.1167" fill="#e9f2f9" stroke-width=".030742"/>
<rect x="35.983" y="71.438" width=".52916" height="1.0583" fill="#e9f2f9" stroke-width=".021738"/>
<rect x="36.513" y="65.088" width=".52916" height="5.2917" fill="#e9f2f9" stroke-width=".048607"/>
<rect x="35.983" y="65.088" width=".52916" height="4.2333" fill="#e9f2f9" stroke-width=".043475"/>
<rect x="35.454" y="65.881" width=".52916" height="2.3813" fill="#e9f2f9" stroke-width=".032606"/>
<rect x="35.719" y="65.352" width=".26459" height=".52917" fill="#e9f2f9" stroke-width=".010869"/>
<rect x="29.113" y="78.317" width="7.9291" height=".79375" fill="#060704" stroke-width=".072871"/>
<rect x="30.692" y="74.877" width="2.1167" height=".78304" fill="#fcd50f" stroke-width=".037396"/>
<rect x="29.633" y="74.877" width=".52917" height=".78304" fill="#fcd50f" stroke-width=".018698"/>
<rect x="31.75" y="75.682" width=".52917" height=".25388" fill="#fcd50f" stroke-width=".010647"/>
<rect transform="scale(-1,1)" x="-45.508" y="74.877" width="1.0583" height="4.2333" fill="#060704" stroke-width=".061483"/>
<rect transform="scale(-1,1)" x="-43.921" y="75.671" width=".52917" height="2.6458" fill="#060704" stroke-width=".03437"/>
<rect transform="scale(-1,1)" x="-44.45" y="75.671" width=".52917" height="2.6458" fill="#7a4c0b" stroke-width=".03437"/>
<rect transform="scale(-1,1)" x="-43.392" y="75.671" width="1.0583" height="2.6458" fill="#7a4c0b" stroke-width=".048607"/>
<rect transform="scale(-1,1)" x="-41.804" y="75.671" width=".52917" height="2.6458" fill="#7a4c0b" stroke-width=".03437"/>
<rect transform="scale(-1,1)" x="-43.921" y="74.877" width=".52917" height=".79375" fill="#7a4c0b" stroke-width=".018825"/>
<rect transform="scale(-1,1)" x="-42.333" y="75.935" width=".52917" height="2.3813" fill="#d59323" stroke-width=".032606"/>
<rect transform="scale(-1,1)" x="-41.275" y="75.935" width="1.5875" height="2.3813" fill="#d59323" stroke-width=".056476"/>
<rect transform="scale(-1,1)" x="-39.158" y="75.935" width=".52917" height="2.3813" fill="#d59323" stroke-width=".032606"/>
<rect transform="scale(-1,1)" x="-39.687" y="75.671" width=".52917" height="2.6458" fill="#fcd50f" stroke-width=".03437"/>
<rect transform="scale(-1,1)" x="-38.629" y="75.671" width="1.0583" height="2.6458" fill="#fcd50f" stroke-width=".048607"/>
<rect transform="scale(-1,1)" x="-39.158" y="74.877" width=".52917" height="1.0583" fill="#fcd50f" stroke-width=".021738"/>
<rect transform="scale(-1,1)" x="-41.275" y="74.877" width="1.5875" height="1.0583" fill="#fcd50f" stroke-width=".037651"/>
<rect transform="scale(-1,1)" x="-37.571" y="74.877" width=".52917" height="3.4396" fill="#e9f2f9" stroke-width=".039188"/>
<rect transform="scale(-1,1)" x="-38.629" y="74.877" width="1.0583" height=".79375" fill="#e9f2f9" stroke-width=".026623"/>
<rect transform="scale(-1,1)" x="-39.687" y="74.877" width=".52917" height=".79375" fill="#e9f2f9" stroke-width=".018825"/>
<rect transform="scale(-1,1)" x="-45.508" y="74.083" width="8.4667" height=".79375" fill="#060704" stroke-width=".075301"/>
<rect transform="scale(-1,1)" x="-45.508" y="69.056" width=".52917" height="5.0271" fill="#060704" stroke-width=".047376"/>
<rect transform="scale(-1,1)" x="-44.979" y="67.998" width=".52917" height="1.3229" fill="#060704" stroke-width=".024303"/>
<rect transform="scale(-1,1)" x="-44.45" y="66.94" width=".52917" height="1.3229" fill="#060704" stroke-width=".024303"/>
<rect transform="scale(-1,1)" x="-43.921" y="65.881" width=".52917" height="1.3229" fill="#060704" stroke-width=".024303"/>
<rect transform="scale(-1,1)" x="-43.392" y="65.088" width=".52917" height="1.0583" fill="#060704" stroke-width=".021738"/>
<rect transform="scale(-1,1)" x="-42.862" y="64.558" width=".52917" height="1.0583" fill="#060704" stroke-width=".021738"/>
<rect transform="scale(-1,1)" x="-42.333" y="64.029" width=".52917" height="1.0583" fill="#060704" stroke-width=".021738"/>
<rect transform="scale(-1,1)" x="-41.804" y="63.765" width=".52917" height="1.0583" fill="#060704" stroke-width=".021738"/>
<rect transform="scale(-1,1)" x="-41.275" y="63.765" width="1.0583" height=".52917" fill="#060704" stroke-width=".021738"/>
<rect transform="scale(-1,1)" x="-40.746" y="63.235" width="1.5875" height=".52917" fill="#060704" stroke-width=".026623"/>
<rect transform="scale(-1,1)" x="-39.158" y="62.706" width="2.1167" height=".52917" fill="#060704" stroke-width=".030742"/>
<rect transform="scale(-1,1)" x="-38.1" y="64.823" width="1.0583" height=".26458" fill="#060704" stroke-width=".015371"/>
<rect transform="scale(-1,1)" x="-38.629" y="65.088" width=".52917" height=".26458" fill="#060704" stroke-width=".010869"/>
<rect transform="scale(-1,1)" x="-38.629" y="65.352" width=".26458" height=".52916" fill="#060704" stroke-width=".010869"/>
<rect transform="scale(-1,1)" x="-39.158" y="65.881" width=".52916" height="2.3812" fill="#060704" stroke-width=".032606"/>
<rect transform="scale(-1,1)" x="-38.629" y="68.262" width=".52916" height="1.0583" fill="#060704" stroke-width=".021738"/>
<rect transform="scale(-1,1)" x="-38.1" y="69.321" width=".52916" height="1.0583" fill="#060704" stroke-width=".021738"/>
<rect transform="scale(-1,1)" x="-37.571" y="70.379" width=".52916" height=".52917" fill="#060704" stroke-width=".015371"/>
<rect transform="scale(-1,1)" x="-38.1" y="70.908" width=".52916" height=".52917" fill="#060704" stroke-width=".015371"/>
<rect transform="scale(-1,1)" x="-38.629" y="71.438" width=".52916" height="1.0583" fill="#060704" stroke-width=".021738"/>
<rect transform="scale(-1,1)" x="-38.1" y="72.496" width=".52916" height=".52917" fill="#060704" stroke-width=".015371"/>
<rect transform="scale(-1,1)" x="-37.571" y="73.025" width=".52916" height=".52917" fill="#060704" stroke-width=".015371"/>
<rect transform="scale(-1,1)" x="-37.571" y="70.908" width=".52916" height="2.1167" fill="#e9f2f9" stroke-width=".030742"/>
<rect transform="scale(-1,1)" x="-38.1" y="71.438" width=".52916" height="1.0583" fill="#e9f2f9" stroke-width=".021738"/>
<rect transform="scale(-1,1)" x="-37.571" y="65.088" width=".52916" height="5.2917" fill="#e9f2f9" stroke-width=".048607"/>
<rect transform="scale(-1,1)" x="-38.1" y="65.088" width=".52916" height="4.2333" fill="#e9f2f9" stroke-width=".043475"/>
<rect transform="scale(-1,1)" x="-38.629" y="65.881" width=".52916" height="2.3813" fill="#e9f2f9" stroke-width=".032606"/>
<rect transform="scale(-1,1)" x="-38.365" y="65.352" width=".26459" height=".52917" fill="#e9f2f9" stroke-width=".010869"/>
<g transform="translate(-44.979 -68.262)" fill="#9a053d">
<rect x="79.904" y="131.5" width="2.1167" height=".52917" stroke-width=".030742"/>
<rect x="78.846" y="132.03" width="1.0583" height=".52917" stroke-width=".021738"/>
<rect x="77.788" y="132.56" width="1.0583" height=".52917" stroke-width=".021738"/>
<rect x="77.258" y="133.09" width=".52917" height=".52917" stroke-width=".015371"/>
<rect x="76.729" y="133.35" width=".52917" height=".52917" stroke-width=".015371"/>
<rect x="76.2" y="133.88" width=".79375" height=".52917" stroke-width=".018825"/>
<rect x="75.671" y="134.41" width=".52917" height="1.3229" stroke-width=".024303"/>
<rect x="75.142" y="135.47" width=".52917" height="1.0583" stroke-width=".021738"/>
<rect x="74.612" y="136.52" width=".52917" height="1.0583" stroke-width=".021738"/>
<rect x="74.083" y="137.58" width=".52917" height="4.7625" stroke-width=".046112"/>
<rect transform="scale(-1,1)" x="-84.137" y="131.5" width="2.1167" height=".52917" stroke-width=".030742"/>
<rect transform="scale(-1,1)" x="-85.196" y="132.03" width="1.0583" height=".52917" stroke-width=".021738"/>
<rect transform="scale(-1,1)" x="-86.254" y="132.56" width="1.0583" height=".52917" stroke-width=".021738"/>
<rect transform="scale(-1,1)" x="-86.783" y="133.09" width=".52917" height=".52917" stroke-width=".015371"/>
<rect transform="scale(-1,1)" x="-87.312" y="133.35" width=".52917" height=".52917" stroke-width=".015371"/>
<rect transform="scale(-1,1)" x="-87.842" y="133.88" width=".79375" height=".52917" stroke-width=".018825"/>
<rect transform="scale(-1,1)" x="-88.371" y="134.41" width=".52917" height="1.3229" stroke-width=".024303"/>
<rect transform="scale(-1,1)" x="-88.9" y="135.47" width=".52917" height="1.0583" stroke-width=".021738"/>
<rect transform="scale(-1,1)" x="-89.429" y="136.52" width=".52917" height="1.0583" stroke-width=".021738"/>
<rect transform="scale(-1,1)" x="-89.958" y="137.58" width=".52917" height="4.7625" stroke-width=".046112"/>
</g>
<rect transform="scale(-1,1)" x="-44.971" y="78.317" width="7.9291" height=".79375" fill="#060704" stroke-width=".072871"/>
<rect transform="scale(-1,1)" x="-43.392" y="74.877" width="2.1167" height=".78304" fill="#fcd50f" stroke-width=".037396"/>
<rect transform="scale(-1,1)" x="-44.45" y="74.877" width=".52917" height=".78304" fill="#fcd50f" stroke-width=".018698"/>
<rect transform="scale(-1,1)" x="-42.333" y="75.682" width=".52917" height=".25388" fill="#fcd50f" stroke-width=".010647"/>
</g>
</g>
</svg>
