<svg xmlns="http://www.w3.org/2000/svg" viewBox="0 0 16.933 16.404"><path fill="#f80078" d="M.524 5.56H15.87v5.821H.524z"/><path fill="#f80078" d="M2.112 2.386h12.7v3.175h-12.7zM4.228 1.063h8.467v1.323H4.228z"/><path fill="#060704" d="M-.005 12.175h1.058v4.233H-.005zM1.583 12.969h.529v2.646h-.529z"/><path fill="#7a4c0b" d="M1.053 12.969h.529v2.646h-.529zM2.112 12.969H3.17v2.646H2.112zM3.699 12.969h.529v2.646h-.529zM1.583 12.175h.529v.794h-.529z"/><path fill="#d59323" d="M3.17 13.233h.529v2.381H3.17zM4.228 13.233h1.587v2.381H4.228zM6.345 13.233h.529v2.381h-.529z"/><path fill="#fcd50f" d="M5.816 12.969h.529v2.646h-.529zM6.874 12.969h1.058v2.646H6.874zM6.345 12.175h.529v1.058h-.529zM4.228 12.175h1.587v1.058H4.228z"/><path fill="#e9f2f9" d="M7.933 12.175h.529v3.44h-.529zM6.874 12.175h1.058v.794H6.874zM5.816 12.175h.529v.794h-.529z"/><path fill="#060704" d="M-.005 11.381h8.467v.794H-.005zM-.005 6.354h.529v5.027h-.529zM.524 5.296h.529v1.323H.524zM1.053 4.238h.529v1.323h-.529zM1.583 3.179h.529v1.323h-.529zM2.112 2.386h.529v1.058h-.529zM2.641 1.856h.529v1.058h-.529zM3.17 1.327h.529v1.058H3.17zM3.699 1.063h.529v1.058h-.529zM4.228 1.063h1.058v.529H4.228zM4.758.533h1.587v.529H4.758zM6.345.004h2.117v.529H6.345zM7.403 2.121h1.058v.265H7.403zM6.874 2.386h.529v.265h-.529z"/><path fill="#060704" d="M6.874 2.65h.265v.529h-.265zM6.345 3.179h.529V5.56h-.529zM6.874 5.56h.529v1.058h-.529zM7.403 6.619h.529v1.058h-.529zM7.933 7.677h.529v.529h-.529zM7.403 8.206h.529v.529h-.529zM6.874 8.736h.529v1.058h-.529zM7.403 9.794h.529v.529h-.529zM7.933 10.323h.529v.529h-.529z"/><path fill="#e9f2f9" d="M7.933 8.206h.529v2.117h-.529zM7.403 8.736h.529v1.058h-.529zM7.933 2.386h.529v5.292h-.529zM7.403 2.386h.529v4.233h-.529zM6.874 3.179h.529V5.56h-.529z"/><path fill="#e9f2f9" d="M7.139 2.65h.265v.529h-.265z"/><path fill="#060704" d="M.533 15.615h7.929v.794H.533z"/><path fill="#fcd50f" d="M2.112 12.175h2.117v.783H2.112zM1.053 12.175h.529v.783h-.529zM3.17 12.98h.529v.254H3.17z"/><path fill="#060704" d="M16.928 12.175H15.87v4.233h1.058zM15.341 12.969h-.529v2.646h.529z"/><path fill="#7a4c0b" d="M15.87 12.969h-.529v2.646h.529zM14.812 12.969h-1.058v2.646h1.058zM13.224 12.969h-.529v2.646h.529zM15.341 12.175h-.529v.794h.529z"/><path fill="#d59323" d="M13.753 13.233h-.529v2.381h.529zM12.695 13.233h-1.587v2.381h1.587zM10.578 13.233h-.529v2.381h.529z"/><path fill="#fcd50f" d="M11.107 12.969h-.529v2.646h.529zM10.049 12.969H8.991v2.646h1.058zM10.578 12.175h-.529v1.058h.529zM12.695 12.175h-1.587v1.058h1.587z"/><path fill="#e9f2f9" d="M8.991 12.175h-.529v3.44h.529zM10.049 12.175H8.991v.794h1.058zM11.107 12.175h-.529v.794h.529z"/><path fill="#060704" d="M16.928 11.381H8.461v.794h8.467zM16.928 6.354h-.529v5.027h.529zM16.399 5.296h-.529v1.323h.529zM15.87 4.238h-.529v1.323h.529zM15.341 3.179h-.529v1.323h.529zM14.812 2.386h-.529v1.058h.529zM14.282 1.856h-.529v1.058h.529zM13.753 1.327h-.529v1.058h.529zM13.224 1.063h-.529v1.058h.529zM12.695 1.063h-1.058v.529h1.058zM12.166.533h-1.587v.529h1.587zM10.578.004H8.461v.529h2.117zM9.52 2.121H8.462v.265H9.52zM10.049 2.386H9.52v.265h.529z"/><path fill="#060704" d="M10.049 2.65h-.265v.529h.265zM10.578 3.179h-.529V5.56h.529zM10.049 5.56H9.52v1.058h.529zM9.52 6.619h-.529v1.058h.529zM8.991 7.677h-.529v.529h.529zM9.52 8.206h-.529v.529h.529zM10.049 8.736H9.52v1.058h.529zM9.52 9.794h-.529v.529h.529zM8.991 10.323h-.529v.529h.529z"/><path fill="#e9f2f9" d="M8.991 8.206h-.529v2.117h.529zM9.52 8.736h-.529v1.058h.529zM8.991 2.386h-.529v5.292h.529zM9.52 2.386h-.529v4.233h.529zM10.049 3.179H9.52V5.56h.529zM9.785 2.65H9.52v.529h.265z"/><g fill="#9a053d"><path d="M6.345.536h2.117v.529H6.345zM5.287 1.066h1.058v.529H5.287zM4.229 1.596h1.058v.529H4.229zM3.699 2.126h.529v.529h-.529zM3.17 2.386h.529v.529H3.17zM2.641 2.916h.794v.529h-.794zM2.112 3.446h.529v1.323h-.529zM1.583 4.506h.529v1.058h-.529zM1.053 5.556h.529v1.058h-.529zM.524 6.616h.529v4.763H.524z"/><path d="M10.578.536H8.461v.529h2.117zM11.637 1.066h-1.058v.529h1.058zM12.695 1.596h-1.058v.529h1.058zM13.224 2.126h-.529v.529h.529zM13.753 2.386h-.529v.529h.529zM14.283 2.916h-.794v.529h.794zM14.812 3.446h-.529v1.323h.529zM15.341 4.506h-.529v1.058h.529zM15.87 5.556h-.529v1.058h.529zM16.399 6.616h-.529v4.763h.529z"/></g><path fill="#060704" d="M16.391 15.615H8.462v.794h7.929z"/><path fill="#fcd50f" d="M14.812 12.175h-2.117v.783h2.117zM15.87 12.175h-.529v.783h.529zM13.753 12.98h-.529v.254h.529z"/></svg>