<svg xmlns="http://www.w3.org/2000/svg" viewBox="0 0 16.933 16.404"><path fill="#02f600" d="M.529 5.551h15.346v5.821H.529zM2.117 2.376h12.7v3.175h-12.7zM4.233 1.053H12.7v1.323H4.233z"/><path fill="#060704" d="M0 12.17h1.058v4.233H0zM1.587 12.96h.529v2.646h-.529z"/><path fill="#7a4c0b" d="M1.058 12.96h.529v2.646h-.529zM2.117 12.96h1.058v2.646H2.117zM3.704 12.96h.529v2.646h-.529z"/><path fill="#7a4c0b" d="M1.587 12.17h.529v.794h-.529z"/><path fill="#d59323" d="M3.175 13.22h.529v2.381h-.529zM4.233 13.22H5.82v2.381H4.233zM6.35 13.22h.529v2.381H6.35z"/><path fill="#fcd50f" d="M5.821 12.96h.529v2.646h-.529zM6.879 12.96h1.058v2.646H6.879zM6.35 12.17h.529v1.058H6.35zM4.233 12.17H5.82v1.058H4.233z"/><path fill="#e9f2f9" d="M7.937 12.17h.529v3.44h-.529zM6.879 12.17h1.058v.794H6.879zM5.821 12.17h.529v.794h-.529z"/><path fill="#060704" d="M0 11.37h8.467v.794H0z"/><path fill="#060704" d="M0 6.345h.529v5.027H0zM.529 5.286h.529v1.323H.529zM1.058 4.228h.529v1.323h-.529z"/><path fill="#060704" d="M1.587 3.17h.529v1.323h-.529zM2.117 2.376h.529v1.058h-.529zM2.646 1.847h.529v1.058h-.529zM3.175 1.317h.529v1.058h-.529zM3.704 1.053h.529v1.058h-.529z"/><path fill="#060704" d="M4.233 1.053h1.058v.529H4.233zM4.762.524h1.587v.529H4.762zM6.35-.005h2.117v.529H6.35zM7.408 2.111h1.058v.265H7.408zM6.879 2.376h.529v.265h-.529z"/><path fill="#060704" d="M6.879 2.64h.265v.529h-.265zM6.35 3.17h.529v2.381H6.35zM6.879 5.551h.529v1.058h-.529zM7.408 6.609h.529v1.058h-.529zM7.938 7.667h.529v.529h-.529zM7.408 8.197h.529v.529h-.529zM6.879 8.726h.529v1.058h-.529zM7.408 9.784h.529v.529h-.529zM7.937 10.313h.529v.529h-.529z"/><path fill="#e9f2f9" d="M7.937 8.197h.529v2.117h-.529zM7.408 8.726h.529v1.058h-.529zM7.938 2.376h.529v5.292h-.529zM7.408 2.376h.529v4.233h-.529zM6.879 3.17h.529v2.381h-.529z"/><path fill="#e9f2f9" d="M7.144 2.64h.265v.529h-.265z"/><path fill="#060704" d="M.538 15.6h7.929v.794H.538z"/><path fill="#fcd50f" d="M2.117 12.17h2.117v.783H2.117zM1.058 12.17h.529v.783h-.529zM3.175 12.97h.529v.254h-.529z"/><path fill="#060704" d="M16.933 12.17h-1.058v4.233h1.058zM15.346 12.96h-.529v2.646h.529z"/><path fill="#7a4c0b" d="M15.875 12.96h-.529v2.646h.529zM14.817 12.96h-1.058v2.646h1.058zM13.229 12.96H12.7v2.646h.529zM15.346 12.17h-.529v.794h.529z"/><path fill="#d59323" d="M13.758 13.22h-.529v2.381h.529zM12.7 13.22h-1.587v2.381H12.7zM10.583 13.22h-.529v2.381h.529z"/><path fill="#fcd50f" d="M11.112 12.96h-.529v2.646h.529zM10.054 12.96H8.996v2.646h1.058zM10.583 12.17h-.529v1.058h.529zM12.7 12.17h-1.587v1.058H12.7z"/><path fill="#e9f2f9" d="M8.996 12.17h-.529v3.44h.529zM10.054 12.17H8.996v.794h1.058zM11.112 12.17h-.529v.794h.529z"/><path fill="#060704" d="M16.933 11.37H8.466v.794h8.467z"/><path fill="#060704" d="M16.933 6.345h-.529v5.027h.529zM16.404 5.286h-.529v1.323h.529zM15.875 4.228h-.529v1.323h.529zM15.346 3.17h-.529v1.323h.529zM14.817 2.376h-.529v1.058h.529zM14.287 1.847h-.529v1.058h.529zM13.758 1.317h-.529v1.058h.529zM13.229 1.053H12.7v1.058h.529zM12.7 1.053h-1.058v.529H12.7zM12.171.524h-1.587v.529h1.587zM10.583-.005H8.466v.529h2.117zM9.525 2.111H8.467v.265h1.058zM10.054 2.376h-.529v.265h.529z"/><path fill="#060704" d="M10.054 2.64h-.265v.529h.265zM10.583 3.17h-.529v2.381h.529zM10.054 5.551h-.529v1.058h.529zM9.525 6.609h-.529v1.058h.529zM8.996 7.667h-.529v.529h.529zM9.525 8.197h-.529v.529h.529zM10.054 8.726h-.529v1.058h.529zM9.525 9.784h-.529v.529h.529zM8.996 10.313h-.529v.529h.529z"/><path fill="#e9f2f9" d="M8.996 8.197h-.529v2.117h.529zM9.525 8.726h-.529v1.058h.529zM8.996 2.376h-.529v5.292h.529zM9.525 2.376h-.529v4.233h.529zM10.054 3.17h-.529v2.381h.529z"/><path fill="#e9f2f9" d="M9.79 2.64h-.265v.529h.265z"/><g fill="#067806"><path d="M6.35.528h2.117v.529H6.35zM5.292 1.058H6.35v.529H5.292zM4.234 1.578h1.058v.529H4.234zM3.704 2.108h.529v.529h-.529zM3.175 2.378h.529v.529h-.529zM2.646 2.908h.794v.529h-.794zM2.117 3.438h.529v1.323h-.529zM1.588 4.488h.529v1.058h-.529zM1.058 5.548h.529v1.058h-.529zM.529 6.608h.529v4.763H.529z"/><path d="M10.583.528H8.466v.529h2.117zM11.642 1.058h-1.058v.529h1.058zM12.7 1.578h-1.058v.529H12.7zM13.229 2.108H12.7v.529h.529zM13.758 2.378h-.529v.529h.529zM14.288 2.908h-.794v.529h.794zM14.817 3.438h-.529v1.323h.529zM15.346 4.488h-.529v1.058h.529zM15.875 5.548h-.529v1.058h.529zM16.404 6.608h-.529v4.763h.529z"/></g><path fill="#060704" d="M16.396 15.6H8.467v.794h7.929z"/><path fill="#fcd50f" d="M14.817 12.17H12.7v.783h2.117zM15.875 12.17h-.529v.783h.529zM13.758 12.97h-.529v.254h.529z"/></svg>