<?xml version="1.0" encoding="UTF-8"?>
<svg width="71.437mm" height="32.279mm" version="1.1" viewBox="0 0 71.437 32.279" xmlns="http://www.w3.org/2000/svg">
<g transform="translate(-17.137 -78.246)">
<g>
<rect x="61.852" y="99.942" width="4.4979" height="5.8208" fill="#b1aea0"/>
<rect x="59.471" y="104.44" width="2.6458" height="1.3229" fill="#b1aea0"/>
<rect x="60.529" y="101.53" width="1.3229" height="3.175" fill="#b1aea0"/>
<rect x="56.031" y="93.856" width="1.5875" height="1.3229" fill="#b1aea0"/>
<rect x="54.973" y="95.179" width=".79375" height="1.0583" fill="#b1aea0"/>
<rect x="23.752" y="103.38" width="3.4396" height="1.3229" fill="#b1aea0"/>
<rect x="22.429" y="104.7" width="2.1167" height="1.3229" fill="#b1aea0"/>
<rect x="21.371" y="105.76" width="1.3229" height="1.3229" fill="#b1aea0"/>
<rect x="20.312" y="106.82" width="1.3229" height="1.3229" fill="#b1aea0"/>
<rect x="29.308" y="105.76" width="5.0271" height="2.6458" fill="#6d7073"/>
<rect x="30.257" y="104.44" width="5.1362" height="1.5875" fill="#6d7073"/>
<rect x="32.483" y="103.38" width="1.8521" height="1.3229" fill="#6d7073"/>
<rect x="31.16" y="102.32" width="1.8521" height="1.3229" fill="#6d7073"/>
<rect x="30.366" y="101" width="1.8521" height="1.3229" fill="#6d7073"/>
<rect x="29.308" y="99.942" width="1.3229" height="1.3229" fill="#6d7073"/>
<rect x="28.25" y="98.619" width="1.3229" height="1.3229" fill="#6d7073"/>
<rect x="19.254" y="107.88" width="10.692" height="1.5875" fill="#6d7073"/>
<rect x="22.693" y="106.03" width="6.35" height="2.1167" fill="#6d7073"/>
<rect x="21.635" y="107.09" width="1.6966" height="1.5875" fill="#6d7073"/>
<rect x="24.281" y="104.7" width="3.175" height="1.5875" fill="#6d7073"/>
<rect x="70.318" y="106.82" width="15.081" height="2.6458" fill="#6d7073"/>
<rect x="85.135" y="108.41" width="1.5875" height="1.0583" fill="#6d7073"/>
<rect x="78.521" y="103.38" width="3.8133" height="3.7042" fill="#6d7073"/>
<rect x="82.225" y="104.7" width="2.1167" height="2.3812" fill="#6d7073"/>
<rect x="68.731" y="104.44" width="6.9883" height="2.6458" fill="#6d7073"/>
<rect x="75.501" y="105.5" width="3.0196" height="1.5875" fill="#6d7073"/>
<rect x="76.03" y="98.619" width="1.6966" height="1.5875" fill="#6d7073"/>
<rect x="74.816" y="99.942" width="1.6966" height="1.5875" fill="#6d7073"/>
<rect x="74.023" y="100.74" width="1.6966" height="1.5875" fill="#6d7073"/>
<rect x="72.964" y="102.32" width="1.6966" height="1.5875" fill="#6d7073"/>
<rect x="71.797" y="103.12" width="1.6966" height="1.5875" fill="#6d7073"/>
<rect x="32.483" y="108.14" width="1.6966" height="1.5875" fill="#6d7073"/>
<rect x="64.233" y="101.26" width="1.0583" height="8.2021" fill="#6d7073"/>
<rect x="65.027" y="102.32" width="3.4396" height="7.1424" fill="#6d7073"/>
<rect x="62.91" y="102.06" width="1.5875" height="7.6729" fill="#6d7073"/>
<rect x="61.852" y="103.91" width="1.3229" height="5.8208" fill="#6d7073"/>
<rect x="56.451" y="105.76" width="5.93" height="3.8633" fill="#6d7073"/>
<rect x="56.56" y="98.884" width="1.8521" height="7.4083" fill="#6d7073"/>
<rect x="58.148" y="99.942" width="1.5875" height="5.0271" fill="#6d7073"/>
<rect x="49.152" y="101" width="5.1362" height="7.6729" fill="#6d7073"/>
<rect x="51.424" y="98.619" width="3.0196" height="2.6458" fill="#6d7073"/>
<rect x="52.747" y="97.296" width="3.0196" height="2.6458" fill="#6d7073"/>
<rect x="53.805" y="95.973" width="3.0196" height="2.6458" fill="#6d7073"/>
<rect x="55.657" y="94.65" width="3.0196" height="2.6458" fill="#6d7073"/>
<rect x="66.35" y="106.29" width="3.9688" height="3.175" fill="#424b58"/>
<rect x="65.556" y="108.41" width="1.5875" height="1.0583" fill="#424b58"/>
<rect x="51.798" y="108.41" width="7.9375" height="1.0583" fill="#424b58"/>
<rect x="53.914" y="103.91" width="2.6458" height="4.4979" fill="#424b58"/>
<rect x="51.798" y="104.7" width="3.175" height="4.2333" fill="#424b58"/>
<rect x="68.202" y="103.65" width="1.0583" height="2.9104" fill="#424b58"/>
<rect x="76.139" y="106.56" width="1.8521" height="2.1167" fill="#424b58"/>
<rect x="79.579" y="107.35" width="1.0583" height="2.1167" fill="#424b58"/>
<rect x="77.727" y="108.67" width="2.1167" height=".79375" fill="#424b58"/>
<rect x="78.256" y="108.41" width="1.5875" height=".26458" fill="#424b58"/>
<rect x="53.121" y="109.47" width="34.396" height="1.0583" fill="#1e2736"/>
<rect x="17.931" y="109.47" width="15.346" height="1.0583" fill="#1e2736"/>
<rect x="29.308" y="108.14" width="3.2057" height="1.5494" fill="#1e2736"/>
<rect x="56.296" y="108.41" width=".79376" height="1.3229" fill="#1e2736"/>
<rect x="72.964" y="108.94" width="3.175" height=".79374" fill="#1e2736"/>
<rect x="54.179" y="108.41" width=".79376" height="1.3229" fill="#1e2736"/>
<rect x="34.864" y="103.91" width=".79375" height="1.0583"/>
<rect x="34.071" y="103.91" width=".79375" height=".52916"/>
<rect x="33.012" y="102.59" width=".79374" height=".79376"/>
<rect x="31.954" y="101.53" width=".79374" height=".79376"/>
<rect x="30.631" y="100.21" width=".79374" height=".79376"/>
<rect x="29.573" y="98.884" width=".79374" height=".79376"/>
<rect x="28.514" y="99.942" width=".79374" height=".79376"/>
<rect x="27.456" y="97.825" width="1.5875" height=".79376"/>
<rect x="27.456" y="98.354" width=".79374" height="1.5875"/>
<rect x="29.573" y="101.26" width=".79374" height=".79376"/>
<rect x="30.631" y="102.32" width=".79374" height="2.1166"/>
<rect x="31.16" y="103.65" width="1.5875" height=".79376"/>
<rect x="33.012" y="104.97" width=".79374" height=".79376"/>
<rect x="29.573" y="104.97" width=".79374" height=".79376"/>
<rect x="28.514" y="106.03" width=".79374" height="2.1167"/>
<rect x="27.191" y="103.65" width=".79374" height="2.1167"/>
<rect x="24.016" y="102.59" width="3.175" height=".79376"/>
<rect x="22.693" y="103.65" width="1.0583" height="1.0583"/>
<rect x="21.635" y="104.7" width="1.0583" height="1.0583"/>
<rect x="20.312" y="106.03" width="1.0583" height="1.0583"/>
<rect x="19.254" y="107.09" width="1.0583" height="1.0583"/>
<rect x="18.196" y="108.41" width="1.0583" height="1.0583"/>
<rect x="17.137" y="109.73" width="1.0583" height=".79375"/>
<rect x="50.475" y="100.21" width="2.3812" height=".79375"/>
<rect x="50.739" y="98.884" width=".79374" height="1.3229"/>
<rect x="51.798" y="97.561" width="1.0583" height="1.0583"/>
<rect x="52.856" y="96.502" width="1.0583" height="1.0583"/>
<rect x="54.179" y="95.444" width=".79375" height=".79374"/>
<rect x="52.062" y="94.121" width=".79375" height=".79374"/>
<rect x="55.237" y="94.386" width=".79375" height=".79374"/>
<rect x="56.296" y="93.063" width=".79375" height=".79374"/>
<rect x="57.618" y="94.386" width=".79375" height=".79374"/>
<rect x="58.677" y="95.444" width=".79375" height=".79374"/>
<rect x="57.354" y="96.502" width=".79375" height=".79374"/>
<rect x="56.296" y="97.825" width=".79375" height=".79374"/>
<rect x="57.354" y="99.148" width=".79375" height=".79374"/>
<rect x="55.237" y="98.884" width=".79375" height=".79374"/>
<rect x="54.179" y="99.942" width=".79375" height=".79374"/>
<rect x="53.121" y="101.26" width=".79375" height=".79374"/>
<rect x="54.179" y="102.59" width=".79375" height=".79374"/>
<rect x="55.237" y="103.91" width=".79375" height="4.2333"/>
<rect x="58.677" y="100.21" width=".79375" height="2.1167"/>
<rect x="56.56" y="99.942" width=".79375" height="3.4396"/>
<rect x="59.735" y="102.59" width=".79375" height="2.1167"/>
<rect x="57.354" y="104.7" width="2.3812" height="1.0583"/>
<rect x="55.766" y="106.03" width="1.5875" height=".79374"/>
<rect x="60.793" y="101.26" width=".79375" height=".79374"/>
<rect x="61.852" y="100.21" width=".79375" height=".79374"/>
<rect x="63.175" y="99.148" width="2.9104" height=".79374"/>
<rect x="66.35" y="100.21" width=".79375" height="2.3812"/>
<rect x="67.408" y="102.59" width="1.0583" height=".79374"/>
<rect x="68.731" y="103.65" width=".79375" height="3.175"/>
<rect x="69.26" y="104.97" width="1.3229" height=".79374"/>
<rect x="71.112" y="103.65" width=".79375" height=".79374"/>
<rect x="72.171" y="102.59" width=".79375" height=".79374"/>
<rect x="73.229" y="101.53" width=".79375" height=".79374"/>
<rect x="74.287" y="100.21" width=".79375" height=".79374"/>
<rect x="75.346" y="98.884" width=".79375" height=".79374"/>
<rect x="76.668" y="97.825" width="1.8521" height=".79374"/>
<rect x="77.727" y="98.354" width=".79375" height="1.5875"/>
<rect x="76.668" y="100.21" width=".79375" height=".79374"/>
<rect x="75.61" y="101.26" width=".79375" height=".79374"/>
<rect x="74.287" y="102.32" width=".79375" height="2.1167"/>
<rect x="73.229" y="103.65" width="1.3229" height=".79374"/>
<rect x="72.171" y="104.97" width=".79375" height=".79374"/>
<rect x="75.61" y="104.97" width=".79375" height=".79374"/>
<rect x="70.848" y="106.03" width="1.0583" height="1.3229"/>
<rect x="69.789" y="107.35" width="3.175" height=".79374"/>
<rect x="69.789" y="107.88" width=".79375" height="1.5875"/>
<rect x="76.668" y="106.03" width=".79375" height="2.1167"/>
<rect x="72.964" y="108.41" width="3.175" height=".79374"/>
<rect x="77.727" y="103.65" width=".79375" height="2.1167"/>
<rect x="78.785" y="102.59" width="3.175" height=".79374"/>
<rect x="82.225" y="103.65" width="1.0583" height="1.0583"/>
<rect x="83.283" y="104.7" width="1.0583" height="1.0583"/>
<rect x="84.341" y="106.03" width="1.0583" height="1.0583"/>
<rect x="85.4" y="107.35" width="1.0583" height="1.0583"/>
<rect x="86.458" y="108.41" width="1.0583" height="1.0583"/>
<rect x="87.516" y="109.47" width="1.0583" height="1.0583"/>
<rect x="50.475" y="103.65" width="1.0583" height="1.0583"/>
<rect x="34.071" y="106.03" width="2.1167" height="3.175"/>
<rect x="32.748" y="107.09" width="1.5875" height="1.0583"/>
<rect x="35.129" y="108.67" width=".79375" height="1.8521"/>
<rect x="32.483" y="109.73" width="1.0583" height=".79376"/>
<rect x="35.923" y="108.14" width="4.7625" height="2.3813" fill="#755a31"/>
<rect x="41.743" y="106.56" width="8.7312" height="3.9688" fill="#755a31"/>
<rect x="50.475" y="108.41" width="1.5875" height="2.1167" fill="#755a31"/>
<rect x="39.362" y="106.82" width="1.3229" height="1.3229" fill="#a08ab0"/>
<rect x="35.923" y="107.09" width="1.5875" height="1.0583" fill="#a08ab0"/>
<rect x="34.864" y="107.09" width="1.0583" height="1.0583" fill="#40223e"/>
<rect x="44.918" y="107.09" width="1.3229" height="1.3229" fill="#a08ab0"/>
<rect x="47.3" y="107.09" width="2.1167" height="1.0583" fill="#a08ab0"/>
<rect x="43.86" y="97.561" width="1.3229" height="1.3229" fill="#68575c"/>
<rect x="40.421" y="101" width="4.4979" height="5.8208" fill="#0b0108"/>
<rect x="49.416" y="104.7" width="1.0583" height="3.7042" fill="#0b0108"/>
<rect x="48.358" y="106.03" width="1.3229" height="1.0583" fill="#0b0108"/>
<rect x="40.685" y="106.56" width="1.0583" height="3.9688" fill="#0b0108"/>
<rect x="42.802" y="106.56" width="1.0583" height="3.9688" fill="#0b0108"/>
<rect x="44.918" y="108.41" width="1.0583" height="2.1167" fill="#0b0108"/>
<rect x="50.739" y="108.14" width="1.0583" height="1.3229" fill="#0b0108"/>
<rect x="52.062" y="109.47" width="1.0583" height="1.0583" fill="#0b0108"/>
<rect x="47.829" y="97.825" width=".26459" height="2.9104" fill="#0b0108"/>
<rect x="48.093" y="99.942" width="2.3812" height=".79375" fill="#0b0108"/>
<rect x="35.658" y="101" width="5.8208" height="5.8208" fill="#0b0108"/>
<rect x="41.214" y="97.561" width="2.6458" height="3.7042" fill="#26297e"/>
<rect x="40.421" y="98.354" width="2.6458" height="2.6458" fill="#26297e"/>
<rect x="43.596" y="98.884" width="1.5875" height="7.1438" fill="#26297e"/>
<rect x="35.923" y="105.76" width="3.4396" height="1.3229" fill="#26297e"/>
<rect x="37.51" y="106.82" width="1.8521" height="1.3229" fill="#26297e"/>
<rect x="35.393" y="104.97" width="1.8521" height="1.3229" fill="#26297e"/>
<rect x="44.918" y="103.38" width="3.4396" height="3.175" fill="#26297e"/>
<rect x="46.241" y="102.32" width="3.175" height="3.7042" fill="#26297e"/>
<rect x="47.829" y="100.74" width="2.6458" height="1.8521" fill="#26297e"/>
<rect x="47.035" y="101.79" width="1.0583" height=".79377" fill="#26297e"/>
<rect x="35.658" y="99.942" width="5.0271" height="3.4396" fill="#dc6b6a"/>
<rect x="36.981" y="98.619" width="2.6458" height="6.0854" fill="#dc6b6a"/>
<rect x="36.187" y="103.12" width="1.0583" height="1.0583" fill="#dc6b6a"/>
<rect x="37.51" y="95.444" width="2.3812" height="3.175" fill="#410705"/>
<rect x="39.627" y="95.973" width=".79375" height="3.9687" fill="#410705"/>
<rect x="40.156" y="96.238" width="1.3229" height="1.3229" fill="#410705"/>
<rect x="40.156" y="97.296" width="1.0583" height="1.0583" fill="#410705"/>
<rect x="45.183" y="96.238" width="1.0583" height="7.1438" fill="#410705"/>
<rect x="45.977" y="97.561" width="1.0583" height="4.7625" fill="#410705"/>
<rect x="47.035" y="97.825" width=".79374" height="3.9687" fill="#410705"/>
<rect x="40.156" y="98.09" width=".79375" height="1.0583" fill="#410705"/>
<rect x="36.187" y="97.031" width="1.5875" height="1.5875" fill="#410705"/>
<rect x="35.658" y="98.354" width="1.3229" height="1.5875" fill="#410705"/>
<rect x="43.86" y="80.892" width="3.4396" height="1.5875" fill="#c4a38b"/>
<rect x="44.918" y="79.569" width="1.5875" height="1.5875" fill="#c4a38b"/>
<rect x="44.125" y="78.511" width=".79375" height="2.3812" fill="#410705"/>
<rect x="44.654" y="78.511" width="1.8521" height="1.0583" fill="#410705"/>
<rect x="46.506" y="78.511" width=".79375" height="2.3812" fill="#410705"/>
<rect transform="scale(-1,1)" x="-44.389" y="80.098" width="3.175" height=".79375" fill="#410705"/>
<rect x="40.95" y="80.627" width="2.9104" height="2.3812" fill="#410705"/>
<rect x="38.833" y="82.479" width="2.3813" height="2.3812" fill="#410705"/>
<rect x="45.183" y="89.094" width="1.0583" height="1.0583" fill="#524423"/>
<rect x="48.623" y="89.094" width="1.8521" height="1.0583" fill="#524423"/>
<rect x="48.623" y="90.152" width="1.8521" height="1.5875" fill="#695c42"/>
<rect x="43.86" y="90.417" width="5.0271" height="1.3229" fill="#695c42"/>
<rect x="45.183" y="90.152" width="1.0583" height=".52917" fill="#695c42"/>
<rect x="40.421" y="90.417" width="3.7042" height=".52917" fill="#695c42"/>
<rect x="40.416" y="90.681" width="2.3856" height="1.0583" fill="#695c42"/>
<rect x="36.187" y="90.417" width="3.4439" height="1.3229" fill="#695c42"/>
<rect x="35.129" y="88.036" width="3.175" height="2.3813" fill="#695c42"/>
<rect x="36.452" y="86.977" width="1.8521" height="1.3229" fill="#695c42"/>
<rect x="39.362" y="91.475" width="2.3812" height="2.6458" fill="#695c42"/>
<rect x="41.479" y="92.798" width="1.3229" height="1.3229" fill="#695c42"/>
<rect x="40.421" y="93.856" width="1.3229" height="2.3813" fill="#695c42"/>
<rect x="41.479" y="94.915" width="3.7042" height="2.6458" fill="#695c42"/>
<rect x="44.918" y="94.121" width="1.3229" height="2.3812" fill="#695c42"/>
<rect x="47.3" y="94.121" width="1.0583" height="2.1167" fill="#695c42"/>
<rect x="45.977" y="95.179" width="1.3229" height="2.3812" fill="#695c42"/>
<rect x="46.241" y="85.39" width="2.3812" height="5.0271" fill="#fff"/>
<rect x="41.479" y="85.39" width="3.7042" height="5.0271" fill="#fff"/>
<rect x="44.918" y="86.713" width="1.5875" height="2.3812" fill="#fff"/>
<rect x="40.685" y="86.713" width="1.0583" height="2.6458" fill="#fff"/>
<rect x="40.421" y="86.977" width=".52916" height="2.3813" fill="#fff"/>
<rect x="48.623" y="85.919" width="2.9104" height=".79375"/>
<rect x="48.623" y="84.331" width="1.8521" height="1.8521"/>
<rect x="50.21" y="83.538" width="1.3229" height="1.0583"/>
<rect x="49.681" y="80.892" width=".79375" height="2.9104"/>
<rect x="47.3" y="80.098" width=".79375" height="2.9104"/>
<rect x="43.331" y="82.479" width="6.8792" height="2.9104"/>
<rect x="42.273" y="83.009" width="1.8521" height="2.3812"/>
<rect x="41.214" y="83.009" width="1.3229" height="2.3812"/>
<rect x="40.421" y="84.067" width="1.0583" height="2.6458"/>
<rect x="38.039" y="84.596" width="1.8521" height="2.3812" fill="#410705"/>
<rect x="36.187" y="85.125" width="2.1167" height="1.8521" fill="#410705"/>
<rect x="47.3" y="79.569" width=".52916" height=".52918" fill="#410705"/>
<rect x="48.358" y="78.511" width=".79375" height="1.0583" fill="#410705"/>
<rect x="40.95" y="78.246" width=".52917" height="2.3813" fill="#410705"/>
<rect x="38.833" y="80.098" width="2.3813" height=".52917" fill="#410705"/>
<rect x="36.716" y="82.479" width="2.3812" height=".52917" fill="#410705"/>
<rect x="34.864" y="83.538" width="1.8521" height=".52917" fill="#410705"/>
<rect x="35.129" y="85.919" width="1.3229" height=".52917" fill="#410705"/>
<rect x="36.452" y="81.156" width=".52916" height="4.2333" fill="#410705"/>
<rect x="39.627" y="84.861" width="1.0583" height="2.1167"/>
<rect x="39.098" y="86.184" width="1.3229" height="4.2333"/>
<rect x="38.304" y="86.713" width="1.0583" height="3.7042"/>
<rect x="40.156" y="89.359" width="1.3229" height="1.0583"/>
<rect x="39.627" y="90.152" width=".79375" height="1.3229"/>
<rect x="45.183" y="85.125" width="1.0583" height="1.5875"/>
<rect x="43.066" y="88.3" width=".79375" height=".79375"/>
<rect x="46.506" y="88.3" width=".52917" height=".79375"/>
<rect x="46.241" y="88.036" width="1.0583" height=".79375"/>
<rect x="42.802" y="91.74" width="8.7312" height="2.3812"/>
<rect x="48.358" y="93.592" width="2.1167" height="1.5875"/>
<rect x="48.358" y="94.915" width="1.0583" height="1.3229"/>
<rect x="46.241" y="93.856" width="1.0583" height="1.3229"/>
<rect x="42.802" y="93.856" width="2.1167" height="1.0583"/>
<rect x="41.743" y="94.121" width="1.3229" height=".79375"/>
<rect x="41.743" y="91.74" width="1.3229" height="1.0583"/>
<rect x="42.802" y="90.946" width="1.0583" height="1.0583"/>
<rect x="36.187" y="91.74" width="3.175" height="1.0583"/>
<rect x="37.51" y="92.534" width="1.8521" height="1.3229"/>
<rect x="38.568" y="93.592" width=".79375" height="1.8521"/>
<rect x="39.098" y="94.121" width="1.3229" height="1.3229"/>
<rect x="39.891" y="95.444" width=".52917" height=".52917"/>
</g>
</g>
</svg>
