<svg xmlns="http://www.w3.org/2000/svg" width="269.998" height="121.999" viewBox="0 0 71.437 32.279"><path fill="#b1aea0" d="M44.715 21.696h4.498v5.821h-4.498z"/><path fill="#b1aea0" d="M42.334 26.194h2.646v1.323h-2.646z"/><path fill="#b1aea0" d="M43.392 23.284h1.323v3.175h-1.323zM38.894 15.61h1.587v1.323h-1.587zM37.836 16.933h.794v1.058h-.794zM6.615 25.134h3.44v1.323h-3.44z"/><path fill="#b1aea0" d="M5.292 26.454h2.117v1.323H5.292z"/><path fill="#b1aea0" d="M4.234 27.514h1.323v1.323H4.234z"/><path fill="#b1aea0" d="M3.175 28.574h1.323v1.323H3.175z"/><path fill="#6d7073" d="M12.171 27.514h5.027v2.646h-5.027z"/><path fill="#6d7073" d="M13.12 26.194h5.136v1.587H13.12z"/><path fill="#6d7073" d="M15.346 25.134h1.852v1.323h-1.852z"/><path fill="#6d7073" d="M14.023 24.074h1.852v1.323h-1.852z"/><path fill="#6d7073" d="M13.229 22.754h1.852v1.323h-1.852z"/><path fill="#6d7073" d="M12.171 21.696h1.323v1.323h-1.323zM11.113 20.373h1.323v1.323h-1.323zM2.117 29.634h10.692v1.587H2.117z"/><path fill="#6d7073" d="M5.556 27.784h6.35v2.117h-6.35z"/><path fill="#6d7073" d="M4.498 28.844h1.697v1.587H4.498zM7.144 26.454h3.175v1.587H7.144zM53.181 28.574h15.081v2.646H53.181z"/><path fill="#6d7073" d="M67.998 30.164h1.587v1.058h-1.587zM61.384 25.134h3.813v3.704h-3.813z"/><path fill="#6d7073" d="M65.088 26.454h2.117v2.381h-2.117zM51.594 26.194h6.988v2.646h-6.988z"/><path fill="#6d7073" d="M58.364 27.254h3.02v1.587h-3.02zM58.893 20.373h1.697v1.587h-1.697z"/><path fill="#6d7073" d="M57.679 21.696h1.697v1.587h-1.697z"/><path fill="#6d7073" d="M56.886 22.494h1.697v1.587h-1.697z"/><path fill="#6d7073" d="M55.827 24.074h1.697v1.587h-1.697z"/><path fill="#6d7073" d="M54.66 24.874h1.697v1.587H54.66zM15.346 29.894h1.697v1.587h-1.697zM47.096 23.014h1.058v8.202h-1.058z"/><path fill="#6d7073" d="M47.89 24.074h3.44v7.142h-3.44zM45.773 23.814h1.587v7.673h-1.587z"/><path fill="#6d7073" d="M44.715 25.664h1.323v5.821h-1.323z"/><path fill="#6d7073" d="M39.314 27.514h5.93v3.863h-5.93z"/><path fill="#6d7073" d="M39.423 20.638h1.852v7.408h-1.852z"/><path fill="#6d7073" d="M41.011 21.696h1.587v5.027h-1.587zM32.015 22.754h5.136v7.673h-5.136z"/><path fill="#6d7073" d="M34.287 20.373h3.02v2.646h-3.02z"/><path fill="#6d7073" d="M35.61 19.05h3.02v2.646h-3.02z"/><path fill="#6d7073" d="M36.668 17.727h3.02v2.646h-3.02z"/><path fill="#6d7073" d="M38.52 16.404h3.02v2.646h-3.02z"/><path fill="#424b58" d="M49.213 28.044h3.969v3.175h-3.969z"/><path fill="#424b58" d="M48.419 30.164h1.587v1.058h-1.587zM34.661 30.164h7.938v1.058h-7.938zM36.777 25.664h2.646v4.498h-2.646z"/><path fill="#424b58" d="M34.661 26.454h3.175v4.233h-3.175zM51.065 25.404h1.058v2.91h-1.058zM59.002 28.314h1.852v2.117h-1.852zM62.442 29.104H63.5v2.117h-1.058z"/><path fill="#424b58" d="M60.59 30.424h2.117v.794H60.59z"/><path fill="#424b58" d="M61.119 30.164h1.587v.265h-1.587z"/><path fill="#1e2736" d="M35.984 31.224H70.38v1.058H35.984zM.794 31.224H16.14v1.058H.794z"/><path fill="#1e2736" d="M12.171 29.894h3.206v1.549h-3.206zM39.159 30.164h.794v1.323h-.794zM55.827 30.694h3.175v.794h-3.175zM37.042 30.164h.794v1.323h-.794z"/><path d="M17.727 25.664h.794v1.058h-.794z"/><path d="M16.934 25.664h.794v.529h-.794zM15.875 24.344h.794v.794h-.794zM14.817 23.284h.794v.794h-.794zM13.494 21.964h.794v.794h-.794zM12.436 20.638h.794v.794h-.794zM11.377 21.696h.794v.794h-.794zM10.319 19.579h1.587v.794h-1.587z"/><path d="M10.319 20.108h.794v1.587h-.794zM12.436 23.014h.794v.794h-.794zM13.494 24.074h.794v2.117h-.794z"/><path d="M14.023 25.404h1.587v.794h-1.587zM15.875 26.724h.794v.794h-.794zM12.436 26.724h.794v.794h-.794zM11.377 27.784h.794v2.117h-.794zM10.054 25.404h.794v2.117h-.794zM6.879 24.344h3.175v.794H6.879zM5.556 25.404h1.058v1.058H5.556zM4.498 26.454h1.058v1.058H4.498zM3.175 27.784h1.058v1.058H3.175zM2.117 28.844h1.058v1.058H2.117zM1.059 30.164h1.058v1.058H1.059zM0 31.484h1.058v.794H0zM33.338 21.964h2.381v.794h-2.381zM33.602 20.638h.794v1.323h-.794zM34.661 19.315h1.058v1.058h-1.058zM35.719 18.256h1.058v1.058h-1.058zM37.042 17.198h.794v.794h-.794zM34.925 15.875h.794v.794h-.794zM38.1 16.14h.794v.794H38.1zM39.159 14.817h.794v.794h-.794zM40.481 16.14h.794v.794h-.794zM41.54 17.198h.794v.794h-.794zM40.217 18.256h.794v.794h-.794zM39.159 19.579h.794v.794h-.794zM40.217 20.902h.794v.794h-.794zM38.1 20.638h.794v.794H38.1zM37.042 21.696h.794v.794h-.794zM35.984 23.014h.794v.794h-.794zM37.042 24.344h.794v.794h-.794zM38.1 25.664h.794v4.233H38.1zM41.54 21.964h.794v2.117h-.794zM39.423 21.696h.794v3.44h-.794zM42.598 24.344h.794v2.117h-.794zM40.217 26.454h2.381v1.058h-2.381z"/><path d="M38.629 27.784h1.587v.794h-1.587zM43.656 23.014h.794v.794h-.794zM44.715 21.964h.794v.794h-.794zM46.038 20.902h2.91v.794h-2.91zM49.213 21.964h.794v2.381h-.794zM50.271 24.344h1.058v.794h-1.058zM51.594 25.404h.794v3.175h-.794z"/><path d="M52.123 26.724h1.323v.794h-1.323zM53.975 25.404h.794v.794h-.794zM55.034 24.344h.794v.794h-.794zM56.092 23.284h.794v.794h-.794zM57.15 21.964h.794v.794h-.794zM58.209 20.638h.794v.794h-.794zM59.531 19.579h1.852v.794h-1.852z"/><path d="M60.59 20.108h.794v1.587h-.794zM59.531 21.964h.794v.794h-.794zM58.473 23.014h.794v.794h-.794zM57.15 24.074h.794v2.117h-.794z"/><path d="M56.092 25.404h1.323v.794h-1.323zM55.034 26.724h.794v.794h-.794zM58.473 26.724h.794v.794h-.794zM53.711 27.784h1.058v1.323h-1.058z"/><path d="M52.652 29.104h3.175v.794h-3.175z"/><path d="M52.652 29.634h.794v1.587h-.794zM59.531 27.784h.794v2.117h-.794zM55.827 30.164h3.175v.794h-3.175zM60.59 25.404h.794v2.117h-.794zM61.648 24.344h3.175v.794h-3.175zM65.088 25.404h1.058v1.058h-1.058zM66.146 26.454h1.058v1.058h-1.058zM67.204 27.784h1.058v1.058h-1.058zM68.263 29.104h1.058v1.058h-1.058zM69.321 30.164h1.058v1.058h-1.058zM70.379 31.224h1.058v1.058h-1.058zM33.338 25.404h1.058v1.058h-1.058zM16.934 27.784h2.117v3.175h-2.117z"/><path d="M15.611 28.844h1.587v1.058h-1.587zM17.992 30.424h.794v1.852h-.794zM15.346 31.484h1.058v.794h-1.058z"/><path fill="#755a31" d="M18.786 29.894h4.763v2.381h-4.763zM24.606 28.314h8.731v3.969h-8.731zM33.338 30.164h1.587v2.117h-1.587z"/><path fill="#a08ab0" d="M22.225 28.574h1.323v1.323h-1.323zM18.786 28.844h1.587v1.058h-1.587z"/><path fill="#40223e" d="M17.727 28.844h1.058v1.058h-1.058z"/><path fill="#a08ab0" d="M27.781 28.844h1.323v1.323h-1.323zM30.163 28.844h2.117v1.058h-2.117z"/><path fill="#68575c" d="M26.723 19.315h1.323v1.323h-1.323z"/><path fill="#0b0108" d="M23.284 22.754h4.498v5.821h-4.498zM32.279 26.454h1.058v3.704h-1.058z"/><path fill="#0b0108" d="M31.221 27.784h1.323v1.058h-1.323zM23.548 28.314h1.058v3.969h-1.058zM25.665 28.314h1.058v3.969h-1.058zM27.781 30.164h1.058v2.117h-1.058zM33.602 29.894h1.058v1.323h-1.058zM34.925 31.224h1.058v1.058h-1.058zM30.692 19.579h.265v2.91h-.265z"/><path fill="#0b0108" d="M30.956 21.696h2.381v.794h-2.381zM18.521 22.754h5.821v5.821h-5.821z"/><path fill="#26297e" d="M24.077 19.315h2.646v3.704h-2.646z"/><path fill="#26297e" d="M23.284 20.108h2.646v2.646h-2.646zM26.459 20.638h1.587v7.144h-1.587zM18.786 27.514h3.44v1.323h-3.44z"/><path fill="#26297e" d="M20.373 28.574h1.852v1.323h-1.852zM18.256 26.724h1.852v1.323h-1.852zM27.781 25.134h3.44v3.175h-3.44z"/><path fill="#26297e" d="M29.104 24.074h3.175v3.704h-3.175z"/><path fill="#26297e" d="M30.692 22.494h2.646v1.852h-2.646z"/><path fill="#26297e" d="M29.898 23.544h1.058v.794h-1.058z"/><path fill="#dc6b6a" d="M18.521 21.696h5.027v3.44h-5.027z"/><path fill="#dc6b6a" d="M19.844 20.373h2.646v6.085h-2.646z"/><path fill="#dc6b6a" d="M19.05 24.874h1.058v1.058H19.05z"/><path fill="#410705" d="M20.373 17.198h2.381v3.175h-2.381z"/><path fill="#410705" d="M22.49 17.727h.794v3.969h-.794z"/><path fill="#410705" d="M23.019 17.992h1.323v1.323h-1.323z"/><path fill="#410705" d="M23.019 19.05h1.058v1.058h-1.058zM28.046 17.992h1.058v7.144h-1.058z"/><path fill="#410705" d="M28.84 19.315h1.058v4.763H28.84zM29.898 19.579h.794v3.969h-.794zM23.019 19.844h.794v1.058h-.794zM19.05 18.785h1.587v1.587H19.05z"/><path fill="#410705" d="M18.521 20.108h1.323v1.587h-1.323z"/><path fill="#c4a38b" d="M26.723 2.646h3.44v1.587h-3.44z"/><path fill="#c4a38b" d="M27.781 1.323h1.587V2.91h-1.587z"/><path fill="#410705" d="M26.988.265h.794v2.381h-.794z"/><path fill="#410705" d="M27.517.265h1.852v1.058h-1.852zM29.369.265h.794v2.381h-.794zM27.252 1.852h-3.175v.794h3.175z"/><path fill="#410705" d="M23.813 2.381h2.91v2.381h-2.91z"/><path fill="#410705" d="M21.696 4.233h2.381v2.381h-2.381z"/><path fill="#524423" d="M28.046 10.848h1.058v1.058h-1.058zM31.486 10.848h1.852v1.058h-1.852z"/><path fill="#695c42" d="M31.486 11.906h1.852v1.587h-1.852z"/><path fill="#695c42" d="M26.723 12.171h5.027v1.323h-5.027z"/><path fill="#695c42" d="M28.046 11.906h1.058v.529h-1.058zM23.284 12.171h3.704v.529h-3.704z"/><path fill="#695c42" d="M23.279 12.435h2.386v1.058h-2.386zM19.05 12.171h3.444v1.323H19.05zM17.992 9.79h3.175v2.381h-3.175z"/><path fill="#695c42" d="M19.315 8.731h1.852v1.323h-1.852zM22.225 13.229h2.381v2.646h-2.381z"/><path fill="#695c42" d="M24.342 14.552h1.323v1.323h-1.323z"/><path fill="#695c42" d="M23.284 15.61h1.323v2.381h-1.323z"/><path fill="#695c42" d="M24.342 16.669h3.704v2.646h-3.704z"/><path fill="#695c42" d="M27.781 15.875h1.323v2.381h-1.323zM30.163 15.875h1.058v2.117h-1.058z"/><path fill="#695c42" d="M28.84 16.933h1.323v2.381H28.84z"/><path fill="#fff" d="M29.104 7.144h2.381v5.027h-2.381zM24.342 7.144h3.704v5.027h-3.704z"/><path fill="#fff" d="M27.781 8.467h1.587v2.381h-1.587zM23.548 8.467h1.058v2.646h-1.058z"/><path fill="#fff" d="M23.284 8.731h.529v2.381h-.529z"/><path d="M31.486 7.673h2.91v.794h-2.91z"/><path d="M31.486 6.085h1.852v1.852h-1.852z"/><path d="M33.073 5.292h1.323V6.35h-1.323z"/><path d="M32.544 2.646h.794v2.91h-.794zM30.163 1.852h.794v2.91h-.794z"/><path d="M26.194 4.233h6.879v2.91h-6.879z"/><path d="M25.136 4.763h1.852v2.381h-1.852z"/><path d="M24.077 4.763H25.4v2.381h-1.323z"/><path d="M23.284 5.821h1.058v2.646h-1.058z"/><path fill="#410705" d="M20.902 6.35h1.852v2.381h-1.852z"/><path fill="#410705" d="M19.05 6.879h2.117v1.852H19.05zM30.163 1.323h.529v.529h-.529zM31.221.265h.794v1.058h-.794zM23.813 0h.529v2.381h-.529z"/><path fill="#410705" d="M21.696 1.852h2.381v.529h-2.381zM19.579 4.233h2.381v.529h-2.381zM17.727 5.292h1.852v.529h-1.852zM17.992 7.673h1.323v.529h-1.323z"/><path fill="#410705" d="M19.315 2.91h.529v4.233h-.529z"/><path d="M22.49 6.615h1.058v2.117H22.49z"/><path d="M21.961 7.938h1.323v4.233h-1.323z"/><path d="M21.167 8.467h1.058v3.704h-1.058zM23.019 11.113h1.323v1.058h-1.323z"/><path d="M22.49 11.906h.794v1.323h-.794zM28.046 6.879h1.058v1.587h-1.058zM25.929 10.054h.794v.794h-.794zM29.369 10.054h.529v.794h-.529z"/><path d="M29.104 9.79h1.058v.794h-1.058zM25.665 13.494h8.731v2.381h-8.731z"/><path d="M31.221 15.346h2.117v1.587h-2.117z"/><path d="M31.221 16.669h1.058v1.323h-1.058zM29.104 15.61h1.058v1.323h-1.058zM25.665 15.61h2.117v1.058h-2.117z"/><path d="M24.606 15.875h1.323v.794h-1.323zM24.606 13.494h1.323v1.058h-1.323z"/><path d="M25.665 12.7h1.058v1.058h-1.058zM19.05 13.494h3.175v1.058H19.05z"/><path d="M20.373 14.288h1.852v1.323h-1.852z"/><path d="M21.431 15.346h.794v1.852h-.794z"/><path d="M21.961 15.875h1.323v1.323h-1.323zM22.754 17.198h.529v.529h-.529z"/></svg>