<?xml version="1.0" encoding="UTF-8"?>
<svg version="1.1" viewBox="0 0 12.485 12.311" xmlns="http://www.w3.org/2000/svg" xmlns:cc="http://creativecommons.org/ns#" xmlns:dc="http://purl.org/dc/elements/1.1/" xmlns:rdf="http://www.w3.org/1999/02/22-rdf-syntax-ns#">
 <metadata>
  <rdf:RDF>
   <cc:Work rdf:about="">
    <dc:format>image/svg+xml</dc:format>
    <dc:type rdf:resource="http://purl.org/dc/dcmitype/StillImage"/>
    <dc:title/>
   </cc:Work>
  </rdf:RDF>
 </metadata>
 <g transform="translate(-78.981 -114.69)">
  <g transform="translate(200.55 17.462)">
   <g fill="#006800">
    <rect x="-113.76" y="97.231" width="3.906" height="7.0447" opacity=".996" stroke-width=".265"/>
    <rect x="-113.82" y="97.998" width="4.736" height="3.8362" opacity=".996" stroke-width=".65839"/>
    <g stroke-width=".265">
     <rect x="-116.2" y="97.928" width="3.2085" height="10.428" opacity=".996"/>
     <rect x="-121.57" y="105.22" width="4.6732" height="4.3245" opacity=".996"/>
     <rect x="-117.56" y="98.835" width="2.9295" height="10.044" opacity=".996"/>
     <rect x="-120.63" y="102.78" width="10.009" height="3.1039" opacity=".996"/>
     <rect x="-118.54" y="99.567" width="7.1145" height="7.1145" opacity=".996"/>
     <rect x="-119.34" y="100.33" width="7.1145" height="6.9401" opacity=".996"/>
     <rect x="-119.93" y="101.21" width=".62775" height="1.8832" opacity=".996"/>
    </g>
   </g>
   <g transform="matrix(-1 0 0 1 -218.07 -.21924)" fill="#a7bc00" stroke-width=".265">
    <rect x="-107.6" y="98.998" width="3.175" height="2.9986" opacity=".996"/>
    <rect x="-101.29" y="105.22" width="3.0427" height="2.9986" opacity=".996"/>
    <rect x="-103.76" y="102.79" width="4.6743" height="4.4097" opacity=".996"/>
    <rect x="-104.95" y="101.25" width="5.1153" height="5.4681" opacity=".996"/>
    <rect x="-106.14" y="100.41" width="5.3799" height="5.5563" opacity=".996"/>
    <rect x="-106.89" y="99.572" width="4.7625" height="4.8066" opacity=".996"/>
   </g>
   <g transform="matrix(-1 0 0 1 -218.11 -.22944)" fill="#004a00" stroke-width=".265">
    <rect x="-106.16" y="100.47" width="1.0061" height=".75973" opacity=".996"/>
    <rect x="-105.15" y="101.23" width=".63653" height=".8008" opacity=".996"/>
    <rect x="-104.51" y="102.03" width=".71866" height=".75973" opacity=".996"/>
    <rect x="-103.8" y="102.79" width=".80079" height=".75973" opacity=".996"/>
    <rect x="-102.99" y="103.55" width=".80078" height=".69813" opacity=".996"/>
    <rect x="-102.19" y="104.25" width=".82133" height=".90346" opacity=".996"/>
    <rect x="-101.37" y="105.15" width=".75973" height=".82133" opacity=".996"/>
    <rect x="-100.61" y="105.97" width=".82133" height=".75973" opacity=".996"/>
    <rect x="-99.791" y="106.73" width=".80079" height=".55439" opacity=".996"/>
    <rect x="-104.51" y="100.47" width="2.9978" height=".75971" opacity=".996"/>
    <rect x="-102.99" y="102.05" width="3.1005" height=".73919" opacity=".996"/>
    <rect x="-101.37" y="103.61" width="2.3202" height=".63653" opacity=".996"/>
    <rect x="-99.791" y="105.23" width="1.4579" height=".7392" opacity=".996"/>
    <rect x="-98.99" y="107.29" width=".71866" height=".96506" opacity=".996"/>
    <rect x="-101.39" y="106.73" width=".78026" height="1.5811" opacity=".996"/>
    <rect x="-103.01" y="105.15" width=".82132" height="2.1149" opacity=".996"/>
    <rect x="-104.45" y="103.55" width=".65707" height="3.121" opacity=".996"/>
    <rect x="-105.97" y="102.05" width=".80079" height="2.9978" opacity=".996"/>
    <rect x="-107.57" y="98.888" width=".61599" height=".61599" opacity=".996"/>
    <rect x="-106.96" y="99.504" width=".80079" height=".96506" opacity=".996"/>
   </g>
  </g>
 </g>
</svg>
