<svg xmlns="http://www.w3.org/2000/svg" width="100%" height="70">
  <pattern id="bg" patternUnits="userSpaceOnUse" width="85.689" height="70">
  <defs>
    <filter id="a" width="1" height="1" x="0" y="0" color-interpolation-filters="sRGB">
      <feGaussianBlur stdDeviation=".001"/>
    </filter>
  </defs>
  <g filter="url(#a)" transform="matrix(2.79182 0 0 2.79176 -105.206 -181.033)">
    <path fill="#c69e64" d="M37.686 73.498h30.688v16.419H37.686Z"/>
    <path fill="#e1c664" d="M57.079 81.872h4.187v5.289h-4.187Zm-10.358-2.975h4.187v5.289h-4.187zm-5.069 5.951h1.983v3.416h-1.983z"/><path fill="#5ccb3c" d="M37.686 66.666h30.688v6.832H37.686Z"/><path d="M37.686 64.848h30.688v1.818H37.686Z"/><g stroke-width=".265"><rect width="5.84" height="1.653" x="37.686" y="75.151" ry="0"/><rect width="3.912" height="1.653" x="43.526" y="73.498" ry="0"/><path d="M47.437 71.845h5.455v1.653h-5.455zm5.455 1.543h5.895v1.543h-5.895zM58.787 71.79h5.675v1.708h-5.675zm5.675 1.598h3.912v1.543h-3.912z"/></g><g fill="#35794d" stroke-width=".265"><rect width="5.84" height="1.653" x="37.686" y="73.498" ry="0"/><rect width="3.912" height="1.653" x="43.526" y="71.845" ry="0"/><path d="M47.437 70.192h5.455v1.653h-5.455zm5.455 1.653h5.895v1.543h-5.895zm5.895-1.708h5.675v1.708h-5.675zm5.675 1.708h3.912v1.543h-3.912z"/></g><g fill="#786c29" stroke-width=".265"><rect width="5.84" height="1.653" x="37.686" y="76.693" ry="0"/><rect width="3.912" height="1.653" x="43.526" y="75.04" ry="0"/><path d="M47.437 73.388h5.455v1.653h-5.455zm5.455 1.542h5.895v1.543h-5.895zM58.787 73.333h5.675v1.708h-5.675zm5.675 1.597h3.912v1.543h-3.912z"/></g>
  </g>
  </pattern>
  <rect width="100%" height="100%" fill="url(#bg)"/>
</svg>
