<?xml version="1.0" encoding="UTF-8"?>
<svg width="40px" height="40px" version="1.1" viewBox="0 0 23.541 21.831" xmlns="http://www.w3.org/2000/svg" xmlns:cc="http://creativecommons.org/ns#" xmlns:dc="http://purl.org/dc/elements/1.1/" xmlns:rdf="http://www.w3.org/1999/02/22-rdf-syntax-ns#">
 <metadata>
  <rdf:RDF>
   <cc:Work rdf:about="">
    <dc:format>image/svg+xml</dc:format>
    <dc:type rdf:resource="http://purl.org/dc/dcmitype/StillImage"/>
    <dc:title/>
   </cc:Work>
  </rdf:RDF>
 </metadata>
 <g transform="translate(-67.851 -80.609)">
  <g transform="matrix(6.3562 0 0 6.3562 335.24 -1271.5)">
   <g transform="translate(42.069,10.848)">
    <rect x="-82.55" y="201.88" width=".26458" height=".26458" opacity=".996"/>
    <rect x="-82.285" y="201.88" width=".26458" height=".26458" opacity=".996"/>
    <rect x="-82.021" y="201.88" width=".26458" height=".26458" opacity=".996"/>
    <rect x="-82.021" y="202.14" width=".26458" height=".26458" opacity=".996"/>
    <rect x="-82.021" y="202.41" width=".26458" height=".26458" opacity=".996"/>
    <rect x="-82.021" y="202.67" width=".26458" height=".26458" opacity=".996"/>
    <rect x="-81.756" y="202.67" width=".26458" height=".26458" opacity=".996"/>
    <rect x="-82.285" y="202.67" width=".26458" height=".26458" opacity=".996"/>
    <rect x="-82.55" y="202.67" width=".26458" height=".26458" opacity=".996"/>
    <rect x="-82.815" y="202.67" width=".26458" height=".26458" opacity=".996"/>
    <rect x="-82.55" y="202.41" width=".26458" height=".26458" opacity=".996"/>
    <rect x="-82.55" y="202.14" width=".26458" height=".26458" opacity=".996"/>
    <rect x="-81.756" y="202.14" width=".26458" height=".26458" opacity=".996"/>
    <rect x="-81.492" y="202.41" width=".26458" height=".26458" opacity=".996"/>
    <rect x="-81.227" y="202.41" width=".26458" height=".26458" opacity=".996"/>
    <rect x="-80.962" y="202.67" width=".26458" height=".26458" opacity=".996"/>
    <rect x="-80.962" y="202.94" width=".26458" height=".26458" opacity=".996"/>
    <rect x="-80.698" y="203.2" width=".26458" height=".26458" opacity=".996"/>
    <rect x="-80.698" y="203.46" width=".26458" height=".26458" opacity=".996"/>
    <rect x="-80.698" y="203.73" width=".26458" height=".26458" opacity=".996"/>
    <rect x="-80.698" y="203.99" width=".26458" height=".26458" opacity=".996"/>
    <rect x="-80.962" y="204.26" width=".26458" height=".26458" opacity=".996"/>
    <rect x="-81.227" y="204.52" width=".26458" height=".26458" opacity=".996"/>
    <rect x="-81.492" y="204.79" width=".26458" height=".26458" opacity=".996"/>
    <rect x="-81.756" y="204.79" width=".26458" height=".26458" opacity=".996"/>
    <rect x="-82.021" y="205.05" width=".26458" height=".26458" opacity=".996"/>
    <rect x="-82.285" y="205.05" width=".26458" height=".26458" opacity=".996"/>
    <rect x="-82.55" y="205.05" width=".26458" height=".26458" opacity=".996"/>
    <rect x="-82.815" y="205.05" width=".26458" height=".26458" opacity=".996"/>
    <rect x="-83.079" y="204.79" width=".26458" height=".26458" opacity=".996"/>
    <rect x="-83.344" y="204.79" width=".26458" height=".26458" opacity=".996"/>
    <rect x="-83.608" y="204.52" width=".26458" height=".26458" opacity=".996"/>
    <rect x="-83.873" y="204.26" width=".26458" height=".26458" opacity=".996"/>
    <rect x="-84.137" y="203.99" width=".26458" height=".26458" opacity=".996"/>
    <rect x="-84.137" y="203.73" width=".26458" height=".26458" opacity=".996"/>
    <rect x="-84.137" y="203.46" width=".26458" height=".26458" opacity=".996"/>
    <rect x="-84.137" y="203.2" width=".26458" height=".26458" opacity=".996"/>
    <rect x="-83.873" y="202.94" width=".26458" height=".26458" opacity=".996"/>
    <rect x="-83.873" y="202.67" width=".26458" height=".26458" opacity=".996"/>
    <rect x="-83.608" y="202.41" width=".26458" height=".26458" opacity=".996"/>
    <rect x="-83.344" y="202.41" width=".26458" height=".26458" opacity=".996"/>
    <rect x="-83.079" y="202.14" width=".26458" height=".26458" opacity=".996"/>
    <rect x="-82.815" y="202.14" width=".26458" height=".26458" opacity=".996"/>
   </g>
   <g fill="#fda200">
    <rect x="-41.01" y="215.11" width=".26458" height=".26458"/>
    <rect x="-41.275" y="215.37" width=".26458" height=".26458"/>
    <rect x="-41.01" y="215.37" width=".26458" height=".26458"/>
    <rect x="-40.746" y="215.37" width=".26458" height=".26458"/>
    <rect x="-40.746" y="215.64" width=".26458" height=".26458"/>
    <rect x="-40.481" y="215.64" width=".26458" height=".26458"/>
    <rect x="-40.217" y="215.64" width=".26458" height=".26458"/>
    <rect x="-39.952" y="215.64" width=".26458" height=".26458"/>
    <rect x="-39.952" y="215.37" width=".26458" height=".26458"/>
    <rect x="-39.423" y="215.37" width=".26458" height=".26458"/>
    <rect x="-39.158" y="215.11" width=".26458" height=".26458"/>
   </g>
   <g fill="#ff5700">
    <rect x="-41.54" y="215.11" width=".26458" height=".26458"/>
    <rect x="-41.275" y="215.11" width=".26458" height=".26458"/>
    <rect x="-41.01" y="214.84" width=".26458" height=".26458"/>
    <rect x="-40.746" y="215.11" width=".26458" height=".26458"/>
    <rect x="-40.481" y="215.37" width=".26458" height=".26458"/>
    <rect x="-40.217" y="215.37" width=".26458" height=".26458"/>
    <rect x="-39.952" y="215.11" width=".26458" height=".26458"/>
    <rect x="-39.688" y="215.37" width=".26458" height=".26458"/>
    <rect x="-39.423" y="215.11" width=".26458" height=".26458"/>
    <rect x="-39.158" y="214.84" width=".26458" height=".26458"/>
    <rect x="-38.894" y="214.84" width=".26458" height=".26458"/>
    <rect x="-39.423" y="214.31" width=".26458" height=".26458"/>
    <rect x="-39.423" y="214.05" width=".26458" height=".26458"/>
    <rect x="-39.688" y="213.78" width=".26458" height=".26458"/>
    <rect x="-39.952" y="213.78" width=".26458" height=".26458"/>
    <rect x="-39.688" y="214.05" width=".26458" height=".26458"/>
    <rect x="-39.688" y="214.31" width=".26458" height=".26458"/>
    <rect x="-39.688" y="214.58" width=".26458" height=".26458"/>
    <rect x="-39.952" y="214.58" width=".26458" height=".26458"/>
    <rect x="-39.952" y="214.31" width=".26458" height=".26458"/>
    <rect x="-39.952" y="214.05" width=".26458" height=".26458"/>
    <rect x="-40.217" y="214.05" width=".26458" height=".26458"/>
    <rect x="-40.217" y="214.31" width=".26458" height=".26458"/>
    <rect x="-41.54" y="213.52" width=".26458" height=".26458"/>
    <rect x="-41.54" y="213.78" width=".26458" height=".26458"/>
    <rect x="-41.54" y="214.05" width=".26458" height=".26458"/>
    <rect x="-41.54" y="214.31" width=".26458" height=".26458"/>
    <rect x="-41.804" y="214.31" width=".26458" height=".26458"/>
    <rect x="-41.804" y="214.05" width=".26458" height=".26458"/>
    <rect x="-41.275" y="214.05" width=".26458" height=".26458"/>
    <rect x="-41.275" y="213.78" width=".26458" height=".26458"/>
   </g>
   <rect x="-41.01" y="213.52" width=".26458" height=".26458" fill="#ddebdd"/>
   <g fill="#cf0000">
    <rect x="-40.217" y="212.99" width=".26458" height=".26458"/>
    <rect x="-40.217" y="213.25" width=".26458" height=".26458"/>
    <rect x="-39.688" y="213.25" width=".26458" height=".26458"/>
    <rect x="-40.746" y="213.25" width=".26458" height=".26458"/>
    <rect x="-41.01" y="213.25" width=".26458" height=".26458"/>
    <rect x="-41.275" y="213.52" width=".26458" height=".26458"/>
    <rect x="-39.423" y="213.52" width=".26458" height=".26458"/>
    <rect x="-39.158" y="213.52" width=".26458" height=".26458"/>
    <rect x="-39.158" y="213.78" width=".26458" height=".26458"/>
    <rect x="-39.423" y="213.78" width=".26458" height=".26458"/>
    <rect x="-40.217" y="213.78" width=".26458" height=".26458"/>
    <rect x="-40.481" y="213.78" width=".26458" height=".26458"/>
    <rect x="-40.746" y="213.78" width=".26458" height=".26458"/>
    <rect x="-41.01" y="213.78" width=".26458" height=".26458"/>
    <rect x="-41.01" y="214.05" width=".26458" height=".26458"/>
    <rect x="-40.746" y="214.05" width=".26458" height=".26458"/>
    <rect x="-40.481" y="214.05" width=".26458" height=".26458"/>
    <rect x="-39.158" y="214.05" width=".26458" height=".26458"/>
    <rect x="-38.894" y="214.05" width=".26458" height=".26458"/>
    <rect x="-38.894" y="214.31" width=".26458" height=".26458"/>
    <rect x="-38.894" y="214.58" width=".26458" height=".26458"/>
    <rect x="-39.158" y="214.58" width=".26458" height=".26458"/>
    <rect x="-39.158" y="214.31" width=".26458" height=".26458"/>
    <rect x="-39.423" y="214.58" width=".26458" height=".26458"/>
    <rect x="-39.423" y="214.84" width=".26458" height=".26458"/>
    <rect x="-39.688" y="215.11" width=".26458" height=".26458"/>
    <rect x="-39.688" y="214.84" width=".26458" height=".26458"/>
    <rect x="-39.952" y="214.84" width=".26458" height=".26458"/>
    <rect x="-40.217" y="214.84" width=".26458" height=".26458"/>
    <rect x="-40.217" y="215.11" width=".26458" height=".26458"/>
    <rect x="-40.481" y="215.11" width=".26458" height=".26458"/>
    <rect x="-40.481" y="214.84" width=".26458" height=".26458"/>
    <rect x="-40.217" y="214.58" width=".26458" height=".26458"/>
    <rect x="-40.481" y="214.58" width=".26458" height=".26458"/>
    <rect x="-40.746" y="214.58" width=".26458" height=".26458"/>
    <rect x="-41.01" y="214.58" width=".26458" height=".26458"/>
    <rect x="-41.275" y="214.58" width=".26458" height=".26458"/>
    <rect x="-41.54" y="214.58" width=".26458" height=".26458"/>
    <rect x="-41.804" y="214.58" width=".26458" height=".26458"/>
    <rect x="-41.804" y="214.84" width=".26458" height=".26458"/>
    <rect x="-41.54" y="214.84" width=".26458" height=".26458"/>
    <rect x="-41.275" y="214.84" width=".26458" height=".26458"/>
    <rect x="-40.746" y="214.84" width=".26458" height=".26458"/>
    <rect x="-40.481" y="214.31" width=".26458" height=".26458"/>
    <rect x="-40.746" y="214.31" width=".26458" height=".26458"/>
    <rect x="-41.01" y="214.31" width=".26458" height=".26458"/>
    <rect x="-41.275" y="214.31" width=".26458" height=".26458"/>
   </g>
   <path transform="scale(.26458)" d="m-151.99 805.51v-0.46875h0.98214v0.9375h-0.98214z" fill="none"/>
  </g>
 </g>
</svg>
