<svg xmlns="http://www.w3.org/2000/svg" viewBox="0 0 203.73 161.13"><defs><clipPath id="a"><path fill="#ff7f2a" stroke-width=".372" d="M179.92 230.19h13.229v13.229H179.92z"/></clipPath><clipPath id="b"><path fill="#ff7f2a" stroke-width=".372" d="M179.92 230.19h13.229v13.229H179.92z"/></clipPath><clipPath id="c"><path fill="#ff7f2a" stroke-width=".372" d="M-180.97 250.03h-13.229v13.229h13.229z"/></clipPath><clipPath id="d"><path fill="#ff7f2a" stroke-width=".372" d="M-180.97 250.03h-13.229v13.229h13.229z"/></clipPath><clipPath id="e"><path fill="#ff7f2a" stroke-width=".372" d="M-180.97 250.03h-13.229v13.229h13.229z"/></clipPath><clipPath id="f"><path fill="#ff7f2a" stroke-width=".372" d="M-180.97 250.03h-13.229v13.229h13.229z"/></clipPath><clipPath id="g"><path fill="#ff7f2a" stroke-width=".372" d="M180.97-250.03h13.229v-13.229H180.97z"/></clipPath><clipPath id="h"><path fill="#ff7f2a" stroke-width=".372" d="M-180.97 250.03h-13.229v13.229h13.229z"/></clipPath><clipPath id="i"><path fill="#ff7f2a" stroke-width=".372" d="M-180.97 250.03h-13.229v13.229h13.229z"/></clipPath><clipPath id="j"><path fill="#ff7f2a" stroke-width=".372" d="M180.97 250.03h13.229v13.229H180.97z"/></clipPath><clipPath id="k"><path fill="#ff7f2a" stroke-width=".372" d="M179.92 230.19h13.229v13.229H179.92z"/></clipPath><clipPath id="l"><path fill="#ff7f2a" stroke-width=".372" d="M-180.97 250.03h-13.229v13.229h13.229z"/></clipPath><clipPath id="m"><path fill="#ff7f2a" stroke-width=".372" d="M-180.97 250.03h-13.229v13.229h13.229z"/></clipPath><clipPath id="n"><path fill="#ff7f2a" stroke-width=".372" d="M-180.97 250.03h-13.229v13.229h13.229z"/></clipPath><clipPath id="o"><path fill="#ff7f2a" stroke-width=".372" d="M-180.97 250.03h-13.229v13.229h13.229z"/></clipPath><clipPath id="p"><path fill="#ff7f2a" stroke-width=".372" d="M180.97-250.03h13.229v-13.229H180.97z"/></clipPath><clipPath id="q"><path fill="#ff7f2a" stroke-width=".372" d="M-180.97 250.03h-13.229v13.229h13.229z"/></clipPath><clipPath id="r"><path fill="#ff7f2a" stroke-width=".372" d="M-180.97 250.03h-13.229v13.229h13.229z"/></clipPath><clipPath id="s"><path fill="#ff7f2a" stroke-width=".372" d="M179.92 230.19h13.229v13.229H179.92z"/></clipPath><clipPath id="t"><path fill="#ff7f2a" stroke-width=".372" d="M-180.97 250.03h-13.229v13.229h13.229z"/></clipPath><clipPath id="u"><path fill="#ff7f2a" stroke-width=".372" d="M-180.97 250.03h-13.229v13.229h13.229z"/></clipPath><clipPath id="v"><path fill="#ff7f2a" stroke-width=".372" d="M-180.97 250.03h-13.229v13.229h13.229z"/></clipPath><clipPath id="w"><path fill="#ff7f2a" stroke-width=".372" d="M-180.97 250.03h-13.229v13.229h13.229z"/></clipPath><clipPath id="x"><path fill="#ff7f2a" stroke-width=".372" d="M180.97-250.03h13.229v-13.229H180.97z"/></clipPath><clipPath id="y"><path fill="#ff7f2a" stroke-width=".372" d="M-180.97 250.03h-13.229v13.229h13.229z"/></clipPath><clipPath id="z"><path fill="#ff7f2a" stroke-width=".372" d="M-180.97 250.03h-13.229v13.229h13.229z"/></clipPath><clipPath id="A"><path fill="#ff7f2a" stroke-width=".372" d="M180.97 250.03h13.229v13.229H180.97z"/></clipPath><clipPath id="B"><path fill="#ff7f2a" stroke-width=".372" d="M179.92 230.19h13.229v13.229H179.92z"/></clipPath><clipPath id="C"><path fill="#ff7f2a" stroke-width=".372" d="M179.92 230.19h13.229v13.229H179.92z"/></clipPath><clipPath id="D"><path fill="#ff7f2a" stroke-width=".372" d="M-180.97 250.03h-13.229v13.229h13.229z"/></clipPath><clipPath id="E"><path fill="#ff7f2a" stroke-width=".372" d="M-180.97 250.03h-13.229v13.229h13.229z"/></clipPath><clipPath id="F"><path fill="#ff7f2a" stroke-width=".372" d="M-180.97 250.03h-13.229v13.229h13.229z"/></clipPath><clipPath id="G"><path fill="#ff7f2a" stroke-width=".372" d="M-180.97 250.03h-13.229v13.229h13.229z"/></clipPath><clipPath id="H"><path fill="#ff7f2a" stroke-width=".372" d="M180.97-250.03h13.229v-13.229H180.97z"/></clipPath><clipPath id="I"><path fill="#ff7f2a" stroke-width=".372" d="M-180.97 250.03h-13.229v13.229h13.229z"/></clipPath><clipPath id="J"><path fill="#ff7f2a" stroke-width=".372" d="M-180.97 250.03h-13.229v13.229h13.229z"/></clipPath><clipPath id="K"><path fill="#ff7f2a" stroke-width=".372" d="M180.97 250.03h13.229v13.229H180.97z"/></clipPath><clipPath id="L"><path fill="#ff7f2a" stroke-width=".372" d="M-180.97 250.03h-13.229v13.229h13.229z"/></clipPath><clipPath id="M"><path fill="#ff7f2a" stroke-width=".372" d="M-180.97 250.03h-13.229v13.229h13.229z"/></clipPath><clipPath id="N"><path fill="#ff7f2a" stroke-width=".372" d="M-180.97 250.03h-13.229v13.229h13.229z"/></clipPath><clipPath id="O"><path fill="#ff7f2a" stroke-width=".372" d="M-180.97 250.03h-13.229v13.229h13.229z"/></clipPath><clipPath id="P"><path fill="#ff7f2a" stroke-width=".372" d="M180.97-250.03h13.229v-13.229H180.97z"/></clipPath><clipPath id="Q"><path fill="#ff7f2a" stroke-width=".372" d="M-180.97 250.03h-13.229v13.229h13.229z"/></clipPath><clipPath id="R"><path fill="#ff7f2a" stroke-width=".372" d="M-180.97 250.03h-13.229v13.229h13.229z"/></clipPath><clipPath id="S"><path fill="#ff7f2a" stroke-width=".372" d="M180.97 250.03h13.229v13.229H180.97z"/></clipPath><clipPath id="T"><path fill="#ff7f2a" stroke-width=".372" d="M179.92 230.19h13.229v13.229H179.92z"/></clipPath><clipPath id="U"><path fill="#ff7f2a" stroke-width=".372" d="M-180.97 250.03h-13.229v13.229h13.229z"/></clipPath><clipPath id="V"><path fill="#ff7f2a" stroke-width=".372" d="M180.97-250.03h13.229v-13.229H180.97z"/></clipPath><clipPath id="W"><path fill="#ff7f2a" stroke-width=".372" d="M-180.97 250.03h-13.229v13.229h13.229z"/></clipPath><clipPath id="X"><path fill="#ff7f2a" stroke-width=".372" d="M-180.97 250.03h-13.229v13.229h13.229z"/></clipPath><clipPath id="Y"><path fill="#ff7f2a" stroke-width=".372" d="M-180.97 250.03h-13.229v13.229h13.229z"/></clipPath><clipPath id="Z"><path fill="#ff7f2a" stroke-width=".372" d="M180.97-250.03h13.229v-13.229H180.97z"/></clipPath><clipPath id="aa"><path fill="#ff7f2a" stroke-width=".372" d="M-180.97 250.03h-13.229v13.229h13.229z"/></clipPath><clipPath id="ab"><path fill="#ff7f2a" stroke-width=".372" d="M-180.97 250.03h-13.229v13.229h13.229z"/></clipPath><clipPath id="ac"><path fill="#ff7f2a" stroke-width=".372" d="M179.92 230.19h13.229v13.229H179.92z"/></clipPath><clipPath id="ad"><path fill="#ff7f2a" stroke-width=".372" d="M179.92 230.19h13.229v13.229H179.92z"/></clipPath><clipPath id="ae"><path fill="#ff7f2a" stroke-width=".372" d="M-180.97 250.03h-13.229v13.229h13.229z"/></clipPath><clipPath id="af"><path fill="#ff7f2a" stroke-width=".372" d="M-180.97 250.03h-13.229v13.229h13.229z"/></clipPath><clipPath id="ag"><path fill="#ff7f2a" stroke-width=".372" d="M-180.97 250.03h-13.229v13.229h13.229z"/></clipPath><clipPath id="ah"><path fill="#ff7f2a" stroke-width=".372" d="M-180.97 250.03h-13.229v13.229h13.229z"/></clipPath><clipPath id="ai"><path fill="#ff7f2a" stroke-width=".372" d="M180.97-250.03h13.229v-13.229H180.97z"/></clipPath><clipPath id="aj"><path fill="#ff7f2a" stroke-width=".372" d="M-180.97 250.03h-13.229v13.229h13.229z"/></clipPath><clipPath id="ak"><path fill="#ff7f2a" stroke-width=".372" d="M-180.97 250.03h-13.229v13.229h13.229z"/></clipPath><clipPath id="al"><path fill="#ff7f2a" stroke-width=".372" d="M180.97 250.03h13.229v13.229H180.97z"/></clipPath><clipPath id="am"><path fill="#ff7f2a" stroke-width=".372" d="M-180.97 250.03h-13.229v13.229h13.229z"/></clipPath><clipPath id="an"><path fill="#ff7f2a" stroke-width=".372" d="M-180.97 250.03h-13.229v13.229h13.229z"/></clipPath><clipPath id="ao"><path fill="#ff7f2a" stroke-width=".372" d="M-180.97 250.03h-13.229v13.229h13.229z"/></clipPath><clipPath id="ap"><path fill="#ff7f2a" stroke-width=".372" d="M-180.97 250.03h-13.229v13.229h13.229z"/></clipPath><clipPath id="aq"><path fill="#ff7f2a" stroke-width=".372" d="M180.97-250.03h13.229v-13.229H180.97z"/></clipPath><clipPath id="ar"><path fill="#ff7f2a" stroke-width=".372" d="M-180.97 250.03h-13.229v13.229h13.229z"/></clipPath><clipPath id="as"><path fill="#ff7f2a" stroke-width=".372" d="M-180.97 250.03h-13.229v13.229h13.229z"/></clipPath><clipPath id="at"><path fill="#ff7f2a" stroke-width=".372" d="M180.97 250.03h13.229v13.229H180.97z"/></clipPath></defs><path fill="#3d7420" d="M0 105.566h203.73v55.563H0z"/><path fill="#3d7420" d="M129.647 85.726h74.083v22.49h-74.083z"/><path fill="#3d7420" d="M124.091 93.136h6.35v13.758h-6.35zM0 92.336h97.896v18.568H0z"/><path fill="#3d7420" d="M39.69 86.166h46.302v7.496H39.69z"/><path fill="#3d7420" d="M58.21 81.756h26.458v4.851H58.21zM136.262 80.436h50.271v6.615h-50.271z"/><path fill="#3d7420" d="M186.003 83.076h7.144v3.44h-7.144z"/><g fill="#3d7420" clip-path="url(#a)" transform="translate(-55.83 -149.754)"><path d="M186.8 232.7h12.7v10.716h-12.7z"/><path d="M184.81 235.74h16.272v7.673H184.81z"/><path d="M182.3 239.45h21.431v3.969H182.3z"/></g><g fill="#6c942c" clip-path="url(#b)" transform="translate(-55.83 -149.754)"><path d="M203.73 240.77h2.646v2.646h-2.646z"/><path d="M202.41 238.12h2.646v3.969h-2.646z"/><path d="M201.08 235.48h2.646v3.969h-2.646z"/><path d="M202.41 236.8h-2.646v-2.646h2.646z"/><path d="M198.44 232.83h2.646v2.646h-2.646z"/><path d="M195.79 231.51h3.969v2.646h-3.969zM182.56 240.77h-2.646v2.646h2.646zM193.15 230.19h-3.969v2.646h3.969z"/><path d="M183.89 238.12h-2.646v3.969h2.646z"/><path d="M185.21 235.48h-2.646v3.969h2.646z"/><path d="M183.89 236.8h2.646v-2.646h-2.646z"/><path d="M187.85 232.83h-2.646v2.646h2.646z"/><path d="M190.5 231.51h-3.969v2.646h3.969zM191.82 230.19h5.292v2.646h-5.292z"/></g><path fill="#528327" d="M-183.62 260.88h1.323v2.381h-1.323z" clip-path="url(#c)" transform="matrix(-1 0 0 2.1111 -56.88 -459.464)"/><path fill="#528327" d="M-194.2 251.35h3.572v1.323h-3.572z" clip-path="url(#d)" transform="matrix(-1 0 0 1 -56.88 -169.594)"/><path fill="#528327" d="M-184.94 258.5h1.455v3.44h-1.455z" clip-path="url(#e)" transform="matrix(-1 0 0 1 -56.88 -169.594)"/><path fill="#528327" d="M-186.27 256.12h1.323v3.175h-1.323z" clip-path="url(#f)" transform="matrix(-1 0 0 1 -56.88 -169.594)"/><path fill="#528327" d="M185.87-256.65h2.381v1.72h-2.381z" clip-path="url(#g)" transform="matrix(1 0 0 -1 -56.88 -169.594)"/><path fill="#528327" d="M-189.44 253.74h2.381v1.587h-2.381z" clip-path="url(#h)" transform="matrix(-1 0 0 1 -56.88 -169.594)"/><path fill="#528327" d="M-191.82 252.54h3.572v1.455h-3.572z" clip-path="url(#i)" transform="matrix(-1 0 0 1 -56.88 -169.594)"/><path fill="#528327" d="M193.01 251.35h4.763v1.323h-4.763z" clip-path="url(#j)" transform="translate(-56.88 -169.594)"/><g fill="#3d7420" clip-path="url(#k)" transform="matrix(1.0882 0 0 1 -85.14 -136.525)"><path d="M186.8 232.7h12.7v10.716h-12.7z"/><path d="M184.81 235.74h16.272v7.673H184.81z"/><path d="M182.3 239.45h21.431v3.969H182.3z"/></g><path fill="#6c942c" d="M113.508 104.246h-2.646v2.646h2.646zM125.414 93.666h-5.292v2.646h5.292z"/><path fill="#6c942c" d="M114.831 101.596h-2.646v3.969h2.646z"/><path fill="#6c942c" d="M116.153 98.956h-2.646v3.969h2.646z"/><path fill="#6c942c" d="M114.831 100.276h2.646V97.63h-2.646z"/><path fill="#6c942c" d="M118.799 96.306h-2.646v2.646h2.646z"/><path fill="#6c942c" d="M121.445 94.986h-3.969v2.646h3.969z"/><path fill="#528327" d="M-183.62 260.88h1.323v2.381h-1.323z" clip-path="url(#l)" transform="matrix(-1 0 0 1 -70.11 -156.368)"/><path fill="#528327" d="M-194.2 251.35h3.572v1.323h-3.572z" clip-path="url(#m)" transform="matrix(-1.3704 0 0 1 -140.72 -156.368)"/><path fill="#528327" d="M-184.94 258.5h1.455v3.44h-1.455z" clip-path="url(#n)" transform="matrix(-1 0 0 1 -70.11 -156.368)"/><path fill="#528327" d="M-186.27 256.12h1.323v3.175h-1.323z" clip-path="url(#o)" transform="matrix(-1 0 0 1 -70.11 -156.368)"/><path fill="#528327" d="M185.87-256.65h2.381v1.72h-2.381z" clip-path="url(#p)" transform="matrix(1 0 0 -1 -70.11 -156.368)"/><path fill="#528327" d="M-189.44 253.74h2.381v1.587h-2.381z" clip-path="url(#q)" transform="matrix(-1 0 0 1 -70.11 -156.368)"/><path fill="#528327" d="M-191.82 252.54h3.572v1.455h-3.572z" clip-path="url(#r)" transform="matrix(-1 0 0 1 -70.11 -156.368)"/><g fill="#3d7420" clip-path="url(#s)" transform="matrix(-1 0 0 1 193.147 -148.431)"><path d="M186.8 232.7h12.7v10.716h-12.7z"/><path d="M184.81 235.74h16.272v7.673H184.81z"/><path d="M182.3 239.45h21.431v3.969H182.3z"/></g><path fill="#6c942c" d="M10.58 92.336h2.646v1.323H10.58zM0 81.756h3.969v2.646H0z"/><path fill="#6c942c" d="M9.26 89.696h2.646v3.969H9.26z"/><path fill="#6c942c" d="M7.94 87.046h2.646v3.969H7.94z"/><path fill="#6c942c" d="M9.26 88.376H6.614V85.73H9.26z"/><path fill="#6c942c" d="M5.29 84.406h2.646v2.646H5.29z"/><path fill="#6c942c" d="M2.65 83.076h3.969v2.646H2.65z"/><path fill="#528327" d="M-183.62 260.88h1.323v2.381h-1.323z" clip-path="url(#t)" transform="matrix(1 0 0 .44445 194.206 -23.342)"/><path fill="#528327" d="M-194.2 251.35h3.572v1.323h-3.572z" clip-path="url(#u)" transform="translate(194.206 -168.274)"/><path fill="#528327" d="M-184.94 258.5h1.455v3.44h-1.455z" clip-path="url(#v)" transform="translate(194.206 -168.274)"/><path fill="#528327" d="M-186.27 256.12h1.323v3.175h-1.323z" clip-path="url(#w)" transform="translate(194.206 -168.274)"/><path fill="#528327" d="M185.87-256.65h2.381v1.72h-2.381z" clip-path="url(#x)" transform="rotate(180 97.103 -84.137)"/><path fill="#528327" d="M-189.44 253.74h2.381v1.587h-2.381z" clip-path="url(#y)" transform="translate(194.206 -168.274)"/><path fill="#528327" d="M-191.82 252.54h3.572v1.455h-3.572z" clip-path="url(#z)" transform="translate(194.206 -168.274)"/><path fill="#528327" d="M193.01 251.35h4.763v1.323h-4.763z" clip-path="url(#A)" transform="matrix(-1 0 0 1 194.206 -168.274)"/><g fill="#3d7420" clip-path="url(#B)" transform="matrix(-1 0 0 1 290.911 -136.525)"><path d="M186.8 232.7h12.7v10.716h-12.7z"/><path d="M184.81 235.74h16.272v7.673H184.81z"/><path d="M182.3 239.45h21.431v3.969H182.3z"/></g><g fill="#6c942c" clip-path="url(#C)" transform="matrix(-1 0 0 1 290.911 -136.525)"><path d="M203.73 240.77h2.646v2.646h-2.646z"/><path d="M202.41 238.12h2.646v3.969h-2.646z"/><path d="M201.08 235.48h2.646v3.969h-2.646z"/><path d="M202.41 236.8h-2.646v-2.646h2.646z"/><path d="M198.44 232.83h2.646v2.646h-2.646z"/><path d="M195.79 231.51h3.969v2.646h-3.969zM182.56 240.77h-2.646v2.646h2.646zM193.15 230.19h-3.969v2.646h3.969z"/><path d="M183.89 238.12h-2.646v3.969h2.646z"/><path d="M185.21 235.48h-2.646v3.969h2.646z"/><path d="M183.89 236.8h2.646v-2.646h-2.646z"/><path d="M187.85 232.83h-2.646v2.646h2.646z"/><path d="M190.5 231.51h-3.969v2.646h3.969zM191.82 230.19h5.292v2.646h-5.292z"/></g><path fill="#528327" d="M-183.62 260.88h1.323v2.381h-1.323z" clip-path="url(#D)" transform="translate(291.969 -156.368)"/><path fill="#528327" d="M-194.2 251.35h3.572v1.323h-3.572z" clip-path="url(#E)" transform="translate(291.969 -156.368)"/><path fill="#528327" d="M-184.94 258.5h1.455v3.44h-1.455z" clip-path="url(#F)" transform="translate(291.969 -156.368)"/><path fill="#528327" d="M-186.27 256.12h1.323v3.175h-1.323z" clip-path="url(#G)" transform="translate(291.969 -156.368)"/><path fill="#528327" d="M185.87-256.65h2.381v1.72h-2.381z" clip-path="url(#H)" transform="rotate(180 145.985 -78.184)"/><path fill="#528327" d="M-189.44 253.74h2.381v1.587h-2.381z" clip-path="url(#I)" transform="translate(291.969 -156.368)"/><path fill="#528327" d="M-191.82 252.54h3.572v1.455h-3.572z" clip-path="url(#J)" transform="translate(291.969 -156.368)"/><path fill="#528327" d="M193.01 251.35h4.763v1.323h-4.763z" clip-path="url(#K)" transform="matrix(-3.1116 0 0 1 699.53 -156.368)"/><path fill="#3d7420" d="M91.02 82.946h-12.7v10.716h12.7z"/><path fill="#3d7420" d="M93 85.986H76.728v7.673H93z"/><path fill="#3d7420" d="M95.52 89.696H81.208v3.969H95.52z"/><path fill="#6c942c" d="M95.25 91.016h2.646v3.969H95.25zM84.67 80.436h3.969v2.646H84.67z"/><path fill="#6c942c" d="M93.93 88.376h2.646v3.969H93.93z"/><path fill="#6c942c" d="M92.61 85.726h2.646v3.969H92.61z"/><path fill="#6c942c" d="M93.93 87.046h-2.646V84.4h2.646z"/><path fill="#6c942c" d="M89.96 83.076h2.646v2.646H89.96z"/><path fill="#6c942c" d="M87.31 81.756h3.969v2.646H87.31z"/><path fill="#528327" d="M-183.62 260.88h1.323v2.381h-1.323z" clip-path="url(#L)" transform="matrix(1 0 0 1.5556 278.872 -314.534)"/><path fill="#528327" d="M-194.2 251.35h3.572v1.323h-3.572z" clip-path="url(#M)" transform="translate(278.872 -169.594)"/><path fill="#528327" d="M-184.94 258.5h1.455v3.44h-1.455z" clip-path="url(#N)" transform="translate(278.872 -169.594)"/><path fill="#528327" d="M-186.27 256.12h1.323v3.175h-1.323z" clip-path="url(#O)" transform="translate(278.872 -169.594)"/><path fill="#528327" d="M185.87-256.65h2.381v1.72h-2.381z" clip-path="url(#P)" transform="rotate(180 139.436 -84.799)"/><path fill="#528327" d="M-189.44 253.74h2.381v1.587h-2.381z" clip-path="url(#Q)" transform="translate(278.872 -169.594)"/><path fill="#528327" d="M-191.82 252.54h3.572v1.455h-3.572z" clip-path="url(#R)" transform="translate(278.872 -169.594)"/><path fill="#528327" d="M193.01 251.35h4.763v1.323h-4.763z" clip-path="url(#S)" transform="matrix(-1 0 0 1 278.872 -169.594)"/><g fill="#3d7420" clip-path="url(#T)" transform="translate(10.58 -148.431)"><path d="M186.8 232.7h12.7v10.716h-12.7z"/><path d="M184.81 235.74h16.272v7.673H184.81z"/><path d="M182.3 239.45h21.431v3.969H182.3z"/></g><path fill="#6c942c" d="M203.731 81.756h-3.969v2.646h3.969z"/><path fill="#6c942c" d="M201.085 83.076h-3.969v2.646h3.969z"/><path fill="#528327" d="M-194.2 251.35h3.572v1.323h-3.572z" clip-path="url(#U)" transform="matrix(-1 0 0 1 9.53 -168.274)"/><path fill="#528327" d="M185.87-256.65h2.381v1.72h-2.381z" clip-path="url(#V)" transform="matrix(1 0 0 -1 9.53 -168.274)"/><path fill="#528327" d="M-189.44 253.74h2.381v1.587h-2.381z" clip-path="url(#W)" transform="matrix(-1 0 0 1 9.53 -168.274)"/><path fill="#528327" d="M-191.82 252.54h3.572v1.455h-3.572z" clip-path="url(#X)" transform="matrix(-1 0 0 1 9.53 -168.274)"/><path fill="#6c942c" d="M187.194 80.436h3.969v2.646h-3.969zM197.116 87.046h-3.307V84.4h3.307z"/><path fill="#6c942c" d="M192.486 83.076h2.646v2.646h-2.646z"/><path fill="#6c942c" d="M189.84 81.756h3.969v2.646h-3.969z"/><path fill="#528327" d="M-194.2 251.35h3.572v1.323h-3.572z" clip-path="url(#Y)" transform="translate(381.4 -169.594)"/><path fill="#528327" d="M185.87-256.65h2.381v1.72h-2.381z" clip-path="url(#Z)" transform="matrix(-1 0 0 -1.7692 381.4 -365.694)"/><path fill="#528327" d="M-189.44 253.74h2.381v1.587h-2.381z" clip-path="url(#aa)" transform="translate(381.4 -169.594)"/><path fill="#528327" d="M-191.82 252.54h3.572v1.455h-3.572z" clip-path="url(#ab)" transform="translate(381.4 -169.594)"/><path fill="#3d7420" d="M168.938 69.716h12.7v10.716h-12.7z"/><path fill="#3d7420" d="M166.953 72.756h16.272v7.673h-16.272z"/><path fill="#3d7420" d="M164.44 76.466h21.431v5.856H164.44z"/><g fill="#6c942c"><path d="M185.87 77.787h2.646v2.646h-2.646z"/><path d="M184.55 75.137h2.646v3.969h-2.646z"/><path d="M183.22 72.497h2.646v3.969h-2.646z"/><path d="M184.55 73.817h-2.646v-2.646h2.646z"/><path d="M180.58 69.847h2.646v2.646h-2.646z"/><path d="M177.93 68.527h3.969v2.646h-3.969zM164.7 77.787h-2.646v2.646h2.646zM175.29 67.207h-3.969v2.646h3.969z"/><path d="M166.03 75.137h-2.646v3.969h2.646z"/><path d="M167.35 72.497h-2.646v3.969h2.646z"/><path d="M166.03 73.817h2.646v-2.646h-2.646z"/><path d="M169.99 69.847h-2.646v2.646h2.646z"/><path d="M172.64 68.527h-3.969v2.646h3.969zM173.96 67.207h5.292v2.646h-5.292z"/></g><path fill="#528327" d="M164.704 78.056h-1.323v2.381h1.323zM175.288 68.526h-3.572v1.323h3.572z"/><path fill="#528327" d="M166.027 75.676h-1.455v3.44h1.455zM167.35 73.286h-1.323v3.175h1.323z"/><path fill="#528327" d="M166.953 73.816h2.381v-1.72h-2.381z"/><path fill="#528327" d="M170.525 70.906h-2.381v1.587h2.381z"/><path fill="#528327" d="M172.907 69.716h-3.572v1.455h3.572zM185.871 78.056h1.323v5.027h-1.323zM184.548 75.676h1.323v3.44h-1.323zM183.21 73.286h1.338v3.175h-1.338z"/><path fill="#528327" d="M183.622 73.816h-2.381v-1.72h2.381z"/><path fill="#528327" d="M180.05 70.906h2.381v1.587h-2.381z"/><path fill="#528327" d="M177.669 69.716h3.572v1.455h-3.572z"/><path fill="#528327" d="M174.097 68.526h4.763v1.323h-4.763z"/><path fill="#3d7420" d="M142.876 69.716h12.7v10.716h-12.7z"/><path fill="#3d7420" d="M140.892 72.756h16.272v7.673h-16.272z"/><path fill="#3d7420" d="M138.378 76.466h21.431v5.292h-21.431z"/><g fill="#6c942c"><path d="M159.81 77.787h2.646v2.646h-2.646z"/><path d="M158.49 75.137h2.646v3.969h-2.646z"/><path d="M157.16 72.497h2.646v3.969h-2.646z"/><path d="M158.49 73.817h-2.646v-2.646h2.646z"/><path d="M154.52 69.847h2.646v2.646h-2.646z"/><path d="M151.87 68.527h3.969v2.646h-3.969zM138.64 77.787h-2.646v2.646h2.646zM149.23 67.207h-3.969v2.646h3.969z"/><path d="M139.97 75.137h-2.646v3.969h2.646z"/><path d="M141.29 72.497h-2.646v3.969h2.646z"/><path d="M139.97 73.817h2.646v-2.646h-2.646z"/><path d="M143.93 69.847h-2.646v2.646h2.646z"/><path d="M146.58 68.527h-3.969v2.646h3.969zM147.9 67.207h5.292v2.646H147.9z"/></g><path fill="#528327" d="M138.643 78.056h-1.323v5.027h1.323zM149.226 68.526h-3.572v1.323h3.572z"/><path fill="#528327" d="M139.966 75.676h-1.455v3.44h1.455z"/><path fill="#528327" d="M141.289 73.286h-1.323v3.175h1.323z"/><path fill="#528327" d="M140.892 73.816h2.381v-1.72h-2.381z"/><path fill="#528327" d="M144.464 70.906h-2.381v1.587h2.381z"/><path fill="#528327" d="M146.845 69.716h-3.572v1.455h3.572zM159.81 78.056h1.323v2.381h-1.323zM158.487 75.676h1.323v3.44h-1.323zM157.149 73.286h1.338v3.175h-1.338z"/><path fill="#528327" d="M157.561 73.816h-2.381v-1.72h2.381z"/><path fill="#528327" d="M153.989 70.906h2.381v1.587h-2.381z"/><path fill="#528327" d="M151.608 69.716h3.572v1.455h-3.572z"/><path fill="#528327" d="M148.036 68.526h4.763v1.323h-4.763z"/><path fill="#3d7420" d="M66.41 69.716h12.7v10.716h-12.7z"/><path fill="#3d7420" d="M64.43 72.756h16.272v7.673H64.43z"/><path fill="#3d7420" d="M61.91 76.466h21.431v6.615H61.91z"/><path fill="#6c942c" d="M83.35 77.786h2.646v2.646H83.35z"/><path fill="#6c942c" d="M82.02 75.146h2.646v3.969H82.02z"/><path fill="#6c942c" d="M80.7 72.496h2.646v3.969H80.7z"/><path fill="#6c942c" d="M82.02 73.816h-2.646V71.17h2.646z"/><path fill="#6c942c" d="M78.05 69.846h2.646v2.646H78.05z"/><path fill="#6c942c" d="M75.41 68.526h3.969v2.646H75.41zM62.18 77.786h-2.646v6.615h2.646zM72.76 67.206h-3.969v2.646h3.969z"/><path fill="#6c942c" d="M63.5 75.146h-2.646v3.969H63.5z"/><path fill="#6c942c" d="M64.82 72.496h-2.646v3.969h2.646z"/><path fill="#6c942c" d="M63.5 73.816h2.646V71.17H63.5z"/><path fill="#6c942c" d="M67.47 69.846h-2.646v2.646h2.646z"/><path fill="#6c942c" d="M70.12 68.526h-3.969v2.646h3.969zM71.44 67.206h5.292v2.646H71.44z"/><path fill="#528327" d="M62.18 78.056h-1.323v6.35h1.323zM72.76 68.526h-3.572v1.323h3.572z"/><path fill="#528327" d="M63.5 75.676h-1.455v3.44H63.5z"/><path fill="#528327" d="M64.82 73.286h-1.323v3.175h1.323z"/><path fill="#528327" d="M64.43 73.816h2.381v-1.72H64.43z"/><path fill="#528327" d="M68 70.906h-2.381v1.587H68z"/><path fill="#528327" d="M70.38 69.716h-3.572v1.455h3.572zM83.35 78.056h1.323v5.024H83.35zM82.02 75.676h1.323v3.44H82.02zM80.68 73.286h1.338v3.175H80.68z"/><path fill="#528327" d="M81.1 73.816h-2.381v-1.72H81.1z"/><path fill="#528327" d="M77.52 70.906h2.381v1.587H77.52z"/><path fill="#528327" d="M75.14 69.716h3.572v1.455H75.14z"/><path fill="#528327" d="M71.57 68.526h4.763v1.323H71.57z"/><g fill="#3d7420"><path d="M19.85 82.946h12.7v10.716h-12.7z"/><path d="M17.86 85.986h16.272v7.673H17.86z"/><path d="M15.35 89.696h21.431v3.969H15.35z"/></g><path fill="#6c942c" d="M34.13 85.726h2.646v3.969H34.13z"/><path fill="#6c942c" d="M35.46 87.046h-2.646V84.4h2.646z"/><path fill="#6c942c" d="M31.49 83.076h2.646v2.646H31.49z"/><path fill="#6c942c" d="M28.84 81.756h3.969v2.646H28.84zM15.61 91.016h-2.646v2.646h2.646zM26.2 80.436h-3.969v2.646H26.2z"/><path fill="#6c942c" d="M16.93 88.376h-2.646v3.969h2.646z"/><path fill="#6c942c" d="M18.26 85.726h-2.646v3.969h2.646z"/><path fill="#6c942c" d="M16.93 87.046h2.646V84.4H16.93z"/><path fill="#6c942c" d="M20.9 83.076h-2.646v2.646H20.9z"/><path fill="#6c942c" d="M23.55 81.756h-3.969v2.646h3.969zM24.87 80.436h5.292v2.646H24.87z"/><path fill="#528327" d="M15.61 91.286h-1.323v2.381h1.323zM26.2 81.756h-3.572v1.323H26.2z"/><path fill="#528327" d="M16.93 88.896h-1.455v3.44h1.455zM18.26 86.516h-1.323v3.175h1.323z"/><path fill="#528327" d="M17.86 87.046h2.381v-1.72H17.86z"/><path fill="#528327" d="M21.43 84.136h-2.381v1.587h2.381z"/><path fill="#528327" d="M23.81 82.946h-3.572v1.455h3.572zM35.46 88.896h4.498v3.44H35.46zM34.12 86.516h1.338v3.175H34.12z"/><path fill="#528327" d="M34.53 87.046h-2.381v-1.72h2.381z"/><path fill="#528327" d="M30.96 84.136h2.381v1.587H30.96z"/><path fill="#528327" d="M28.58 82.946h3.572v1.455H28.58z"/><path fill="#528327" d="M25 81.756h4.763v1.323H25z"/><g fill="#3d7420"><path d="M44.19 80.3h12.7v10.716h-12.7z"/><path d="M42.2 83.34h16.272v7.673H42.2z"/><path d="M39.69 87.05h21.431v3.969H39.69z"/></g><path fill="#6c942c" d="M59.8 84.406h-2.646V81.76H59.8z"/><path fill="#6c942c" d="M55.83 80.436h2.646v2.646H55.83z"/><path fill="#6c942c" d="M53.18 79.106h3.969v2.646H53.18zM39.95 88.376h-3.175v2.646h3.175zM50.54 77.786h-3.969v2.646h3.969z"/><path fill="#6c942c" d="M41.28 85.726h-2.646v3.969h2.646z"/><path fill="#6c942c" d="M42.6 83.076h-2.646v3.969H42.6z"/><path fill="#6c942c" d="M41.28 84.406h2.646V81.76H41.28z"/><path fill="#6c942c" d="M45.25 80.436h-2.646v2.646h2.646z"/><path fill="#6c942c" d="M47.89 79.106h-3.969v2.646h3.969zM49.21 77.786h5.292v2.646H49.21z"/><path fill="#528327" d="M39.95 88.636h-1.323v2.381h1.323zM50.54 79.106h-3.572v1.323h3.572z"/><path fill="#528327" d="M41.28 86.256h-1.455v3.44h1.455z"/><path fill="#528327" d="M42.6 83.876h-1.323v3.175H42.6z"/><path fill="#528327" d="M42.2 84.406h2.381v-1.72H42.2z"/><path fill="#528327" d="M45.77 81.496h-2.381v1.587h2.381z"/><path fill="#528327" d="M48.16 80.306h-3.572v1.455h3.572zM58.87 84.406h-2.381v-1.72h2.381z"/><path fill="#528327" d="M55.3 81.496h2.381v1.587H55.3z"/><path fill="#528327" d="M52.92 80.306h3.572v1.455H52.92z"/><path fill="#528327" d="M49.35 79.106h4.763v1.323H49.35z"/><g fill="#27581c"><path d="M97.37 135.735h26.988v25.4H97.37z"/><path d="M117.21 147.905h45.508v13.229H117.21z"/></g><path fill="#27581c" d="M104.79 125.285h12.7v10.716h-12.7z"/><path fill="#27581c" d="M102.81 128.325h16.272v7.673H102.81z"/><path fill="#27581c" d="M100.29 132.035h21.431v3.969H100.29z"/><path fill="#6c942c" d="M121.73 133.355h2.646v3.541h-2.646z"/><path fill="#6c942c" d="M120.4 130.705h2.646v3.969H120.4z"/><path fill="#6c942c" d="M119.08 128.065h2.646v3.969h-2.646z"/><path fill="#6c942c" d="M120.4 129.385h-2.646v-2.646h2.646z"/><path fill="#6c942c" d="M116.43 125.415h2.646v2.646h-2.646z"/><path fill="#6c942c" d="M113.79 124.095h3.969v2.646h-3.969zM100.56 133.355h-2.646v2.646h2.646zM111.14 122.765h-3.969v2.646h3.969z"/><path fill="#6c942c" d="M101.88 130.705h-2.646v3.969h2.646z"/><path fill="#6c942c" d="M103.2 128.065h-2.646v3.969h2.646z"/><path fill="#6c942c" d="M101.88 129.385h2.646v-2.646h-2.646z"/><path fill="#6c942c" d="M105.85 125.415h-2.646v2.646h2.646z"/><path fill="#6c942c" d="M108.5 124.095h-3.969v2.646h3.969zM109.82 122.765h5.292v2.646h-5.292z"/><path fill="#528327" d="M100.56 133.615h-1.323v2.381h1.323zM111.14 124.095h-3.572v1.323h3.572z"/><path fill="#528327" d="M101.88 131.235h-1.455v3.44h1.455z"/><path fill="#528327" d="M103.2 128.855h-1.323v3.175h1.323z"/><path fill="#528327" d="M102.81 129.385h2.381v-1.72h-2.381z"/><path fill="#528327" d="M106.38 126.475h-2.381v1.587h2.381z"/><path fill="#528327" d="M108.76 125.285h-3.572v1.455h3.572zM121.73 133.615h1.323v3.276h-1.323zM120.4 131.235h1.323v3.44H120.4zM119.06 128.855h1.338v3.175h-1.338z"/><path fill="#528327" d="M119.48 129.385h-2.381v-1.72h2.381z"/><path fill="#528327" d="M115.9 126.475h2.381v1.587H115.9z"/><path fill="#528327" d="M113.52 125.285h3.572v1.455h-3.572z"/><path fill="#528327" d="M109.95 124.095h4.763v1.323h-4.763z"/><g fill="#27581c"><path d="M87.48 154.245v-12.7h10.716v12.7z"/><path d="M90.52 156.235v-16.272h7.673v16.272z"/><path d="M94.23 158.745v-21.431h3.969v21.431z"/></g><g fill="#6c942c"><path d="M95.55 137.315v-2.646h2.646v2.646z"/><path d="M92.9 138.635v-2.646h3.969v2.646z"/><path d="M90.26 139.965v-2.646h3.969v2.646z"/><path d="M91.58 138.635v2.646h-2.646v-2.646z"/><path d="M87.61 142.605v-2.646h2.646v2.646z"/><path d="M86.29 145.255v-3.969h2.646v3.969zM95.55 158.485v2.646h2.646v-2.646zM84.97 147.895v3.969h2.646v-3.969z"/><path d="M92.9 157.155v2.646h3.969v-2.646z"/><path d="M90.26 155.835v2.646h3.969v-2.646z"/><path d="M91.58 157.155v-2.646h-2.646v2.646z"/><path d="M87.61 153.195v2.646h2.646v-2.646z"/><path d="M86.29 150.545v3.969h2.646v-3.969zM84.97 149.225v-5.292h2.646v5.292z"/></g><path fill="#528327" d="M95.82 158.485v1.323h2.381v-1.323zM86.292 147.905v3.572h1.323v-3.572z"/><path fill="#528327" d="M93.435 157.165v1.455h3.44v-1.455zM91.054 155.835v1.323h3.175v-1.323z"/><path fill="#528327" d="M91.583 156.235v-2.381h-1.72v2.381z"/><path fill="#528327" d="M88.673 152.665v2.381h1.587v-2.381z"/><path fill="#528327" d="M87.482 150.285v3.572h1.455v-3.572zM95.82 137.315v-1.323h4.727v1.323zM93.435 138.645v-1.323h3.44v1.323zM91.052 139.985v-1.338h3.175v1.338z"/><path fill="#528327" d="M91.583 139.565v2.381h-1.72v-2.381z"/><path fill="#528327" d="M88.673 143.135v-2.381h1.587v2.381z"/><path fill="#528327" d="M87.482 145.525v-3.572h1.455v3.572z"/><path fill="#528327" d="M86.292 149.095v-4.763h1.323v4.763z"/><g fill="#27581c"><path d="M143.145 138.509h12.7v10.716h-12.7z"/><path d="M141.155 141.549h16.272v7.673h-16.272z"/><path d="M138.645 145.259h21.431v3.969h-21.431z"/></g><g fill="#6c942c"><path d="M160.075 146.579h2.646v2.646h-2.646z"/><path d="M158.755 143.929h2.646v3.969h-2.646z"/><path d="M157.425 141.289h2.646v3.969h-2.646z"/><path d="M158.755 142.609h-2.646v-2.646h2.646z"/><path d="M154.785 138.639h2.646v2.646h-2.646z"/><path d="M152.135 137.319h3.969v2.646h-3.969zM138.905 146.579h-2.646v2.646h2.646zM149.495 135.999h-3.969v2.646h3.969z"/><path d="M140.235 143.929h-2.646v3.969h2.646z"/><path d="M141.555 141.289h-2.646v3.969h2.646z"/><path d="M140.235 142.609h2.646v-2.646h-2.646z"/><path d="M144.195 138.639h-2.646v2.646h2.646z"/><path d="M146.845 137.319h-3.969v2.646h3.969zM148.165 135.999h5.292v2.646h-5.292z"/></g><path fill="#528327" d="M138.91 146.845h-1.323v2.381h1.323zM149.49 137.315h-3.572v1.323h3.572z"/><path fill="#528327" d="M140.23 144.465h-1.455v3.44h1.455z"/><path fill="#528327" d="M141.55 142.085h-1.323v3.175h1.323z"/><path fill="#528327" d="M141.16 142.615h2.381v-1.72h-2.381z"/><path fill="#528327" d="M144.73 139.705h-2.381v1.587h2.381z"/><path fill="#528327" d="M147.11 138.505h-3.572v1.455h3.572zM160.07 146.845h1.323v2.381h-1.323z"/><path fill="#528327" d="M158.75 144.465h1.323v3.44h-1.323zM157.41 142.075h1.338v3.175h-1.338z"/><path fill="#528327" d="M157.83 142.615h-2.381v-1.72h2.381z"/><path fill="#528327" d="M154.25 139.705h2.381v1.587h-2.381z"/><path fill="#528327" d="M151.87 138.505h3.572v1.455h-3.572z"/><path fill="#528327" d="M148.3 137.315h4.763v1.323H148.3z"/><g fill="#27581c" clip-path="url(#ac)" transform="matrix(-1 0 0 1 355.07 -82.285)"><path d="M186.8 232.7h12.7v10.716h-12.7z"/><path d="M184.81 235.74h16.272v7.673H184.81z"/><path d="M182.3 239.45h21.431v3.969H182.3z"/></g><g fill="#6c942c" clip-path="url(#ad)" transform="matrix(-1 0 0 1 355.07 -82.285)"><path d="M203.73 240.77h2.646v2.646h-2.646z"/><path d="M202.41 238.12h2.646v3.969h-2.646z"/><path d="M201.08 235.48h2.646v3.969h-2.646z"/><path d="M202.41 236.8h-2.646v-2.646h2.646z"/><path d="M198.44 232.83h2.646v2.646h-2.646z"/><path d="M195.79 231.51h3.969v2.646h-3.969zM182.56 240.77h-2.646v2.646h2.646zM193.15 230.19h-3.969v2.646h3.969z"/><path d="M183.89 238.12h-2.646v3.969h2.646z"/><path d="M185.21 235.48h-2.646v3.969h2.646z"/><path d="M183.89 236.8h2.646v-2.646h-2.646z"/><path d="M187.85 232.83h-2.646v2.646h2.646z"/><path d="M190.5 231.51h-3.969v2.646h3.969zM191.82 230.19h5.292v2.646h-5.292z"/></g><path fill="#528327" d="M-183.62 260.88h1.323v2.381h-1.323z" clip-path="url(#ae)" transform="translate(356.13 -102.129)"/><path fill="#528327" d="M-194.2 251.35h3.572v1.323h-3.572z" clip-path="url(#af)" transform="translate(356.13 -102.129)"/><path fill="#528327" d="M-184.94 258.5h1.455v3.44h-1.455z" clip-path="url(#ag)" transform="translate(356.13 -102.129)"/><path fill="#528327" d="M-186.27 256.12h1.323v3.175h-1.323z" clip-path="url(#ah)" transform="translate(356.13 -102.129)"/><path fill="#528327" d="M185.87-256.65h2.381v1.72h-2.381z" clip-path="url(#ai)" transform="rotate(180 178.065 -51.064)"/><path fill="#528327" d="M-189.44 253.74h2.381v1.587h-2.381z" clip-path="url(#aj)" transform="translate(356.13 -102.129)"/><path fill="#528327" d="M-191.82 252.54h3.572v1.455h-3.572z" clip-path="url(#ak)" transform="translate(356.13 -102.129)"/><path fill="#528327" d="M193.01 251.35h4.763v1.323h-4.763z" clip-path="url(#al)" transform="matrix(-1 0 0 1 356.13 -102.129)"/><path fill="#27581c" d="M130.11 138.085h-12.7v10.716h12.7z"/><path fill="#27581c" d="M132.1 141.125h-16.272v7.673H132.1z"/><path fill="#27581c" d="M134.61 144.835h-21.431v3.969h21.431z"/><path fill="#6c942c" d="M134.34 146.155h2.646v3.071h-2.646zM123.76 135.575h3.969v2.646h-3.969z"/><path fill="#6c942c" d="M133.02 143.505h2.646v3.969h-2.646z"/><path fill="#6c942c" d="M131.7 140.865h2.646v3.969H131.7z"/><path fill="#6c942c" d="M133.02 142.185h-2.646v-2.646h2.646z"/><path fill="#6c942c" d="M129.05 138.215h2.646v2.646h-2.646z"/><path fill="#6c942c" d="M126.41 136.895h3.969v2.646h-3.969zM125.08 135.575h-2.051v2.646h2.051z"/><path fill="#528327" d="M-183.62 260.88h1.323v2.381h-1.323z" clip-path="url(#am)" transform="matrix(1 0 0 1.1785 317.97 -161.018)"/><path fill="#528327" d="M-194.2 251.35h3.572v1.323h-3.572z" clip-path="url(#an)" transform="translate(317.97 -114.46)"/><path fill="#528327" d="M-184.94 258.5h1.455v3.44h-1.455z" clip-path="url(#ao)" transform="translate(317.97 -114.46)"/><path fill="#528327" d="M-186.27 256.12h1.323v3.175h-1.323z" clip-path="url(#ap)" transform="translate(317.97 -114.46)"/><path fill="#528327" d="M185.87-256.65h2.381v1.72h-2.381z" clip-path="url(#aq)" transform="rotate(180 158.985 -57.23)"/><path fill="#528327" d="M-189.44 253.74h2.381v1.587h-2.381z" clip-path="url(#ar)" transform="translate(317.97 -114.46)"/><path fill="#528327" d="M-191.82 252.54h3.572v1.455h-3.572z" clip-path="url(#as)" transform="translate(317.97 -114.46)"/><path fill="#528327" d="M193.01 251.35h4.763v1.323h-4.763z" clip-path="url(#at)" transform="matrix(-2.7234 0 0 1 650.61 -114.46)"/><g fill="#27581c"><path d="M182.04 150.415h12.7v10.716h-12.7z"/><path d="M180.05 153.455h16.271v7.673H180.05z"/><path d="M177.54 157.165h21.43v3.969h-21.43z"/></g><g fill="#6c942c"><path d="M198.97 158.485h2.645v2.646h-2.646z"/><path d="M197.65 155.835h2.645v3.969h-2.646z"/><path d="M196.32 153.195h2.645v3.969h-2.646z"/><path d="M197.65 154.515h-2.647v-2.646h2.646z"/><path d="M193.68 150.545h2.645v2.646h-2.646z"/><path d="M191.03 149.225h3.968v2.646h-3.969zM177.8 158.485h-2.647v2.646h2.646zM188.39 147.905h-3.97v2.646h3.97z"/><path d="M179.13 155.835h-2.647v3.969h2.646z"/><path d="M180.45 153.195h-2.647v3.969h2.646z"/><path d="M179.13 154.515h2.645v-2.646h-2.646z"/><path d="M183.09 150.545h-2.647v2.646h2.646z"/><path d="M185.74 149.225h-3.97v2.646h3.97zM187.06 147.905h5.291v2.646h-5.292z"/></g><path fill="#528327" d="M177.8 158.755h-1.323v2.381h1.323zM188.39 149.225h-3.572v1.323h3.572z"/><path fill="#528327" d="M179.12 156.365h-1.455v3.44h1.455zM180.45 153.985h-1.323v3.175h1.323z"/><path fill="#528327" d="M180.05 154.515h2.381v-1.72h-2.381z"/><path fill="#528327" d="M183.62 151.605h-2.381v1.587h2.381z"/><path fill="#528327" d="M186 150.415h-3.572v1.455H186zM198.97 158.755h1.323v2.381h-1.323z"/><path fill="#528327" d="M197.65 156.365h1.323v3.44h-1.323zM196.31 153.985h1.338v3.175h-1.338z"/><path fill="#528327" d="M196.72 154.515h-2.381v-1.72h2.381z"/><path fill="#528327" d="M193.15 151.605h2.381v1.587h-2.381z"/><path fill="#528327" d="M190.77 150.415h3.572v1.455h-3.572z"/><path fill="#528327" d="M187.19 149.225h4.763v1.323h-4.763z"/><g fill="#a8cb4c" fill-opacity=".314" stroke-width=".067"><path d="M170.66 109.805h2.91v2.91h-2.91z"/><path d="M169.6 112.445h2.91v2.91h-2.91z"/><path d="M168.54 114.305h2.91v2.91h-2.91z"/><path d="M167.48 115.355h2.91v2.91h-2.91z"/><path d="M166.42 115.885h2.91v2.91h-2.91z"/><path d="M165.37 116.415h2.91v2.91h-2.91z"/><path d="M167.22 117.485h-2.91v-2.91h2.91z"/><path d="M168.28 115.625h-2.91v-2.91h2.91z"/><path d="M169.34 114.575h-2.91v-2.91h2.91z"/><path d="M170.4 114.045h-2.91v-2.91h2.91z"/><path d="M171.45 113.515h-2.91v-2.91h2.91zM163.78 116.685h2.91v2.91h-2.91z"/></g><g fill="#2d5615"><path d="M164.84 116.155h.794v.794h-.794zM166.42 117.745h.794v.794h-.794zM166.42 116.155h.794v.794h-.794zM164.84 117.735h.794v.794h-.794zM164.04 118.535h.794v.794h-.794zM167.22 115.355h.794v.794h-.794z"/><path d="M168.01 114.565h.794v.794h-.794zM168.81 113.775h.794v.794h-.794zM169.6 112.975h.794v.794h-.794z"/><path d="M170.39 112.185h.794v.794h-.794zM171.19 111.395h.794v.794h-.794zM171.98 110.595h.794v.794h-.794zM171.19 112.975h.794v2.381h-.794zM168.81 115.355h.794v2.381h-.794zM165.634 113.771v.794h2.381v-.794zM168.014 111.391v.794h2.381v-.794zM165.63 116.945h.794v.794h-.794z"/></g><g fill="#a8cb4c" fill-opacity=".314" stroke-width=".067"><path d="M180.18 109.805h-2.91v2.91h2.91z"/><path d="M181.24 112.445h-2.91v2.91h2.91z"/><path d="M182.3 114.305h-2.91v2.91h2.91z"/><path d="M183.36 115.355h-2.91v2.91h2.91z"/><path d="M184.42 115.885h-2.91v2.91h2.91z"/><path d="M185.47 116.415h-2.91v2.91h2.91z"/><path d="M183.62 117.485h2.91v-2.91h-2.91z"/><path d="M182.56 115.625h2.91v-2.91h-2.91z"/><path d="M181.5 114.575h2.91v-2.91h-2.91z"/><path d="M180.44 114.045h2.91v-2.91h-2.91z"/><path d="M179.39 113.515h2.91v-2.91h-2.91zM187.06 116.685h-2.91v2.91h2.91z"/></g><g fill="#2d5615"><path d="M186 116.155h-.794v.794H186zM184.42 117.745h-.794v.794h.794zM184.42 116.155h-.794v.794h.794zM186 117.735h-.794v.794H186zM186.8 118.535h-.794v.794h.794zM183.62 115.355h-.794v.794h.794z"/><path d="M182.83 114.565h-.794v.794h.794zM182.03 113.775h-.794v.794h.794zM181.24 112.975h-.794v.794h.794z"/><path d="M180.45 112.185h-.794v.794h.794zM179.65 111.395h-.794v.794h.794zM178.86 110.595h-.794v.794h.794zM179.65 112.975h-.794v2.381h.794zM182.03 115.355h-.794v2.381h.794zM185.206 113.771v.794h-2.381v-.794zM182.826 111.391v.794h-2.381v-.794zM185.21 116.945h-.794v.794h.794z"/></g><g fill="#a8cb4c" fill-opacity=".314" stroke-width=".067"><path d="M76.993 94.988h-2.91v2.91h2.91z"/><path d="M78.053 97.628h-2.91v2.91h2.91z"/><path d="M79.113 99.488h-2.91v2.91h2.91z"/><path d="M80.173 100.538h-2.91v2.91h2.91z"/><path d="M81.233 101.068h-2.91v2.91h2.91z"/><path d="M82.283 101.598h-2.91v2.91h2.91z"/><path d="M80.433 102.668h2.91v-2.91h-2.91z"/><path d="M79.373 100.808h2.91v-2.91h-2.91z"/><path d="M78.313 99.758h2.91v-2.91h-2.91z"/><path d="M77.253 99.228h2.91v-2.91h-2.91z"/><path d="M76.203 98.698h2.91v-2.91h-2.91zM83.873 101.868h-2.91v2.91h2.91z"/></g><g fill="#2d5615"><path d="M82.813 101.338h-.794v.794h.794zM81.233 102.928h-.794v.794h.794zM81.233 101.338h-.794v.794h.794zM82.813 102.918h-.794v.794h.794zM83.613 103.718h-.794v.794h.794zM80.433 100.538h-.794v.794h.794z"/><path d="M79.643 99.748h-.794v.794h.794zM78.843 98.958h-.794v.794h.794zM78.053 98.158h-.794v.794h.794z"/><path d="M77.263 97.368h-.794v.794h.794zM76.463 96.578h-.794v.794h.794zM75.673 95.778h-.794v.794h.794zM76.463 98.158h-.794v2.381h.794zM78.843 100.538h-.794v2.381h.794zM82.019 98.954v.794h-2.381v-.794zM79.639 96.574v.794h-2.381v-.794zM82.023 102.128h-.794v.794h.794z"/></g><g fill="#a8cb4c" fill-opacity=".314" stroke-width=".067"><path d="M11.905 67.736h-2.91v2.91h2.91z"/><path d="M12.965 70.376h-2.91v2.91h2.91z"/><path d="M14.025 72.236h-2.91v2.91h2.91z"/><path d="M15.085 73.286h-2.91v2.91h2.91z"/><path d="M16.145 73.816h-2.91v2.91h2.91z"/><path d="M17.195 74.346h-2.91v2.91h2.91z"/><path d="M15.346 75.416h2.91v-2.91h-2.91z"/><path d="M14.286 73.556h2.91v-2.91h-2.91z"/><path d="M13.226 72.506h2.91v-2.91h-2.91z"/><path d="M12.166 71.976h2.91v-2.91h-2.91z"/><path d="M11.116 71.446h2.91v-2.91h-2.91zM18.785 74.616h-2.91v2.91h2.91z"/></g><g fill="#2d5615"><path d="M17.725 74.086h-.794v.794h.794zM16.145 75.676h-.794v.794h.794zM16.145 74.086h-.794v.794h.794zM17.725 75.666h-.794v.794h.794zM18.525 76.466h-.794v.794h.794zM15.345 73.286h-.794v.794h.794z"/><path d="M14.555 72.496h-.794v.794h.794zM13.755 71.706h-.794v.794h.794zM12.965 70.906h-.794v.794h.794z"/><path d="M12.175 70.116h-.794v.794h.794zM11.375 69.326h-.794v.794h.794zM10.585 68.526h-.794v.794h.794zM11.375 70.906h-.794v2.381h.794zM13.755 73.286h-.794v2.381h.794zM16.931 71.702v.794h-2.38v-.794zM14.551 69.322v.794h-2.38v-.794zM16.935 74.876h-.794v.794h.794z"/></g><g fill="#a8cb4c" fill-opacity=".314" stroke-width=".067"><path d="M52.916.006h-2.91v2.91h2.91z"/><path d="M53.976 2.646h-2.91v2.91h2.91z"/><path d="M55.036 4.506h-2.91v2.91h2.91z"/><path d="M56.096 5.556h-2.91v2.91h2.91z"/><path d="M57.156 6.086h-2.91v2.91h2.91z"/><path d="M58.206 6.616h-2.91v2.91h2.91z"/><path d="M56.356 7.686h2.91v-2.91h-2.91z"/><path d="M55.296 5.826h2.91v-2.91h-2.91z"/><path d="M54.236 4.776h2.91v-2.91h-2.91z"/><path d="M53.176 4.246h2.91v-2.91h-2.91z"/><path d="M52.126 3.716h2.91V.806h-2.91zM59.796 6.886h-2.91v2.91h2.91z"/></g><g fill="#2d5615"><path d="M58.736 6.356h-.794v.794h.794zM57.156 7.946h-.794v.794h.794zM57.156 6.356h-.794v.794h.794zM58.736 7.936h-.794v.794h.794zM59.536 8.736h-.794v.794h.794zM56.356 5.556h-.794v.794h.794z"/><path d="M55.566 4.766h-.794v.794h.794zM54.766 3.976h-.794v.794h.794zM53.976 3.176h-.794v.794h.794z"/><path d="M53.186 2.386h-.794v.794h.794zM52.386 1.596h-.794v.794h.794zM51.596.796h-.794v.794h.794zM52.386 3.176h-.794v2.381h.794zM54.766 5.556h-.794v2.381h.794zM57.942 3.972v.794H55.56v-.794zM55.562 1.592v.794H53.18v-.794zM57.946 7.146h-.794v.794h.794z"/></g><g fill="#a8cb4c" fill-opacity=".314" stroke-width=".067"><path d="M182.83 123.563h2.91v2.91h-2.91z"/><path d="M181.77 126.203h2.91v2.91h-2.91z"/><path d="M180.71 128.063h2.91v2.91h-2.91z"/><path d="M179.65 129.113h2.91v2.91h-2.91z"/><path d="M178.59 129.643h2.91v2.91h-2.91z"/><path d="M177.54 130.173h2.91v2.91h-2.91z"/><path d="M179.39 131.243h-2.91v-2.91h2.91z"/><path d="M180.45 129.383h-2.91v-2.91h2.91z"/><path d="M181.51 128.333h-2.91v-2.91h2.91z"/><path d="M182.57 127.803h-2.91v-2.91h2.91z"/><path d="M183.62 127.273h-2.91v-2.91h2.91zM175.95 130.443h2.91v2.91h-2.91z"/></g><g fill="#2d5615"><path d="M177.01 129.913h.794v.794h-.794zM178.59 131.503h.794v.794h-.794zM178.59 129.913h.794v.794h-.794zM177.01 131.493h.794v.794h-.794zM176.21 132.293h.794v.794h-.794zM179.39 129.113h.794v.794h-.794z"/><path d="M180.18 128.323h.794v.794h-.794zM180.98 127.533h.794v.794h-.794zM181.77 126.733h.794v.794h-.794z"/><path d="M182.56 125.943h.794v.794h-.794zM183.36 125.153h.794v.794h-.794zM184.15 124.353h.794v.794h-.794zM183.36 126.733h.794v2.381h-.794zM180.98 129.113h.794v2.381h-.794zM177.804 127.53v.794h2.381v-.794z"/><path d="M180.184 125.15v.794h2.381v-.794zM177.8 130.703h.794v.794h-.794z"/></g><g fill="#a8cb4c" fill-opacity=".314" stroke-width=".067"><path d="M145 27.784h2.91v2.91H145z"/><path d="M143.94 30.424h2.91v2.91h-2.91z"/><path d="M142.88 32.284h2.91v2.91h-2.91z"/><path d="M141.82 33.334h2.91v2.91h-2.91z"/><path d="M140.76 33.864h2.91v2.91h-2.91z"/><path d="M139.71 34.394h2.91v2.91h-2.91z"/><path d="M141.56 35.464h-2.91v-2.91h2.91z"/><path d="M142.62 33.604h-2.91v-2.91h2.91z"/><path d="M143.68 32.554h-2.91v-2.91h2.91z"/><path d="M144.74 32.024h-2.91v-2.91h2.91z"/><path d="M145.79 31.494h-2.91v-2.91h2.91zM138.12 34.664h2.91v2.91h-2.91z"/></g><g fill="#2d5615"><path d="M139.18 34.134h.794v.794h-.794zM140.76 35.724h.794v.794h-.794zM140.76 34.134h.794v.794h-.794zM139.18 35.714h.794v.794h-.794zM138.38 36.514h.794v.794h-.794zM141.56 33.334h.794v.794h-.794z"/><path d="M142.35 32.544h.794v.794h-.794zM143.15 31.754h.794v.794h-.794zM143.94 30.954h.794v.794h-.794z"/><path d="M144.73 30.164h.794v.794h-.794zM145.53 29.374h.794v.794h-.794zM146.32 28.574h.794v.794h-.794zM145.53 30.954h.794v2.381h-.794zM143.15 33.334h.794v2.381h-.794zM139.974 31.75v.794h2.381v-.794zM142.354 29.37v.794h2.381v-.794zM139.97 34.924h.794v.794h-.794z"/></g><g fill="#a8cb4c" fill-opacity=".314" stroke-width=".067"><path d="M29.11 25.667h2.91v2.91h-2.91z"/><path d="M28.05 28.307h2.91v2.91h-2.91z"/><path d="M26.99 30.167h2.91v2.91h-2.91z"/><path d="M25.93 31.217h2.91v2.91h-2.91z"/><path d="M24.87 31.747h2.91v2.91h-2.91z"/><path d="M23.82 32.277h2.91v2.91h-2.91z"/><path d="M25.67 33.347h-2.91v-2.91h2.91z"/><path d="M26.73 31.487h-2.91v-2.91h2.91z"/><path d="M27.79 30.437h-2.91v-2.91h2.91z"/><path d="M28.85 29.907h-2.91v-2.91h2.91z"/><path d="M29.9 29.377h-2.91v-2.91h2.91zM22.23 32.547h2.91v2.91h-2.91z"/></g><g fill="#2d5615"><path d="M23.29 32.017h.794v.794h-.794zM24.87 33.607h.794v.794h-.794zM24.87 32.017h.794v.794h-.794zM23.29 33.597h.794v.794h-.794zM22.49 34.397h.794v.794h-.794zM25.67 31.217h.794v.794h-.794z"/><path d="M26.46 30.427h.794v.794h-.794zM27.26 29.637h.794v.794h-.794zM28.05 28.837h.794v.794h-.794z"/><path d="M28.84 28.047h.794v.794h-.794zM29.64 27.257h.794v.794h-.794zM30.43 26.457h.794v.794h-.794zM29.64 28.837h.794v2.381h-.794zM27.26 31.217h.794v2.381h-.794zM24.084 29.633v.794h2.381v-.794zM26.464 27.253v.794h2.381v-.794zM24.08 32.807h.794v.794h-.794z"/></g><g fill="#a8cb4c" fill-opacity=".314" stroke-width=".067"><path d="M192.35 123.563h-2.91v2.91h2.91z"/><path d="M193.41 126.203h-2.91v2.91h2.91z"/><path d="M194.47 128.063h-2.91v2.91h2.91z"/><path d="M195.53 129.113h-2.91v2.91h2.91z"/><path d="M196.59 129.643h-2.91v2.91h2.91z"/><path d="M197.64 130.173h-2.91v2.91h2.91z"/><path d="M195.79 131.243h2.91v-2.91h-2.91z"/><path d="M194.73 129.383h2.91v-2.91h-2.91z"/><path d="M193.67 128.333h2.91v-2.91h-2.91z"/><path d="M192.61 127.803h2.91v-2.91h-2.91z"/><path d="M191.56 127.273h2.91v-2.91h-2.91zM199.23 130.443h-2.91v2.91h2.91z"/></g><g fill="#2d5615"><path d="M198.17 129.913h-.794v.794h.794zM196.59 131.503h-.794v.794h.794zM196.59 129.913h-.794v.794h.794zM198.17 131.493h-.794v.794h.794zM198.97 132.293h-.794v.794h.794zM195.79 129.113h-.794v.794h.794z"/><path d="M195 128.323h-.794v.794H195zM194.2 127.533h-.794v.794h.794zM193.41 126.733h-.794v.794h.794z"/><path d="M192.62 125.943h-.794v.794h.794zM191.82 125.153h-.794v.794h.794zM191.03 124.353h-.794v.794h.794zM191.82 126.733h-.794v2.381h.794zM194.2 129.113h-.794v2.381h.794zM197.376 127.53v.794h-2.381v-.794z"/><path d="M194.996 125.15v.794h-2.381v-.794zM197.38 130.703h-.794v.794h.794z"/></g><g fill="#a8cb4c" fill-opacity=".314" stroke-width=".067"><path d="M55.57 136.792h2.91v2.91h-2.91z"/><path d="M54.51 139.432h2.91v2.91h-2.91z"/><path d="M53.45 141.292h2.91v2.91h-2.91z"/><path d="M52.39 142.342h2.91v2.91h-2.91z"/><path d="M51.33 142.872h2.91v2.91h-2.91z"/><path d="M50.28 143.402h2.91v2.91h-2.91z"/><path d="M52.13 144.472h-2.91v-2.91h2.91z"/><path d="M53.19 142.612h-2.91v-2.91h2.91z"/><path d="M54.25 141.562h-2.91v-2.91h2.91z"/><path d="M55.31 141.032H52.4v-2.91h2.91z"/><path d="M56.36 140.502h-2.91v-2.91h2.91zM48.69 143.672h2.91v2.91h-2.91z"/></g><g fill="#2d5615"><path d="M49.75 143.142h.794v.794h-.794zM51.33 144.732h.794v.794h-.794zM51.33 143.142h.794v.794h-.794zM49.75 144.722h.794v.794h-.794zM48.95 145.522h.794v.794h-.794zM52.13 142.342h.794v.794h-.794z"/><path d="M52.92 141.552h.794v.794h-.794zM53.72 140.762h.794v.794h-.794zM54.51 139.962h.794v.794h-.794z"/><path d="M55.3 139.172h.794v.794H55.3zM56.1 138.382h.794v.794H56.1zM56.89 137.582h.794v.794h-.794zM56.1 139.962h.794v2.381H56.1zM53.72 142.342h.794v2.381h-.794zM50.544 140.758v.794h2.381v-.794zM52.924 138.378v.794h2.381v-.794zM50.54 143.932h.794v.794h-.794z"/></g><g fill="#a8cb4c" fill-opacity=".314" stroke-width=".067"><path d="M65.087 136.792h-2.91v2.91h2.91z"/><path d="M66.147 139.432h-2.91v2.91h2.91z"/><path d="M67.207 141.292h-2.91v2.91h2.91z"/><path d="M68.267 142.342h-2.91v2.91h2.91z"/><path d="M69.327 142.872h-2.91v2.91h2.91z"/><path d="M70.377 143.402h-2.91v2.91h2.91z"/><path d="M68.527 144.472h2.91v-2.91h-2.91z"/><path d="M67.467 142.612h2.91v-2.91h-2.91z"/><path d="M66.407 141.562h2.91v-2.91h-2.91z"/><path d="M65.347 141.032h2.91v-2.91h-2.91z"/><path d="M64.297 140.502h2.91v-2.91h-2.91zM71.967 143.672h-2.91v2.91h2.91z"/></g><g fill="#2d5615"><path d="M70.907 143.142h-.794v.794h.794zM69.327 144.732h-.794v.794h.794zM69.327 143.142h-.794v.794h.794zM70.907 144.722h-.794v.794h.794zM71.707 145.522h-.794v.794h.794zM68.527 142.342h-.794v.794h.794z"/><path d="M67.737 141.552h-.794v.794h.794zM66.937 140.762h-.794v.794h.794zM66.147 139.962h-.794v.794h.794z"/><path d="M65.357 139.172h-.794v.794h.794zM64.557 138.382h-.794v.794h.794zM63.767 137.582h-.794v.794h.794zM64.557 139.962h-.794v2.381h.794zM66.937 142.342h-.794v2.381h.794zM70.113 140.758v.794h-2.381v-.794zM67.733 138.378v.794h-2.381v-.794zM70.117 143.932h-.794v.794h.794z"/></g></svg>