<?xml version="1.0" encoding="UTF-8"?>
<svg version="1.1" viewBox="0 0 4.1186 3.5651" xml:space="preserve" xmlns="http://www.w3.org/2000/svg"><defs><filter id="c" x="-1.0074e-5" y="-1.1638e-5" width="1" height="1" color-interpolation-filters="sRGB"><feGaussianBlur stdDeviation="6.5338697e-05"/></filter><filter id="b" x="0" y="0" width="1" height="1" color-interpolation-filters="sRGB"><feGaussianBlur stdDeviation="8.9130634e-20"/></filter><filter id="a" x="-4.6026e-6" y="-5.015e-6" width="1" height="1" color-interpolation-filters="sRGB"><feGaussianBlur stdDeviation="2.0727186e-05"/></filter></defs><g transform="translate(-57.089 -147.35)"><g transform="matrix(.26458 0 0 .26458 34.172 127.73)"><g fill-opacity=".99608"><g transform="translate(14.129,9.844)" fill="#010100" filter="url(#c)" opacity=".996"><rect x="74.75" y="64.28" width="11.328" height="13.474" opacity=".996" stroke-width=".265"/><rect x="73.377" y="65.395" width="13.695" height="11.269" opacity=".996" stroke-width=".27484"/><rect x="72.487" y="65.986" width="15.566" height="10.072" opacity=".996" stroke-width=".265"/></g><g transform="translate(13.991,9.7931)" fill="#725525" filter="url(#b)" stroke-width=".265"><rect x="73.616" y="65.925" width="13.582" height="10.133" opacity=".996"/><rect x="74.715" y="65.314" width="11.354" height="11.506" opacity=".996"/></g><g transform="translate(14.418,10.19)" fill="#d3a24f" stroke-width=".265"><rect x="73.677" y="65.955" width="12.605" height="9.4614" opacity=".996"/><rect x="74.745" y="65.284" width="10.682" height="10.774" opacity=".996"/></g><g transform="translate(14.436,10.434)" fill="#f8db50" filter="url(#a)"><rect x="74.559" y="66.657" width="10.808" height="7.7828" opacity=".996" stroke-width=".26655"/><rect x="75.447" y="65.467" width="9.0647" height="9.9192" opacity=".996" stroke-width=".265"/></g><g transform="translate(14.185,10.068)" fill="#f1eefc" opacity=".996" stroke-width=".265"><rect x="73.891" y="69.282" width=".76302" height="1.0072" opacity=".996"/><rect x="73.891" y="66.016" width=".8851" height="2.4722" opacity=".996"/><rect x="74.684" y="65.406" width=".7325" height="1.2514" opacity=".996"/><rect x="75.417" y="65.406" width="2.1685" height=".84902" opacity=".996"/></g></g></g><g transform="matrix(.031374 0 0 .031374 56.128 144.17)" stroke-width=".26458"><path d="m86.884 146.1v-2.6458h2.6458v5.2917h-2.6458zm15.875 0v-2.6458h2.6458v5.2917h-2.6458z" fill="#fefefe"/><path d="m84.238 155.36v-1.3229h-2.6458v-10.583h2.6458v-2.6458h26.458v2.6458h2.6458v10.583h-2.6458v2.6458h-26.458zm15.875-2.6458v-1.3229h-5.2917v2.6458h5.2917zm-7.9375-5.2917v-3.9688h-5.2917v7.9375h5.2917zm15.875 0v-3.9688h-5.2917v7.9375h5.2917z" fill="#fed990"/><path d="m78.947 189.75v-1.3229h-5.2917v-2.6458h-2.6458v-7.9375h2.6458v-2.6458h7.9375v-2.6458h2.6458v5.2917h-2.6458v5.2917h2.6458v7.9375h-5.2917zm10.583-1.3229v-2.6458h2.6458v5.2917h-2.6458zm7.9375 0v-2.6458h-2.6458v-5.2917h2.6458v-7.9375h2.6458v7.9375h2.6458v5.2917h-2.6458v5.2917h-2.6458zm7.9375 0v-2.6458h2.6458v5.2917h-2.6458zm7.9375-1.3229v-3.9688h2.6458v-5.2917h-2.6458v-5.2917h2.6458v2.6458h7.9375v2.6458h2.6458v7.9375h-2.6458v2.6458h-5.2917v2.6458h-5.2917zm-26.458-6.6146v-2.6458h2.6458v-5.2917h2.6458v7.9375h-2.6458v2.6458h-2.6458zm21.167 1.3229v-1.3229h-2.6458v-7.9375h2.6458v5.2917h2.6458v5.2917h-2.6458z" fill="#20afec"/><path d="m84.238 187.11v-3.9688h-2.6458v-2.6458h5.2917v2.6458h7.9375v2.6458h2.6458v5.2917h-5.2917v-5.2917h-2.6458v5.2917h-5.2917zm15.875 1.3229v-2.6458h2.6458v-2.6458h7.9375v-2.6458h5.2917v2.6458h-2.6458v7.9375h-5.2917v-5.2917h-2.6458v5.2917h-5.2917z" fill="#1c9cd3"/><path d="m86.884 150.07v-1.3229h2.6458v-5.2917h2.6458v7.9375h-5.2917zm15.875 0v-1.3229h2.6458v-5.2917h2.6458v7.9375h-5.2917z" fill="#790a33"/><path d="m94.822 152.71v-1.3229h5.2917v2.6458h-5.2917z" fill="#040302"/><path d="m89.53 181.82v-1.3229h2.6458v-13.229h-2.6458v10.583h-2.6458v2.6458h-5.2917v-2.6458h2.6458v-7.9375h-5.2917v-2.6458h-5.2917v-2.6458h-2.6458v-2.6458h-2.6458v-2.6458h5.2917v2.6458h5.2917v2.6458h7.9375v-2.6458h2.6458v-2.6458h-10.583v-2.6458h-2.6458v-2.6458h-2.6458v-18.521h2.6458v-5.2917h2.6458v-5.2917h5.2917v2.6458h2.6458v2.6458h21.167v-2.6458h2.6458v-2.6458h5.2917v5.2917h2.6458v5.2917h2.6458v18.521h-2.6458v2.6458h-2.6458v2.6458h-7.9375v2.6458h2.6458v2.6458h2.6458v13.229h2.6458v2.6458h-5.2917v-2.6458h-2.6458v-10.583h-2.6458v13.229h2.6458v2.6458h-5.2917v-2.6458h-2.6458v-18.521h-2.6458v18.521h-2.6458v2.6458h-5.2917zm21.167-26.458v-1.3229h2.6458v-10.583h-2.6458v-2.6458h-26.458v2.6458h-2.6458v10.583h2.6458v2.6458h26.458z"/></g></g></svg>
