<svg xmlns="http://www.w3.org/2000/svg" xml:space="preserve" width="50px" height="100%" viewBox="0 0 4.119 3.565"><defs><filter id="a" width="1" height="1" x="0" y="0" color-interpolation-filters="sRGB"><feGaussianBlur/></filter><filter id="b" width="1" height="1" x="0" y="0" color-interpolation-filters="sRGB"><feGaussianBlur/></filter><filter id="c" width="1" height="1" x="0" y="0" color-interpolation-filters="sRGB"><feGaussianBlur/></filter></defs><g fill-opacity=".996"><g fill="#010100" filter="url(#a)" opacity=".996" transform="translate(-19.179 -17.015) scale(.26458)"><path d="M74.75 64.28h11.328v13.474H74.75z" opacity=".996"/><path d="M73.377 65.395h13.695v11.269H73.377z" opacity=".996"/><path d="M72.487 65.986h15.566v10.072H72.487z" opacity=".996"/></g><g fill="#725525" stroke-width=".265" filter="url(#b)" transform="translate(-19.215 -17.029) scale(.26458)"><path d="M73.616 65.925h13.582v10.133H73.616z" opacity=".996"/><path d="M74.715 65.314h11.354V76.82H74.715z" opacity=".996"/></g><g fill="#d3a24f" stroke-width=".265"><path d="M.391.526h3.335V3.03H.391z" opacity=".996"/><path d="M.674.349H3.5v2.85H.674z" opacity=".996"/></g><g fill="#f8db50" filter="url(#c)" transform="translate(-19.098 -16.86) scale(.26458)"><path d="M74.559 66.657h10.808v7.783H74.559z" opacity=".996"/><path d="M75.447 65.467h9.065v9.919h-9.065z" opacity=".996"/></g><g fill="#f1eefc" stroke-width=".265" opacity=".996"><path d="M.386 1.374h.202v.267H.386zM.386.51H.62v.654H.386z" opacity=".996"/><path d="M.596.349H.79v.33H.596zM.79.349h.574v.225H.79z" opacity=".996"/></g></g><g stroke-width=".265"><path fill="#fefefe" d="M1.765 1.404V1.32h.083v.166h-.083zm.498 0V1.32h.083v.166h-.083z"/><path fill="#fed990" d="M1.682 1.694v-.041h-.083V1.32h.083v-.083h.83v.083h.083v.332h-.083v.083h-.83zm.498-.083V1.57h-.166v.083h.166zm-.25-.166v-.124h-.165v.249h.166zm.499 0v-.124h-.166v.249h.166z"/><path fill="#20afec" d="M1.516 2.773v-.041H1.35v-.083h-.083v-.25h.083v-.082h.249v-.083h.083V2.4h-.083v.166h.083v.249h-.166zm.332-.041v-.083h.083v.166h-.083zm.249 0v-.083h-.083v-.166h.083v-.25h.083v.25h.083v.166H2.18v.166h-.083zm.249 0v-.083h.083v.166h-.083zm.249-.042v-.124h.083V2.4h-.083v-.166h.083v.083h.249V2.4h.083v.249h-.083v.083h-.166v.083h-.166zm-.83-.207V2.4h.083v-.166h.083v.249h-.083v.083h-.083zm.664.041v-.041h-.083v-.25h.083V2.4h.083v.166h-.083z"/><path fill="#1c9cd3" d="M1.682 2.69v-.124h-.083v-.083h.166v.083h.249v.083h.083v.166H1.93v-.166h-.083v.166h-.166zm.498.042v-.083h.083v-.083h.249v-.083h.166v.083h-.083v.249h-.166v-.166h-.083v.166H2.18z"/><path fill="#790a33" d="M1.765 1.528v-.041h.083V1.32h.083v.249h-.166zm.498 0v-.041h.083V1.32h.083v.249h-.166z"/><path fill="#040302" d="M2.014 1.611V1.57h.166v.083h-.166z"/><path d="M1.848 2.524v-.041h.083v-.415h-.083V2.4h-.083v.083h-.166V2.4h.083v-.25h-.166v-.082H1.35v-.083h-.083v-.083h-.083v-.083h.166v.083h.166v.083h.249v-.083h.083v-.083h-.332v-.083h-.083v-.083H1.35v-.581h.083V.906h.083V.74h.166v.083h.083v.083h.664V.823h.083V.74h.166v.166h.083v.166h.083v.58h-.083v.084h-.083v.083h-.249v.083h.083v.083h.083V2.4h.083v.083h-.166V2.4h-.083v-.332h-.083v.415h.083v.083h-.166v-.083H2.18v-.581h-.083v.58h-.083v.084h-.166zm.664-.83v-.041h.083V1.32h-.083v-.083h-.83v.083h-.083v.332h.083v.083h.83z"/></g></svg>
