<svg xmlns="http://www.w3.org/2000/svg" xml:space="preserve" width="50px" viewBox="0 0 4.119 3.565"><defs><filter id="a" width="1" height="1" x="0" y="0" color-interpolation-filters="sRGB"><feGaussianBlur/></filter><filter id="b" width="1" height="1" x="0" y="0" color-interpolation-filters="sRGB"><feGaussianBlur/></filter><filter id="c" width="1" height="1" x="0" y="0" color-interpolation-filters="sRGB"><feGaussianBlur/></filter></defs><g fill-opacity=".996"><g fill="#010100" filter="url(#a)" opacity=".996" transform="translate(-19.179 -17.015) scale(.26458)"><path d="M74.75 64.28h11.328v13.474H74.75z" opacity=".996"/><path d="M73.377 65.395h13.695v11.269H73.377z" opacity=".996"/><path d="M72.487 65.986h15.566v10.072H72.487z" opacity=".996"/></g><g fill="#725525" stroke-width=".265" filter="url(#b)" transform="translate(-19.215 -17.029) scale(.26458)"><path d="M73.616 65.925h13.582v10.133H73.616z" opacity=".996"/><path d="M74.715 65.314h11.354V76.82H74.715z" opacity=".996"/></g><g fill="#d3a24f" stroke-width=".265"><path d="M.391.526h3.335V3.03H.391z" opacity=".996"/><path d="M.674.349H3.5v2.85H.674z" opacity=".996"/></g><g fill="#f8db50" filter="url(#c)" transform="translate(-19.098 -16.86) scale(.26458)"><path d="M74.559 66.657h10.808v7.783H74.559z" opacity=".996"/><path d="M75.447 65.467h9.065v9.919h-9.065z" opacity=".996"/></g><g fill="#f1eefc" stroke-width=".265" opacity=".996"><path d="M.386 1.374h.202v.267H.386zM.386.51H.62v.654H.386z" opacity=".996"/><path d="M.596.349H.79v.33H.596zM.79.349h.574v.225H.79z" opacity=".996"/></g></g><path fill="#fff" d="M1.23 1.054h1.736v1.44H1.229z"/><g fill="#f14336"><path d="M1.155 1.128h.222v1.367h-.222zM2.818 1.128h.222v1.367h-.222z"/><g stroke-width=".067"><path d="M2.91 1.054h.084v.074H2.91z"/><path d="M2.994 1.063h.009v.065h-.01zM3.003 1.072h.018v.056h-.018z"/><path d="M3.021 1.09h.019v.038H3.02zM2.901 1.054h.01v.074H2.9zM2.883 1.072H2.9v.056h-.018z"/><path d="M2.864 1.082h.019v.046h-.019zM2.846 1.1h.018v.028h-.018zM2.827 1.11h.019v.018h-.019z"/><path d="M2.818 1.118h.01v.01h-.01zM2.753 1.165h.065v.24h-.065zM2.689 1.21h.064v.241H2.69zM2.624 1.257h.065v.24h-.065zM2.56 1.312h.064v.24H2.56zM2.495 1.35h.064v.24h-.064zM2.43 1.396h.065v.24H2.43zM2.365 1.442h.065v.24h-.065zM2.3 1.497h.065v.24h-.064z"/><path d="M2.236 1.543h.065v.24h-.065zM2.171 1.59h.065v.24h-.065z"/></g><path d="M2.096 1.636h.075v.24h-.075z"/><g stroke-width=".067"><path d="M1.285 1.054H1.2v.074h.084z"/><path d="M1.201 1.063h-.009v.065h.01zM1.192 1.072h-.018v.056h.018zM1.174 1.09h-.019v.038h.019zM1.294 1.054h-.01v.074h.01zM1.312 1.072h-.018v.056h.018zM1.33 1.082h-.018v.046h.019z"/><path d="M1.35 1.1h-.02v.028h.02z"/><path d="M1.368 1.11h-.019v.018h.019z"/><path d="M1.377 1.118h-.01v.01h.01zM1.442 1.165h-.065v.24h.065zM1.506 1.21h-.064v.241h.064zM1.571 1.257h-.065v.24h.065z"/><path d="M1.636 1.312H1.57v.24h.065zM1.7 1.35h-.064v.24H1.7zM1.765 1.396H1.7v.24h.065zM1.83 1.442h-.065v.24h.065zM1.894 1.497H1.83v.24h.064zM1.959 1.543h-.065v.24h.065zM2.024 1.59h-.065v.24h.065z"/></g><path d="M2.098 1.636h-.074v.24h.074z"/></g></svg>
