<?xml version="1.0" encoding="UTF-8"?>
<svg version="1.1" viewBox="0 0 4.1186 3.5651" xml:space="preserve" xmlns="http://www.w3.org/2000/svg"><defs><filter id="c" x="-1.0074e-5" y="-1.1638e-5" width="1" height="1" color-interpolation-filters="sRGB"><feGaussianBlur stdDeviation="6.5338697e-05"/></filter><filter id="b" x="0" y="0" width="1" height="1" color-interpolation-filters="sRGB"><feGaussianBlur stdDeviation="8.9130634e-20"/></filter><filter id="a" x="-4.6026e-6" y="-5.015e-6" width="1" height="1" color-interpolation-filters="sRGB"><feGaussianBlur stdDeviation="2.0727186e-05"/></filter></defs><g transform="translate(-57.089 -147.35)"><g transform="matrix(.26458 0 0 .26458 34.172 127.73)"><g fill-opacity=".99608"><g transform="translate(14.129,9.844)" fill="#010100" filter="url(#c)" opacity=".996"><rect x="74.75" y="64.28" width="11.328" height="13.474" opacity=".996" stroke-width=".265"/><rect x="73.377" y="65.395" width="13.695" height="11.269" opacity=".996" stroke-width=".27484"/><rect x="72.487" y="65.986" width="15.566" height="10.072" opacity=".996" stroke-width=".265"/></g><g transform="translate(13.991,9.7931)" fill="#725525" filter="url(#b)" stroke-width=".265"><rect x="73.616" y="65.925" width="13.582" height="10.133" opacity=".996"/><rect x="74.715" y="65.314" width="11.354" height="11.506" opacity=".996"/></g><g transform="translate(14.418,10.19)" fill="#d3a24f" stroke-width=".265"><rect x="73.677" y="65.955" width="12.605" height="9.4614" opacity=".996"/><rect x="74.745" y="65.284" width="10.682" height="10.774" opacity=".996"/></g><g transform="translate(14.436,10.434)" fill="#f8db50" filter="url(#a)"><rect x="74.559" y="66.657" width="10.808" height="7.7828" opacity=".996" stroke-width=".26655"/><rect x="75.447" y="65.467" width="9.0647" height="9.9192" opacity=".996" stroke-width=".265"/></g><g transform="translate(14.185,10.068)" fill="#f1eefc" opacity=".996" stroke-width=".265"><rect x="73.891" y="69.282" width=".76302" height="1.0072" opacity=".996"/><rect x="73.891" y="66.016" width=".8851" height="2.4722" opacity=".996"/><rect x="74.684" y="65.406" width=".7325" height="1.2514" opacity=".996"/><rect x="75.417" y="65.406" width="2.1685" height=".84902" opacity=".996"/></g></g></g><g transform="matrix(.013966 0 0 .013966 57.69 147.48)"><rect x="44.979" y="66.146" width="124.35" height="103.19" fill="#fff" stroke-width=".067"/><g fill="#f14336"><rect x="39.688" y="71.438" width="15.875" height="97.896" stroke-width=".065259"/><rect x="158.75" y="71.438" width="15.875" height="97.896" stroke-width=".065259"/><g stroke-width=".067"><rect x="165.36" y="66.146" width="5.9531" height="5.2917"/><rect x="171.32" y="66.807" width=".66146" height="4.6302"/><rect x="171.98" y="67.469" width="1.3229" height="3.9688"/><rect x="173.3" y="68.792" width="1.3229" height="2.6458"/><rect x="164.7" y="66.146" width=".66146" height="5.2917"/><rect x="163.38" y="67.469" width="1.3229" height="3.9688"/><rect x="162.06" y="68.13" width="1.3229" height="3.3073"/><rect x="160.73" y="69.453" width="1.3229" height="1.9844"/><rect x="159.41" y="70.115" width="1.3229" height="1.3229"/><rect x="158.75" y="70.776" width=".66146" height=".66146"/><rect x="154.12" y="74.083" width="4.6302" height="17.198"/><rect x="149.49" y="77.391" width="4.6302" height="17.198"/><rect x="144.86" y="80.698" width="4.6302" height="17.198"/><rect x="140.23" y="84.667" width="4.6302" height="17.198"/><rect x="135.6" y="87.313" width="4.6302" height="17.198"/><rect x="130.97" y="90.62" width="4.6302" height="17.198"/><rect x="126.34" y="93.927" width="4.6302" height="17.198"/><rect x="121.71" y="97.896" width="4.6302" height="17.198"/><rect x="117.08" y="101.2" width="4.6302" height="17.198"/><rect x="112.45" y="104.51" width="4.6302" height="17.198"/></g><rect x="107.06" y="107.82" width="5.3862" height="17.198" stroke-width=".072263"/><g stroke-width=".067"><rect transform="scale(-1,1)" x="-48.948" y="66.146" width="5.9531" height="5.2917"/><rect transform="scale(-1,1)" x="-42.995" y="66.807" width=".66146" height="4.6302"/><rect transform="scale(-1,1)" x="-42.333" y="67.469" width="1.3229" height="3.9688"/><rect transform="scale(-1,1)" x="-41.01" y="68.792" width="1.3229" height="2.6458"/><rect transform="scale(-1,1)" x="-49.609" y="66.146" width=".66146" height="5.2917"/><rect transform="scale(-1,1)" x="-50.932" y="67.469" width="1.3229" height="3.9688"/><rect transform="scale(-1,1)" x="-52.255" y="68.13" width="1.3229" height="3.3073"/><rect transform="scale(-1,1)" x="-53.578" y="69.453" width="1.3229" height="1.9844"/><rect transform="scale(-1,1)" x="-54.901" y="70.115" width="1.3229" height="1.3229"/><rect transform="scale(-1,1)" x="-55.562" y="70.776" width=".66146" height=".66146"/><rect transform="scale(-1,1)" x="-60.193" y="74.083" width="4.6302" height="17.198"/><rect transform="scale(-1,1)" x="-64.823" y="77.391" width="4.6302" height="17.198"/><rect transform="scale(-1,1)" x="-69.453" y="80.698" width="4.6302" height="17.198"/><rect transform="scale(-1,1)" x="-74.083" y="84.667" width="4.6302" height="17.198"/><rect transform="scale(-1,1)" x="-78.714" y="87.313" width="4.6302" height="17.198"/><rect transform="scale(-1,1)" x="-83.344" y="90.62" width="4.6302" height="17.198"/><rect transform="scale(-1,1)" x="-87.974" y="93.927" width="4.6302" height="17.198"/><rect transform="scale(-1,1)" x="-92.604" y="97.896" width="4.6302" height="17.198"/><rect transform="scale(-1,1)" x="-97.234" y="101.2" width="4.6302" height="17.198"/><rect transform="scale(-1,1)" x="-101.86" y="104.51" width="4.6302" height="17.198"/></g><rect transform="scale(-1,1)" x="-107.16" y="107.82" width="5.2917" height="17.198" stroke-width=".071626"/></g></g></g></svg>
