<?xml version="1.0" encoding="UTF-8"?>
<svg version="1.1" viewBox="0 0 134.94 134.94" xmlns="http://www.w3.org/2000/svg" xmlns:cc="http://creativecommons.org/ns#" xmlns:dc="http://purl.org/dc/elements/1.1/" xmlns:rdf="http://www.w3.org/1999/02/22-rdf-syntax-ns#">
 <metadata>
  <rdf:RDF>
   <cc:Work rdf:about="">
    <dc:format>image/svg+xml</dc:format>
    <dc:type rdf:resource="http://purl.org/dc/dcmitype/StillImage"/>
    <dc:title/>
   </cc:Work>
  </rdf:RDF>
 </metadata>
 <g transform="translate(-29.104 -42.333)">
  <g>
   <rect x="42.333" y="52.917" width="111.12" height="111.12" fill="#fff" stroke-width=".067"/>
   <g fill="#0077b7">
    <rect x="29.104" y="92.604" width="19.844" height="74.083" stroke-width=".069351"/>
    <rect x="44.979" y="85.99" width="30.427" height="6.6146" stroke-width=".071849"/>
    <rect x="44.979" y="75.406" width="1.3229" height="5.2917" stroke-width=".059926"/>
    <g stroke-width=".067">
     <rect x="46.302" y="78.052" width="1.3229" height="2.6458"/>
     <rect x="47.625" y="79.375" width="1.3229" height="1.3229"/>
     <rect x="48.948" y="82.021" width="1.3229" height="3.9688"/>
     <rect x="50.271" y="83.344" width="1.3229" height="2.6458"/>
     <rect x="51.594" y="83.344" width="1.3229" height="2.6458"/>
     <rect x="52.917" y="84.667" width="2.6458" height="1.3229"/>
     <rect x="44.979" y="80.698" width="3.9688" height="5.2917"/>
    </g>
    <g transform="matrix(-1 0 0 1 120.39 -2.5431e-6)">
     <rect x="44.979" y="75.406" width="1.3229" height="5.2917" stroke-width=".059926"/>
     <g stroke-width=".067">
      <rect x="46.302" y="78.052" width="1.3229" height="2.6458"/>
      <rect x="47.625" y="79.375" width="1.3229" height="1.3229"/>
      <rect x="48.948" y="82.021" width="1.3229" height="3.9688"/>
      <rect x="50.271" y="83.344" width="1.3229" height="2.6458"/>
      <rect x="51.594" y="83.344" width="1.3229" height="2.6458"/>
      <rect x="52.917" y="84.667" width="2.6458" height="1.3229"/>
      <rect x="44.979" y="80.698" width="3.9688" height="5.2917"/>
     </g>
    </g>
    <g transform="matrix(1 0 0 -1 -1.2716e-6 141.55)">
     <rect x="44.979" y="75.406" width="1.3229" height="5.2917" stroke-width=".059926"/>
     <g stroke-width=".067">
      <rect x="46.302" y="78.052" width="1.3229" height="2.6458"/>
      <rect x="47.625" y="79.375" width="1.3229" height="1.3229"/>
      <rect x="48.948" y="82.021" width="1.3229" height="3.9688"/>
      <rect x="50.271" y="83.344" width="1.3229" height="2.6458"/>
      <rect x="51.594" y="83.344" width="1.3229" height="2.6458"/>
      <rect x="52.917" y="84.667" width="2.6458" height="1.3229"/>
      <rect x="44.979" y="80.698" width="3.9688" height="5.2917"/>
     </g>
    </g>
    <g transform="rotate(180 60.193 70.776)">
     <rect x="44.979" y="75.406" width="1.3229" height="5.2917" stroke-width=".059926"/>
     <g stroke-width=".067">
      <rect x="46.302" y="78.052" width="1.3229" height="2.6458"/>
      <rect x="47.625" y="79.375" width="1.3229" height="1.3229"/>
      <rect x="48.948" y="82.021" width="1.3229" height="3.9688"/>
      <rect x="50.271" y="83.344" width="1.3229" height="2.6458"/>
      <rect x="51.594" y="83.344" width="1.3229" height="2.6458"/>
      <rect x="52.917" y="84.667" width="2.6458" height="1.3229"/>
      <rect x="44.979" y="80.698" width="3.9688" height="5.2917"/>
     </g>
    </g>
    <g stroke-width=".067">
     <rect x="55.562" y="55.562" width="9.2604" height="1.3229"/>
     <rect x="74.083" y="66.146" width="1.3229" height="9.2604"/>
     <rect x="44.979" y="66.146" width="1.3229" height="9.2604"/>
     <rect x="29.104" y="52.917" width="15.875" height="39.688"/>
    </g>
    <rect x="39.688" y="42.333" width="113.77" height="10.583" stroke-width=".066234"/>
    <g stroke-width=".067">
     <rect x="37.042" y="42.333" width="2.6458" height="10.583"/>
     <rect x="34.396" y="44.979" width="2.6458" height="7.9375"/>
     <rect x="31.75" y="47.625" width="2.6458" height="5.2917"/>
     <rect x="29.104" y="50.271" width="2.6458" height="2.6458"/>
    </g>
    <g transform="matrix(-1 0 0 1 193.15 1.2716e-6)" stroke-width=".067">
     <rect x="37.042" y="42.333" width="2.6458" height="10.583"/>
     <rect x="34.396" y="44.979" width="2.6458" height="7.9375"/>
     <rect x="31.75" y="47.625" width="2.6458" height="5.2917"/>
     <rect x="29.104" y="50.271" width="2.6458" height="2.6458"/>
    </g>
    <g transform="matrix(1 0 0 -1 0 219.6)" stroke-width=".067">
     <rect x="37.042" y="42.333" width="2.6458" height="10.583"/>
     <rect x="34.396" y="44.979" width="2.6458" height="7.9375"/>
     <rect x="31.75" y="47.625" width="2.6458" height="5.2917"/>
     <rect x="29.104" y="50.271" width="2.6458" height="2.6458"/>
    </g>
    <g transform="rotate(180 96.573 109.8)" stroke-width=".067">
     <rect x="37.042" y="42.333" width="2.6458" height="10.583"/>
     <rect x="34.396" y="44.979" width="2.6458" height="7.9375"/>
     <rect x="31.75" y="47.625" width="2.6458" height="5.2917"/>
     <rect x="29.104" y="50.271" width="2.6458" height="2.6458"/>
    </g>
    <rect x="39.688" y="166.69" width="113.77" height="10.583" stroke-width=".067"/>
    <rect x="48.948" y="161.4" width="115.09" height="5.2917" stroke-width=".067388"/>
    <g stroke-width=".067">
     <rect x="71.438" y="92.604" width="9.2604" height="68.792"/>
     <rect x="103.19" y="119.06" width="1.3229" height="42.333"/>
     <rect x="111.12" y="109.8" width="5.2917" height="51.594"/>
     <rect x="108.48" y="112.45" width="2.6458" height="48.948"/>
     <rect x="105.83" y="115.09" width="2.6458" height="46.302"/>
     <rect x="104.51" y="116.42" width="1.3229" height="44.979"/>
     <rect transform="scale(-1,1)" x="-129.65" y="119.06" width="1.3229" height="42.333"/>
     <rect transform="scale(-1,1)" x="-121.71" y="109.8" width="5.2917" height="51.594"/>
     <rect transform="scale(-1,1)" x="-124.35" y="112.45" width="2.6458" height="48.948"/>
     <rect transform="scale(-1,1)" x="-127" y="115.09" width="2.6458" height="46.302"/>
     <rect transform="scale(-1,1)" x="-128.32" y="116.42" width="1.3229" height="44.979"/>
    </g>
    <rect x="150.81" y="52.917" width="13.229" height="108.48" stroke-width=".081075"/>
    <rect x="75.406" y="52.917" width="75.406" height="39.687" stroke-width=".070624"/>
    <g stroke-width=".067">
     <rect x="44.979" y="52.917" width="30.427" height="2.6458"/>
     <rect x="137.58" y="92.604" width="13.229" height="1.3229"/>
     <rect x="140.23" y="93.927" width="10.583" height="1.3229"/>
     <rect x="142.88" y="95.25" width="7.9375" height="2.6458"/>
     <rect x="145.52" y="97.896" width="5.2917" height="2.6458"/>
     <rect x="146.84" y="100.54" width="3.9688" height="3.9688"/>
     <rect x="148.17" y="104.51" width="2.6458" height="2.6458"/>
     <rect x="149.49" y="107.16" width="1.3229" height="6.6146"/>
     <rect x="103.19" y="92.604" width="1.3229" height="6.6146"/>
     <rect x="104.51" y="92.604" width="1.3229" height="5.2917"/>
     <rect x="105.83" y="92.604" width="2.6458" height="2.6458"/>
     <rect x="108.48" y="92.604" width="2.6458" height="1.3229"/>
    </g>
   </g>
  </g>
 </g>
</svg>
