<svg xmlns="http://www.w3.org/2000/svg" xml:space="preserve" width="50px" viewBox="0 0 4.119 3.565"><defs><filter id="a" width="1" height="1" x="0" y="0" color-interpolation-filters="sRGB"><feGaussianBlur/></filter><filter id="b" width="1" height="1" x="0" y="0" color-interpolation-filters="sRGB"><feGaussianBlur/></filter><filter id="c" width="1" height="1" x="0" y="0" color-interpolation-filters="sRGB"><feGaussianBlur/></filter></defs><g fill-opacity=".996"><g fill="#010100" filter="url(#a)" opacity=".996" transform="translate(-19.179 -17.015) scale(.26458)"><path d="M74.75 64.28h11.328v13.474H74.75z" opacity=".996"/><path d="M73.377 65.395h13.695v11.269H73.377z" opacity=".996"/><path d="M72.487 65.986h15.566v10.072H72.487z" opacity=".996"/></g><g fill="#725525" stroke-width=".265" filter="url(#b)" transform="translate(-19.215 -17.029) scale(.26458)"><path d="M73.616 65.925h13.582v10.133H73.616z" opacity=".996"/><path d="M74.715 65.314h11.354V76.82H74.715z" opacity=".996"/></g><g fill="#d3a24f" stroke-width=".265"><path d="M.391.526h3.335V3.03H.391z" opacity=".996"/><path d="M.674.349H3.5v2.85H.674z" opacity=".996"/></g><g fill="#f8db50" filter="url(#c)" transform="translate(-19.098 -16.86) scale(.26458)"><path d="M74.559 66.657h10.808v7.783H74.559z" opacity=".996"/><path d="M75.447 65.467h9.065v9.919h-9.065z" opacity=".996"/></g><g fill="#f1eefc" stroke-width=".265" opacity=".996"><path d="M.386 1.374h.202v.267H.386zM.386.51H.62v.654H.386z" opacity=".996"/><path d="M.596.349H.79v.33H.596zM.79.349h.574v.225H.79z" opacity=".996"/></g></g><path fill="#fff" d="M1.295.955h1.566v1.566H1.295z"/><g fill="#0077b7"><path d="M1.109 1.514h.28v1.044h-.28zM1.333 1.421h.428v.093h-.428zM1.333 1.272h.018v.075h-.018z"/><g stroke-width=".067"><path d="M1.351 1.31h.019v.037H1.35zM1.37 1.328h.018v.019H1.37zM1.388 1.365h.02v.056h-.02z"/><path d="M1.407 1.384h.019v.037h-.019zM1.426 1.384h.018v.037h-.018zM1.444 1.403h.038v.018h-.038zM1.333 1.347h.055v.074h-.055z"/></g><path d="M1.761 1.272h-.018v.075h.018z"/><g stroke-width=".067"><path d="M1.743 1.31h-.019v.037h.019zM1.724 1.328h-.019v.019h.019zM1.705 1.365h-.018v.056h.018zM1.687 1.384h-.019v.037h.019z"/><path d="M1.668 1.384H1.65v.037h.02zM1.65 1.403h-.038v.018h.037zM1.761 1.347h-.056v.074h.056z"/></g><path d="M1.333 1.142h.018v-.075h-.018z"/><g stroke-width=".067"><path d="M1.351 1.104h.019v-.037H1.35zM1.37 1.086h.018v-.019H1.37zM1.388 1.049h.02V.993h-.02z"/><path d="M1.407 1.03h.019V.993h-.019zM1.426 1.03h.018V.993h-.018zM1.444 1.011h.038V.993h-.038zM1.333 1.067h.055V.993h-.055z"/></g><path d="M1.761 1.142h-.018v-.075h.018z"/><g stroke-width=".067"><path d="M1.743 1.104h-.02v-.037h.02z"/><path d="M1.724 1.086h-.019v-.019h.019zM1.705 1.049h-.018V.993h.018zM1.687 1.03h-.019V.993h.019zM1.668 1.03h-.019V.993h.019z"/><path d="M1.65 1.011h-.038V.993h.037zM1.761 1.067h-.056V.993h.056z"/></g><g stroke-width=".067"><path d="M1.482.993h.13v.018h-.13zM1.743 1.142h.018v.13h-.018zM1.333 1.142h.018v.13h-.018zM1.109.955h.224v.56h-.224z"/></g><path d="M1.258.806h1.603v.15H1.258z"/><g stroke-width=".067"><path d="M1.22.806h.038v.15h-.037z"/><path d="M1.184.844h.037v.111h-.037zM1.146.88h.038v.075h-.038zM1.109.918h.037v.037H1.11z"/></g><g stroke-width=".067"><path d="M2.898.806H2.86v.15h.037zM2.935.844h-.037v.111h.037zM2.972.88h-.037v.075h.037zM3.01.918h-.038v.037h.038z"/></g><g stroke-width=".067"><path d="M1.22 2.707h.038v-.15h-.037z"/><path d="M1.184 2.67h.037v-.112h-.037zM1.146 2.632h.038v-.074h-.038zM1.109 2.595h.037v-.037H1.11z"/></g><g stroke-width=".067"><path d="M2.898 2.707H2.86v-.15h.037zM2.935 2.67h-.037v-.112h.037zM2.972 2.632h-.037v-.074h.037zM3.01 2.595h-.038v-.037h.038z"/></g><path d="M1.258 2.558h1.603v.15H1.258z"/><path d="M1.388 2.483H3.01v.075H1.388z"/><g stroke-width=".067"><path d="M1.705 1.514h.13v.97h-.13zM2.153 1.887h.018v.596h-.018zM2.264 1.757h.075v.726h-.075zM2.227 1.794h.037v.69h-.037zM2.19 1.831h.037v.652H2.19z"/><path d="M2.171 1.85h.019v.633H2.17zM2.525 1.887h-.018v.596h.018zM2.413 1.757H2.34v.726h.074z"/><path d="M2.45 1.794h-.037v.69h.038z"/><path d="M2.488 1.831H2.45v.652h.037z"/><path d="M2.507 1.85h-.02v.633h.02z"/></g><path d="M2.823.955h.187v1.528h-.187zM1.761.955h1.062v.56H1.761z"/><g stroke-width=".067"><path d="M1.333.955h.428v.038h-.428zM2.637 1.514h.186v.02h-.186z"/><path d="M2.674 1.533h.15v.019h-.15zM2.712 1.552h.111v.037h-.111zM2.749 1.589h.074v.037H2.75zM2.767 1.626h.056v.056h-.056zM2.786 1.682h.037v.037h-.037zM2.805 1.72h.018v.093h-.018zM2.153 1.514h.018v.094h-.018z"/><path d="M2.171 1.514h.019v.075H2.17zM2.19 1.514h.037v.038H2.19zM2.227 1.514h.037v.02h-.037z"/></g></g></svg>
