<?xml version="1.0" encoding="UTF-8"?>
<svg version="1.1" viewBox="0 0 51.594 64.012" xmlns="http://www.w3.org/2000/svg" xmlns:cc="http://creativecommons.org/ns#" xmlns:dc="http://purl.org/dc/elements/1.1/" xmlns:rdf="http://www.w3.org/1999/02/22-rdf-syntax-ns#">
 <metadata>
  <rdf:RDF>
   <cc:Work rdf:about="">
    <dc:format>image/svg+xml</dc:format>
    <dc:type rdf:resource="http://purl.org/dc/dcmitype/StillImage"/>
    <dc:title/>
   </cc:Work>
  </rdf:RDF>
 </metadata>
 <g fill="#333">
  <path d="m12.567 41.01v-1.3229h-2.6458v-15.875h-2.6458v-5.2917h-2.6458v-5.2917h5.2917v2.6458h2.6458v-7.9375h2.6458v-5.2917h2.6458v-2.6458h2.6458v5.2917h10.583v-2.6458h5.2917v-2.6458h2.6458v13.229h2.6458v-2.6458h5.2917v5.2917h-2.6458v5.2917h-2.6458v10.583h2.6458v10.583h-5.2917v-2.6458h-7.9375v-2.6458h-10.583v2.6458h-2.6458v2.6458h-5.2917zm21.167-21.167v-3.9688h-2.6458v-2.6458h-13.229v2.6458h-2.6458v7.9375h18.521zm-15.875-1.3229v-2.6458h2.6458v5.2917h-2.6458zm7.9375 0v-2.6458h2.6458v5.2917h-2.6458z" stroke-width=".26458"/>
  <g stroke-width=".26458" style="font-variant-caps:normal;font-variant-east-asian:normal;font-variant-ligatures:normal;font-variant-numeric:normal" aria-label="MEDIA">
   <path d="m-3.9899e-4 54.176v-9.2601h2.6458v1.3229h1.3229v1.3229h1.3229v-1.3229h1.3229v-1.3229h2.6458v9.2601h-2.6458v-5.2915h-1.3229v2.6458h-1.3229v-2.6458h-1.3229v5.2915z" style="font-variant-caps:normal;font-variant-east-asian:normal;font-variant-ligatures:normal;font-variant-numeric:normal"/>
   <path d="m10.583 54.176v-9.2601h9.2601v1.3229h-6.6144v2.6458h5.2915v1.3229h-5.2915v2.6458h6.6144v1.3229z" style="font-variant-caps:normal;font-variant-east-asian:normal;font-variant-ligatures:normal;font-variant-numeric:normal"/>
   <path d="m21.166 54.176v-9.2601h6.6144v1.3229h1.3229v1.3229h1.3229v3.9686h-1.3229v1.3229h-1.3229v1.3229zm2.6458-1.3229h2.6458v-1.3229h1.3229v-3.9686h-1.3229v-1.3229h-2.6458z" style="font-variant-caps:normal;font-variant-east-asian:normal;font-variant-ligatures:normal;font-variant-numeric:normal"/>
   <path d="m33.071 54.176v-1.3229h2.6458v-6.6144h-2.6458v-1.3229h7.9372v1.3229h-2.6458v6.6144h2.6458v1.3229z" style="font-variant-caps:normal;font-variant-east-asian:normal;font-variant-ligatures:normal;font-variant-numeric:normal"/>
   <path d="m42.332 54.176v-6.6144h1.3229v-1.3229h1.3229v-1.3229h3.9686v1.3229h1.3229v1.3229h1.3229v6.6144h-2.6458v-2.6458h-3.9686v2.6458zm2.6458-3.9686h3.9686v-2.6458h-1.3229v-1.3229h-1.3229v1.3229h-1.3229z" style="font-variant-caps:normal;font-variant-east-asian:normal;font-variant-ligatures:normal;font-variant-numeric:normal"/>
  </g>
  <path d="m6.423 63.514v-0.49407h1.3262v-1.5212h-1.3262v-4.7327h38.746v1.6903h-0.61109v-0.7541h-4.4207v5.3178h1.4692v-1.5212h0.72771l7e-3 0.76061 0.73462 7e-3v0.75372h2.0933v0.98816h-38.746zm7.9572-0.87093v-0.37687l0.73461-7e-3 0.0069-0.76061h0.72772v-2.2753h-0.72772l-0.0069-0.76063-0.73461-7e-3v-0.7537h-3.6926v5.3178h3.6926zm-2.2103-2.2821v-1.8917h1.4692v0.75411h0.72812v2.2753h-0.72812v0.7541h-1.4692zm9.5694 2.2753v-0.38357h-3.6795v-1.5082h2.9384v-0.76711h-2.9384v-1.5082h3.6795v-0.76711h-5.1618v5.3178h5.1618zm3.6795 7e-3v-0.37687l0.73462-7e-3 7e-3 -0.76061h0.72771v-0.75411h0.74112v-3.0425h-1.4823v2.2749l-0.73461 7e-3 -0.0034 0.3738-0.0034 0.37381h-0.72771v-0.7541h-0.72817v-2.2753h-1.4823v3.0425h0.74112v0.75411h0.72771l0.0069 0.76061 0.73461 7e-3v0.75372h0.74112zm5.8899-0.38377v-0.76062h-1.4823v1.5212h1.4823zm7.3591 0.38356v-0.37707h0.72811v-1.5342h-0.72811v-0.7541h0.72811v-1.5212h-0.72811v-0.7541h-4.4207v5.3178h4.4207zm-2.9515-1.1442v-0.75411h2.2104v1.5082h-2.2104zm0-2.2753v-0.75411h2.2104v1.5082h-2.2104zm8.8414 2.6524v-0.37705h-0.74112v-0.75411h1.3522v1.5082h-0.61109zm-2.9515-2.2753v-1.1312h2.2104v1.5082h-0.74112v0.7541h-1.4692z" stroke-width=".013003"/>
 </g>
</svg>
