<?xml version="1.0" encoding="UTF-8"?>
<svg version="1.1" viewBox="0 0 13.651 16.936" xmlns="http://www.w3.org/2000/svg">
<rect x="3.822" y="3.34" width="5.2305" height="3.1265" fill="#fff" stroke-width=".067"/>
<path d="m3.325 10.85v-0.35001h-0.70004v-4.2621h-0.70003v-0.75124l-1.0051-0.0625v-1.6432l2.0256 0.03125v0.38736h0.37962v-2.1001h0.70004v-1.4001h0.70003v-0.70003h0.70004v1.4001h2.8001v-0.70003h1.4001v-0.70004h0.70003v3.5002h0.70004v-0.70004h1.4001v1.4001h-0.70004v1.4001h-0.70004v2.8001h0.70004v2.8001h-1.4001v-0.70003h-2.1001v-0.70003h-2.8001v0.70003h-0.70004v0.70003h-1.4001zm0.70012-6.6505v2.1001h4.9003l-2e-5 -1.05v-1.0501h-0.70004v-0.70004h-3.5002l-0.00559 0.69516m1.4197-0.013007v1.4001h-0.70003v-1.3961m1.6516 0.77632h0.70003v0.31734h-0.70003z" stroke-width=".070004"/>
<path d="m0 14.34v-2.4501h0.70004v0.35002h0.35002v0.35001h0.35002v-0.35001h0.35002v-0.35002h0.70003v2.4501h-0.70003v-1.4h-0.35002v0.70004h-0.35002v-0.70004h-0.35002v1.4z" stroke-width=".26458" style="font-variant-caps:normal;font-variant-east-asian:normal;font-variant-ligatures:normal;font-variant-numeric:normal"/>
<path d="m2.8 14.34v-2.4501h2.4501v0.35002h-1.7501v0.70003h1.4v0.35002h-1.4v0.70003h1.7501v0.35002z" stroke-width=".26458" style="font-variant-caps:normal;font-variant-east-asian:normal;font-variant-ligatures:normal;font-variant-numeric:normal"/>
<path d="m5.6 14.34v-2.4501h1.7501v0.35002h0.35002v0.35001h0.35002v1.05h-0.35002v0.35002h-0.35002v0.35001zm0.70003-0.35002h0.70004v-0.35002h0.35002v-1.05h-0.35002v-0.35002h-0.70004z" stroke-width=".26458" style="font-variant-caps:normal;font-variant-east-asian:normal;font-variant-ligatures:normal;font-variant-numeric:normal"/>
<path d="m8.75 14.34v-0.35002h0.70004v-1.7501h-0.70004v-0.35002h2.1001v0.35002h-0.70003v1.7501h0.70003v0.35002z" stroke-width=".26458" style="font-variant-caps:normal;font-variant-east-asian:normal;font-variant-ligatures:normal;font-variant-numeric:normal"/>
<path d="m11.201 14.34v-1.7501h0.35002v-0.35002h0.35002v-0.35002h1.05v0.35002h0.35002v0.35002h0.35002v1.7501h-0.70003v-0.70004h-1.05v0.70004zm0.70003-1.05h1.05v-0.70003h-0.35002v-0.35002h-0.35002v0.35002h-0.35002z" stroke-width=".26458" style="font-variant-caps:normal;font-variant-east-asian:normal;font-variant-ligatures:normal;font-variant-numeric:normal"/>
<path d="m1.7 16.81v-0.13073h0.35089v-0.40248h-0.35089v-1.2522h10.252v0.44721h-0.16168v-0.19952h-1.1696v1.407h0.38873v-0.40248h0.19254l0.0019 0.20125 0.19437 2e-3v0.19942h0.55385v0.26145h-10.252zm2.1053-0.23044v-0.0997l0.19437-2e-3 0.0018-0.20125h0.19254v-0.602h-0.19254l-0.0018-0.20125-0.19437-2e-3v-0.19941h-0.977v1.407h0.977zm-0.58481-0.6038v-0.50052h0.38872v0.19953h0.19265v0.60201h-0.19265v0.19952h-0.38872zm2.5319 0.602v-0.10148h-0.97353v-0.39905h0.77745v-0.20296h-0.77745v-0.39905h0.97353v-0.20296h-1.3657v1.407h1.3657zm0.97354 2e-3v-0.0997l0.19437-2e-3 0.0019-0.20125h0.19254v-0.19952h0.19609v-0.805h-0.39224v0.60191l-0.19436 2e-3 -0.0018 0.1978h-0.19254v-0.19952h-0.19266v-0.60201h-0.39219v0.805h0.19609v0.19952h0.19254l0.0018 0.20125 0.19437 2e-3v0.19942h0.19609zm1.5584-0.10153v-0.20125h-0.39219v0.40248h0.39219zm1.9471 0.10148v-0.0998h0.19265v-0.40592h-0.19265v-0.19952h0.19265v-0.40249h-0.19265v-0.19952h-1.1696v1.407h1.1696zm-0.78092-0.30274v-0.19952h0.58484v0.39904h-0.58484zm0-0.602v-0.19953h0.58484v0.39905h-0.58484zm2.3393 0.70178v-0.0998h-0.19609v-0.19954h0.35777v0.39905h-0.16168zm-0.78092-0.60201v-0.2993h0.58484v0.39905h-0.19609v0.19952h-0.38873z" stroke-width=".0034404"/>
</svg>
