<svg xmlns="http://www.w3.org/2000/svg" width="70px" height="70px" viewBox="0 0 13.651 16.936"><path fill="#fff" d="M3.822 3.34h5.231v3.127H3.822z"/><path d="M3.325 10.85v-.35h-.7V6.3h-.7V4.9h-.7V3.5h1.4v.7h.7V2.1h.7V.7h.7V0h.7v1.4h2.8V.7h1.4V0h.7v3.5h.7v-.7h1.4v1.4h-.7v1.4h-.7v2.8h.7v2.8h-1.4v-.7h-2.1v-.7h-2.8v.7h-.7v.7h-1.4zm5.6-5.6V4.2h-.7v-.7h-3.5v.7h-.7v2.1h4.9zm-4.2-.35v-.7h.7v1.4h-.7zm2.1 0v-.7h.7v1.4h-.7z"/><path d="M44.177 123.61v-2.45h.7v.35h.35v.35h.35v-.35h.35v-.35h.7v2.45h-.7v-1.4h-.35v.7h-.35v-.7h-.35v1.4zM46.977 123.61v-2.45h2.45v.35h-1.75v.7h1.4v.35h-1.4v.7h1.75v.35zM49.777 123.61v-2.45h1.75v.35h.35v.35h.35v1.05h-.35v.35h-.35v.35zm.7-.35h.7v-.35h.35v-1.05h-.35v-.35h-.7zM52.927 123.61v-.35h.7v-1.75h-.7v-.35h2.1v.35h-.7v1.75h.7v.35zM55.378 123.61v-1.75h.35v-.35h.35v-.35h1.05v.35h.35v.35h.35v1.75h-.7v-.7h-1.05v.7zm.7-1.05h1.05v-.7h-.35v-.35h-.35v.35h-.35z" style="font-variant-caps:normal;font-variant-east-asian:normal;font-variant-ligatures:normal;font-variant-numeric:normal" transform="translate(-44.177 -109.27)"/><path d="M1.7 16.81v-.13h.35v-.403H1.7v-1.252h10.252v.447h-.162v-.2h-1.17v1.407h.39v-.402h.192l.002.201.194.002v.2h.554v.26H1.7zm2.105-.23v-.1L4 16.478 4 16.277h.193v-.602h-.193L4 15.473l-.195-.002v-.199h-.977v1.407h.977zm-.585-.604v-.5h.39v.199h.192v.602h-.193v.2H3.22zm2.532.602v-.102H4.78v-.399h.777v-.203H4.78v-.399h.973v-.203H4.387v1.407h1.365zm.974.002v-.1l.194-.002.002-.201h.193v-.2h.196v-.805h-.392v.602l-.195.002-.002.198H6.53v-.2h-.193v-.602h-.392v.805h.196v.2h.193l.001.201.195.002v.2h.196zm1.558-.102v-.201h-.392v.402h.392zm1.947.102v-.1h.193v-.406h-.193v-.2h.193v-.402h-.193v-.2h-1.17v1.407h1.17zm-.78-.303v-.2h.584v.4h-.584zm0-.602v-.2h.584v.4h-.584zm2.339.702v-.1h-.196v-.2h.357v.4h-.161zm-.781-.602v-.3h.585v.4h-.196v.199h-.39z"/></svg>
