<svg xmlns="http://www.w3.org/2000/svg" viewBox="0 0 15.566 13.474"><defs><filter id="a" width="1" height="1" x="0" y="0" color-interpolation-filters="sRGB"><feGaussianBlur/></filter><filter id="b" width="1" height="1" x="0" y="0" color-interpolation-filters="sRGB"><feGaussianBlur/></filter><filter id="c" width="1" height="1" x="0" y="0" color-interpolation-filters="sRGB"><feGaussianBlur/></filter></defs><g fill-opacity=".996"><g fill="#010100" filter="url(#a)" opacity=".996" transform="translate(-72.486 -64.28)"><path d="M74.75 64.28h11.328v13.474H74.75z" opacity=".996"/><path d="M73.377 65.395h13.695v11.269H73.377z" opacity=".996"/><path d="M72.487 65.986h15.566v10.072H72.487z" opacity=".996"/></g><g fill="#725525" stroke-width=".265" filter="url(#b)" transform="translate(-72.624 -64.33)"><path d="M73.616 65.925h13.582v10.133H73.616z" opacity=".996"/><path d="M74.715 65.314h11.354V76.82H74.715z" opacity=".996"/></g><g fill="#d3a24f" stroke-width=".265"><path d="M1.48 2.021h12.605v9.461H1.48z" opacity=".996"/><path d="M2.548 1.35H13.23v10.774H2.548z" opacity=".996"/></g><g fill="#f8db50" filter="url(#c)" transform="translate(-72.179 -63.69)"><path d="M74.559 66.657h10.808v7.783H74.559z" opacity=".996"/><path d="M75.447 65.467h9.065v9.919h-9.065z" opacity=".996"/></g><g fill="#f1eefc" stroke-width=".265" opacity=".996"><path d="M1.461 5.226h.763v1.007h-.763zM1.461 1.96h.885v2.472h-.885z" opacity=".996"/><path d="M2.254 1.35h.733v1.251h-.733zM2.987 1.35h2.168v.849H2.987z" opacity=".996"/></g></g><g fill="#010100" fill-opacity=".988" stroke-width=".265"><path d="M3.379 2.955h.912v3.604h-.912zM2.622 4.023h.756v1.379h-.756zM6.093 7.871h3.248v3.559H6.093z" opacity=".996"/><path d="M5.359 8.984h4.872v1.335H5.359zM5.359 2.043h5.673v5.828H5.359z" opacity=".996"/><path d="M10.876 2.91h1.179v4.204h-1.179z" opacity=".996"/><path d="M11.966 4.023h.979v2.358h-.979zM4.291 2.043h1.068v4.516H4.291z" opacity=".996"/></g><g fill="#f1eefb" stroke-width=".265"><path d="M3.426 4.11h2.8v1.479h-2.8z" opacity=".996"/><path d="M4.338 3.04h6.607v1.605H4.338z" opacity=".996"/><path d="M9.246 4.11h2.894v2.328H9.246z" opacity=".996"/><path d="M6.1 6.375h4.971v.724H6.1z" opacity=".996"/><path d="M6.1 7.098h3.083v.912H6.1zM6.1 8.923h3.115v1.51H6.1z" opacity=".996"/></g></svg>