<?xml version="1.0" encoding="UTF-8"?>
<svg version="1.1" viewBox="0 0 15.566 13.474" xmlns="http://www.w3.org/2000/svg" xmlns:cc="http://creativecommons.org/ns#" xmlns:dc="http://purl.org/dc/elements/1.1/" xmlns:rdf="http://www.w3.org/1999/02/22-rdf-syntax-ns#">
 <defs>
  <filter id="filter7430" x="-1.0074e-5" y="-1.1638e-5" width="1" height="1" color-interpolation-filters="sRGB">
   <feGaussianBlur stdDeviation="6.5338697e-05"/>
  </filter>
  <filter id="filter7478" x="-1.575e-20" y="-1.8591e-20" width="1" height="1" color-interpolation-filters="sRGB">
   <feGaussianBlur stdDeviation="8.9130634e-20"/>
  </filter>
  <filter id="filter7527" x="-4.6027e-6" y="-5.015e-6" width="1" height="1" color-interpolation-filters="sRGB">
   <feGaussianBlur stdDeviation="2.0727186e-05"/>
  </filter>
 </defs>
 <metadata>
  <rdf:RDF>
   <cc:Work rdf:about="">
    <dc:format>image/svg+xml</dc:format>
    <dc:type rdf:resource="http://purl.org/dc/dcmitype/StillImage"/>
    <dc:title/>
   </cc:Work>
  </rdf:RDF>
 </metadata>
 <g transform="translate(-86.615 -74.124)">
  <g fill-opacity=".99608">
   <g transform="translate(14.129 9.844)" fill="#010100" filter="url(#filter7430)" opacity=".996">
    <rect x="74.75" y="64.28" width="11.328" height="13.474" opacity=".996" stroke-width=".265"/>
    <rect x="73.377" y="65.395" width="13.695" height="11.269" opacity=".996" stroke-width=".27484"/>
    <rect x="72.487" y="65.986" width="15.566" height="10.072" opacity=".996" stroke-width=".265"/>
   </g>
   <g transform="translate(13.991 9.7931)" fill="#725525" filter="url(#filter7478)" stroke-width=".265">
    <rect x="73.616" y="65.925" width="13.582" height="10.133" opacity=".996"/>
    <rect x="74.715" y="65.314" width="11.354" height="11.506" opacity=".996"/>
   </g>
   <g transform="translate(14.418 10.19)" fill="#d3a24f" stroke-width=".265">
    <rect x="73.677" y="65.955" width="12.605" height="9.4614" opacity=".996"/>
    <rect x="74.745" y="65.284" width="10.682" height="10.774" opacity=".996"/>
   </g>
   <g transform="translate(14.436 10.434)" fill="#f8db50" filter="url(#filter7527)">
    <rect x="74.559" y="66.657" width="10.808" height="7.7828" opacity=".996" stroke-width=".26655"/>
    <rect x="75.447" y="65.467" width="9.0647" height="9.9192" opacity=".996" stroke-width=".265"/>
   </g>
   <g transform="translate(14.185 10.068)" fill="#f1eefc" opacity=".996" stroke-width=".265">
    <rect x="73.891" y="69.282" width=".76302" height="1.0072" opacity=".996"/>
    <rect x="73.891" y="66.016" width=".8851" height="2.4722" opacity=".996"/>
    <rect x="74.684" y="65.406" width=".7325" height="1.2514" opacity=".996"/>
    <rect x="75.417" y="65.406" width="2.1685" height=".84902" opacity=".996"/>
   </g>
  </g>
  <g transform="translate(14.514 10.275)" fill="#010100" fill-opacity=".98824" stroke-width=".265">
   <rect x="75.48" y="66.804" width=".91208" height="3.6038" opacity=".996"/>
   <rect x="74.723" y="67.872" width=".75636" height="1.3792" opacity=".996"/>
   <rect x="78.194" y="71.72" width="3.2479" height="3.5593" opacity=".996"/>
   <rect x="77.46" y="72.833" width="4.8718" height="1.3347" opacity=".996"/>
   <rect x="77.46" y="65.892" width="5.6727" height="5.8284" opacity=".996"/>
   <rect x="82.977" y="66.759" width="1.179" height="4.2044" opacity=".996"/>
   <rect x="84.067" y="67.872" width=".97881" height="2.358" opacity=".996"/>
   <rect x="76.392" y="65.892" width="1.0678" height="4.5159" opacity=".996"/>
  </g>
  <g transform="translate(14.505 10.311)" fill="#f1eefb" stroke-width=".265">
   <rect x="75.536" y="67.923" width="2.8" height="1.4786" opacity=".996"/>
   <rect x="76.448" y="66.853" width="6.6066" height="1.6045" opacity=".996"/>
   <rect x="81.356" y="67.923" width="2.8943" height="2.3281" opacity=".996"/>
   <rect x="78.21" y="70.188" width="4.9707" height=".72359" opacity=".996"/>
   <rect x="78.21" y="70.911" width="3.0831" height=".91235" opacity=".996"/>
   <rect x="78.21" y="72.736" width="3.1146" height="1.5101" opacity=".996"/>
  </g>
 </g>
</svg>
