<?xml version="1.0" encoding="UTF-8"?>
<svg height="50px" version="1.1" viewBox="0 0 8.9958 21.167" xmlns="http://www.w3.org/2000/svg">
<g transform="translate(-99.955 -137.92)">
<g transform="matrix(.61818 0 0 1 21.446 63.833)">
<rect x="129.65" y="76.729" width="10.583" height="15.875" fill="#f1eb55" stroke-width=".65646"/>
<rect x="136.26" y="91.281" width="2.6458" height="1.3229" fill="#988c49" stroke-width=".094752"/>
<rect x="132.29" y="92.604" width="3.9688" height="1.3229" fill="#988c49" stroke-width=".11605"/>
<rect x="137.58" y="89.958" width="1.3229" height="1.3229" fill="#988c49" stroke-width=".067"/>
<rect x="132.29" y="75.406" width="3.9688" height="1.3229" fill="#eaeed7" stroke-width=".11605"/>
<rect x="129.65" y="76.729" width="2.6458" height="1.3229" fill="#eaeed7" stroke-width=".094752"/>
<rect x="129.65" y="78.052" width="1.3229" height="1.3229" fill="#eaeed7" stroke-width=".067"/>
<rect x="128.32" y="79.375" width="1.3229" height="10.583" fill="#eaeed7" stroke-width=".1895"/>
<rect x="128.32" y="76.729" width="1.3229" height="2.6458" stroke-width=".094752"/>
<rect x="138.91" y="76.729" width="1.3229" height="2.6458" stroke-width=".094752"/>
<rect x="136.26" y="75.406" width="1.3229" height="1.3229" stroke-width=".067"/>
<rect x="130.97" y="75.406" width="1.3229" height="1.3229" stroke-width=".067"/>
<rect x="132.29" y="74.083" width="3.9687" height="1.3229" stroke-width=".11605"/>
<rect x="127" y="79.375" width="1.3229" height="10.583" stroke-width=".1895"/>
<rect x="128.32" y="89.958" width="1.3229" height="2.6458" stroke-width=".094752"/>
<rect transform="scale(-1,1)" x="-141.55" y="79.375" width="1.3229" height="10.583" stroke-width=".1895"/>
<rect transform="scale(-1,1)" x="-136.26" y="80.698" width="1.3229" height="9.2604" stroke-width=".17727"/>
<rect transform="scale(-1,1)" x="-140.23" y="89.958" width="1.3229" height="2.6458" stroke-width=".094752"/>
<rect x="129.65" y="92.604" width="2.6458" height="1.3229" fill="#393727" stroke-width=".094752"/>
<rect x="132.29" y="93.927" width="3.9687" height="1.3229" fill="#393727" stroke-width=".11605"/>
<rect x="136.26" y="92.604" width="2.6458" height="1.3229" fill="#393727" stroke-width=".094752"/>
<rect x="133.61" y="89.958" width="1.3229" height="1.3229" fill="#393727" stroke-width=".067"/>
</g>
</g>
</svg>
