<svg xmlns="http://www.w3.org/2000/svg" height="50" viewBox="0 0 8.996 21.167"><path fill="#f1eb55" d="M1.638 2.642H8.18v15.875H1.638z"/><path fill="#988c49" d="M5.724 17.194H7.36v1.323H5.724zM3.27 18.517h2.454v1.323H3.27zM6.54 15.871h.818v1.323H6.54z"/><path fill="#eaeed7" d="M3.27 1.319h2.454v1.323H3.27zM1.638 2.642h1.636v1.323H1.638zM1.638 3.965h.818v1.323h-.818zM.816 5.288h.818v10.583H.816z"/><path d="M.816 2.642h.818v2.646H.816zM7.362 2.642h.818v2.646h-.818zM5.724 1.319h.818v1.323h-.818zM2.454 1.319h.818v1.323h-.818zM3.27-.004h2.454v1.323H3.27zM0 5.288h.818v10.583H0zM.816 15.871h.818v2.646H.816zM8.994 5.288h-.817v10.583h.817zM5.724 6.611h-.818v9.26h.818zM8.178 15.871h-.817v2.646h.817z"/><path fill="#393727" d="M1.638 18.517h1.636v1.323H1.638zM3.27 19.84h2.454v1.323H3.27zM5.724 18.517H7.36v1.323H5.724zM4.086 15.871h.818v1.323h-.818z"/></svg>