<svg xmlns="http://www.w3.org/2000/svg" height="50" viewBox="0 0 14.552 21.167"><path fill="#f1eb55" d="M2.65 2.639h10.583v15.875H2.65z"/><path fill="#988c49" d="M9.26 17.191h2.646v1.323H9.26zM5.29 18.514h3.969v1.323H5.29zM10.58 15.868h1.323v1.323H10.58z"/><path fill="#eaeed7" d="M5.29 1.316h3.969v1.323H5.29z"/><path fill="#eaeed7" d="M2.65 2.639h2.646v1.323H2.65zM2.65 3.962h1.323v1.323H2.65zM1.32 5.285h1.323v10.583H1.32z"/><path d="M1.32 2.639h1.323v2.646H1.32zM11.91 2.639h1.323v2.646H11.91zM9.26 1.316h1.323v1.323H9.26zM3.97 1.316h1.323v1.323H3.97zM5.29-.007h3.969v1.323H5.29zM0 5.285h1.323v10.583H0zM1.32 15.868h1.323v2.646H1.32zM14.55 5.285h-1.323v10.583h1.323zM9.26 6.608H7.937v9.26H9.26zM13.23 15.868h-1.323v2.646h1.323z"/><path fill="#393727" d="M2.65 18.514h2.646v1.323H2.65zM5.29 19.837h3.969v1.323H5.29zM9.26 18.514h2.646v1.323H9.26zM6.61 15.868h1.323v1.323H6.61z"/></svg>