<svg xmlns="http://www.w3.org/2000/svg" viewBox="0 0 341.95 95.889"><g stroke-width=".265"><path d="M-.009 92.483h1.684v1.684H-.009z" opacity=".996"/><path d="M-.009 90.83h1.684v1.685H-.009zM-.009 89.114h1.684v1.684H-.009zM1.675 87.461H3.36v1.685H1.675zM1.675 85.745H3.36v1.685H1.675z" opacity=".996"/><path d="M1.675 84.093H3.36v1.684H1.675zM3.36 82.376h1.684v1.685H3.36z" opacity=".996"/><path d="M3.36 80.724h1.684v1.684H3.36zM3.36 79.008h1.684v1.684H3.36z" opacity=".996"/><path d="M5.038 77.355h1.684v1.684H5.038zM5.038 75.639h1.684v1.684H5.038zM6.722 73.986h1.685v1.685H6.722z" opacity=".996"/><path d="M6.722 72.334h1.685v1.684H6.722zM8.4 70.617h1.685v1.685H8.4zM10.085 68.965h1.684v1.684h-1.684z" opacity=".996"/><path d="M11.763 68.965h1.684v1.684h-1.684zM13.447 68.965h1.685v1.684h-1.685zM15.132 70.617h1.684v1.685h-1.684zM16.81 72.334h1.684v1.684H16.81z" opacity=".996"/><path d="M16.81 73.986h1.684v1.685H16.81zM18.494 70.617h1.684v1.685h-1.684z" opacity=".996"/><path d="M20.172 68.965h1.684v1.684h-1.684zM21.856 68.965h1.685v1.684h-1.685zM23.54 67.249h1.685v1.684h-1.684z" opacity=".996"/><path d="M25.219 67.249h1.684v1.684H25.22z" opacity=".996"/><path d="M26.903 65.596h1.685v1.684h-1.685zM26.903 63.88h1.685v1.684h-1.685z" opacity=".996"/><path d="M26.903 62.227h1.685v1.685h-1.685zM26.903 60.511h1.685v1.684h-1.685z" opacity=".996"/><path d="M26.903 58.858h1.685v1.685h-1.685zM26.903 57.142h1.685v1.685h-1.685z" opacity=".996"/><path d="M26.903 55.49h1.685v1.684h-1.685z" opacity=".996"/><path d="M26.903 53.837h1.685v1.684h-1.685zM28.581 52.12h1.685v1.685H28.58z" opacity=".996"/><path d="M28.581 50.468h1.685v1.685H28.58zM28.581 48.752h1.685v1.684H28.58zM30.266 47.1h1.684v1.684h-1.684zM30.266 45.383h1.684v1.685h-1.684z" opacity=".996"/><path d="M31.944 43.73h1.684v1.685h-1.684zM33.628 42.015h1.684v1.684h-1.684zM35.312 40.362h1.685v1.684h-1.685z" opacity=".996"/><path d="M36.99 40.362h1.685v1.684H36.99z" opacity=".996"/><path d="M38.675 40.362h1.684v1.684h-1.684zM40.353 38.646h1.684v1.684h-1.684z" opacity=".996"/><path d="M40.353 36.993h1.684v1.685h-1.684zM40.353 35.277h1.684v1.684h-1.684z" opacity=".996"/><path d="M40.353 33.624h1.684v1.685h-1.684z" opacity=".996"/><path d="M40.353 31.972h1.684v1.684h-1.684zM40.353 30.256h1.684v1.684h-1.684z" opacity=".996"/><path d="M40.353 28.603h1.684v1.684h-1.684zM40.353 26.887h1.684v1.684h-1.684zM42.037 25.234h1.685v1.685h-1.685zM42.037 23.518h1.685v1.684h-1.685z" opacity=".996"/><path d="M42.037 21.865h1.685v1.685h-1.685zM43.722 20.15h1.684v1.684h-1.684z" opacity=".996"/><path d="M43.722 18.497h1.684v1.684h-1.684zM45.4 16.78h1.684v1.685H45.4zM47.084 15.128h1.685v1.684h-1.685z" opacity=".996"/><path d="M48.762 13.475h1.685v1.685h-1.685zM50.447 13.475h1.684v1.685h-1.684z" opacity=".996"/><path d="M52.125 13.475h1.684v1.685h-1.684zM53.809 11.759h1.684v1.684H53.81z" opacity=".996"/><path d="M53.809 10.106h1.684v1.685H53.81zM55.493 8.39h1.685v1.685h-1.685z" opacity=".996"/><path d="M55.493 6.738h1.685v1.684h-1.685zM57.171 5.021h1.685v1.685H57.17zM58.856 3.369h1.684v1.684h-1.684z" opacity=".996"/><path d="M60.534 3.369h1.684v1.684h-1.684zM62.218 1.653h1.685v1.684h-1.685z" opacity=".996"/><path d="M63.903 1.653h1.684v1.684h-1.684z" opacity=".996"/><path d="M65.58 0h1.685v1.684h-1.684zM67.265 0h1.684v1.684h-1.684z" opacity=".996"/><path d="M68.943 0h1.685v1.684h-1.685zM70.628 1.653h1.684v1.684h-1.684z" opacity=".996"/><path d="M72.306 1.653h1.684v1.684h-1.684zM73.99 1.653h1.684v1.684H73.99zM73.99 3.369h1.684v1.684H73.99z" opacity=".996"/><path d="M73.99 5.021h1.684v1.685H73.99zM75.674 1.653h1.685v1.684h-1.685z" opacity=".996"/><path d="M77.352 0h1.685v1.684h-1.685zM79.037 0h1.684v1.684h-1.684z" opacity=".996"/><path d="M80.715 0h1.684v1.684h-1.684z" opacity=".996"/><path d="M80.715 1.653h1.684v1.684h-1.684zM82.4 3.369h1.684v1.684h-1.685zM84.084 5.021h1.684v1.685h-1.684zM84.084 6.738h1.684v1.684h-1.684z" opacity=".996"/><path d="M84.084 8.39h1.684v1.685h-1.684zM82.4 10.106h1.684v1.685h-1.685zM80.715 11.759h1.684v1.684h-1.684zM80.715 13.475h1.684v1.685h-1.684zM82.4 13.475h1.684v1.685h-1.685zM84.084 15.128h1.684v1.684h-1.684z" opacity=".996"/><path d="M85.762 15.128h1.684v1.684h-1.684zM87.446 16.78h1.684v1.685h-1.684zM89.124 18.497h1.684v1.684h-1.684zM90.808 20.15h1.685v1.684h-1.685zM90.808 21.865h1.685v1.685h-1.685z" opacity=".996"/><path d="M92.486 23.518h1.685v1.684h-1.685zM92.486 25.234h1.685v1.685h-1.685z" opacity=".996"/><path d="M92.486 26.887h1.685v1.684h-1.685zM92.486 28.603h1.685v1.684h-1.685z" opacity=".996"/><path d="M92.486 30.256h1.685v1.684h-1.685zM92.486 31.972h1.685v1.684h-1.685z" opacity=".996"/><path d="M92.486 33.624h1.685v1.685h-1.685z" opacity=".996"/><path d="M92.486 35.277h1.685v1.684h-1.685zM92.486 36.993h1.685v1.685h-1.685z" opacity=".996"/><path d="M92.486 38.646h1.685v1.684h-1.685zM94.17 40.362h1.685v1.684h-1.684zM95.855 40.362h1.685v1.684h-1.685z" opacity=".996"/><path d="M97.533 42.015h1.685v1.684h-1.685zM99.218 42.015h1.684v1.684h-1.684zM100.896 43.73h1.684v1.685h-1.684zM102.58 45.383h1.685v1.685h-1.685zM104.265 47.1h1.684v1.684h-1.684z" opacity=".996"/><path d="M104.265 48.752h1.684v1.684h-1.684zM105.943 50.468h1.684v1.685h-1.684z" opacity=".996"/><path d="M105.943 52.12h1.684v1.685h-1.684zM105.943 53.837h1.684v1.684h-1.684z" opacity=".996"/><path d="M105.943 55.49h1.684v1.684h-1.684z" opacity=".996"/><path d="M105.943 57.142h1.684v1.685h-1.684zM105.943 58.858h1.684v1.685h-1.684z" opacity=".996"/><path d="M105.943 60.511h1.684v1.684h-1.684zM105.943 62.227h1.684v1.685h-1.684z" opacity=".996"/><path d="M105.943 63.88h1.684v1.684h-1.684zM105.943 65.596h1.684v1.684h-1.684zM107.627 67.249h1.684v1.684h-1.684zM109.305 68.965h1.684v1.684h-1.684z" opacity=".996"/><path d="M110.99 68.965h1.684v1.684h-1.685z" opacity=".996"/><path d="M110.99 70.617h1.684v1.685h-1.685zM112.667 72.334h1.685v1.684h-1.685zM114.352 73.986h1.684v1.685h-1.684zM116.036 75.639h1.685v1.684h-1.685zM117.714 77.355h1.685v1.684h-1.685z" opacity=".996"/><path d="M117.714 79.008h1.685v1.684h-1.685zM117.714 80.724h1.685v1.684h-1.685z" opacity=".996"/><path d="M117.714 82.376h1.685v1.685h-1.685zM117.714 84.093h1.685v1.684h-1.685z" opacity=".996"/><path d="M117.714 85.745h1.685v1.685h-1.685zM116.036 87.461h1.685v1.685h-1.685zM114.352 89.114h1.684v1.684h-1.684zM112.667 90.83h1.685v1.685h-1.685z" opacity=".996"/><path d="M110.99 90.83h1.684v1.685h-1.685z" opacity=".996"/><path d="M109.305 92.483h1.684v1.684h-1.684z" opacity=".996"/><path d="M107.627 92.483h1.684v1.684h-1.684z" opacity=".996"/></g><path d="M1.675 94.199h107.63v1.684H1.675z" opacity=".996"/><g stroke-width=".067"><path d="M82.4-.022h1.684v1.684h-1.685z" opacity=".996"/><path d="M84.077-.022h1.685v1.684h-1.685zM85.762-.022h1.684v1.684h-1.684zM87.446 1.63h1.684v1.685h-1.684z" opacity=".996"/><path d="M89.124 1.63h1.684v1.685h-1.684zM90.808 3.347h1.685V5.03h-1.685zM90.808-.022h1.685v1.684h-1.685z" opacity=".996"/><path d="M92.486-.022h1.685v1.684h-1.685z" opacity=".996"/><path d="M94.17-.022h1.685v1.684h-1.684zM95.855 1.63h1.685v1.685h-1.685z" opacity=".996"/><path d="M97.533 1.63h1.685v1.685h-1.685zM99.218 3.347h1.684V5.03h-1.684z" opacity=".996"/><path d="M100.896 3.347h1.684V5.03h-1.684zM102.58 5h1.685v1.684h-1.685zM104.258 6.715h1.685V8.4h-1.685z" opacity=".996"/><path d="M104.258 8.368h1.685v1.684h-1.685zM105.943 10.02h1.684v1.685h-1.684zM105.943 11.737h1.684v1.684h-1.684zM107.627 13.39h1.684v1.684h-1.684z" opacity=".996"/><path d="M109.305 13.39h1.684v1.684h-1.684zM110.99 15.106h1.684v1.684h-1.685z" opacity=".996"/><path d="M112.667 15.106h1.685v1.684h-1.685zM114.352 16.758h1.684v1.685h-1.684zM116.03 18.474h1.684v1.685h-1.684z" opacity=".996"/><path d="M116.03 20.127h1.684v1.684h-1.684zM117.714 16.758h1.685v1.685h-1.685zM119.399 15.106h1.684v1.684h-1.684z" opacity=".996"/><path d="M121.077 15.106h1.684v1.684h-1.684zM122.761 15.106h1.684v1.684h-1.684z" opacity=".996"/><path d="M124.44 16.758h1.683v1.685h-1.684zM126.123 18.474h1.685v1.685h-1.685z" opacity=".996"/><path d="M126.123 20.127h1.685v1.684h-1.685zM127.808 21.843h1.684v1.685h-1.684z" opacity=".996"/><path d="M127.808 23.496h1.684v1.684h-1.684zM129.486 25.212h1.684v1.684h-1.684z" opacity=".996"/><path d="M129.486 26.865h1.684v1.684h-1.684z" opacity=".996"/><path d="M129.486 28.517h1.684v1.685h-1.684zM131.17 30.233h1.685v1.685h-1.685z" opacity=".996"/><path d="M131.17 31.886h1.685v1.684h-1.685zM131.17 33.602h1.685v1.684h-1.685z" opacity=".996"/><path d="M132.848 35.255h1.685v1.684h-1.685zM132.848 36.97h1.685v1.685h-1.685z" opacity=".996"/><path d="M132.848 38.623h1.685v1.685h-1.685zM134.533 40.34h1.684v1.684h-1.684z" opacity=".996"/><path d="M136.21 40.34h1.685v1.684h-1.684zM137.895 40.34h1.685v1.684h-1.685zM139.58 41.992h1.684v1.685h-1.684z" opacity=".996"/><path d="M141.258 41.992h1.684v1.685h-1.684zM142.942 43.708h1.684v1.685h-1.684z" opacity=".996"/><path d="M142.942 45.361h1.684v1.684h-1.684zM144.62 47.077h1.684v1.685h-1.684z" opacity=".996"/><path d="M144.62 48.73h1.684v1.684h-1.684zM146.304 50.382h1.685v1.685h-1.685zM146.304 52.099h1.685v1.684h-1.685z" opacity=".996"/><path d="M146.304 53.751h1.685v1.685h-1.685zM147.989 55.467h1.684v1.685h-1.684z" opacity=".996"/><path d="M147.989 57.12h1.684v1.684h-1.684zM147.989 58.836h1.684v1.685h-1.684z" opacity=".996"/><path d="M149.667 60.489h1.684v1.684h-1.684zM149.667 62.205h1.684v1.684h-1.684zM151.351 62.205h1.685v1.684h-1.685z" opacity=".996"/><path d="M153.03 63.858h1.684v1.684h-1.685zM153.03 65.574h1.684v1.684h-1.685z" opacity=".996"/><path d="M153.03 67.226h1.684v1.685h-1.685zM154.714 67.226h1.684v1.685h-1.684zM156.398 68.943h1.684v1.684h-1.684z" opacity=".996"/><path d="M156.398 70.595h1.684v1.685h-1.684z" opacity=".996"/><path d="M156.398 72.248h1.684v1.684h-1.684zM158.076 73.964h1.685v1.684h-1.685z" opacity=".996"/><path d="M158.076 75.617h1.685V77.3h-1.685z" opacity=".996"/></g><path d="M159.76 77.333h1.685V94.15h-1.684z" opacity=".996"/><path d="M109.305 94.113h52.134v1.685h-52.134z" opacity=".996"/><path fill="#00c800" d="M1.797 91.76v-2.442h1.699v-5.096h1.699v-5.097h1.698v-3.397h1.7v-3.16l.796-.066c.753-.062.8-.11.862-.862l.066-.796h4.646v1.698h1.699v3.186h1.91v-3.186h1.7v-1.698h3.397v-1.7h3.398v-1.698h1.699v-13.59h1.698v-4.858l1.593-.132.124-3.292h.734c.715 0 .735-.022.735-.849v-.85h1.698v-1.698h5.097v-1.7h1.699V27.1h1.698v-5.096h1.7v-3.398h1.698v-1.699h1.699v-1.699h4.884V13.51h1.699v-3.185h1.699V6.927h1.698v-1.7h3.398V3.53h3.398V1.83h4.884V3.53h3.397v3.398h1.7V3.529h1.698V1.83h3.185V3.53h1.699v1.699h1.699v4.884h-.85c-.829 0-.849.018-.849.743 0 .726-.02.743-.85.743h-.849v3.61h3.398v1.7h3.397v1.698h1.7v1.699h1.698v3.397h1.699v16.776h1.699v1.7h3.185v1.698h3.397v1.699h1.7v1.699h1.698v3.397h1.699v16.776h1.699v1.699h1.698v1.699h1.7v1.699h.849c.829 0 .85.017.85.743s.02.743.848.743h.85v.85c0 .826.02.849.73.849.691 0 .734.043.797.796.062.753.109.8.862.862l.796.066v9.93l-.796.065c-.753.063-.8.11-.862.863-.063.753-.106.796-.797.796-.71 0-.73.023-.73.85v.849h-3.398v1.698h-3.397v1.7H1.798z" opacity=".996"/><path fill="green" d="M111.058 93.32v-.75h3.303v-1.652h1.802v-1.652h1.652v-1.652h1.652v-10.36h-1.652V75.6h-1.652V73.95h-1.802v-1.652h-1.651v-3.454h-3.304v-1.651h-1.651V50.376h-1.802v-3.304H104.3v-1.651h-1.652v-1.802h-1.651v-1.652h-3.454v-1.652h-3.303V23.498h-1.652v-3.303h-1.652v-1.802h-1.802v-1.652h-1.651V15.09H84.18v-1.652h-1.652v-1.502h1.652v-1.802h1.652V5.03H84.18V3.377h-1.652V1.726h4.805v1.651h3.454V5.18h1.802V3.227h-1.652V1.726h4.805v1.651h3.454V5.18h3.303v1.652h1.652v3.303h1.642l.042 1.69.043 1.689 1.726.09v1.637h3.304v1.651h3.303v1.652h1.802v3.454h1.802v-3.454h1.652v-1.652h4.955v1.652h1.652v3.454h1.651V25.3h1.652v5.105h1.652v4.956h1.802v5.105h1.651v1.652h4.955v1.651h3.454v3.454h1.652v3.303h1.651v5.106h1.652v4.955h1.802v3.453h3.303v4.955h3.297l.082 5.03 1.727.09v3.29h1.651V94.07h-48.65z" opacity=".996"/><g stroke-width=".067"><path d="M80.725 58.876h1.684v1.684h-1.684zM82.41 58.876h1.684v1.684h-1.685z" opacity=".996"/><path d="M84.088 58.876h1.684v1.684h-1.684z" opacity=".996"/><path d="M84.088 60.529h1.684v1.684h-1.684zM84.088 62.245h1.684v1.684h-1.684z" opacity=".996"/><path d="M84.088 63.898h1.684v1.684h-1.684zM85.772 63.898h1.684v1.684h-1.684z" opacity=".996"/><path d="M82.41 63.898h1.684v1.684h-1.685zM80.725 63.898h1.684v1.684h-1.684z" opacity=".996"/><path d="M79.04 63.898h1.685v1.684h-1.684z" opacity=".996"/><path d="M80.725 62.245h1.684v1.684h-1.684zM80.725 60.529h1.684v1.684h-1.684zM85.772 60.529h1.684v1.684h-1.684zM87.45 62.245h1.684v1.684H87.45zM89.134 62.245h1.685v1.684h-1.685zM90.819 63.898h1.684v1.684H90.82zM90.819 65.614h1.684v1.684H90.82z" opacity=".996"/><path d="M92.497 67.266h1.684v1.685h-1.684z" opacity=".996"/><path d="M92.497 68.919h1.684v1.684h-1.684zM92.497 70.635h1.684v1.684h-1.684z" opacity=".996"/><path d="M92.497 72.288h1.684v1.684h-1.684zM90.819 74.004h1.684v1.684H90.82zM89.134 75.656h1.685v1.685h-1.685zM87.45 77.373h1.684v1.684H87.45z" opacity=".996"/><path d="M85.772 77.373h1.684v1.684h-1.684zM84.088 79.025h1.684v1.685h-1.684z" opacity=".996"/><path d="M82.41 79.025h1.684v1.685h-1.685zM80.725 79.025h1.684v1.685h-1.684z" opacity=".996"/><path d="M79.04 79.025h1.685v1.685h-1.684z" opacity=".996"/><path d="M77.363 77.373h1.684v1.684h-1.684zM75.678 77.373h1.685v1.684h-1.685zM74 75.656h1.685v1.685H74zM72.316 74.004H74v1.684h-1.684zM70.638 72.288h1.684v1.684h-1.684z" opacity=".996"/><path d="M70.638 70.635h1.684v1.684h-1.684zM70.638 68.919h1.684v1.684h-1.684z" opacity=".996"/><path d="M70.638 67.266h1.684v1.685h-1.684z" opacity=".996"/><path d="M72.316 65.614H74v1.684h-1.684zM72.316 63.898H74v1.684h-1.684zM74 62.245h1.685v1.684H74z" opacity=".996"/><path d="M75.678 62.245h1.685v1.684h-1.685zM77.363 60.529h1.684v1.684h-1.684z" opacity=".996"/><path d="M79.04 60.529h1.685v1.684h-1.684z" opacity=".996"/><g fill="#f6f893"><path d="M77.363 73.985h1.684v1.684h-1.684zM75.685 75.701h1.684v1.684h-1.684z" opacity=".996"/><path d="M77.363 75.701h1.684v1.684h-1.684zM79.047 75.701h1.684v1.684h-1.684z" opacity=".996"/><path d="M79.047 77.354h1.684v1.684h-1.684z" opacity=".996"/><path d="M80.725 77.354h1.684v1.684h-1.684zM82.41 77.354h1.684v1.684h-1.685z" opacity=".996"/><path d="M84.088 77.354h1.684v1.684h-1.684z" opacity=".996"/><path d="M84.088 75.701h1.684v1.684h-1.684zM87.456 75.701h1.685v1.684h-1.685zM89.134 73.985h1.685v1.684h-1.685z" opacity=".996"/></g><g fill="#c8f800"><path d="M74 73.985h1.685v1.684H74z" opacity=".996"/><path d="M75.678 73.985h1.685v1.684h-1.685zM77.363 72.332h1.684v1.685h-1.684zM79.047 73.985h1.684v1.684h-1.684zM80.725 75.701h1.684v1.684h-1.684zM82.41 75.701h1.684v1.684h-1.685zM84.088 73.985h1.684v1.684h-1.684zM85.772 75.701h1.684v1.684h-1.684zM87.456 73.985h1.685v1.684h-1.685z" opacity=".996"/><path d="M89.134 72.332h1.685v1.685h-1.685zM90.819 72.332h1.684v1.685H90.82zM87.456 68.963h1.685v1.685h-1.685zM87.456 67.247h1.685v1.685h-1.685zM85.772 65.595h1.684v1.684h-1.684zM84.088 65.595h1.684v1.684h-1.684z" opacity=".996"/><path d="M85.772 67.247h1.684v1.685h-1.684zM85.772 68.963h1.684v1.685h-1.684z" opacity=".996"/><path d="M85.772 70.616h1.684V72.3h-1.684zM84.088 70.616h1.684V72.3h-1.684z" opacity=".996"/><path d="M84.088 68.963h1.684v1.685h-1.684zM84.088 67.247h1.684v1.685h-1.684z" opacity=".996"/><path d="M82.41 67.247h1.684v1.685h-1.685zM82.41 68.963h1.684v1.685h-1.685zM74 63.878h1.685v1.685H74zM74 65.595h1.685v1.684H74z" opacity=".996"/><path d="M74 67.247h1.685v1.685H74zM74 68.963h1.685v1.685H74zM72.316 68.963H74v1.685h-1.684zM72.316 67.247H74v1.685h-1.684z" opacity=".996"/><path d="M75.678 67.247h1.685v1.685h-1.685z" opacity=".996"/><path d="M75.678 65.595h1.685v1.684h-1.685z" opacity=".996"/></g><path fill="#ddebdd" d="M77.363 63.878h1.684v1.685h-1.684z" opacity=".996"/><g fill="#00e000"><path d="M82.41 60.51h1.684v1.684h-1.685zM82.41 62.226h1.684v1.684h-1.685zM85.772 62.226h1.684v1.684h-1.684zM79.047 62.226h1.684v1.684h-1.684zM77.363 62.226h1.684v1.684h-1.684zM75.678 63.878h1.685v1.685h-1.685zM87.456 63.878h1.685v1.685h-1.685z" opacity=".996"/><path d="M89.134 63.878h1.685v1.685h-1.685zM89.134 65.595h1.685v1.684h-1.685z" opacity=".996"/><path d="M87.456 65.595h1.685v1.684h-1.685zM82.41 65.595h1.684v1.684h-1.685zM80.725 65.595h1.684v1.684h-1.684z" opacity=".996"/><path d="M79.047 65.595h1.684v1.684h-1.684zM77.363 65.595h1.684v1.684h-1.684z" opacity=".996"/><path d="M77.363 67.247h1.684v1.685h-1.684zM79.047 67.247h1.684v1.685h-1.684z" opacity=".996"/><path d="M80.725 67.247h1.684v1.685h-1.684zM89.134 67.247h1.685v1.685h-1.685zM90.819 67.247h1.684v1.685H90.82zM90.819 68.963h1.684v1.685H90.82z" opacity=".996"/><path d="M90.819 70.616h1.684V72.3H90.82zM89.134 70.616h1.685V72.3h-1.685z" opacity=".996"/><path d="M89.134 68.963h1.685v1.685h-1.685z" opacity=".996"/><path d="M87.456 70.616h1.685V72.3h-1.685zM87.456 72.332h1.685v1.685h-1.685zM85.772 73.985h1.684v1.684h-1.684z" opacity=".996"/><path d="M85.772 72.332h1.684v1.685h-1.684zM84.088 72.332h1.684v1.685h-1.684z" opacity=".996"/><path d="M82.41 72.332h1.684v1.685h-1.685z" opacity=".996"/><path d="M82.41 73.985h1.684v1.684h-1.685zM80.725 73.985h1.684v1.684h-1.684z" opacity=".996"/><path d="M80.725 72.332h1.684v1.685h-1.684zM82.41 70.616h1.684V72.3h-1.685zM80.725 70.616h1.684V72.3h-1.684z" opacity=".996"/><path d="M79.047 70.616h1.684V72.3h-1.684zM77.363 70.616h1.684V72.3h-1.684zM75.678 70.616h1.685V72.3h-1.685z" opacity=".996"/><path d="M74 70.616h1.685V72.3H74zM72.316 70.616H74V72.3h-1.684zM72.316 72.332H74v1.685h-1.684zM74 72.332h1.685v1.685H74z" opacity=".996"/><path d="M75.678 72.332h1.685v1.685h-1.685zM79.047 72.332h1.684v1.685h-1.684zM80.725 68.963h1.684v1.685h-1.684z" opacity=".996"/><path d="M79.047 68.963h1.684v1.685h-1.684zM77.363 68.963h1.684v1.685h-1.684z" opacity=".996"/><path d="M75.685 68.963h1.684v1.685h-1.684z" opacity=".996"/></g></g><path d="M58.86 26.992h1.684v1.684H58.86zM60.544 26.992h1.684v1.684h-1.684z" opacity=".996"/><path d="M62.222 26.992h1.684v1.684h-1.684z" opacity=".996"/><path d="M62.222 28.644h1.684v1.685h-1.684zM62.222 30.36h1.684v1.685h-1.684z" opacity=".996"/><path d="M62.222 32.013h1.684v1.685h-1.684z" opacity=".996"/><path d="M63.906 32.013h1.685v1.685h-1.685zM60.544 32.013h1.684v1.685h-1.684zM58.86 32.013h1.684v1.685H58.86zM57.175 32.013h1.685v1.685h-1.685z" opacity=".996"/><path d="M58.86 30.36h1.684v1.685H58.86zM58.86 28.644h1.684v1.685H58.86zM63.906 28.644h1.685v1.685h-1.685zM65.585 30.36h1.684v1.685h-1.684zM67.269 30.36h1.684v1.685H67.27zM68.953 32.013h1.685v1.685h-1.685zM68.953 33.73h1.685v1.684h-1.685z" opacity=".996"/><path d="M70.631 35.382h1.685v1.684H70.63z" opacity=".996"/><path d="M70.631 37.035h1.685v1.684H70.63zM70.631 38.75h1.685v1.685H70.63z" opacity=".996"/><path d="M70.631 40.403h1.685v1.685H70.63zM68.953 42.12h1.685v1.684h-1.685zM67.269 43.772h1.684v1.684H67.27zM65.585 45.488h1.684v1.685h-1.684z" opacity=".996"/><path d="M63.906 45.488h1.685v1.685h-1.685z" opacity=".996"/><path d="M62.222 47.14h1.684v1.685h-1.684z" opacity=".996"/><path d="M60.544 47.14h1.684v1.685h-1.684zM58.86 47.14h1.684v1.685H58.86zM57.175 47.14h1.685v1.685h-1.685z" opacity=".996"/><path d="M55.497 45.488h1.685v1.685h-1.685zM53.813 45.488h1.684v1.685h-1.684zM52.135 43.772h1.684v1.684h-1.684z" opacity=".996"/><path d="M50.45 42.12h1.685v1.684H50.45zM48.772 40.403h1.685v1.685h-1.685z" opacity=".996"/><path d="M48.772 38.75h1.685v1.685h-1.685zM48.772 37.035h1.685v1.684h-1.685z" opacity=".996"/><path d="M48.772 35.382h1.685v1.684h-1.685z" opacity=".996"/><path d="M50.45 33.73h1.685v1.684H50.45zM50.45 32.013h1.685v1.685H50.45z" opacity=".996"/><path d="M52.135 30.36h1.684v1.685h-1.684z" opacity=".996"/><path d="M53.813 30.36h1.684v1.685h-1.684zM55.497 28.644h1.685v1.685h-1.685z" opacity=".996"/><path d="M57.175 28.644h1.685v1.685h-1.685z" opacity=".996"/><g fill="#fda200"><path d="M55.497 42.132h1.685v1.685h-1.685zM53.813 43.785h1.684v1.684h-1.684z"/><path d="M55.497 43.785h1.685v1.684h-1.685z"/><path d="M57.175 43.785h1.685v1.684h-1.685zM57.175 45.501h1.685v1.684h-1.685zM58.86 45.501h1.684v1.684H58.86z"/><path d="M60.538 45.501h1.684v1.684h-1.684zM62.222 45.501h1.684v1.684h-1.684zM62.222 43.785h1.684v1.684h-1.684zM65.585 43.785h1.684v1.684h-1.684zM67.269 42.132h1.684v1.685H67.27z"/></g><g fill="#ff5700"><path d="M52.128 42.132h1.685v1.685h-1.685zM53.813 42.132h1.684v1.685h-1.684zM55.497 40.416h1.685V42.1h-1.685zM57.175 42.132h1.685v1.685h-1.685zM58.86 43.785h1.684v1.684H58.86z"/><path d="M60.538 43.785h1.684v1.684h-1.684zM62.222 42.132h1.684v1.685h-1.684z"/><path d="M63.9 43.785h1.685v1.684H63.9zM65.585 42.132h1.684v1.685h-1.684zM67.269 40.416h1.684V42.1H67.27z"/><path d="M68.947 40.416h1.684V42.1h-1.684zM65.585 37.047h1.684v1.685h-1.684z"/><path d="M65.585 35.395h1.684v1.684h-1.684zM63.9 33.678h1.685v1.685H63.9z"/><path d="M62.222 33.678h1.684v1.685h-1.684zM63.9 35.395h1.685v1.684H63.9z"/><path d="M63.9 37.047h1.685v1.685H63.9zM63.9 38.763h1.685v1.685H63.9z"/><path d="M62.222 38.763h1.684v1.685h-1.684zM62.222 37.047h1.684v1.685h-1.684z"/><path d="M62.222 35.395h1.684v1.684h-1.684zM60.538 35.395h1.684v1.684h-1.684z"/><path d="M60.538 37.047h1.684v1.685h-1.684zM52.128 32.026h1.685v1.684h-1.685z"/><path d="M52.128 33.678h1.685v1.685h-1.685zM52.128 35.395h1.685v1.684h-1.685z"/><path d="M52.128 37.047h1.685v1.685h-1.685z"/><path d="M50.45 37.047h1.685v1.685H50.45z"/><path d="M50.45 35.395h1.685v1.684H50.45zM53.813 35.395h1.684v1.684h-1.684zM53.813 33.678h1.684v1.685h-1.684z"/></g><path fill="#ddebdd" d="M55.497 32.026h1.685v1.684h-1.685z"/><g fill="#cf0000"><path d="M60.538 28.657h1.684v1.684h-1.684z"/><path d="M60.538 30.31h1.684v1.684h-1.684zM63.9 30.31h1.685v1.684H63.9zM57.175 30.31h1.685v1.684h-1.685z"/><path d="M55.497 30.31h1.685v1.684h-1.685zM53.813 32.026h1.684v1.684h-1.684zM65.585 32.026h1.684v1.684h-1.684zM67.269 32.026h1.684v1.684H67.27z"/><path d="M67.269 33.678h1.684v1.685H67.27zM65.585 33.678h1.684v1.685h-1.684zM60.538 33.678h1.684v1.685h-1.684z"/><path d="M58.86 33.678h1.684v1.685H58.86zM57.175 33.678h1.685v1.685h-1.685z"/><path d="M55.497 33.678h1.685v1.685h-1.685zM55.497 35.395h1.685v1.684h-1.685z"/><path d="M57.175 35.395h1.685v1.684h-1.685zM58.86 35.395h1.684v1.684H58.86zM67.269 35.395h1.684v1.684H67.27z"/><path d="M68.947 35.395h1.684v1.684h-1.684z"/><path d="M68.947 37.047h1.684v1.685h-1.684zM68.947 38.763h1.684v1.685h-1.684z"/><path d="M67.269 38.763h1.684v1.685H67.27zM67.269 37.047h1.684v1.685H67.27zM65.585 38.763h1.684v1.685h-1.684z"/><path d="M65.585 40.416h1.684V42.1h-1.684zM63.9 42.132h1.685v1.685H63.9zM63.9 40.416h1.685V42.1H63.9z"/><path d="M62.222 40.416h1.684V42.1h-1.684zM60.538 40.416h1.684V42.1h-1.684zM60.538 42.132h1.684v1.685h-1.684z"/><path d="M58.86 42.132h1.684v1.685H58.86zM58.86 40.416h1.684V42.1H58.86z"/><path d="M60.538 38.763h1.684v1.685h-1.684z"/><path d="M58.86 38.763h1.684v1.685H58.86zM57.175 38.763h1.685v1.685h-1.685z"/><path d="M55.497 38.763h1.685v1.685h-1.685zM53.813 38.763h1.684v1.685h-1.684zM52.128 38.763h1.685v1.685h-1.685z"/><path d="M50.45 38.763h1.685v1.685H50.45z"/><path d="M50.45 40.416h1.685V42.1H50.45z"/><path d="M52.128 40.416h1.685V42.1h-1.685zM53.813 40.416h1.684V42.1h-1.684zM57.175 40.416h1.685V42.1h-1.685zM58.86 37.047h1.684v1.685H58.86zM57.175 37.047h1.685v1.685h-1.685z"/><path d="M55.497 37.047h1.685v1.685h-1.685zM53.813 37.047h1.684v1.685h-1.684z"/></g><path fill="none" d="M60.56 29.495v-.788h1.652v1.576H60.56z"/><path d="M234.377 92.542h1.684v1.685h-1.684zM234.377 90.826h1.684v1.684h-1.684z"/><path d="M236.03 89.173h1.684v1.685h-1.685z"/><path d="M236.03 87.52h1.684v1.685h-1.685zM237.745 85.805h1.685v1.684h-1.685z"/><path d="M239.398 85.805h1.684v1.684h-1.684z"/><path d="M239.398 84.152h1.684v1.684h-1.684zM239.398 82.436h1.684v1.684h-1.684zM241.114 80.783h1.685v1.685h-1.685zM241.114 79.067h1.685v1.684h-1.685z"/><path d="M242.767 77.414h1.684V79.1h-1.684zM244.483 77.414h1.684V79.1h-1.684z"/><path d="M246.136 77.414h1.684V79.1h-1.684zM247.788 75.698h1.685v1.685h-1.685zM249.504 74.046h1.685v1.684h-1.685zM251.157 72.33h1.684v1.684h-1.684zM252.873 72.33h1.685v1.684h-1.685z"/><path d="M254.526 70.677h1.684v1.684h-1.684zM256.242 70.677h1.684v1.684h-1.684z"/><path d="M257.895 70.677h1.684v1.684h-1.684zM259.61 72.33h1.685v1.684h-1.684z"/><path d="M261.263 72.33h1.685v1.684h-1.685zM262.98 70.677h1.684v1.684h-1.684z"/><path d="M264.632 69.024h1.685v1.685h-1.685z"/><path d="M266.285 69.024h1.684v1.685h-1.684zM268.001 67.308h1.684v1.684h-1.684z"/><path d="M269.654 67.308h1.684v1.684h-1.684zM271.37 69.024h1.684v1.685h-1.684z"/><path d="M273.022 70.677h1.685v1.684h-1.685z"/><path d="M273.022 72.33h1.685v1.684h-1.685zM273.022 74.046h1.685v1.684h-1.685z"/><path d="M273.022 75.698h1.685v1.685h-1.685zM274.739 72.33h1.684v1.684h-1.684z"/><path d="M276.391 70.677h1.685v1.684h-1.685zM278.107 69.024h1.685v1.685h-1.685z"/><path d="M279.76 69.024h1.684v1.685h-1.684zM281.476 67.308h1.685v1.684h-1.685z"/><path d="M283.129 67.308h1.684v1.684h-1.684zM284.845 69.024h1.684v1.685h-1.684z"/><path d="M286.498 70.677h1.684v1.684h-1.684z"/><path d="M286.498 72.33h1.684v1.684h-1.684zM286.498 74.046h1.684v1.684h-1.684z"/><path d="M286.498 75.698h1.684v1.685h-1.684zM288.15 72.33h1.685v1.684h-1.685zM289.866 70.677h1.685v1.684h-1.685z"/><path d="M291.519 69.024h1.684v1.685h-1.684zM293.235 69.024h1.684v1.685h-1.684zM294.888 67.308h1.684v1.684h-1.684zM296.604 67.308h1.684v1.684h-1.684zM298.256 69.024h1.685v1.685h-1.685zM299.973 70.677h1.684v1.684h-1.684z"/><path d="M299.973 72.33h1.684v1.684h-1.684zM299.973 74.046h1.684v1.684h-1.684z"/><path d="M299.973 75.698h1.684v1.685h-1.684zM301.625 72.33h1.685v1.684h-1.685zM303.341 70.677h1.685v1.684h-1.685z"/><path d="M304.994 69.024h1.684v1.685h-1.684zM306.71 69.024h1.685v1.685h-1.685zM308.363 67.308h1.684v1.684h-1.684z"/><path d="M310.015 67.308h1.685v1.684h-1.685zM311.732 69.024h1.684v1.685h-1.684z"/><path d="M313.384 70.677h1.685v1.684h-1.685z"/><path d="M313.384 72.33h1.685v1.684h-1.685zM313.384 74.046h1.685v1.684h-1.685z"/><path d="M313.384 75.698h1.685v1.685h-1.685zM315.1 72.33h1.685v1.684H315.1z"/><path d="M316.753 70.677h1.684v1.684h-1.684zM318.47 69.024h1.684v1.685h-1.685z"/><path d="M320.122 69.024h1.684v1.685h-1.684zM321.838 67.308h1.684v1.684h-1.684z"/><path d="M323.49 67.308h1.685v1.684h-1.684zM325.207 69.024h1.684v1.685h-1.684z"/><path d="M326.86 70.677h1.684v1.684h-1.685z"/><path d="M326.86 72.33h1.684v1.684h-1.685zM326.86 74.046h1.684v1.684h-1.685z"/><path d="M326.86 75.698h1.684v1.685h-1.685zM328.512 77.414h1.684V79.1h-1.684zM330.228 77.414h1.685V79.1h-1.685z"/><path d="M331.88 79.067h1.685v1.684h-1.684zM333.597 80.783h1.684v1.685h-1.684z"/><path d="M335.25 80.783h1.684v1.685h-1.684zM336.966 80.783h1.684v1.685h-1.684z"/><path d="M338.618 82.436h1.685v1.684h-1.685zM338.618 84.152h1.685v1.684h-1.685zM340.335 85.805h1.684v1.684h-1.684zM340.335 87.52h1.684v1.685h-1.684z"/><path d="M340.335 89.173h1.684v1.685h-1.684zM338.618 90.826h1.685v1.684h-1.685zM338.618 92.542h1.685v1.685h-1.685z"/><path d="M234.377 94.195h105.951v1.684H234.377z"/><path fill="#00f800" d="M236.188 92.554v-1.652h1.652v-3.303h3.303v-5.106h1.652V79.19h5.105v-1.652h1.652v-1.801h1.652v-1.652h3.453v-1.652h4.805v1.652h3.604v-1.652h1.652v-1.652h3.303V69.13h3.303v1.651h1.652v6.757h1.802v-3.453h1.651v-1.652h1.802v-1.652h3.304V69.13h3.153v1.651h1.802v6.772l1.727-.09.084-3.378h1.642v-1.652h1.652v-1.652h3.453V69.13h3.154v1.651h1.646l.08 6.682 1.727.09v-3.468h1.802v-1.652h1.652v-1.652h3.303V69.13h3.303v1.651h1.652v6.757h1.802v-3.453h1.652v-1.652h1.651v-1.652h3.454V69.13h3.153v1.651h1.646l.08 6.682 1.728.09v1.637h3.303v1.652h1.652v1.651h5.105v3.454h1.652v4.805h-1.652v3.453H236.188z"/><g fill="#e8f0f8"><path d="M249.473 80.783h1.684v1.685h-1.684zM251.189 82.436h1.684v1.684h-1.684z"/><path d="M249.473 82.436h1.684v1.684h-1.684z"/><path d="M247.82 82.436h1.684v1.684h-1.684zM249.473 84.152h1.684v1.684h-1.684z"/><path d="M247.82 85.805h1.684v1.684h-1.684zM246.104 84.152h1.684v1.684h-1.684z"/><path d="M247.82 84.152h1.684v1.684h-1.684z"/></g><g fill="#b8a860"><path d="M279.792 77.415h1.684v1.684h-1.684z"/><path d="M281.444 79.067h1.685v1.685h-1.685z"/><path d="M279.792 79.067h1.684v1.685h-1.684zM278.076 79.067h1.684v1.685h-1.684zM279.792 80.783h1.684v1.685h-1.684zM278.076 80.783h1.684v1.685h-1.684z"/><path d="M276.423 80.783h1.684v1.685h-1.684z"/><path d="M278.076 82.436h1.684v1.684h-1.684zM306.678 77.415h1.685v1.684h-1.685z"/><path d="M308.331 79.067h1.684v1.685h-1.684z"/><path d="M306.678 79.067h1.685v1.685h-1.685z"/><path d="M305.026 79.067h1.684v1.685h-1.684zM306.678 80.783h1.685v1.685h-1.685z"/><path d="M305.026 80.783h1.684v1.685h-1.684zM303.31 80.783h1.684v1.685h-1.684z"/><path d="M305.026 82.436h1.684v1.684h-1.684zM321.806 87.52h1.685v1.685h-1.685zM323.522 89.173h1.685v1.685h-1.685z"/><path d="M321.806 89.173h1.685v1.685h-1.685z"/><path d="M320.154 89.173h1.684v1.685h-1.684z"/><path d="M321.806 90.826h1.685v1.685h-1.685z"/><path d="M320.154 90.826h1.684v1.685h-1.684zM320.154 92.542h1.684v1.685h-1.684zM318.437 90.826h1.685v1.685h-1.685z"/></g></svg>