<?xml version="1.0" encoding="UTF-8"?>
<svg version="1.1" viewBox="0 0 341.95 95.889" xmlns="http://www.w3.org/2000/svg" xmlns:cc="http://creativecommons.org/ns#" xmlns:dc="http://purl.org/dc/elements/1.1/" xmlns:rdf="http://www.w3.org/1999/02/22-rdf-syntax-ns#">
<metadata>
<rdf:RDF>
<cc:Work rdf:about="">
<dc:format>image/svg+xml</dc:format>
<dc:type rdf:resource="http://purl.org/dc/dcmitype/StillImage"/>
<dc:title/>
</cc:Work>
</rdf:RDF>
</metadata>
<g transform="translate(51.065 -61.15)">
<g transform="matrix(6.3562 0 0 6.3562 539.22 -1181.7)">
<g transform="translate(-22.754 -8.7265)">
<g stroke-width=".265">
<rect x="-70.115" y="218.81" width=".26458" height=".26458" opacity=".996"/>
<rect x="-70.115" y="218.55" width=".26458" height=".26458" opacity=".996"/>
<rect x="-70.115" y="218.28" width=".26458" height=".26458" opacity=".996"/>
<rect x="-69.85" y="218.02" width=".26458" height=".26458" opacity=".996"/>
<rect x="-69.85" y="217.75" width=".26458" height=".26458" opacity=".996"/>
<rect x="-69.85" y="217.49" width=".26458" height=".26458" opacity=".996"/>
<rect x="-69.585" y="217.22" width=".26458" height=".26458" opacity=".996"/>
<rect x="-69.585" y="216.96" width=".26458" height=".26458" opacity=".996"/>
<rect x="-69.585" y="216.69" width=".26458" height=".26458" opacity=".996"/>
<rect x="-69.321" y="216.43" width=".26458" height=".26458" opacity=".996"/>
<rect x="-69.321" y="216.16" width=".26458" height=".26458" opacity=".996"/>
<rect x="-69.056" y="215.9" width=".26458" height=".26458" opacity=".996"/>
<rect x="-69.056" y="215.64" width=".26458" height=".26458" opacity=".996"/>
<rect x="-68.792" y="215.37" width=".26458" height=".26458" opacity=".996"/>
<rect x="-68.527" y="215.11" width=".26458" height=".26458" opacity=".996"/>
<rect x="-68.263" y="215.11" width=".26458" height=".26458" opacity=".996"/>
<rect x="-67.998" y="215.11" width=".26458" height=".26458" opacity=".996"/>
<rect x="-67.733" y="215.37" width=".26458" height=".26458" opacity=".996"/>
<rect x="-67.469" y="215.64" width=".26458" height=".26458" opacity=".996"/>
<rect x="-67.469" y="215.9" width=".26458" height=".26458" opacity=".996"/>
<rect x="-67.204" y="215.37" width=".26458" height=".26458" opacity=".996"/>
<rect x="-66.94" y="215.11" width=".26458" height=".26458" opacity=".996"/>
<rect x="-66.675" y="215.11" width=".26458" height=".26458" opacity=".996"/>
<rect x="-66.41" y="214.84" width=".26458" height=".26458" opacity=".996"/>
<rect x="-66.146" y="214.84" width=".26458" height=".26458" opacity=".996"/>
<rect x="-65.881" y="214.58" width=".26458" height=".26458" opacity=".996"/>
<rect x="-65.881" y="214.31" width=".26458" height=".26458" opacity=".996"/>
<rect x="-65.881" y="214.05" width=".26458" height=".26458" opacity=".996"/>
<rect x="-65.881" y="213.78" width=".26458" height=".26458" opacity=".996"/>
<rect x="-65.881" y="213.52" width=".26458" height=".26458" opacity=".996"/>
<rect x="-65.881" y="213.25" width=".26458" height=".26458" opacity=".996"/>
<rect x="-65.881" y="212.99" width=".26458" height=".26458" opacity=".996"/>
<rect x="-65.881" y="212.73" width=".26458" height=".26458" opacity=".996"/>
<rect x="-65.617" y="212.46" width=".26458" height=".26458" opacity=".996"/>
<rect x="-65.617" y="212.2" width=".26458" height=".26458" opacity=".996"/>
<rect x="-65.617" y="211.93" width=".26458" height=".26458" opacity=".996"/>
<rect x="-65.352" y="211.67" width=".26458" height=".26458" opacity=".996"/>
<rect x="-65.352" y="211.4" width=".26458" height=".26458" opacity=".996"/>
<rect x="-65.088" y="211.14" width=".26458" height=".26458" opacity=".996"/>
<rect x="-64.823" y="210.87" width=".26458" height=".26458" opacity=".996"/>
<rect x="-64.558" y="210.61" width=".26458" height=".26458" opacity=".996"/>
<rect x="-64.294" y="210.61" width=".26458" height=".26458" opacity=".996"/>
<rect x="-64.029" y="210.61" width=".26458" height=".26458" opacity=".996"/>
<rect x="-63.765" y="210.34" width=".26458" height=".26458" opacity=".996"/>
<rect x="-63.765" y="210.08" width=".26458" height=".26458" opacity=".996"/>
<rect x="-63.765" y="209.81" width=".26458" height=".26458" opacity=".996"/>
<rect x="-63.765" y="209.55" width=".26458" height=".26458" opacity=".996"/>
<rect x="-63.765" y="209.29" width=".26458" height=".26458" opacity=".996"/>
<rect x="-63.765" y="209.02" width=".26458" height=".26458" opacity=".996"/>
<rect x="-63.765" y="208.76" width=".26458" height=".26458" opacity=".996"/>
<rect x="-63.765" y="208.49" width=".26458" height=".26458" opacity=".996"/>
<rect x="-63.5" y="208.23" width=".26458" height=".26458" opacity=".996"/>
<rect x="-63.5" y="207.96" width=".26458" height=".26458" opacity=".996"/>
<rect x="-63.5" y="207.7" width=".26458" height=".26458" opacity=".996"/>
<rect x="-63.235" y="207.43" width=".26458" height=".26458" opacity=".996"/>
<rect x="-63.235" y="207.17" width=".26458" height=".26458" opacity=".996"/>
<rect x="-62.971" y="206.9" width=".26458" height=".26458" opacity=".996"/>
<rect x="-62.706" y="206.64" width=".26458" height=".26458" opacity=".996"/>
<rect x="-62.442" y="206.38" width=".26458" height=".26458" opacity=".996"/>
<rect x="-62.177" y="206.38" width=".26458" height=".26458" opacity=".996"/>
<rect x="-61.913" y="206.38" width=".26458" height=".26458" opacity=".996"/>
<rect x="-61.648" y="206.11" width=".26458" height=".26458" opacity=".996"/>
<rect x="-61.648" y="205.85" width=".26458" height=".26458" opacity=".996"/>
<rect x="-61.383" y="205.58" width=".26458" height=".26458" opacity=".996"/>
<rect x="-61.383" y="205.32" width=".26458" height=".26458" opacity=".996"/>
<rect x="-61.119" y="205.05" width=".26458" height=".26458" opacity=".996"/>
<rect x="-60.854" y="204.79" width=".26458" height=".26458" opacity=".996"/>
<rect x="-60.59" y="204.79" width=".26458" height=".26458" opacity=".996"/>
<rect x="-60.325" y="204.52" width=".26458" height=".26458" opacity=".996"/>
<rect x="-60.06" y="204.52" width=".26458" height=".26458" opacity=".996"/>
<rect x="-59.796" y="204.26" width=".26458" height=".26458" opacity=".996"/>
<rect x="-59.531" y="204.26" width=".26458" height=".26458" opacity=".996"/>
<rect x="-59.267" y="204.26" width=".26458" height=".26458" opacity=".996"/>
<rect x="-59.002" y="204.52" width=".26458" height=".26458" opacity=".996"/>
<rect x="-58.738" y="204.52" width=".26458" height=".26458" opacity=".996"/>
<rect x="-58.473" y="204.52" width=".26458" height=".26458" opacity=".996"/>
<rect x="-58.473" y="204.79" width=".26458" height=".26458" opacity=".996"/>
<rect x="-58.473" y="205.05" width=".26458" height=".26458" opacity=".996"/>
<rect x="-58.208" y="204.52" width=".26458" height=".26458" opacity=".996"/>
<rect x="-57.944" y="204.26" width=".26458" height=".26458" opacity=".996"/>
<rect x="-57.679" y="204.26" width=".26458" height=".26458" opacity=".996"/>
<rect x="-57.415" y="204.26" width=".26458" height=".26458" opacity=".996"/>
<rect x="-57.415" y="204.52" width=".26458" height=".26458" opacity=".996"/>
<rect x="-57.15" y="204.79" width=".26458" height=".26458" opacity=".996"/>
<rect x="-56.885" y="205.05" width=".26458" height=".26458" opacity=".996"/>
<rect x="-56.885" y="205.32" width=".26458" height=".26458" opacity=".996"/>
<rect x="-56.885" y="205.58" width=".26458" height=".26458" opacity=".996"/>
<rect x="-57.15" y="205.85" width=".26458" height=".26458" opacity=".996"/>
<rect x="-57.415" y="206.11" width=".26458" height=".26458" opacity=".996"/>
<rect x="-57.415" y="206.38" width=".26458" height=".26458" opacity=".996"/>
<rect x="-57.15" y="206.38" width=".26458" height=".26458" opacity=".996"/>
<rect x="-56.885" y="206.64" width=".26458" height=".26458" opacity=".996"/>
<rect x="-56.621" y="206.64" width=".26458" height=".26458" opacity=".996"/>
<rect x="-56.356" y="206.9" width=".26458" height=".26458" opacity=".996"/>
<rect x="-56.092" y="207.17" width=".26458" height=".26458" opacity=".996"/>
<rect x="-55.827" y="207.43" width=".26458" height=".26458" opacity=".996"/>
<rect x="-55.827" y="207.7" width=".26458" height=".26458" opacity=".996"/>
<rect x="-55.563" y="207.96" width=".26458" height=".26458" opacity=".996"/>
<rect x="-55.563" y="208.23" width=".26458" height=".26458" opacity=".996"/>
<rect x="-55.563" y="208.49" width=".26458" height=".26458" opacity=".996"/>
<rect x="-55.563" y="208.76" width=".26458" height=".26458" opacity=".996"/>
<rect x="-55.563" y="209.02" width=".26458" height=".26458" opacity=".996"/>
<rect x="-55.563" y="209.29" width=".26458" height=".26458" opacity=".996"/>
<rect x="-55.563" y="209.55" width=".26458" height=".26458" opacity=".996"/>
<rect x="-55.563" y="209.81" width=".26458" height=".26458" opacity=".996"/>
<rect x="-55.563" y="210.08" width=".26458" height=".26458" opacity=".996"/>
<rect x="-55.563" y="210.34" width=".26458" height=".26458" opacity=".996"/>
<rect x="-55.298" y="210.61" width=".26458" height=".26458" opacity=".996"/>
<rect x="-55.033" y="210.61" width=".26458" height=".26458" opacity=".996"/>
<rect x="-54.769" y="210.87" width=".26458" height=".26458" opacity=".996"/>
<rect x="-54.504" y="210.87" width=".26458" height=".26458" opacity=".996"/>
<rect x="-54.24" y="211.14" width=".26458" height=".26458" opacity=".996"/>
<rect x="-53.975" y="211.4" width=".26458" height=".26458" opacity=".996"/>
<rect x="-53.71" y="211.67" width=".26458" height=".26458" opacity=".996"/>
<rect x="-53.71" y="211.93" width=".26458" height=".26458" opacity=".996"/>
<rect x="-53.446" y="212.2" width=".26458" height=".26458" opacity=".996"/>
<rect x="-53.446" y="212.46" width=".26458" height=".26458" opacity=".996"/>
<rect x="-53.446" y="212.73" width=".26458" height=".26458" opacity=".996"/>
<rect x="-53.446" y="212.99" width=".26458" height=".26458" opacity=".996"/>
<rect x="-53.446" y="213.25" width=".26458" height=".26458" opacity=".996"/>
<rect x="-53.446" y="213.52" width=".26458" height=".26458" opacity=".996"/>
<rect x="-53.446" y="213.78" width=".26458" height=".26458" opacity=".996"/>
<rect x="-53.446" y="214.05" width=".26458" height=".26458" opacity=".996"/>
<rect x="-53.446" y="214.31" width=".26458" height=".26458" opacity=".996"/>
<rect x="-53.446" y="214.58" width=".26458" height=".26458" opacity=".996"/>
<rect x="-53.181" y="214.84" width=".26458" height=".26458" opacity=".996"/>
<rect x="-52.917" y="215.11" width=".26458" height=".26458" opacity=".996"/>
<rect x="-52.652" y="215.11" width=".26458" height=".26458" opacity=".996"/>
<rect x="-52.652" y="215.37" width=".26458" height=".26458" opacity=".996"/>
<rect x="-52.388" y="215.64" width=".26458" height=".26458" opacity=".996"/>
<rect x="-52.123" y="215.9" width=".26458" height=".26458" opacity=".996"/>
<rect x="-51.858" y="216.16" width=".26458" height=".26458" opacity=".996"/>
<rect x="-51.594" y="216.43" width=".26458" height=".26458" opacity=".996"/>
<rect x="-51.594" y="216.69" width=".26458" height=".26458" opacity=".996"/>
<rect x="-51.594" y="216.96" width=".26458" height=".26458" opacity=".996"/>
<rect x="-51.594" y="217.22" width=".26458" height=".26458" opacity=".996"/>
<rect x="-51.594" y="217.49" width=".26458" height=".26458" opacity=".996"/>
<rect x="-51.594" y="217.75" width=".26458" height=".26458" opacity=".996"/>
<rect x="-51.858" y="218.02" width=".26458" height=".26458" opacity=".996"/>
<rect x="-52.123" y="218.28" width=".26458" height=".26458" opacity=".996"/>
<rect x="-52.388" y="218.55" width=".26458" height=".26458" opacity=".996"/>
<rect x="-52.652" y="218.55" width=".26458" height=".26458" opacity=".996"/>
<rect x="-52.917" y="218.81" width=".26458" height=".26458" opacity=".996"/>
<rect x="-53.181" y="218.81" width=".26458" height=".26458" opacity=".996"/>
</g>
<rect x="-69.85" y="219.08" width="16.933" height=".26458" opacity=".996" stroke-width="2.12"/>
</g>
<g stroke-width=".067">
<rect x="-79.904" y="195.53" width=".26458" height=".26458" opacity=".996"/>
<rect x="-79.64" y="195.53" width=".26458" height=".26458" opacity=".996"/>
<rect x="-79.375" y="195.53" width=".26458" height=".26458" opacity=".996"/>
<rect x="-79.11" y="195.79" width=".26458" height=".26458" opacity=".996"/>
<rect x="-78.846" y="195.79" width=".26458" height=".26458" opacity=".996"/>
<rect x="-78.581" y="196.06" width=".26458" height=".26458" opacity=".996"/>
<rect x="-78.581" y="195.53" width=".26458" height=".26458" opacity=".996"/>
<rect x="-78.317" y="195.53" width=".26458" height=".26458" opacity=".996"/>
<rect x="-78.052" y="195.53" width=".26458" height=".26458" opacity=".996"/>
<rect x="-77.787" y="195.79" width=".26458" height=".26458" opacity=".996"/>
<rect x="-77.523" y="195.79" width=".26458" height=".26458" opacity=".996"/>
<rect x="-77.258" y="196.06" width=".26458" height=".26458" opacity=".996"/>
<rect x="-76.994" y="196.06" width=".26458" height=".26458" opacity=".996"/>
<rect x="-76.729" y="196.32" width=".26458" height=".26458" opacity=".996"/>
<rect x="-76.465" y="196.59" width=".26458" height=".26458" opacity=".996"/>
<rect x="-76.465" y="196.85" width=".26458" height=".26458" opacity=".996"/>
<rect x="-76.2" y="197.11" width=".26458" height=".26458" opacity=".996"/>
<rect x="-76.2" y="197.38" width=".26458" height=".26458" opacity=".996"/>
<rect x="-75.935" y="197.64" width=".26458" height=".26458" opacity=".996"/>
<rect x="-75.671" y="197.64" width=".26458" height=".26458" opacity=".996"/>
<rect x="-75.406" y="197.91" width=".26458" height=".26458" opacity=".996"/>
<rect x="-75.142" y="197.91" width=".26458" height=".26458" opacity=".996"/>
<rect x="-74.877" y="198.17" width=".26458" height=".26458" opacity=".996"/>
<rect x="-74.613" y="198.44" width=".26458" height=".26458" opacity=".996"/>
<rect x="-74.613" y="198.7" width=".26458" height=".26458" opacity=".996"/>
<rect x="-74.348" y="198.17" width=".26458" height=".26458" opacity=".996"/>
<rect x="-74.083" y="197.91" width=".26458" height=".26458" opacity=".996"/>
<rect x="-73.819" y="197.91" width=".26458" height=".26458" opacity=".996"/>
<rect x="-73.554" y="197.91" width=".26458" height=".26458" opacity=".996"/>
<rect x="-73.29" y="198.17" width=".26458" height=".26458" opacity=".996"/>
<rect x="-73.025" y="198.44" width=".26458" height=".26458" opacity=".996"/>
<rect x="-73.025" y="198.7" width=".26458" height=".26458" opacity=".996"/>
<rect x="-72.76" y="198.97" width=".26458" height=".26458" opacity=".996"/>
<rect x="-72.76" y="199.23" width=".26458" height=".26458" opacity=".996"/>
<rect x="-72.496" y="199.5" width=".26458" height=".26458" opacity=".996"/>
<rect x="-72.496" y="199.76" width=".26458" height=".26458" opacity=".996"/>
<rect x="-72.496" y="200.02" width=".26458" height=".26458" opacity=".996"/>
<rect x="-72.231" y="200.29" width=".26458" height=".26458" opacity=".996"/>
<rect x="-72.231" y="200.55" width=".26458" height=".26458" opacity=".996"/>
<rect x="-72.231" y="200.82" width=".26458" height=".26458" opacity=".996"/>
<rect x="-71.967" y="201.08" width=".26458" height=".26458" opacity=".996"/>
<rect x="-71.967" y="201.35" width=".26458" height=".26458" opacity=".996"/>
<rect x="-71.967" y="201.61" width=".26458" height=".26458" opacity=".996"/>
<rect x="-71.702" y="201.88" width=".26458" height=".26458" opacity=".996"/>
<rect x="-71.438" y="201.88" width=".26458" height=".26458" opacity=".996"/>
<rect x="-71.173" y="201.88" width=".26458" height=".26458" opacity=".996"/>
<rect x="-70.908" y="202.14" width=".26458" height=".26458" opacity=".996"/>
<rect x="-70.644" y="202.14" width=".26458" height=".26458" opacity=".996"/>
<rect x="-70.379" y="202.41" width=".26458" height=".26458" opacity=".996"/>
<rect x="-70.379" y="202.67" width=".26458" height=".26458" opacity=".996"/>
<rect x="-70.115" y="202.94" width=".26458" height=".26458" opacity=".996"/>
<rect x="-70.115" y="203.2" width=".26458" height=".26458" opacity=".996"/>
<rect x="-69.85" y="203.46" width=".26458" height=".26458" opacity=".996"/>
<rect x="-69.85" y="203.73" width=".26458" height=".26458" opacity=".996"/>
<rect x="-69.85" y="203.99" width=".26458" height=".26458" opacity=".996"/>
<rect x="-69.585" y="204.26" width=".26458" height=".26458" opacity=".996"/>
<rect x="-69.585" y="204.52" width=".26458" height=".26458" opacity=".996"/>
<rect x="-69.585" y="204.79" width=".26458" height=".26458" opacity=".996"/>
<rect x="-69.321" y="205.05" width=".26458" height=".26458" opacity=".996"/>
<rect x="-69.321" y="205.32" width=".26458" height=".26458" opacity=".996"/>
<rect x="-69.056" y="205.32" width=".26458" height=".26458" opacity=".996"/>
<rect x="-68.792" y="205.58" width=".26458" height=".26458" opacity=".996"/>
<rect x="-68.792" y="205.85" width=".26458" height=".26458" opacity=".996"/>
<rect x="-68.792" y="206.11" width=".26458" height=".26458" opacity=".996"/>
<rect x="-68.527" y="206.11" width=".26458" height=".26458" opacity=".996"/>
<rect x="-68.262" y="206.38" width=".26458" height=".26458" opacity=".996"/>
<rect x="-68.262" y="206.64" width=".26458" height=".26458" opacity=".996"/>
<rect x="-68.262" y="206.9" width=".26458" height=".26458" opacity=".996"/>
<rect x="-67.998" y="207.17" width=".26458" height=".26458" opacity=".996"/>
<rect x="-67.998" y="207.43" width=".26458" height=".26458" opacity=".996"/>
</g>
<rect x="-67.733" y="207.7" width=".26458" height="2.6458" opacity=".996" stroke-width=".21187"/>
<rect x="-75.671" y="210.34" width="8.2021" height=".26458" opacity=".996" stroke-width=".37304"/>
</g>
<path d="m-49.268 152.91v-2.442h1.6988v-5.0964h1.6988v-5.0964h1.6988v-3.3976h1.6988v-3.1596l0.79632-0.0659c0.75308-0.0624 0.7999-0.10915 0.86222-0.86223l0.06592-0.7963h4.6461v1.6988h1.6988v3.1852h1.9112v-3.1852h1.6988v-1.6988h3.3976v-1.6988h3.3976v-1.6988h1.6988v-13.59h1.6988v-4.8584l1.5926-0.1318 0.12412-3.2914h0.7343c0.71512 0 0.7343-0.0222 0.7343-0.84941v-0.84941h1.6988v-1.6988h5.0964v-1.6988h1.6988v-13.378h1.6988v-5.0964h1.6988v-3.3976h1.6988v-1.6988h1.6988v-1.6989h4.8841v-1.6988h1.6988v-3.1853h1.6988v-3.3976h1.6988v-1.6988h3.3976v-1.6988h3.3976v-1.6988h4.8841v1.6988h3.3976v3.3976h1.6988v-3.3976h1.6988v-1.6988h3.1853v1.6988h1.6988v1.6988h1.6988v4.8841h-0.84939c-0.82918 0-0.84941 0.01766-0.84941 0.74323 0 0.72553-0.02018 0.74324-0.84941 0.74324h-0.84939v3.61h3.3976v1.6988h3.3976v1.6988h1.6988v1.6988h1.6988v3.3976h1.6988v16.776h1.6988v1.6988h3.1853v1.6988h3.3976v1.6988h1.6988v1.6988h1.6988v3.3976h1.6988v16.776h1.6988v1.6988h1.6988v1.6988h1.6988v1.6988h0.84939c0.82918 0 0.84941 0.0177 0.84941 0.74323s0.02018 0.74322 0.84939 0.74322h0.84941v0.84941c0 0.82634 0.01984 0.8494 0.73041 0.8494 0.69074 0 0.73399 0.0432 0.79632 0.79632 0.06239 0.75308 0.10914 0.7999 0.86222 0.86222l0.79632 0.0659v9.9292l-0.79632 0.0659c-0.75308 0.0624-0.7999 0.10915-0.86222 0.86223-0.06239 0.75306-0.10561 0.79631-0.79632 0.79631-0.71058 0-0.73041 0.023-0.73041 0.8494v0.84941h-3.3976v1.6988h-3.3976v1.6988h-105.75z" fill="#00c800" opacity=".996" stroke-width=".053773"/>
<path d="m59.993 154.47v-0.75077h3.3034v-1.6517h1.8019v-1.6517h1.6517v-1.6517h1.6517v-10.361h-1.6517v-1.6517h-1.6517v-1.6517h-1.8019v-1.6517h-1.6517v-3.4536h-3.3034v-1.6517h-1.6517v-16.817h-1.8019v-3.3034h-1.6517v-1.6517h-1.6517v-1.8019h-1.6517v-1.6517h-3.4536v-1.6517h-3.3034v-16.817h-1.6517v-3.3034h-1.6517v-1.8019h-1.8019v-1.6517h-1.6517v-1.6517h-3.3034v-1.6517h-1.6517v-1.5016h1.6517v-1.8019h1.6517v-5.1053h-1.6517v-1.6517h-1.6517v-1.6517h4.805v1.6517h3.4536v1.8019h1.8019v-1.952h-1.6517v-1.5016h4.805v1.6517h3.4536v1.8019h3.3034v1.6517h1.6517v3.3034h1.6419l0.04238 1.6893 0.04238 1.6892 1.7268 0.09014v1.6367h3.3034v1.6517h3.3034v1.6517h1.8019v3.4536h1.8019v-3.4536h1.6517v-1.6517h4.9551v1.6517h1.6517v3.4536h1.6517v3.3034h1.6517v5.1053h1.6517v4.9551h1.8019v5.1053h1.6517v1.6517h4.9551v1.6517h3.4536v3.4536h1.6517v3.3034h1.6517v5.1053h1.6517v4.9551h1.8019v3.4536h3.3034v4.9551h3.2962l0.0824 5.0302 1.7268 0.0902v3.2884h1.6517v16.667h-48.65z" fill="#008000" opacity=".996" stroke-width=".038024"/>
<g transform="matrix(6.3562 0 0 6.3562 317.24 -1233.8)" stroke-width=".067">
<g transform="translate(37.306 11.113)">
<rect x="-82.55" y="201.88" width=".26458" height=".26458" opacity=".996"/>
<rect x="-82.285" y="201.88" width=".26458" height=".26458" opacity=".996"/>
<rect x="-82.021" y="201.88" width=".26458" height=".26458" opacity=".996"/>
<rect x="-82.021" y="202.14" width=".26458" height=".26458" opacity=".996"/>
<rect x="-82.021" y="202.41" width=".26458" height=".26458" opacity=".996"/>
<rect x="-82.021" y="202.67" width=".26458" height=".26458" opacity=".996"/>
<rect x="-81.756" y="202.67" width=".26458" height=".26458" opacity=".996"/>
<rect x="-82.285" y="202.67" width=".26458" height=".26458" opacity=".996"/>
<rect x="-82.55" y="202.67" width=".26458" height=".26458" opacity=".996"/>
<rect x="-82.815" y="202.67" width=".26458" height=".26458" opacity=".996"/>
<rect x="-82.55" y="202.41" width=".26458" height=".26458" opacity=".996"/>
<rect x="-82.55" y="202.14" width=".26458" height=".26458" opacity=".996"/>
<rect x="-81.756" y="202.14" width=".26458" height=".26458" opacity=".996"/>
<rect x="-81.492" y="202.41" width=".26458" height=".26458" opacity=".996"/>
<rect x="-81.227" y="202.41" width=".26458" height=".26458" opacity=".996"/>
<rect x="-80.962" y="202.67" width=".26458" height=".26458" opacity=".996"/>
<rect x="-80.962" y="202.94" width=".26458" height=".26458" opacity=".996"/>
<rect x="-80.698" y="203.2" width=".26458" height=".26458" opacity=".996"/>
<rect x="-80.698" y="203.46" width=".26458" height=".26458" opacity=".996"/>
<rect x="-80.698" y="203.73" width=".26458" height=".26458" opacity=".996"/>
<rect x="-80.698" y="203.99" width=".26458" height=".26458" opacity=".996"/>
<rect x="-80.962" y="204.26" width=".26458" height=".26458" opacity=".996"/>
<rect x="-81.227" y="204.52" width=".26458" height=".26458" opacity=".996"/>
<rect x="-81.492" y="204.79" width=".26458" height=".26458" opacity=".996"/>
<rect x="-81.756" y="204.79" width=".26458" height=".26458" opacity=".996"/>
<rect x="-82.021" y="205.05" width=".26458" height=".26458" opacity=".996"/>
<rect x="-82.285" y="205.05" width=".26458" height=".26458" opacity=".996"/>
<rect x="-82.55" y="205.05" width=".26458" height=".26458" opacity=".996"/>
<rect x="-82.815" y="205.05" width=".26458" height=".26458" opacity=".996"/>
<rect x="-83.079" y="204.79" width=".26458" height=".26458" opacity=".996"/>
<rect x="-83.344" y="204.79" width=".26458" height=".26458" opacity=".996"/>
<rect x="-83.608" y="204.52" width=".26458" height=".26458" opacity=".996"/>
<rect x="-83.873" y="204.26" width=".26458" height=".26458" opacity=".996"/>
<rect x="-84.137" y="203.99" width=".26458" height=".26458" opacity=".996"/>
<rect x="-84.137" y="203.73" width=".26458" height=".26458" opacity=".996"/>
<rect x="-84.137" y="203.46" width=".26458" height=".26458" opacity=".996"/>
<rect x="-84.137" y="203.2" width=".26458" height=".26458" opacity=".996"/>
<rect x="-83.873" y="202.94" width=".26458" height=".26458" opacity=".996"/>
<rect x="-83.873" y="202.67" width=".26458" height=".26458" opacity=".996"/>
<rect x="-83.608" y="202.41" width=".26458" height=".26458" opacity=".996"/>
<rect x="-83.344" y="202.41" width=".26458" height=".26458" opacity=".996"/>
<rect x="-83.079" y="202.14" width=".26458" height=".26458" opacity=".996"/>
<rect x="-82.815" y="202.14" width=".26458" height=".26458" opacity=".996"/>
</g>
<g fill="#f6f893">
<rect x="-45.773" y="215.37" width=".26458" height=".26458" opacity=".996"/>
<rect x="-46.037" y="215.64" width=".26458" height=".26458" opacity=".996"/>
<rect x="-45.773" y="215.64" width=".26458" height=".26458" opacity=".996"/>
<rect x="-45.508" y="215.64" width=".26458" height=".26458" opacity=".996"/>
<rect x="-45.508" y="215.9" width=".26458" height=".26458" opacity=".996"/>
<rect x="-45.244" y="215.9" width=".26458" height=".26458" opacity=".996"/>
<rect x="-44.979" y="215.9" width=".26458" height=".26458" opacity=".996"/>
<rect x="-44.715" y="215.9" width=".26458" height=".26458" opacity=".996"/>
<rect x="-44.715" y="215.64" width=".26458" height=".26458" opacity=".996"/>
<rect x="-44.185" y="215.64" width=".26458" height=".26458" opacity=".996"/>
<rect x="-43.921" y="215.37" width=".26458" height=".26458" opacity=".996"/>
</g>
<g fill="#c8f800">
<rect x="-46.302" y="215.37" width=".26458" height=".26458" opacity=".996"/>
<rect x="-46.038" y="215.37" width=".26458" height=".26458" opacity=".996"/>
<rect x="-45.773" y="215.11" width=".26458" height=".26458" opacity=".996"/>
<rect x="-45.508" y="215.37" width=".26458" height=".26458" opacity=".996"/>
<rect x="-45.244" y="215.64" width=".26458" height=".26458" opacity=".996"/>
<rect x="-44.979" y="215.64" width=".26458" height=".26458" opacity=".996"/>
<rect x="-44.715" y="215.37" width=".26458" height=".26458" opacity=".996"/>
<rect x="-44.45" y="215.64" width=".26458" height=".26458" opacity=".996"/>
<rect x="-44.185" y="215.37" width=".26458" height=".26458" opacity=".996"/>
<rect x="-43.921" y="215.11" width=".26458" height=".26458" opacity=".996"/>
<rect x="-43.656" y="215.11" width=".26458" height=".26458" opacity=".996"/>
<rect x="-44.185" y="214.58" width=".26458" height=".26458" opacity=".996"/>
<rect x="-44.185" y="214.31" width=".26458" height=".26458" opacity=".996"/>
<rect x="-44.45" y="214.05" width=".26458" height=".26458" opacity=".996"/>
<rect x="-44.715" y="214.05" width=".26458" height=".26458" opacity=".996"/>
<rect x="-44.45" y="214.31" width=".26458" height=".26458" opacity=".996"/>
<rect x="-44.45" y="214.58" width=".26458" height=".26458" opacity=".996"/>
<rect x="-44.45" y="214.84" width=".26458" height=".26458" opacity=".996"/>
<rect x="-44.715" y="214.84" width=".26458" height=".26458" opacity=".996"/>
<rect x="-44.715" y="214.58" width=".26458" height=".26458" opacity=".996"/>
<rect x="-44.715" y="214.31" width=".26458" height=".26458" opacity=".996"/>
<rect x="-44.979" y="214.31" width=".26458" height=".26458" opacity=".996"/>
<rect x="-44.979" y="214.58" width=".26458" height=".26458" opacity=".996"/>
<rect x="-46.302" y="213.78" width=".26458" height=".26458" opacity=".996"/>
<rect x="-46.302" y="214.05" width=".26458" height=".26458" opacity=".996"/>
<rect x="-46.302" y="214.31" width=".26458" height=".26458" opacity=".996"/>
<rect x="-46.302" y="214.58" width=".26458" height=".26458" opacity=".996"/>
<rect x="-46.567" y="214.58" width=".26458" height=".26458" opacity=".996"/>
<rect x="-46.567" y="214.31" width=".26458" height=".26458" opacity=".996"/>
<rect x="-46.038" y="214.31" width=".26458" height=".26458" opacity=".996"/>
<rect x="-46.038" y="214.05" width=".26458" height=".26458" opacity=".996"/>
</g>
<rect x="-45.773" y="213.78" width=".26458" height=".26458" fill="#ddebdd" opacity=".996"/>
<g fill="#00e000">
<rect x="-44.979" y="213.25" width=".26458" height=".26458" opacity=".996"/>
<rect x="-44.979" y="213.52" width=".26458" height=".26458" opacity=".996"/>
<rect x="-44.45" y="213.52" width=".26458" height=".26458" opacity=".996"/>
<rect x="-45.508" y="213.52" width=".26458" height=".26458" opacity=".996"/>
<rect x="-45.773" y="213.52" width=".26458" height=".26458" opacity=".996"/>
<rect x="-46.038" y="213.78" width=".26458" height=".26458" opacity=".996"/>
<rect x="-44.185" y="213.78" width=".26458" height=".26458" opacity=".996"/>
<rect x="-43.921" y="213.78" width=".26458" height=".26458" opacity=".996"/>
<rect x="-43.921" y="214.05" width=".26458" height=".26458" opacity=".996"/>
<rect x="-44.185" y="214.05" width=".26458" height=".26458" opacity=".996"/>
<rect x="-44.979" y="214.05" width=".26458" height=".26458" opacity=".996"/>
<rect x="-45.244" y="214.05" width=".26458" height=".26458" opacity=".996"/>
<rect x="-45.508" y="214.05" width=".26458" height=".26458" opacity=".996"/>
<rect x="-45.773" y="214.05" width=".26458" height=".26458" opacity=".996"/>
<rect x="-45.773" y="214.31" width=".26458" height=".26458" opacity=".996"/>
<rect x="-45.508" y="214.31" width=".26458" height=".26458" opacity=".996"/>
<rect x="-45.244" y="214.31" width=".26458" height=".26458" opacity=".996"/>
<rect x="-43.921" y="214.31" width=".26458" height=".26458" opacity=".996"/>
<rect x="-43.656" y="214.31" width=".26458" height=".26458" opacity=".996"/>
<rect x="-43.656" y="214.58" width=".26458" height=".26458" opacity=".996"/>
<rect x="-43.656" y="214.84" width=".26458" height=".26458" opacity=".996"/>
<rect x="-43.921" y="214.84" width=".26458" height=".26458" opacity=".996"/>
<rect x="-43.921" y="214.58" width=".26458" height=".26458" opacity=".996"/>
<rect x="-44.185" y="214.84" width=".26458" height=".26458" opacity=".996"/>
<rect x="-44.185" y="215.11" width=".26458" height=".26458" opacity=".996"/>
<rect x="-44.45" y="215.37" width=".26458" height=".26458" opacity=".996"/>
<rect x="-44.45" y="215.11" width=".26458" height=".26458" opacity=".996"/>
<rect x="-44.715" y="215.11" width=".26458" height=".26458" opacity=".996"/>
<rect x="-44.979" y="215.11" width=".26458" height=".26458" opacity=".996"/>
<rect x="-44.979" y="215.37" width=".26458" height=".26458" opacity=".996"/>
<rect x="-45.244" y="215.37" width=".26458" height=".26458" opacity=".996"/>
<rect x="-45.244" y="215.11" width=".26458" height=".26458" opacity=".996"/>
<rect x="-44.979" y="214.84" width=".26458" height=".26458" opacity=".996"/>
<rect x="-45.244" y="214.84" width=".26458" height=".26458" opacity=".996"/>
<rect x="-45.508" y="214.84" width=".26458" height=".26458" opacity=".996"/>
<rect x="-45.773" y="214.84" width=".26458" height=".26458" opacity=".996"/>
<rect x="-46.038" y="214.84" width=".26458" height=".26458" opacity=".996"/>
<rect x="-46.302" y="214.84" width=".26458" height=".26458" opacity=".996"/>
<rect x="-46.567" y="214.84" width=".26458" height=".26458" opacity=".996"/>
<rect x="-46.567" y="215.11" width=".26458" height=".26458" opacity=".996"/>
<rect x="-46.302" y="215.11" width=".26458" height=".26458" opacity=".996"/>
<rect x="-46.038" y="215.11" width=".26458" height=".26458" opacity=".996"/>
<rect x="-45.508" y="215.11" width=".26458" height=".26458" opacity=".996"/>
<rect x="-45.244" y="214.58" width=".26458" height=".26458" opacity=".996"/>
<rect x="-45.508" y="214.58" width=".26458" height=".26458" opacity=".996"/>
<rect x="-45.773" y="214.58" width=".26458" height=".26458" opacity=".996"/>
<rect x="-46.037" y="214.58" width=".26458" height=".26458" opacity=".996"/>
</g>
</g>
<g transform="matrix(6.3562 0 0 6.3562 265.1 -1264)">
<g transform="translate(42.069 10.848)">
<rect x="-82.55" y="201.88" width=".26458" height=".26458" opacity=".996"/>
<rect x="-82.285" y="201.88" width=".26458" height=".26458" opacity=".996"/>
<rect x="-82.021" y="201.88" width=".26458" height=".26458" opacity=".996"/>
<rect x="-82.021" y="202.14" width=".26458" height=".26458" opacity=".996"/>
<rect x="-82.021" y="202.41" width=".26458" height=".26458" opacity=".996"/>
<rect x="-82.021" y="202.67" width=".26458" height=".26458" opacity=".996"/>
<rect x="-81.756" y="202.67" width=".26458" height=".26458" opacity=".996"/>
<rect x="-82.285" y="202.67" width=".26458" height=".26458" opacity=".996"/>
<rect x="-82.55" y="202.67" width=".26458" height=".26458" opacity=".996"/>
<rect x="-82.815" y="202.67" width=".26458" height=".26458" opacity=".996"/>
<rect x="-82.55" y="202.41" width=".26458" height=".26458" opacity=".996"/>
<rect x="-82.55" y="202.14" width=".26458" height=".26458" opacity=".996"/>
<rect x="-81.756" y="202.14" width=".26458" height=".26458" opacity=".996"/>
<rect x="-81.492" y="202.41" width=".26458" height=".26458" opacity=".996"/>
<rect x="-81.227" y="202.41" width=".26458" height=".26458" opacity=".996"/>
<rect x="-80.962" y="202.67" width=".26458" height=".26458" opacity=".996"/>
<rect x="-80.962" y="202.94" width=".26458" height=".26458" opacity=".996"/>
<rect x="-80.698" y="203.2" width=".26458" height=".26458" opacity=".996"/>
<rect x="-80.698" y="203.46" width=".26458" height=".26458" opacity=".996"/>
<rect x="-80.698" y="203.73" width=".26458" height=".26458" opacity=".996"/>
<rect x="-80.698" y="203.99" width=".26458" height=".26458" opacity=".996"/>
<rect x="-80.962" y="204.26" width=".26458" height=".26458" opacity=".996"/>
<rect x="-81.227" y="204.52" width=".26458" height=".26458" opacity=".996"/>
<rect x="-81.492" y="204.79" width=".26458" height=".26458" opacity=".996"/>
<rect x="-81.756" y="204.79" width=".26458" height=".26458" opacity=".996"/>
<rect x="-82.021" y="205.05" width=".26458" height=".26458" opacity=".996"/>
<rect x="-82.285" y="205.05" width=".26458" height=".26458" opacity=".996"/>
<rect x="-82.55" y="205.05" width=".26458" height=".26458" opacity=".996"/>
<rect x="-82.815" y="205.05" width=".26458" height=".26458" opacity=".996"/>
<rect x="-83.079" y="204.79" width=".26458" height=".26458" opacity=".996"/>
<rect x="-83.344" y="204.79" width=".26458" height=".26458" opacity=".996"/>
<rect x="-83.608" y="204.52" width=".26458" height=".26458" opacity=".996"/>
<rect x="-83.873" y="204.26" width=".26458" height=".26458" opacity=".996"/>
<rect x="-84.137" y="203.99" width=".26458" height=".26458" opacity=".996"/>
<rect x="-84.137" y="203.73" width=".26458" height=".26458" opacity=".996"/>
<rect x="-84.137" y="203.46" width=".26458" height=".26458" opacity=".996"/>
<rect x="-84.137" y="203.2" width=".26458" height=".26458" opacity=".996"/>
<rect x="-83.873" y="202.94" width=".26458" height=".26458" opacity=".996"/>
<rect x="-83.873" y="202.67" width=".26458" height=".26458" opacity=".996"/>
<rect x="-83.608" y="202.41" width=".26458" height=".26458" opacity=".996"/>
<rect x="-83.344" y="202.41" width=".26458" height=".26458" opacity=".996"/>
<rect x="-83.079" y="202.14" width=".26458" height=".26458" opacity=".996"/>
<rect x="-82.815" y="202.14" width=".26458" height=".26458" opacity=".996"/>
</g>
<g fill="#fda200">
<rect x="-41.01" y="215.11" width=".26458" height=".26458"/>
<rect x="-41.275" y="215.37" width=".26458" height=".26458"/>
<rect x="-41.01" y="215.37" width=".26458" height=".26458"/>
<rect x="-40.746" y="215.37" width=".26458" height=".26458"/>
<rect x="-40.746" y="215.64" width=".26458" height=".26458"/>
<rect x="-40.481" y="215.64" width=".26458" height=".26458"/>
<rect x="-40.217" y="215.64" width=".26458" height=".26458"/>
<rect x="-39.952" y="215.64" width=".26458" height=".26458"/>
<rect x="-39.952" y="215.37" width=".26458" height=".26458"/>
<rect x="-39.423" y="215.37" width=".26458" height=".26458"/>
<rect x="-39.158" y="215.11" width=".26458" height=".26458"/>
</g>
<g fill="#ff5700">
<rect x="-41.54" y="215.11" width=".26458" height=".26458"/>
<rect x="-41.275" y="215.11" width=".26458" height=".26458"/>
<rect x="-41.01" y="214.84" width=".26458" height=".26458"/>
<rect x="-40.746" y="215.11" width=".26458" height=".26458"/>
<rect x="-40.481" y="215.37" width=".26458" height=".26458"/>
<rect x="-40.217" y="215.37" width=".26458" height=".26458"/>
<rect x="-39.952" y="215.11" width=".26458" height=".26458"/>
<rect x="-39.688" y="215.37" width=".26458" height=".26458"/>
<rect x="-39.423" y="215.11" width=".26458" height=".26458"/>
<rect x="-39.158" y="214.84" width=".26458" height=".26458"/>
<rect x="-38.894" y="214.84" width=".26458" height=".26458"/>
<rect x="-39.423" y="214.31" width=".26458" height=".26458"/>
<rect x="-39.423" y="214.05" width=".26458" height=".26458"/>
<rect x="-39.688" y="213.78" width=".26458" height=".26458"/>
<rect x="-39.952" y="213.78" width=".26458" height=".26458"/>
<rect x="-39.688" y="214.05" width=".26458" height=".26458"/>
<rect x="-39.688" y="214.31" width=".26458" height=".26458"/>
<rect x="-39.688" y="214.58" width=".26458" height=".26458"/>
<rect x="-39.952" y="214.58" width=".26458" height=".26458"/>
<rect x="-39.952" y="214.31" width=".26458" height=".26458"/>
<rect x="-39.952" y="214.05" width=".26458" height=".26458"/>
<rect x="-40.217" y="214.05" width=".26458" height=".26458"/>
<rect x="-40.217" y="214.31" width=".26458" height=".26458"/>
<rect x="-41.54" y="213.52" width=".26458" height=".26458"/>
<rect x="-41.54" y="213.78" width=".26458" height=".26458"/>
<rect x="-41.54" y="214.05" width=".26458" height=".26458"/>
<rect x="-41.54" y="214.31" width=".26458" height=".26458"/>
<rect x="-41.804" y="214.31" width=".26458" height=".26458"/>
<rect x="-41.804" y="214.05" width=".26458" height=".26458"/>
<rect x="-41.275" y="214.05" width=".26458" height=".26458"/>
<rect x="-41.275" y="213.78" width=".26458" height=".26458"/>
</g>
<rect x="-41.01" y="213.52" width=".26458" height=".26458" fill="#ddebdd"/>
<g fill="#cf0000">
<rect x="-40.217" y="212.99" width=".26458" height=".26458"/>
<rect x="-40.217" y="213.25" width=".26458" height=".26458"/>
<rect x="-39.688" y="213.25" width=".26458" height=".26458"/>
<rect x="-40.746" y="213.25" width=".26458" height=".26458"/>
<rect x="-41.01" y="213.25" width=".26458" height=".26458"/>
<rect x="-41.275" y="213.52" width=".26458" height=".26458"/>
<rect x="-39.423" y="213.52" width=".26458" height=".26458"/>
<rect x="-39.158" y="213.52" width=".26458" height=".26458"/>
<rect x="-39.158" y="213.78" width=".26458" height=".26458"/>
<rect x="-39.423" y="213.78" width=".26458" height=".26458"/>
<rect x="-40.217" y="213.78" width=".26458" height=".26458"/>
<rect x="-40.481" y="213.78" width=".26458" height=".26458"/>
<rect x="-40.746" y="213.78" width=".26458" height=".26458"/>
<rect x="-41.01" y="213.78" width=".26458" height=".26458"/>
<rect x="-41.01" y="214.05" width=".26458" height=".26458"/>
<rect x="-40.746" y="214.05" width=".26458" height=".26458"/>
<rect x="-40.481" y="214.05" width=".26458" height=".26458"/>
<rect x="-39.158" y="214.05" width=".26458" height=".26458"/>
<rect x="-38.894" y="214.05" width=".26458" height=".26458"/>
<rect x="-38.894" y="214.31" width=".26458" height=".26458"/>
<rect x="-38.894" y="214.58" width=".26458" height=".26458"/>
<rect x="-39.158" y="214.58" width=".26458" height=".26458"/>
<rect x="-39.158" y="214.31" width=".26458" height=".26458"/>
<rect x="-39.423" y="214.58" width=".26458" height=".26458"/>
<rect x="-39.423" y="214.84" width=".26458" height=".26458"/>
<rect x="-39.688" y="215.11" width=".26458" height=".26458"/>
<rect x="-39.688" y="214.84" width=".26458" height=".26458"/>
<rect x="-39.952" y="214.84" width=".26458" height=".26458"/>
<rect x="-40.217" y="214.84" width=".26458" height=".26458"/>
<rect x="-40.217" y="215.11" width=".26458" height=".26458"/>
<rect x="-40.481" y="215.11" width=".26458" height=".26458"/>
<rect x="-40.481" y="214.84" width=".26458" height=".26458"/>
<rect x="-40.217" y="214.58" width=".26458" height=".26458"/>
<rect x="-40.481" y="214.58" width=".26458" height=".26458"/>
<rect x="-40.746" y="214.58" width=".26458" height=".26458"/>
<rect x="-41.01" y="214.58" width=".26458" height=".26458"/>
<rect x="-41.275" y="214.58" width=".26458" height=".26458"/>
<rect x="-41.54" y="214.58" width=".26458" height=".26458"/>
<rect x="-41.804" y="214.58" width=".26458" height=".26458"/>
<rect x="-41.804" y="214.84" width=".26458" height=".26458"/>
<rect x="-41.54" y="214.84" width=".26458" height=".26458"/>
<rect x="-41.275" y="214.84" width=".26458" height=".26458"/>
<rect x="-40.746" y="214.84" width=".26458" height=".26458"/>
<rect x="-40.481" y="214.31" width=".26458" height=".26458"/>
<rect x="-40.746" y="214.31" width=".26458" height=".26458"/>
<rect x="-41.01" y="214.31" width=".26458" height=".26458"/>
<rect x="-41.275" y="214.31" width=".26458" height=".26458"/>
</g>
<path transform="scale(.26458)" d="m-151.99 805.51v-0.46875h0.98214v0.9375h-0.98214z" fill="none"/>
</g>
<g transform="matrix(6.3562 0 0 6.3562 1113.3 -1183.3)">
<g transform="translate(-23.812 .26458)">
<rect x="-122.5" y="210.08" width=".26458" height=".26458"/>
<rect x="-122.5" y="209.81" width=".26458" height=".26458"/>
<rect x="-122.24" y="209.55" width=".26458" height=".26458"/>
<rect x="-122.24" y="209.29" width=".26458" height=".26458"/>
<rect x="-121.97" y="209.02" width=".26458" height=".26458"/>
<rect x="-121.71" y="209.02" width=".26458" height=".26458"/>
<rect x="-121.71" y="208.76" width=".26458" height=".26458"/>
<rect x="-121.71" y="208.49" width=".26458" height=".26458"/>
<rect x="-121.44" y="208.23" width=".26458" height=".26458"/>
<rect x="-121.44" y="207.96" width=".26458" height=".26458"/>
<rect x="-121.18" y="207.7" width=".26458" height=".26458"/>
<rect x="-120.91" y="207.7" width=".26458" height=".26458"/>
<rect x="-120.65" y="207.7" width=".26458" height=".26458"/>
<rect x="-120.39" y="207.43" width=".26458" height=".26458"/>
<rect x="-120.12" y="207.17" width=".26458" height=".26458"/>
<rect x="-119.86" y="206.9" width=".26458" height=".26458"/>
<rect x="-119.59" y="206.9" width=".26458" height=".26458"/>
<rect x="-119.33" y="206.64" width=".26458" height=".26458"/>
<rect x="-119.06" y="206.64" width=".26458" height=".26458"/>
<rect x="-118.8" y="206.64" width=".26458" height=".26458"/>
<rect x="-118.53" y="206.9" width=".26458" height=".26458"/>
<rect x="-118.27" y="206.9" width=".26458" height=".26458"/>
<rect x="-118" y="206.64" width=".26458" height=".26458"/>
<rect x="-117.74" y="206.38" width=".26458" height=".26458"/>
<rect x="-117.48" y="206.38" width=".26458" height=".26458"/>
<rect x="-117.21" y="206.11" width=".26458" height=".26458"/>
<rect x="-116.95" y="206.11" width=".26458" height=".26458"/>
<rect x="-116.68" y="206.38" width=".26458" height=".26458"/>
<rect x="-116.42" y="206.64" width=".26458" height=".26458"/>
<rect x="-116.42" y="206.9" width=".26458" height=".26458"/>
<rect x="-116.42" y="207.17" width=".26458" height=".26458"/>
<rect x="-116.42" y="207.43" width=".26458" height=".26458"/>
<rect x="-116.15" y="206.9" width=".26458" height=".26458"/>
<rect x="-115.89" y="206.64" width=".26458" height=".26458"/>
<rect x="-115.62" y="206.38" width=".26458" height=".26458"/>
<rect x="-115.36" y="206.38" width=".26458" height=".26458"/>
<rect x="-115.09" y="206.11" width=".26458" height=".26458"/>
<rect x="-114.83" y="206.11" width=".26458" height=".26458"/>
<rect x="-114.56" y="206.38" width=".26458" height=".26458"/>
<rect x="-114.3" y="206.64" width=".26458" height=".26458"/>
<rect x="-114.3" y="206.9" width=".26458" height=".26458"/>
<rect x="-114.3" y="207.17" width=".26458" height=".26458"/>
<rect x="-114.3" y="207.43" width=".26458" height=".26458"/>
<rect x="-114.04" y="206.9" width=".26458" height=".26458"/>
<rect x="-113.77" y="206.64" width=".26458" height=".26458"/>
<rect x="-113.51" y="206.38" width=".26458" height=".26458"/>
<rect x="-113.24" y="206.38" width=".26458" height=".26458"/>
<rect x="-112.98" y="206.11" width=".26458" height=".26458"/>
<rect x="-112.71" y="206.11" width=".26458" height=".26458"/>
<rect x="-112.45" y="206.38" width=".26458" height=".26458"/>
<rect x="-112.18" y="206.64" width=".26458" height=".26458"/>
<rect x="-112.18" y="206.9" width=".26458" height=".26458"/>
<rect x="-112.18" y="207.17" width=".26458" height=".26458"/>
<rect x="-112.18" y="207.43" width=".26458" height=".26458"/>
<rect x="-111.92" y="206.9" width=".26458" height=".26458"/>
<rect x="-111.65" y="206.64" width=".26458" height=".26458"/>
<rect x="-111.39" y="206.38" width=".26458" height=".26458"/>
<rect x="-111.12" y="206.38" width=".26458" height=".26458"/>
<rect x="-110.86" y="206.11" width=".26458" height=".26458"/>
<rect x="-110.6" y="206.11" width=".26458" height=".26458"/>
<rect x="-110.33" y="206.38" width=".26458" height=".26458"/>
<rect x="-110.07" y="206.64" width=".26458" height=".26458"/>
<rect x="-110.07" y="206.9" width=".26458" height=".26458"/>
<rect x="-110.07" y="207.17" width=".26458" height=".26458"/>
<rect x="-110.07" y="207.43" width=".26458" height=".26458"/>
<rect x="-109.8" y="206.9" width=".26458" height=".26458"/>
<rect x="-109.54" y="206.64" width=".26458" height=".26458"/>
<rect x="-109.27" y="206.38" width=".26458" height=".26458"/>
<rect x="-109.01" y="206.38" width=".26458" height=".26458"/>
<rect x="-108.74" y="206.11" width=".26458" height=".26458"/>
<rect x="-108.48" y="206.11" width=".26458" height=".26458"/>
<rect x="-108.21" y="206.38" width=".26458" height=".26458"/>
<rect x="-107.95" y="206.64" width=".26458" height=".26458"/>
<rect x="-107.95" y="206.9" width=".26458" height=".26458"/>
<rect x="-107.95" y="207.17" width=".26458" height=".26458"/>
<rect x="-107.95" y="207.43" width=".26458" height=".26458"/>
<rect x="-107.69" y="207.7" width=".26458" height=".26458"/>
<rect x="-107.42" y="207.7" width=".26458" height=".26458"/>
<rect x="-107.16" y="207.96" width=".26458" height=".26458"/>
<rect x="-106.89" y="208.23" width=".26458" height=".26458"/>
<rect x="-106.63" y="208.23" width=".26458" height=".26458"/>
<rect x="-106.36" y="208.23" width=".26458" height=".26458"/>
<rect x="-106.1" y="208.49" width=".26458" height=".26458"/>
<rect x="-106.1" y="208.76" width=".26458" height=".26458"/>
<rect x="-105.83" y="209.02" width=".26458" height=".26458"/>
<rect x="-105.83" y="209.29" width=".26458" height=".26458"/>
<rect x="-105.83" y="209.55" width=".26458" height=".26458"/>
<rect x="-106.1" y="209.81" width=".26458" height=".26458"/>
<rect x="-106.1" y="210.08" width=".26458" height=".26458"/>
<rect x="-122.5" y="210.34" width="16.669" height=".26458"/>
</g>
<path transform="scale(.26458)" d="m-551.92 795.02v-0.98214h0.98215v-1.9643h1.9643v-3.0357h0.98214v-1.9643h3.0357v-0.98214h0.98214v-1.0714h0.98214v-0.98214h2.0536v-0.98214h2.8571v0.98214h2.1429v-0.98214h0.98214v-0.98215h1.9643v-0.98214h1.9643v0.98214h0.98214v4.0179h1.0714v-2.0536h0.98214v-0.98214h1.0714v-0.98215h1.9643v-0.98214h1.875v0.98214h1.0714v4.0268l1.0268-0.0536 0.0504-2.009h0.9763v-0.98214h0.98214v-0.98215h2.0536v-0.98214h1.875v0.98214h0.97873l0.048 3.9732 1.0268 0.0536v-2.0625h1.0714v-0.98214h0.98215v-0.98215h1.9643v-0.98214h1.9643v0.98214h0.98214v4.0179h1.0714v-2.0536h0.98214v-0.98214h0.98214v-0.98215h2.0536v-0.98214h1.875v0.98214h0.97872l0.048 3.9732 1.0268 0.0536v0.97323h1.9643v0.98215h0.98215v0.98214h3.0357v2.0536h0.98214v2.8571h-0.98214v2.0536h-60.893z" fill="#00f800"/>
<g transform="translate(-24.077 .26459)">
<g fill="#e8f0f8">
<rect x="-119.86" y="208.23" width=".26458" height=".26458"/>
<rect x="-119.59" y="208.49" width=".26458" height=".26458"/>
<rect x="-119.86" y="208.49" width=".26458" height=".26458"/>
<rect x="-120.12" y="208.49" width=".26458" height=".26458"/>
<rect x="-119.86" y="208.76" width=".26458" height=".26458"/>
<rect x="-120.12" y="209.02" width=".26458" height=".26458"/>
<rect x="-120.39" y="208.76" width=".26458" height=".26458"/>
<rect x="-120.12" y="208.76" width=".26458" height=".26458"/>
</g>
<g fill="#b8a860">
<rect x="-115.09" y="207.7" width=".26458" height=".26458"/>
<rect x="-114.83" y="207.96" width=".26458" height=".26458"/>
<rect x="-115.09" y="207.96" width=".26458" height=".26458"/>
<rect x="-115.36" y="207.96" width=".26458" height=".26458"/>
<rect x="-115.09" y="208.23" width=".26458" height=".26458"/>
<rect x="-115.36" y="208.23" width=".26458" height=".26458"/>
<rect x="-115.62" y="208.23" width=".26458" height=".26458"/>
<rect x="-115.36" y="208.49" width=".26458" height=".26458"/>
<rect x="-110.86" y="207.7" width=".26458" height=".26458"/>
<rect x="-110.6" y="207.96" width=".26458" height=".26458"/>
<rect x="-110.86" y="207.96" width=".26458" height=".26458"/>
<rect x="-111.12" y="207.96" width=".26458" height=".26458"/>
<rect x="-110.86" y="208.23" width=".26458" height=".26458"/>
<rect x="-111.12" y="208.23" width=".26458" height=".26458"/>
<rect x="-111.39" y="208.23" width=".26458" height=".26458"/>
<rect x="-111.12" y="208.49" width=".26458" height=".26458"/>
<rect x="-108.48" y="209.29" width=".26458" height=".26458"/>
<rect x="-108.21" y="209.55" width=".26458" height=".26458"/>
<rect x="-108.48" y="209.55" width=".26458" height=".26458"/>
<rect x="-108.74" y="209.55" width=".26458" height=".26458"/>
<rect x="-108.48" y="209.81" width=".26458" height=".26458"/>
<rect x="-108.74" y="209.81" width=".26458" height=".26458"/>
<rect x="-108.74" y="210.08" width=".26458" height=".26458"/>
<rect x="-109.01" y="209.81" width=".26458" height=".26458"/>
</g>
</g>
</g>
</g>
</svg>
