<svg xmlns="http://www.w3.org/2000/svg" viewBox="0 0 255.58 219.35"><g transform="translate(-210.68 -25.684)"><path fill="#105070" d="M248.35 198.85h78.537v46.164H248.35z" opacity=".996"/><ellipse cx="287.62" cy="201.06" fill="#105070" opacity=".996" rx="39.269" ry="34.856"/><path fill="#4080a0" d="M248.35 198.85h74.272v46.164H248.35z" opacity=".996"/><ellipse cx="285.48" cy="201.06" fill="#4080a0" opacity=".996" rx="37.136" ry="34.856"/><g fill="#70b0d0" transform="matrix(.97478 0 0 .97264 -59.531 134.2)"><path d="M317.63 67.767h68.973v46.183H317.63z" opacity=".996"/><ellipse cx="352.12" cy="69.973" opacity=".996" rx="34.487" ry="34.856"/></g><ellipse cx="278.51" cy="217.5" fill="#c0e0e0" opacity=".996" rx="4.634" ry="7.476"/><ellipse cx="403.42" cy="192.32" fill="#c0e0e0" opacity=".996" rx="3.561" ry="5.745"/><g fill="#90c0c0"><path d="M398.99 109.16h67.28v135.78h-67.28z" opacity=".996"/><ellipse cx="432.63" cy="111.05" opacity=".996" rx="33.64" ry="29.86"/></g><g fill="#aad1d1"><path d="M400.04 109.16h63.615v135.81H400.04z" opacity=".996"/><ellipse cx="431.86" cy="111.05" opacity=".996" rx="31.813" ry="29.86"/></g><g fill="#c0e0e0"><path d="M400.94 110.41h58.354v134.56H400.94z" opacity=".996"/><ellipse cx="430.13" cy="112.27" opacity=".996" rx="29.183" ry="29.496"/></g><g fill="#e8f0f8" stroke-width=".265"><ellipse cx="441.38" cy="132.95" opacity=".996" rx="3.97" ry="6.404"/><ellipse cx="417.76" cy="157.77" opacity=".996" rx="3.97" ry="6.404"/><ellipse cx="440.22" cy="186.55" opacity=".996" rx="3.97" ry="6.404"/></g><g fill="#a8d0d0" transform="translate(425.75 -21.065)"><path d="M-26.767 130.23h37.35v14.691h-37.35z" opacity=".996"/><ellipse cx="-26.733" cy="-137.57" opacity=".996" rx="8.466" ry="7.328" transform="scale(1 -1)"/><ellipse cx="10.562" cy="-137.58" opacity=".996" rx="8.466" ry="7.345" transform="scale(1 -1)"/></g><g fill="#bcdddd" transform="matrix(.97813 0 0 .92086 424.98 -10.758)"><path d="M-26.767 130.23h37.35v14.691h-37.35z" opacity=".996"/><ellipse cx="-26.733" cy="-137.57" opacity=".996" rx="8.466" ry="7.328" transform="scale(1 -1)"/><ellipse cx="10.562" cy="-137.58" opacity=".996" rx="8.466" ry="7.345" transform="scale(1 -1)"/></g><g fill="#e8f0f8" transform="matrix(.9644 0 0 .87362 424.497 -4.607)"><path d="M-26.767 130.23h37.35v14.691h-37.35z" opacity=".996"/><ellipse cx="-26.733" cy="-137.57" opacity=".996" rx="8.466" ry="7.328" transform="scale(1 -1)"/><ellipse cx="10.562" cy="-137.58" opacity=".996" rx="8.466" ry="7.345" transform="scale(1 -1)"/></g><g fill="#105070" transform="translate(283.076 -90.733)"><path d="M51.405 144.39h67.28v102.05h-67.28z" opacity=".996"/><ellipse cx="85.045" cy="146.28" opacity=".996" rx="33.64" ry="29.86"/></g><g fill="#4080a0" transform="matrix(.94569 0 0 1 286.926 -90.733)"><path d="M51.405 144.39h67.28v102.05h-67.28z" opacity=".996"/><ellipse cx="85.045" cy="146.28" opacity=".996" rx="33.64" ry="29.86"/></g><g fill="#70b0d0" transform="matrix(.8675 0 0 .98779 291.846 -87.724)"><path d="M51.405 144.39h67.28v102.05h-67.28z" opacity=".996"/><ellipse cx="85.045" cy="146.28" opacity=".996" rx="33.64" ry="29.86"/></g><g fill="#c0e0e0" stroke-width=".265" transform="translate(36.736 -89.329)"><ellipse cx="340.14" cy="166.77" opacity=".996" rx="3.97" ry="6.404"/><ellipse cx="316.52" cy="191.6" opacity=".996" rx="3.97" ry="6.404"/><ellipse cx="338.98" cy="220.37" opacity=".996" rx="3.97" ry="6.404"/></g><g fill="#a8d0d0" transform="translate(264.14 -4.694)"><path d="M-26.767 130.23h37.35v14.691h-37.35z" opacity=".996"/><ellipse cx="-26.733" cy="-137.57" opacity=".996" rx="8.466" ry="7.328" transform="scale(1 -1)"/><ellipse cx="10.562" cy="-137.58" opacity=".996" rx="8.466" ry="7.345" transform="scale(1 -1)"/></g><g fill="#bcdddd" transform="matrix(.97813 0 0 .92086 263.37 5.613)"><path d="M-26.767 130.23h37.35v14.691h-37.35z" opacity=".996"/><ellipse cx="-26.733" cy="-137.57" opacity=".996" rx="8.466" ry="7.328" transform="scale(1 -1)"/><ellipse cx="10.562" cy="-137.58" opacity=".996" rx="8.466" ry="7.345" transform="scale(1 -1)"/></g><g fill="#e8f0f8" transform="matrix(.9644 0 0 .87362 262.887 11.764)"><path d="M-26.767 130.23h37.35v14.691h-37.35z" opacity=".996"/><ellipse cx="-26.733" cy="-137.57" opacity=".996" rx="8.466" ry="7.328" transform="scale(1 -1)"/><ellipse cx="10.562" cy="-137.58" opacity=".996" rx="8.466" ry="7.345" transform="scale(1 -1)"/></g><g fill="#a8d0d0" transform="translate(245.88 9.996)"><path d="M-26.767 130.23h37.35v14.691h-37.35z" opacity=".996"/><ellipse cx="-26.733" cy="-137.57" opacity=".996" rx="8.466" ry="7.328" transform="scale(1 -1)"/><ellipse cx="10.562" cy="-137.58" opacity=".996" rx="8.466" ry="7.345" transform="scale(1 -1)"/></g><g fill="#bcdddd" transform="matrix(.97813 0 0 .92086 245.11 20.303)"><path d="M-26.767 130.23h37.35v14.691h-37.35z" opacity=".996"/><ellipse cx="-26.733" cy="-137.57" opacity=".996" rx="8.466" ry="7.328" transform="scale(1 -1)"/><ellipse cx="10.562" cy="-137.58" opacity=".996" rx="8.466" ry="7.345" transform="scale(1 -1)"/></g><g fill="#e8f0f8" transform="matrix(.9644 0 0 .87362 244.627 26.454)"><path d="M-26.767 130.23h37.35v14.691h-37.35z" opacity=".996"/><ellipse cx="-26.733" cy="-137.57" opacity=".996" rx="8.466" ry="7.328" transform="scale(1 -1)"/><ellipse cx="10.562" cy="-137.58" opacity=".996" rx="8.466" ry="7.345" transform="scale(1 -1)"/></g><g fill="#105070" transform="translate(246.34 -1.404)"><path d="M51.405 144.39h67.28v102.05h-67.28z" opacity=".996"/><ellipse cx="85.045" cy="146.28" opacity=".996" rx="33.64" ry="29.86"/></g><g fill="#4080a0" transform="matrix(.94569 0 0 1 250.19 -1.404)"><path d="M51.405 144.39h67.28v102.05h-67.28z" opacity=".996"/><ellipse cx="85.045" cy="146.28" opacity=".996" rx="33.64" ry="29.86"/></g><g fill="#70b0d0" transform="matrix(.8675 0 0 .98779 255.11 1.605)"><path d="M51.405 144.39h67.28v102.05h-67.28z" opacity=".996"/><ellipse cx="85.045" cy="146.28" opacity=".996" rx="33.64" ry="29.86"/></g><g fill="#c0e0e0" stroke-width=".265"><ellipse cx="340.14" cy="166.77" opacity=".996" rx="3.97" ry="6.404"/><ellipse cx="316.52" cy="191.6" opacity=".996" rx="3.97" ry="6.404"/><ellipse cx="338.98" cy="220.37" opacity=".996" rx="3.97" ry="6.404"/></g><g fill="#105070" transform="translate(318.91 23.949) scale(.89712)"><path d="M51.405 144.39h67.28v102.05h-67.28z" opacity=".996"/><ellipse cx="85.045" cy="146.28" opacity=".996" rx="33.64" ry="29.86"/></g><g fill="#4080a0" transform="matrix(.8484 0 0 .89712 321.41 23.949)"><path d="M51.405 144.39h67.28v102.05h-67.28z" opacity=".996"/><ellipse cx="85.045" cy="146.28" opacity=".996" rx="33.64" ry="29.86"/></g><g fill="#70b0d0" transform="matrix(.77517 0 0 .88973 326.03 25.771)"><path d="M51.405 144.39h67.28v102.05h-67.28z" opacity=".996"/><ellipse cx="85.045" cy="146.28" opacity=".996" rx="33.64" ry="29.86"/></g><g fill="#c0e0e0" stroke-width=".238"><ellipse cx="382.96" cy="171.57" opacity=".996" rx="3.561" ry="5.745"/><ellipse cx="388.52" cy="220.72" opacity=".996" rx="3.561" ry="5.745"/><ellipse cx="400.12" cy="194.78" opacity=".996" rx="3.561" ry="5.745"/></g><circle cx="422.58" cy="54.429" r=".101" fill="#70b0d0" stroke="#000" stroke-width=".265"/></g></svg>