<?xml version="1.0" encoding="UTF-8"?>
<svg version="1.1" viewBox="0 0 255.58 219.35" xmlns="http://www.w3.org/2000/svg" xmlns:cc="http://creativecommons.org/ns#" xmlns:dc="http://purl.org/dc/elements/1.1/" xmlns:rdf="http://www.w3.org/1999/02/22-rdf-syntax-ns#">
 <metadata>
  <rdf:RDF>
   <cc:Work rdf:about="">
    <dc:format>image/svg+xml</dc:format>
    <dc:type rdf:resource="http://purl.org/dc/dcmitype/StillImage"/>
    <dc:title/>
   </cc:Work>
  </rdf:RDF>
 </metadata>
 <g transform="translate(-210.68 -25.684)">
  <g>
   <rect x="248.35" y="198.85" width="78.537" height="46.164" fill="#105070" opacity=".996" stroke-width=".19256"/>
   <ellipse cx="287.62" cy="201.06" rx="39.269" ry="34.856" fill="#105070" opacity=".996" stroke-width=".30762"/>
   <rect x="248.35" y="198.85" width="74.272" height="46.164" fill="#4080a0" opacity=".996" stroke-width=".18726"/>
   <ellipse cx="285.48" cy="201.06" rx="37.136" ry="34.856" fill="#4080a0" opacity=".996" stroke-width=".29915"/>
  </g>
  <g transform="matrix(.97478 0 0 .97264 -59.531 134.2)" fill="#70b0d0">
   <rect x="317.63" y="67.767" width="68.973" height="46.183" opacity=".996" stroke-width=".1805"/>
   <ellipse cx="352.12" cy="69.973" rx="34.487" ry="34.856" opacity=".996" stroke-width=".28828"/>
  </g>
  <ellipse cx="278.51" cy="217.5" rx="4.6339" ry="7.4756" fill="#c0e0e0" opacity=".996" stroke-width=".30934"/>
  <g>
   <ellipse cx="403.42" cy="192.32" rx="3.5613" ry="5.7452" fill="#c0e0e0" opacity=".996" stroke-width=".23774"/>
   <g fill="#90c0c0">
    <rect x="398.99" y="109.16" width="67.28" height="135.78" opacity=".996" stroke-width=".30566"/>
    <ellipse cx="432.63" cy="111.05" rx="33.64" ry="29.86" opacity=".996" stroke-width=".26352"/>
   </g>
   <g fill="#aad1d1">
    <rect x="400.04" y="109.16" width="63.615" height="135.81" opacity=".996" stroke-width=".29725"/>
    <ellipse cx="431.86" cy="111.05" rx="31.813" ry="29.86" opacity=".996" stroke-width=".25627"/>
   </g>
   <g fill="#c0e0e0">
    <rect x="400.94" y="110.41" width="58.354" height="134.56" opacity=".996" stroke-width=".28339"/>
    <ellipse cx="430.13" cy="112.27" rx="29.183" ry="29.496" opacity=".996" stroke-width=".24394"/>
   </g>
   <g fill="#e8f0f8" stroke-width=".265">
    <ellipse cx="441.38" cy="132.95" rx="3.9696" ry="6.4041" opacity=".996"/>
    <ellipse cx="417.76" cy="157.77" rx="3.9696" ry="6.4041" opacity=".996"/>
    <ellipse cx="440.22" cy="186.55" rx="3.9696" ry="6.4041" opacity=".996"/>
   </g>
  </g>
  <g transform="translate(425.75 -21.065)">
   <g fill="#a8d0d0">
    <rect x="-26.767" y="130.23" width="37.35" height="14.691" opacity=".996" stroke-width=".265"/>
    <ellipse transform="scale(1,-1)" cx="-26.733" cy="-137.57" rx="8.4659" ry="7.3283" opacity=".996" stroke-width=".26582"/>
    <ellipse transform="scale(1,-1)" cx="10.562" cy="-137.58" rx="8.4659" ry="7.3452" opacity=".996" stroke-width=".26612"/>
   </g>
   <g transform="matrix(.97813 0 0 .92086 -.76966 10.307)" fill="#bcdddd">
    <rect x="-26.767" y="130.23" width="37.35" height="14.691" opacity=".996" stroke-width=".265"/>
    <ellipse transform="scale(1,-1)" cx="-26.733" cy="-137.57" rx="8.4659" ry="7.3283" opacity=".996" stroke-width=".26582"/>
    <ellipse transform="scale(1,-1)" cx="10.562" cy="-137.58" rx="8.4659" ry="7.3452" opacity=".996" stroke-width=".26612"/>
   </g>
   <g transform="matrix(.9644 0 0 .87362 -1.2529 16.458)" fill="#e8f0f8">
    <rect x="-26.767" y="130.23" width="37.35" height="14.691" opacity=".996" stroke-width=".265"/>
    <ellipse transform="scale(1,-1)" cx="-26.733" cy="-137.57" rx="8.4659" ry="7.3283" opacity=".996" stroke-width=".26582"/>
    <ellipse transform="scale(1,-1)" cx="10.562" cy="-137.58" rx="8.4659" ry="7.3452" opacity=".996" stroke-width=".26612"/>
   </g>
  </g>
  <g transform="translate(36.736 -89.329)">
   <g transform="translate(246.34 -1.4036)" fill="#105070">
    <rect x="51.405" y="144.39" width="67.28" height="102.05" opacity=".996" stroke-width=".265"/>
    <ellipse cx="85.045" cy="146.28" rx="33.64" ry="29.86" opacity=".996" stroke-width=".26352"/>
   </g>
   <g transform="matrix(.94569 0 0 1 250.19 -1.4036)" fill="#4080a0">
    <rect x="51.405" y="144.39" width="67.28" height="102.05" opacity=".996" stroke-width=".265"/>
    <ellipse cx="85.045" cy="146.28" rx="33.64" ry="29.86" opacity=".996" stroke-width=".26352"/>
   </g>
   <g transform="matrix(.8675 0 0 .98779 255.11 1.605)" fill="#70b0d0">
    <rect x="51.405" y="144.39" width="67.28" height="102.05" opacity=".996" stroke-width=".265"/>
    <ellipse cx="85.045" cy="146.28" rx="33.64" ry="29.86" opacity=".996" stroke-width=".26352"/>
   </g>
   <g fill="#c0e0e0" stroke-width=".265">
    <ellipse cx="340.14" cy="166.77" rx="3.9696" ry="6.4041" opacity=".996"/>
    <ellipse cx="316.52" cy="191.6" rx="3.9696" ry="6.4041" opacity=".996"/>
    <ellipse cx="338.98" cy="220.37" rx="3.9696" ry="6.4041" opacity=".996"/>
   </g>
  </g>
  <g transform="translate(264.14 -4.6943)">
   <g fill="#a8d0d0">
    <rect x="-26.767" y="130.23" width="37.35" height="14.691" opacity=".996" stroke-width=".265"/>
    <ellipse transform="scale(1,-1)" cx="-26.733" cy="-137.57" rx="8.4659" ry="7.3283" opacity=".996" stroke-width=".26582"/>
    <ellipse transform="scale(1,-1)" cx="10.562" cy="-137.58" rx="8.4659" ry="7.3452" opacity=".996" stroke-width=".26612"/>
   </g>
   <g transform="matrix(.97813 0 0 .92086 -.76966 10.307)" fill="#bcdddd">
    <rect x="-26.767" y="130.23" width="37.35" height="14.691" opacity=".996" stroke-width=".265"/>
    <ellipse transform="scale(1,-1)" cx="-26.733" cy="-137.57" rx="8.4659" ry="7.3283" opacity=".996" stroke-width=".26582"/>
    <ellipse transform="scale(1,-1)" cx="10.562" cy="-137.58" rx="8.4659" ry="7.3452" opacity=".996" stroke-width=".26612"/>
   </g>
   <g transform="matrix(.9644 0 0 .87362 -1.2529 16.458)" fill="#e8f0f8">
    <rect x="-26.767" y="130.23" width="37.35" height="14.691" opacity=".996" stroke-width=".265"/>
    <ellipse transform="scale(1,-1)" cx="-26.733" cy="-137.57" rx="8.4659" ry="7.3283" opacity=".996" stroke-width=".26582"/>
    <ellipse transform="scale(1,-1)" cx="10.562" cy="-137.58" rx="8.4659" ry="7.3452" opacity=".996" stroke-width=".26612"/>
   </g>
  </g>
  <g transform="translate(245.88 9.9965)">
   <g fill="#a8d0d0">
    <rect x="-26.767" y="130.23" width="37.35" height="14.691" opacity=".996" stroke-width=".265"/>
    <ellipse transform="scale(1,-1)" cx="-26.733" cy="-137.57" rx="8.4659" ry="7.3283" opacity=".996" stroke-width=".26582"/>
    <ellipse transform="scale(1,-1)" cx="10.562" cy="-137.58" rx="8.4659" ry="7.3452" opacity=".996" stroke-width=".26612"/>
   </g>
   <g transform="matrix(.97813 0 0 .92086 -.76966 10.307)" fill="#bcdddd">
    <rect x="-26.767" y="130.23" width="37.35" height="14.691" opacity=".996" stroke-width=".265"/>
    <ellipse transform="scale(1,-1)" cx="-26.733" cy="-137.57" rx="8.4659" ry="7.3283" opacity=".996" stroke-width=".26582"/>
    <ellipse transform="scale(1,-1)" cx="10.562" cy="-137.58" rx="8.4659" ry="7.3452" opacity=".996" stroke-width=".26612"/>
   </g>
   <g transform="matrix(.9644 0 0 .87362 -1.2529 16.458)" fill="#e8f0f8">
    <rect x="-26.767" y="130.23" width="37.35" height="14.691" opacity=".996" stroke-width=".265"/>
    <ellipse transform="scale(1,-1)" cx="-26.733" cy="-137.57" rx="8.4659" ry="7.3283" opacity=".996" stroke-width=".26582"/>
    <ellipse transform="scale(1,-1)" cx="10.562" cy="-137.58" rx="8.4659" ry="7.3452" opacity=".996" stroke-width=".26612"/>
   </g>
  </g>
  <g>
   <g transform="translate(246.34 -1.4036)" fill="#105070">
    <rect x="51.405" y="144.39" width="67.28" height="102.05" opacity=".996" stroke-width=".265"/>
    <ellipse cx="85.045" cy="146.28" rx="33.64" ry="29.86" opacity=".996" stroke-width=".26352"/>
   </g>
   <g transform="matrix(.94569 0 0 1 250.19 -1.4036)" fill="#4080a0">
    <rect x="51.405" y="144.39" width="67.28" height="102.05" opacity=".996" stroke-width=".265"/>
    <ellipse cx="85.045" cy="146.28" rx="33.64" ry="29.86" opacity=".996" stroke-width=".26352"/>
   </g>
   <g transform="matrix(.8675 0 0 .98779 255.11 1.605)" fill="#70b0d0">
    <rect x="51.405" y="144.39" width="67.28" height="102.05" opacity=".996" stroke-width=".265"/>
    <ellipse cx="85.045" cy="146.28" rx="33.64" ry="29.86" opacity=".996" stroke-width=".26352"/>
   </g>
   <g fill="#c0e0e0" stroke-width=".265">
    <ellipse cx="340.14" cy="166.77" rx="3.9696" ry="6.4041" opacity=".996"/>
    <ellipse cx="316.52" cy="191.6" rx="3.9696" ry="6.4041" opacity=".996"/>
    <ellipse cx="338.98" cy="220.37" rx="3.9696" ry="6.4041" opacity=".996"/>
   </g>
  </g>
  <g>
   <g transform="matrix(.89712 0 0 .89712 318.91 23.949)" fill="#105070">
    <rect x="51.405" y="144.39" width="67.28" height="102.05" opacity=".996" stroke-width=".265"/>
    <ellipse cx="85.045" cy="146.28" rx="33.64" ry="29.86" opacity=".996" stroke-width=".26352"/>
   </g>
   <g transform="matrix(.8484 0 0 .89712 321.41 23.949)" fill="#4080a0">
    <rect x="51.405" y="144.39" width="67.28" height="102.05" opacity=".996" stroke-width=".265"/>
    <ellipse cx="85.045" cy="146.28" rx="33.64" ry="29.86" opacity=".996" stroke-width=".26352"/>
   </g>
   <g transform="matrix(.77517 0 0 .88973 326.03 25.771)" fill="#70b0d0">
    <rect x="51.405" y="144.39" width="67.28" height="102.05" opacity=".996" stroke-width=".265"/>
    <ellipse cx="85.045" cy="146.28" rx="33.64" ry="29.86" opacity=".996" stroke-width=".26352"/>
   </g>
  </g>
  <g fill="#c0e0e0" stroke-width=".23774">
   <ellipse cx="382.96" cy="171.57" rx="3.5613" ry="5.7452" opacity=".996"/>
   <ellipse cx="388.52" cy="220.72" rx="3.5613" ry="5.7452" opacity=".996"/>
   <ellipse cx="400.12" cy="194.78" rx="3.5613" ry="5.7452" opacity=".996"/>
  </g>
  <circle cx="422.58" cy="54.429" r=".10085" fill="#70b0d0" stroke="#000" stroke-width=".26458"/>
 </g>
</svg>
