<svg xmlns="http://www.w3.org/2000/svg" viewBox="0 0 228.46 98.811"><g fill="#b9e4fb"><path d="M51.02 0h128.613v98.815H51.021zM179.644 8.183h22.793v81.82h-22.793z"/><path d="M201.89 16.366h17.908v64.826H201.89z"/><path d="M218.795 32.1h9.682v33.357h-9.682zM27.144 8.183h24.42v81.82h-24.42z"/><path d="M9.781 15.736h17.366V82.45H9.781z"/><path d="M.016 32.729h9.769v32.728H.016z"/></g><g fill="#d1fdfd"><path d="M54.208 4.788h122.097v89.236H54.208zM176.316 12.176h21.638v73.89h-21.638z"/><path d="M197.434 19.566h17.001V78.11h-17z"/><path d="M213.483 33.775h9.192v30.124h-9.192zM31.54 12.176h23.185v73.89H31.54z"/><path d="M15.058 18.997h16.486v60.248H15.058z"/><path d="M5.787 34.343h9.274V63.9H5.787z"/></g><g fill="#eff7fd"><path d="M57.65 11.277h115.11v76.257H57.65zM172.76 17.592h20.4v63.143h-20.4z"/><path d="M192.68 23.906h16.028v50.028H192.68z"/><path d="M207.81 36.047h8.666V61.79h-8.666zM36.28 17.592h21.857v63.143H36.28z"/><path d="M20.74 23.42h15.543v51.485H20.74zM11.99 36.537h8.743v25.257H11.99z"/></g><g stroke-width="1.002"><path d="M76.824 23.342h7.382v24.94h-7.382zM106.344 23.342h7.382v24.94h-7.382z"/></g></svg>