<?xml version="1.0" encoding="UTF-8"?>
<svg version="1.1" viewBox="0 0 228.46 98.811" xmlns="http://www.w3.org/2000/svg" xmlns:cc="http://creativecommons.org/ns#" xmlns:dc="http://purl.org/dc/elements/1.1/" xmlns:rdf="http://www.w3.org/1999/02/22-rdf-syntax-ns#">
 <metadata>
  <rdf:RDF>
   <cc:Work rdf:about="">
    <dc:format>image/svg+xml</dc:format>
    <dc:type rdf:resource="http://purl.org/dc/dcmitype/StillImage"/>
    <dc:title/>
   </cc:Work>
  </rdf:RDF>
 </metadata>
 <g transform="translate(-164.46 -68.423)">
  <g transform="matrix(1.1173 0 0 1.2958 -30.895 48.913)" fill="#b9e4fb">
   <rect x="220.51" y="15.057" width="115.11" height="76.257" stroke-width="1.0016"/>
   <rect x="335.63" y="21.371" width="20.4" height="63.143" stroke-width="1.0137"/>
   <rect x="355.54" y="27.686" width="16.028" height="50.028" stroke-width=".94588"/>
   <rect x="370.67" y="39.828" width="8.6659" height="25.743" stroke-width=".94598"/>
   <rect x="199.14" y="21.371" width="21.857" height="63.143" stroke-width="1.0016"/>
   <rect x="183.6" y="27.2" width="15.543" height="51.485" stroke-width="1.0016"/>
   <rect x="174.86" y="40.314" width="8.7428" height="25.257" stroke-width=".86738"/>
  </g>
  <g transform="matrix(1.0607 0 0 1.1702 -15.227 55.591)" fill="#d1fdfd">
   <rect x="220.51" y="15.057" width="115.11" height="76.257" stroke-width="1.0016"/>
   <rect x="335.63" y="21.371" width="20.4" height="63.143" stroke-width="1.0137"/>
   <rect x="355.54" y="27.686" width="16.028" height="50.028" stroke-width=".94588"/>
   <rect x="370.67" y="39.828" width="8.6659" height="25.743" stroke-width=".94598"/>
   <rect x="199.14" y="21.371" width="21.857" height="63.143" stroke-width="1.0016"/>
   <rect x="183.6" y="27.2" width="15.543" height="51.485" stroke-width="1.0016"/>
   <rect x="174.86" y="40.314" width="8.7428" height="25.257" stroke-width=".86738"/>
  </g>
  <g fill="#eff7fd">
   <rect x="222.11" y="79.7" width="115.11" height="76.257" stroke-width="1.0016"/>
   <rect x="337.22" y="86.015" width="20.4" height="63.143" stroke-width="1.0137"/>
   <rect x="357.14" y="92.329" width="16.028" height="50.028" stroke-width=".94588"/>
   <rect x="372.27" y="104.47" width="8.6659" height="25.743" stroke-width=".94598"/>
   <rect x="200.74" y="86.015" width="21.857" height="63.143" stroke-width="1.0016"/>
   <rect x="185.2" y="91.843" width="15.543" height="51.485" stroke-width="1.0016"/>
   <rect x="176.45" y="104.96" width="8.7428" height="25.257" stroke-width=".86738"/>
  </g>
  <g transform="translate(.56432 64.332)" stroke-width="1.0016">
   <rect x="240.72" y="27.433" width="7.3821" height="24.94"/>
   <rect x="270.24" y="27.433" width="7.3821" height="24.94"/>
  </g>
 </g>
</svg>
