<svg xmlns="http://www.w3.org/2000/svg" xml:space="preserve" viewBox="0 0 46.567 24.871"><path fill="#2cee26" d="M7.409 1.06h15.875v6.879H7.409z"/><path fill="#da8c5b" d="M8.996 10.32h14.288v7.673H8.996z"/><path fill="#da8c5b" d="M14.288 17.99h8.996v3.704h-8.996z"/><path fill="#da8c5b" d="M19.315 21.69h1.852v1.058h-1.852z"/><path fill="#2cee26" d="M5.556 1.06h1.852v2.91H5.556zM3.175 1.85h2.381v3.175H3.175z"/><path fill="#2cee26" d="M1.059 2.91h3.307v2.91H1.059zM6.35 3.97h1.058v.794H6.35z"/><path fill="#000a0d" d="M5.556 0h17.727v1.058H5.556zM3.175.79h2.381v1.058H3.175zM2.117 1.85h1.058v1.058H2.117zM1.059 2.91h1.058v1.058H1.059zM0 3.97h1.058v4.763H0zM1.059 8.73h3.175v1.058H1.059zM3.175 7.14h1.058v1.587H3.175zM4.234 9.79h1.058v2.381H4.234zM5.292 12.17h2.646v1.058H5.292zM9.525 6.08h1.058v5.027H9.525zM7.938 13.23h1.058v2.91H7.938zM8.996 16.14h1.058v2.91H8.996zM9.525 19.05h2.91v1.058h-2.91zM12.436 17.99h1.058v2.91h-1.058zM13.494 20.9h2.91v.794h-2.91zM16.404 20.11h1.058v1.587h-1.058z"/><path fill="#000a0d" d="M17.198 21.69h1.058v1.058h-1.058zM22.225 21.69h1.058v1.058h-1.058zM21.167 22.75h1.058v1.058h-1.058zM18.256 22.75h1.058v1.058h-1.058zM19.315 23.81h1.852v1.058h-1.852zM12.436 10.58h1.058v1.058h-1.058z"/><path fill="#6f4326" d="M7.938 12.17h1.587v1.058H7.938zM9.525 11.11h1.058v1.058H9.525zM10.584 10.58h1.852v1.058h-1.852zM11.906 11.64h1.587v1.058h-1.587zM10.848 17.99h1.587v1.058h-1.587zM12.436 16.93h1.058v1.058h-1.058zM13.494 17.72h.794v3.175h-.794zM14.288 19.31h2.117v1.587h-2.117zM15.611 12.7h.794v2.646h-.794zM16.14 16.93h1.058v1.058H16.14zM19.05 16.14h1.058v1.058H19.05zM20.109 15.08h1.058v1.058h-1.058z"/><path fill="#6f4326" d="M16.404 12.17h1.058v1.058h-1.058z"/><path fill="#6f4326" d="M16.404 12.17h1.058v1.058h-1.058zM17.463 11.37h1.058v1.058h-1.058zM17.198 17.99h1.058v3.704h-1.058zM18.256 21.69h1.058v1.058h-1.058zM19.315 22.75h1.852v1.058h-1.852zM21.167 21.69h1.058v1.058h-1.058zM22.225 20.63h1.058v1.058h-1.058zM8.996 13.76h1.323v2.381H8.996z"/><path fill="#6f4326" d="M10.054 14.55h.794v4.498h-.794z"/><path fill="#000a0d" d="M13.494 9.52h1.058v1.058h-1.058zM13.494 11.64h1.058v1.058h-1.058zM14.552 12.7h1.058v1.058h-1.058zM16.404 8.73h1.058v3.44h-1.058z"/><path fill="#077629" d="M17.463 10.32h.529v1.058h-.529z"/><path fill="#077629" d="M17.463 9.26h1.587v1.191h-1.587zM18.521 8.2h1.587v1.058h-1.587zM21.167 7.93h1.058v3.44h-1.058zM22.225 10.32h1.058v2.117h-1.058z"/><path fill="#000a0d" d="M17.992 10.32h1.058v1.058h-1.058zM19.05 9.26h1.058v1.058H19.05zM20.109 7.93h1.058v3.175h-1.058zM21.167 11.37h1.058v1.058h-1.058zM22.225 12.43h1.058v1.058h-1.058z"/><path fill="#077629" d="M1.059 5.02h1.058v3.704H1.059zM2.117 7.93h1.058v.794H2.117zM5.292 10.58h4.233v1.587H5.292zM10.584 7.14h1.058v3.44h-1.058zM11.642 8.86h1.852v1.72h-1.852zM13.494 10.58h2.91v1.058h-2.91zM14.552 11.64h1.852v1.058h-1.852z"/><path fill="#1cb23a" d="M5.292 3.97H6.35v6.615H5.292zM6.35 4.76h1.058v5.821H6.35zM7.409 5.55h2.117v5.027H7.409z"/><path fill="#1cb23a" d="M9.525 5.02h1.058v1.058H9.525zM10.584 4.23h1.058v2.91h-1.058zM11.642 4.89H12.7v3.969h-1.058zM12.7 5.55h.794v3.307H12.7zM13.494 6.28h1.058v3.241h-1.058zM14.552 5.82h1.852v4.796h-1.852zM16.404 7.41h1.058v1.323h-1.058zM17.463 6.02h1.058v3.241h-1.058zM18.521 4.96h1.587v3.241h-1.587zM20.109 4.23h1.058v3.704h-1.058zM21.167 4.73h1.058v3.241h-1.058zM22.225 5.82h1.058v4.498h-1.058zM4.234 5.02h1.058v4.763H4.234zM3.175 5.82h1.058v1.323H3.175zM2.117 4.69h1.058v3.241H2.117z"/><path fill="#2cee26" d="M39.158 1.06H23.283v6.879h15.875z"/><path fill="#da8c5b" d="M37.571 10.32H23.283v7.673h14.288z"/><path fill="#da8c5b" d="M32.279 17.99h-8.996v3.704h8.996z"/><path fill="#da8c5b" d="M27.252 21.69H25.4v1.058h1.852z"/><path fill="#2cee26" d="M41.011 1.06h-1.852v2.91h1.852zM43.392 1.85h-2.381v3.175h2.381z"/><path fill="#2cee26" d="M45.508 2.91h-3.307v2.91h3.307zM40.217 3.97h-1.058v.794h1.058z"/><path fill="#000a0d" d="M41.011 0H23.284v1.058h17.727zM43.392.79h-2.381v1.058h2.381zM44.45 1.85h-1.058v1.058h1.058zM45.508 2.91H44.45v1.058h1.058zM46.567 3.97h-1.058v4.763h1.058zM45.508 8.73h-3.175v1.058h3.175zM43.392 7.14h-1.058v1.587h1.058zM42.333 9.79h-1.058v2.381h1.058zM41.275 12.17h-2.646v1.058h2.646zM37.042 6.08h-1.058v5.027h1.058zM38.629 13.23h-1.058v2.91h1.058zM37.571 16.14h-1.058v2.91h1.058zM37.042 19.05h-2.91v1.058h2.91zM34.131 17.99h-1.058v2.91h1.058zM33.073 20.9h-2.91v.794h2.91zM30.163 20.11h-1.058v1.587h1.058z"/><path fill="#000a0d" d="M29.369 21.69h-1.058v1.058h1.058zM24.342 21.69h-1.058v1.058h1.058zM25.4 22.75h-1.058v1.058H25.4zM28.311 22.75h-1.058v1.058h1.058zM27.252 23.81H25.4v1.058h1.852zM34.131 10.58h-1.058v1.058h1.058z"/><path fill="#6f4326" d="M38.629 12.17h-1.587v1.058h1.587zM37.042 11.11h-1.058v1.058h1.058zM35.983 10.58h-1.852v1.058h1.852zM34.661 11.64h-1.587v1.058h1.587zM35.719 17.99h-1.587v1.058h1.587zM34.131 16.93h-1.058v1.058h1.058zM33.073 17.72h-.794v3.175h.794zM32.279 19.31h-2.117v1.587h2.117zM30.956 12.7h-.794v2.646h.794zM30.427 16.93h-1.058v1.058h1.058zM27.517 16.14h-1.058v1.058h1.058zM26.458 15.08H25.4v1.058h1.058z"/><path fill="#6f4326" d="M30.163 12.17h-1.058v1.058h1.058z"/><path fill="#6f4326" d="M30.163 12.17h-1.058v1.058h1.058zM29.104 11.37h-1.058v1.058h1.058zM29.369 17.99h-1.058v3.704h1.058zM28.311 21.69h-1.058v1.058h1.058zM27.252 22.75H25.4v1.058h1.852zM25.4 21.69h-1.058v1.058H25.4zM24.342 20.63h-1.058v1.058h1.058zM37.571 13.76h-1.323v2.381h1.323z"/><path fill="#6f4326" d="M36.513 14.55h-.794v4.498h.794z"/><path fill="#000a0d" d="M33.073 9.52h-1.058v1.058h1.058zM33.073 11.64h-1.058v1.058h1.058zM32.015 12.7h-1.058v1.058h1.058zM30.163 8.73h-1.058v3.44h1.058z"/><path fill="#077629" d="M29.104 10.32h-.529v1.058h.529z"/><path fill="#077629" d="M29.104 9.26h-1.587v1.191h1.587zM28.046 8.2h-1.587v1.058h1.587zM25.4 7.93h-1.058v3.44H25.4zM24.342 10.32h-1.058v2.117h1.058z"/><path fill="#000a0d" d="M28.575 10.32h-1.058v1.058h1.058zM27.517 9.26h-1.058v1.058h1.058zM26.458 7.14H25.4v3.969h1.058zM25.4 11.37h-1.058v1.058H25.4zM24.342 12.43h-1.058v1.058h1.058z"/><path fill="#077629" d="M45.508 5.02H44.45v3.704h1.058zM44.45 7.93h-1.058v.794h1.058zM41.275 10.58h-4.233v1.587h4.233zM35.983 7.14h-1.058v3.44h1.058zM34.925 8.86h-1.852v1.72h1.852zM33.073 10.58h-2.91v1.058h2.91zM32.015 11.64h-1.852v1.058h1.852z"/><path fill="#1cb23a" d="M41.275 3.97h-1.058v6.615h1.058zM40.217 4.76h-1.058v5.821h1.058zM39.158 5.55h-2.117v5.027h2.117z"/><path fill="#1cb23a" d="M37.042 5.02h-1.058v1.058h1.058zM35.983 4.23h-1.058v2.91h1.058zM34.925 4.89h-1.058v3.969h1.058zM33.867 5.55h-.794v3.307h.794zM33.073 6.28h-1.058v3.241h1.058zM32.015 5.82h-1.852v4.796h1.852zM30.163 7.41h-1.058v1.323h1.058zM29.104 6.02h-1.058v3.241h1.058zM28.046 4.96h-1.587v3.241h1.587zM26.458 4.23H25.4v2.91h1.058zM25.4 4.73h-1.058v3.241H25.4zM24.342 5.82h-1.058v4.498h1.058zM42.333 5.02h-1.058v4.763h1.058zM43.392 5.82h-1.058v1.323h1.058zM44.45 4.69h-1.058v3.241h1.058z"/></svg>