<?xml version="1.0" encoding="UTF-8"?>
<svg version="1.1" viewBox="0 0 46.567 24.871" xml:space="preserve" xmlns="http://www.w3.org/2000/svg"><g transform="translate(-32.279 -157.43)"><rect x="39.688" y="158.49" width="15.875" height="6.8792" fill="#2cee26" stroke-width=".8821"/><rect x="41.275" y="167.75" width="14.288" height="7.6729" fill="#da8c5b" stroke-width=".8838"/><rect x="46.567" y="175.42" width="8.9958" height="3.7042" fill="#da8c5b" stroke-width=".48726"/><rect x="51.594" y="179.12" width="1.8521" height="1.0583" fill="#da8c5b" stroke-width=".11818"/><rect x="37.835" y="158.49" width="1.8521" height="2.9104" fill="#2cee26" stroke-width=".19598"/><rect x="35.454" y="159.28" width="2.3812" height="3.175" fill="#2cee26" stroke-width=".2321"/><rect x="33.338" y="160.34" width="3.3073" height="2.9104" fill="#2cee26" stroke-width=".26188"/><rect x="38.629" y="161.4" width="1.0583" height=".79375" fill="#2cee26" stroke-width=".077365"/><rect x="37.835" y="157.43" width="17.727" height="1.0583" fill="#000a0d" stroke-width=".27421"/><rect x="35.454" y="158.22" width="2.3812" height="1.0583" fill="#000a0d" stroke-width=".1005"/><rect x="34.396" y="159.28" width="1.0583" height="1.0583" fill="#000a0d" stroke-width=".067"/><rect x="33.338" y="160.34" width="1.0583" height="1.0583" fill="#000a0d" stroke-width=".067"/><rect x="32.279" y="161.4" width="1.0583" height="4.7625" fill="#000a0d" stroke-width=".14213"/><rect x="33.338" y="166.16" width="3.175" height="1.0583" fill="#000a0d" stroke-width=".11605"/><rect x="35.454" y="164.57" width="1.0583" height="1.5875" fill="#000a0d" stroke-width=".082058"/><rect x="36.513" y="167.22" width="1.0583" height="2.3812" fill="#000a0d" stroke-width=".1005"/><rect x="37.571" y="169.6" width="2.6458" height="1.0583" fill="#000a0d" stroke-width=".10594"/><rect x="41.804" y="163.51" width="1.0583" height="5.0271" fill="#000a0d" stroke-width=".14602"/><rect x="40.217" y="170.66" width="1.0583" height="2.9104" fill="#000a0d" stroke-width=".11111"/><rect x="41.275" y="173.57" width="1.0583" height="2.9104" fill="#000a0d" stroke-width=".11111"/><rect x="41.804" y="176.48" width="2.9104" height="1.0583" fill="#000a0d" stroke-width=".11111"/><rect x="44.715" y="175.42" width="1.0583" height="2.9104" fill="#000a0d" stroke-width=".11111"/><rect x="45.773" y="178.33" width="2.9104" height=".79375" fill="#000a0d" stroke-width=".096222"/><rect x="48.683" y="177.54" width="1.0583" height="1.5875" fill="#000a0d" stroke-width=".082058"/><rect x="49.477" y="179.12" width="1.0583" height="1.0583" fill="#000a0d" stroke-width=".067"/><rect x="54.504" y="179.12" width="1.0583" height="1.0583" fill="#000a0d" stroke-width=".067"/><rect x="53.446" y="180.18" width="1.0583" height="1.0583" fill="#000a0d" stroke-width=".067"/><rect x="50.535" y="180.18" width="1.0583" height="1.0583" fill="#000a0d" stroke-width=".067"/><rect x="51.594" y="181.24" width="1.8521" height="1.0583" fill="#000a0d" stroke-width=".088633"/><rect x="44.715" y="168.01" width="1.0583" height="1.0583" fill="#000a0d" stroke-width=".067"/><rect x="40.217" y="169.6" width="1.5875" height="1.0583" fill="#6f4326" stroke-width=".082058"/><rect x="41.804" y="168.54" width="1.0583" height="1.0583" fill="#6f4326" stroke-width=".067"/><rect x="42.863" y="168.01" width="1.8521" height="1.0583" fill="#6f4326" stroke-width=".088632"/><rect x="44.185" y="169.07" width="1.5875" height="1.0583" fill="#6f4326" stroke-width=".082058"/><rect x="43.127" y="175.42" width="1.5875" height="1.0583" fill="#6f4326" stroke-width=".082058"/><rect x="44.715" y="174.36" width="1.0583" height="1.0583" fill="#6f4326" stroke-width=".067"/><rect x="45.773" y="175.15" width=".79375" height="3.175" fill="#6f4326" stroke-width=".1005"/><rect x="46.567" y="176.74" width="2.1167" height="1.5875" fill="#6f4326" stroke-width=".11605"/><rect x="47.89" y="170.13" width=".79375" height="2.6458" fill="#6f4326" stroke-width=".091744"/><rect x="48.419" y="174.36" width="1.0583" height="1.0583" fill="#6f4326" stroke-width=".067"/><rect x="51.329" y="173.57" width="1.0583" height="1.0583" fill="#6f4326" stroke-width=".067"/><rect x="52.388" y="172.51" width="1.0583" height="1.0583" fill="#6f4326" stroke-width=".067"/><rect x="48.683" y="169.6" width="1.0583" height="1.0583" fill="#6f4326" stroke-width=".067"/><rect x="48.683" y="169.6" width="1.0583" height="1.0583" fill="#6f4326" stroke-width=".067"/><rect x="49.742" y="168.8" width="1.0583" height="1.0583" fill="#6f4326" stroke-width=".067"/><rect x="49.477" y="175.42" width="1.0583" height="3.7042" fill="#6f4326" stroke-width=".12534"/><rect x="50.535" y="179.12" width="1.0583" height="1.0583" fill="#6f4326" stroke-width=".067"/><rect x="51.594" y="180.18" width="1.8521" height="1.0583" fill="#6f4326" stroke-width=".088632"/><rect x="53.446" y="179.12" width="1.0583" height="1.0583" fill="#6f4326" stroke-width=".067"/><rect x="54.504" y="178.06" width="1.0583" height="1.0583" fill="#6f4326" stroke-width=".067"/><rect x="41.275" y="171.19" width="1.3229" height="2.3813" fill="#6f4326" stroke-width=".11236"/><rect x="42.333" y="171.98" width=".79375" height="4.4979" fill="#6f4326" stroke-width=".11962"/><rect x="45.773" y="166.95" width="1.0583" height="1.0583" fill="#000a0d" stroke-width=".067"/><rect x="45.773" y="169.07" width="1.0583" height="1.0583" fill="#000a0d" stroke-width=".067"/><rect x="46.831" y="170.13" width="1.0583" height="1.0583" fill="#000a0d" stroke-width=".067"/><rect x="48.683" y="166.16" width="1.0583" height="3.4396" fill="#000a0d" stroke-width=".12079"/><rect x="49.742" y="167.75" width=".52917" height="1.0583" fill="#077629" stroke-width=".047376"/><rect x="49.742" y="166.69" width="1.5875" height="1.1906" fill="#077629" stroke-width=".087036"/><rect x="50.8" y="165.63" width="1.5875" height="1.0583" fill="#077629" stroke-width=".082057"/><rect x="53.446" y="165.36" width="1.0583" height="3.4396" fill="#077629" stroke-width=".12078"/><rect x="54.504" y="167.75" width="1.0583" height="2.1166" fill="#077629" stroke-width=".094752"/><rect x="50.271" y="167.75" width="1.0583" height="1.0583" fill="#000a0d" stroke-width=".067"/><rect x="51.329" y="166.69" width="1.0583" height="1.0583" fill="#000a0d" stroke-width=".067"/><rect x="52.388" y="165.36" width="1.0583" height="3.175" fill="#000a0d" stroke-width=".11605"/><rect x="53.446" y="168.8" width="1.0583" height="1.0583" fill="#000a0d" stroke-width=".067"/><rect x="54.504" y="169.86" width="1.0583" height="1.0583" fill="#000a0d" stroke-width=".067"/><rect x="33.338" y="162.45" width="1.0583" height="3.7042" fill="#077629" stroke-width=".12534"/><rect x="34.396" y="165.36" width="1.0583" height=".79375" fill="#077629" stroke-width=".058024"/><rect x="37.571" y="168.01" width="4.2333" height="1.5875" fill="#077629" stroke-width=".16412"/><rect x="42.863" y="164.57" width="1.0583" height="3.4396" fill="#077629" stroke-width=".12079"/><rect x="43.921" y="166.29" width="1.8521" height="1.7198" fill="#077629" stroke-width=".11298"/><rect x="45.773" y="168.01" width="2.9104" height="1.0583" fill="#077629" stroke-width=".11111"/><rect x="46.831" y="169.07" width="1.8521" height="1.0584" fill="#077629" stroke-width=".088633"/><rect x="37.571" y="161.4" width="1.0583" height="6.6146" fill="#1cb23a" stroke-width=".22333"/><rect x="38.629" y="162.19" width="1.0583" height="5.8208" fill="#1cb23a" stroke-width=".2095"/><rect x="39.688" y="162.98" width="2.1167" height="5.0271" fill="#1cb23a" stroke-width=".27534"/><rect x="41.804" y="162.45" width="1.0583" height="1.0583" fill="#1cb23a" stroke-width=".089334"/><rect x="42.863" y="161.66" width="1.0583" height="2.9104" fill="#1cb23a" stroke-width=".14814"/><rect x="43.921" y="162.32" width="1.0583" height="3.9688" fill="#1cb23a" stroke-width=".17299"/><rect x="44.979" y="162.98" width=".79375" height="3.3073" fill="#1cb23a" stroke-width=".13676"/><rect x="45.773" y="163.71" width="1.0583" height="3.2411" fill="#1cb23a" stroke-width=".15633"/><rect x="46.831" y="163.25" width="1.8521" height="4.7956" fill="#1cb23a" stroke-width=".25156"/><rect x="48.683" y="164.84" width="1.0583" height="1.3229" fill="#1cb23a" stroke-width=".099878"/><rect x="49.742" y="163.45" width="1.0583" height="3.2411" fill="#1cb23a" stroke-width=".15633"/><rect x="50.8" y="162.39" width="1.5875" height="3.2411" fill="#1cb23a" stroke-width=".19147"/><rect x="52.388" y="161.66" width="1.0583" height="3.7041" fill="#1cb23a" stroke-width=".16713"/><rect x="53.446" y="162.16" width="1.0583" height="3.2411" fill="#1cb23a" stroke-width=".15633"/><rect x="54.504" y="163.25" width="1.0583" height="4.4979" fill="#1cb23a" stroke-width=".18417"/><rect x="36.513" y="162.45" width="1.0583" height="4.7625" fill="#1cb23a" stroke-width=".1895"/><rect x="35.454" y="163.25" width="1.0583" height="1.3229" fill="#1cb23a" stroke-width=".099878"/><rect x="34.396" y="162.12" width="1.0583" height="3.2411" fill="#1cb23a" stroke-width=".15633"/><rect transform="scale(-1,1)" x="-71.437" y="158.49" width="15.875" height="6.8792" fill="#2cee26" stroke-width=".8821"/><rect transform="scale(-1,1)" x="-69.85" y="167.75" width="14.288" height="7.6729" fill="#da8c5b" stroke-width=".8838"/><rect transform="scale(-1,1)" x="-64.558" y="175.42" width="8.9958" height="3.7042" fill="#da8c5b" stroke-width=".48726"/><rect transform="scale(-1,1)" x="-59.531" y="179.12" width="1.8521" height="1.0583" fill="#da8c5b" stroke-width=".11818"/><rect transform="scale(-1,1)" x="-73.29" y="158.49" width="1.8521" height="2.9104" fill="#2cee26" stroke-width=".19598"/><rect transform="scale(-1,1)" x="-75.671" y="159.28" width="2.3812" height="3.175" fill="#2cee26" stroke-width=".2321"/><rect transform="scale(-1,1)" x="-77.787" y="160.34" width="3.3073" height="2.9104" fill="#2cee26" stroke-width=".26188"/><rect transform="scale(-1,1)" x="-72.496" y="161.4" width="1.0583" height=".79375" fill="#2cee26" stroke-width=".077365"/><rect transform="scale(-1,1)" x="-73.29" y="157.43" width="17.727" height="1.0583" fill="#000a0d" stroke-width=".27421"/><rect transform="scale(-1,1)" x="-75.671" y="158.22" width="2.3812" height="1.0583" fill="#000a0d" stroke-width=".1005"/><rect transform="scale(-1,1)" x="-76.729" y="159.28" width="1.0583" height="1.0583" fill="#000a0d" stroke-width=".067"/><rect transform="scale(-1,1)" x="-77.787" y="160.34" width="1.0583" height="1.0583" fill="#000a0d" stroke-width=".067"/><rect transform="scale(-1,1)" x="-78.846" y="161.4" width="1.0583" height="4.7625" fill="#000a0d" stroke-width=".14213"/><rect transform="scale(-1,1)" x="-77.787" y="166.16" width="3.175" height="1.0583" fill="#000a0d" stroke-width=".11605"/><rect transform="scale(-1,1)" x="-75.671" y="164.57" width="1.0583" height="1.5875" fill="#000a0d" stroke-width=".082058"/><rect transform="scale(-1,1)" x="-74.612" y="167.22" width="1.0583" height="2.3812" fill="#000a0d" stroke-width=".1005"/><rect transform="scale(-1,1)" x="-73.554" y="169.6" width="2.6458" height="1.0583" fill="#000a0d" stroke-width=".10594"/><rect transform="scale(-1,1)" x="-69.321" y="163.51" width="1.0583" height="5.0271" fill="#000a0d" stroke-width=".14602"/><rect transform="scale(-1,1)" x="-70.908" y="170.66" width="1.0583" height="2.9104" fill="#000a0d" stroke-width=".11111"/><rect transform="scale(-1,1)" x="-69.85" y="173.57" width="1.0583" height="2.9104" fill="#000a0d" stroke-width=".11111"/><rect transform="scale(-1,1)" x="-69.321" y="176.48" width="2.9104" height="1.0583" fill="#000a0d" stroke-width=".11111"/><rect transform="scale(-1,1)" x="-66.41" y="175.42" width="1.0583" height="2.9104" fill="#000a0d" stroke-width=".11111"/><rect transform="scale(-1,1)" x="-65.352" y="178.33" width="2.9104" height=".79375" fill="#000a0d" stroke-width=".096222"/><rect transform="scale(-1,1)" x="-62.442" y="177.54" width="1.0583" height="1.5875" fill="#000a0d" stroke-width=".082058"/><rect transform="scale(-1,1)" x="-61.648" y="179.12" width="1.0583" height="1.0583" fill="#000a0d" stroke-width=".067"/><rect transform="scale(-1,1)" x="-56.621" y="179.12" width="1.0583" height="1.0583" fill="#000a0d" stroke-width=".067"/><rect transform="scale(-1,1)" x="-57.679" y="180.18" width="1.0583" height="1.0583" fill="#000a0d" stroke-width=".067"/><rect transform="scale(-1,1)" x="-60.59" y="180.18" width="1.0583" height="1.0583" fill="#000a0d" stroke-width=".067"/><rect transform="scale(-1,1)" x="-59.531" y="181.24" width="1.8521" height="1.0583" fill="#000a0d" stroke-width=".088633"/><rect transform="scale(-1,1)" x="-66.41" y="168.01" width="1.0583" height="1.0583" fill="#000a0d" stroke-width=".067"/><rect transform="scale(-1,1)" x="-70.908" y="169.6" width="1.5875" height="1.0583" fill="#6f4326" stroke-width=".082058"/><rect transform="scale(-1,1)" x="-69.321" y="168.54" width="1.0583" height="1.0583" fill="#6f4326" stroke-width=".067"/><rect transform="scale(-1,1)" x="-68.262" y="168.01" width="1.8521" height="1.0583" fill="#6f4326" stroke-width=".088632"/><rect transform="scale(-1,1)" x="-66.94" y="169.07" width="1.5875" height="1.0583" fill="#6f4326" stroke-width=".082058"/><rect transform="scale(-1,1)" x="-67.998" y="175.42" width="1.5875" height="1.0583" fill="#6f4326" stroke-width=".082058"/><rect transform="scale(-1,1)" x="-66.41" y="174.36" width="1.0583" height="1.0583" fill="#6f4326" stroke-width=".067"/><rect transform="scale(-1,1)" x="-65.352" y="175.15" width=".79375" height="3.175" fill="#6f4326" stroke-width=".1005"/><rect transform="scale(-1,1)" x="-64.558" y="176.74" width="2.1167" height="1.5875" fill="#6f4326" stroke-width=".11605"/><rect transform="scale(-1,1)" x="-63.235" y="170.13" width=".79375" height="2.6458" fill="#6f4326" stroke-width=".091744"/><rect transform="scale(-1,1)" x="-62.706" y="174.36" width="1.0583" height="1.0583" fill="#6f4326" stroke-width=".067"/><rect transform="scale(-1,1)" x="-59.796" y="173.57" width="1.0583" height="1.0583" fill="#6f4326" stroke-width=".067"/><rect transform="scale(-1,1)" x="-58.737" y="172.51" width="1.0583" height="1.0583" fill="#6f4326" stroke-width=".067"/><rect transform="scale(-1,1)" x="-62.442" y="169.6" width="1.0583" height="1.0583" fill="#6f4326" stroke-width=".067"/><rect transform="scale(-1,1)" x="-62.442" y="169.6" width="1.0583" height="1.0583" fill="#6f4326" stroke-width=".067"/><rect transform="scale(-1,1)" x="-61.383" y="168.8" width="1.0583" height="1.0583" fill="#6f4326" stroke-width=".067"/><rect transform="scale(-1,1)" x="-61.648" y="175.42" width="1.0583" height="3.7042" fill="#6f4326" stroke-width=".12534"/><rect transform="scale(-1,1)" x="-60.59" y="179.12" width="1.0583" height="1.0583" fill="#6f4326" stroke-width=".067"/><rect transform="scale(-1,1)" x="-59.531" y="180.18" width="1.8521" height="1.0583" fill="#6f4326" stroke-width=".088632"/><rect transform="scale(-1,1)" x="-57.679" y="179.12" width="1.0583" height="1.0583" fill="#6f4326" stroke-width=".067"/><rect transform="scale(-1,1)" x="-56.621" y="178.06" width="1.0583" height="1.0583" fill="#6f4326" stroke-width=".067"/><rect transform="scale(-1,1)" x="-69.85" y="171.19" width="1.3229" height="2.3813" fill="#6f4326" stroke-width=".11236"/><rect transform="scale(-1,1)" x="-68.792" y="171.98" width=".79375" height="4.4979" fill="#6f4326" stroke-width=".11962"/><rect transform="scale(-1,1)" x="-65.352" y="166.95" width="1.0583" height="1.0583" fill="#000a0d" stroke-width=".067"/><rect transform="scale(-1,1)" x="-65.352" y="169.07" width="1.0583" height="1.0583" fill="#000a0d" stroke-width=".067"/><rect transform="scale(-1,1)" x="-64.294" y="170.13" width="1.0583" height="1.0583" fill="#000a0d" stroke-width=".067"/><rect transform="scale(-1,1)" x="-62.442" y="166.16" width="1.0583" height="3.4396" fill="#000a0d" stroke-width=".12079"/><rect transform="scale(-1,1)" x="-61.383" y="167.75" width=".52917" height="1.0583" fill="#077629" stroke-width=".047376"/><rect transform="scale(-1,1)" x="-61.383" y="166.69" width="1.5875" height="1.1906" fill="#077629" stroke-width=".087036"/><rect transform="scale(-1,1)" x="-60.325" y="165.63" width="1.5875" height="1.0583" fill="#077629" stroke-width=".082057"/><rect transform="scale(-1,1)" x="-57.679" y="165.36" width="1.0583" height="3.4396" fill="#077629" stroke-width=".12078"/><rect transform="scale(-1,1)" x="-56.621" y="167.75" width="1.0583" height="2.1166" fill="#077629" stroke-width=".094752"/><rect transform="scale(-1,1)" x="-60.854" y="167.75" width="1.0583" height="1.0583" fill="#000a0d" stroke-width=".067"/><rect transform="scale(-1,1)" x="-59.796" y="166.69" width="1.0583" height="1.0583" fill="#000a0d" stroke-width=".067"/><rect transform="scale(-1,1)" x="-58.737" y="164.57" width="1.0583" height="3.9688" fill="#000a0d" stroke-width=".12974"/><rect transform="scale(-1,1)" x="-57.679" y="168.8" width="1.0583" height="1.0583" fill="#000a0d" stroke-width=".067"/><rect transform="scale(-1,1)" x="-56.621" y="169.86" width="1.0583" height="1.0583" fill="#000a0d" stroke-width=".067"/><rect transform="scale(-1,1)" x="-77.787" y="162.45" width="1.0583" height="3.7042" fill="#077629" stroke-width=".12534"/><rect transform="scale(-1,1)" x="-76.729" y="165.36" width="1.0583" height=".79375" fill="#077629" stroke-width=".058024"/><rect transform="scale(-1,1)" x="-73.554" y="168.01" width="4.2333" height="1.5875" fill="#077629" stroke-width=".16412"/><rect transform="scale(-1,1)" x="-68.262" y="164.57" width="1.0583" height="3.4396" fill="#077629" stroke-width=".12079"/><rect transform="scale(-1,1)" x="-67.204" y="166.29" width="1.8521" height="1.7198" fill="#077629" stroke-width=".11298"/><rect transform="scale(-1,1)" x="-65.352" y="168.01" width="2.9104" height="1.0583" fill="#077629" stroke-width=".11111"/><rect transform="scale(-1,1)" x="-64.294" y="169.07" width="1.8521" height="1.0584" fill="#077629" stroke-width=".088633"/><rect transform="scale(-1,1)" x="-73.554" y="161.4" width="1.0583" height="6.6146" fill="#1cb23a" stroke-width=".22333"/><rect transform="scale(-1,1)" x="-72.496" y="162.19" width="1.0583" height="5.8208" fill="#1cb23a" stroke-width=".2095"/><rect transform="scale(-1,1)" x="-71.437" y="162.98" width="2.1167" height="5.0271" fill="#1cb23a" stroke-width=".27534"/><rect transform="scale(-1,1)" x="-69.321" y="162.45" width="1.0583" height="1.0583" fill="#1cb23a" stroke-width=".089334"/><rect transform="scale(-1,1)" x="-68.262" y="161.66" width="1.0583" height="2.9104" fill="#1cb23a" stroke-width=".14814"/><rect transform="scale(-1,1)" x="-67.204" y="162.32" width="1.0583" height="3.9688" fill="#1cb23a" stroke-width=".17299"/><rect transform="scale(-1,1)" x="-66.146" y="162.98" width=".79375" height="3.3073" fill="#1cb23a" stroke-width=".13676"/><rect transform="scale(-1,1)" x="-65.352" y="163.71" width="1.0583" height="3.2411" fill="#1cb23a" stroke-width=".15633"/><rect transform="scale(-1,1)" x="-64.294" y="163.25" width="1.8521" height="4.7956" fill="#1cb23a" stroke-width=".25156"/><rect transform="scale(-1,1)" x="-62.442" y="164.84" width="1.0583" height="1.3229" fill="#1cb23a" stroke-width=".099878"/><rect transform="scale(-1,1)" x="-61.383" y="163.45" width="1.0583" height="3.2411" fill="#1cb23a" stroke-width=".15633"/><rect transform="scale(-1,1)" x="-60.325" y="162.39" width="1.5875" height="3.2411" fill="#1cb23a" stroke-width=".19147"/><rect transform="scale(-1,1)" x="-58.737" y="161.66" width="1.0583" height="2.9104" fill="#1cb23a" stroke-width=".14814"/><rect transform="scale(-1,1)" x="-57.679" y="162.16" width="1.0583" height="3.2411" fill="#1cb23a" stroke-width=".15633"/><rect transform="scale(-1,1)" x="-56.621" y="163.25" width="1.0583" height="4.4979" fill="#1cb23a" stroke-width=".18417"/><rect transform="scale(-1,1)" x="-74.612" y="162.45" width="1.0583" height="4.7625" fill="#1cb23a" stroke-width=".1895"/><rect transform="scale(-1,1)" x="-75.671" y="163.25" width="1.0583" height="1.3229" fill="#1cb23a" stroke-width=".099878"/><rect transform="scale(-1,1)" x="-76.729" y="162.12" width="1.0583" height="3.2411" fill="#1cb23a" stroke-width=".15633"/></g></svg>
