<?xml version="1.0" encoding="UTF-8"?>
<svg version="1.1" viewBox="0 0 26.987 11.113" xml:space="preserve" xmlns="http://www.w3.org/2000/svg"><g transform="translate(-156.9 -148.7)"><g transform="matrix(-1 0 0 1 340.78 0)"><rect x="163.25" y="154.25" width="1.5875" height="1.3229" fill="#fafcfe" stroke-width=".073395"/><rect x="156.9" y="149.75" width="7.4083" height="1.3229" fill="#fafcfe" stroke-width=".15855"/><rect x="158.49" y="150.81" width="5.8208" height="1.3229" fill="#fafcfe" stroke-width=".14054"/><rect x="159.01" y="148.7" width="4.4979" height="1.3229" fill="#fafcfe" stroke-width=".12354"/><rect x="162.19" y="151.87" width="5.0271" height="1.3229" fill="#fafcfe" stroke-width=".13061"/><rect x="164.31" y="150.55" width="1.3229" height="1.3229" fill="#fafcfe" stroke-width=".067"/><rect x="166.95" y="152.14" width="6.35" height="1.3229" fill="#fafcfe" stroke-width=".14679"/><rect x="170.13" y="151.08" width="4.7625" height="1.3229" fill="#fafcfe" stroke-width=".12712"/><rect x="170.66" y="149.75" width="2.9104" height="1.3229" fill="#fafcfe" stroke-width=".099377"/><rect x="170.66" y="148.7" width="2.1167" height="1.3229" fill="#fafcfe" stroke-width=".084749"/><rect x="167.75" y="152.93" width="4.7625" height="1.3229" fill="#fafcfe" stroke-width=".12712"/><rect x="166.69" y="154.78" width="2.3812" height="1.3229" fill="#fafcfe" stroke-width=".08989"/><rect x="166.42" y="156.1" width="1.3229" height="1.3229" fill="#fafcfe" stroke-width=".067"/><rect x="166.95" y="156.9" width="1.3229" height="1.3229" fill="#fafcfe" stroke-width=".067"/><rect x="168.27" y="157.43" width="1.5875" height="1.3229" fill="#fafcfe" stroke-width=".073395"/><rect x="165.89" y="158.22" width="2.1167" height="1.3229" fill="#fafcfe" stroke-width=".084749"/><rect x="170.13" y="154.78" width="3.4396" height="1.3229" fill="#fafcfe" stroke-width=".10803"/><rect x="171.98" y="156.1" width="2.6458" height="1.3229" fill="#fafcfe" stroke-width=".094752"/><rect x="173.57" y="156.9" width="2.3812" height="1.3229" fill="#fafcfe" stroke-width=".08989"/><rect x="173.57" y="153.46" width="1.3229" height="1.3229" fill="#fafcfe" stroke-width=".067"/><rect x="174.89" y="152.4" width="1.3229" height="1.3229" fill="#fafcfe" stroke-width=".067"/><rect x="176.21" y="151.08" width="2.1167" height="1.3229" fill="#fafcfe" stroke-width=".084749"/><rect x="175.68" y="153.99" width="2.1167" height="2.3812" fill="#fafcfe" stroke-width=".1137"/><rect x="174.89" y="154.78" width="1.3229" height="1.3229" fill="#fafcfe" stroke-width=".067"/><rect x="177.8" y="155.84" width="1.3229" height="1.5875" fill="#fafcfe" stroke-width=".073395"/><rect x="178.33" y="152.4" width="2.3812" height="1.3229" fill="#fafcfe" stroke-width=".08989"/><rect x="179.65" y="153.46" width="2.6458" height="1.3229" fill="#fafcfe" stroke-width=".094752"/><rect x="180.45" y="154.52" width="3.175" height="1.3229" fill="#fafcfe" stroke-width=".1038"/><rect x="180.45" y="156.37" width="3.175" height="1.3229" fill="#fafcfe" stroke-width=".1038"/><rect x="176.48" y="157.96" width="7.4083" height=".79375" fill="#fafcfe" stroke-width=".12281"/><rect x="170.39" y="158.75" width="9.525" height="1.0583" fill="#b32549" stroke-width=".1608"/><rect x="158.49" y="154.25" width="1.5875" height="1.3229" fill="#fafcfe" stroke-width=".073395"/></g></g></svg>
