<?xml version="1.0" encoding="UTF-8"?>
<svg version="1.1" viewBox="0 0 27.781 35.719" xmlns="http://www.w3.org/2000/svg" xmlns:cc="http://creativecommons.org/ns#" xmlns:dc="http://purl.org/dc/elements/1.1/" xmlns:rdf="http://www.w3.org/1999/02/22-rdf-syntax-ns#">
 <metadata>
  <rdf:RDF>
   <cc:Work rdf:about="">
    <dc:format>image/svg+xml</dc:format>
    <dc:type rdf:resource="http://purl.org/dc/dcmitype/StillImage"/>
    <dc:title/>
   </cc:Work>
  </rdf:RDF>
 </metadata>
 <g transform="matrix(-1 0 0 1 166.03 -33.734)">
  <g fill="#4e4e4e">
   <g stroke-width=".067">
    <rect x="138.24" y="44.318" width="1.3229" height="1.3229"/>
    <rect x="138.24" y="45.641" width="1.3229" height="1.3229"/>
    <rect x="138.24" y="46.964" width="1.3229" height="1.3229"/>
    <rect x="139.57" y="42.995" width="1.3229" height="1.3229"/>
    <rect x="140.89" y="42.995" width="1.3229" height="1.3229"/>
    <rect x="140.89" y="41.672" width="1.3229" height="1.3229"/>
    <rect x="151.47" y="45.641" width=".66146" height=".66146"/>
    <rect x="151.47" y="46.302" width=".66146" height=".66146"/>
    <rect x="151.47" y="46.964" width=".66146" height=".66146"/>
    <rect x="152.14" y="46.964" width=".66146" height=".66146"/>
    <rect x="152.8" y="46.964" width=".66146" height=".66146"/>
    <rect x="153.46" y="46.964" width=".66146" height=".66146"/>
    <rect x="154.12" y="46.964" width=".66146" height=".66146"/>
    <rect x="154.78" y="46.964" width=".66146" height=".66146"/>
    <rect x="155.44" y="46.964" width=".66146" height=".66146"/>
    <rect x="155.44" y="46.302" width=".66146" height=".66146"/>
    <rect x="154.78" y="46.302" width=".66146" height=".66146"/>
    <rect x="154.78" y="45.641" width=".66146" height=".66146"/>
    <rect x="155.44" y="45.641" width=".66146" height=".66146"/>
    <rect x="152.14" y="46.302" width=".66146" height=".66146"/>
    <rect x="152.14" y="45.641" width=".66146" height=".66146"/>
    <rect x="156.1" y="46.302" width=".66146" height=".66146"/>
    <rect x="156.77" y="46.302" width=".66146" height=".66146"/>
    <rect x="156.77" y="45.641" width=".66146" height=".66146"/>
    <rect x="156.1" y="45.641" width=".66146" height=".66146"/>
   </g>
   <rect x="156.1" y="38.365" width="1.3229" height="7.276" stroke-width=".31426"/>
   <rect x="154.78" y="36.38" width="1.3229" height="1.9844" stroke-width=".16412"/>
   <rect x="153.46" y="35.057" width="1.3229" height="1.3229" stroke-width=".134"/>
   <rect x="148.17" y="33.734" width="5.2917" height="1.3229" stroke-width=".268"/>
   <g stroke-width=".067">
    <rect x="147.51" y="35.057" width=".66146" height=".66146"/>
    <rect x="147.51" y="35.719" width=".66146" height=".66146"/>
    <rect x="146.84" y="35.719" width=".66146" height=".66146"/>
    <rect x="148.17" y="36.38" width=".66146" height=".66146"/>
    <rect x="148.17" y="37.042" width=".66146" height=".66146"/>
    <rect x="148.83" y="36.38" width=".66146" height=".66146"/>
    <rect x="148.83" y="37.042" width=".66146" height=".66146"/>
    <rect x="148.83" y="37.703" width=".66146" height=".66146"/>
    <rect x="149.49" y="37.703" width=".66146" height=".66146"/>
    <rect x="149.49" y="38.365" width=".66146" height=".66146"/>
    <rect x="148.83" y="38.365" width=".66146" height=".66146"/>
   </g>
   <rect x="150.15" y="39.026" width="1.3229" height="3.3073" stroke-width=".21187"/>
   <rect x="149.49" y="42.333" width=".66146" height=".66146" stroke-width=".067"/>
   <rect x="144.86" y="42.995" width="4.6302" height="1.3229" stroke-width=".25069"/>
   <g stroke-width=".067">
    <rect x="144.2" y="42.333" width=".66146" height=".66146"/>
    <rect x="143.54" y="42.333" width=".66146" height=".66146"/>
    <rect x="142.88" y="41.672" width=".66146" height=".66146"/>
   </g>
   <rect x="140.89" y="41.01" width="1.9844" height=".66146" stroke-width=".11605"/>
   <g stroke-width=".067">
    <rect x="142.88" y="41.01" width=".66146" height=".66146"/>
    <rect x="142.21" y="41.672" width=".66146" height=".66146"/>
    <rect x="138.91" y="48.286" width=".66146" height=".66146"/>
    <rect x="140.23" y="48.948" width=".66146" height=".66146"/>
    <rect x="140.23" y="49.609" width=".66146" height=".66146"/>
    <rect x="140.23" y="50.271" width=".66146" height=".66146"/>
    <rect x="140.23" y="50.932" width=".66146" height=".66146"/>
    <rect x="140.89" y="51.594" width=".66146" height=".66146"/>
    <rect x="141.55" y="51.594" width=".66146" height=".66146"/>
    <rect x="142.21" y="51.594" width=".66146" height=".66146"/>
    <rect x="142.88" y="51.594" width=".66146" height=".66146"/>
    <rect x="150.81" y="44.979" width=".66146" height=".66146"/>
    <rect x="150.81" y="44.318" width=".66146" height=".66146"/>
    <rect x="150.15" y="44.318" width=".66146" height=".66146"/>
    <rect x="149.49" y="44.318" width=".66146" height=".66146"/>
    <rect x="146.18" y="46.964" width=".66146" height=".66146"/>
    <rect x="146.18" y="47.625" width=".66146" height=".66146"/>
    <rect x="148.17" y="47.625" width=".66146" height=".66146"/>
    <rect x="148.17" y="48.286" width=".66146" height=".66146"/>
    <rect x="148.83" y="48.286" width=".66146" height=".66146"/>
    <rect x="148.83" y="47.625" width=".66146" height=".66146"/>
    <rect x="146.18" y="48.286" width=".66146" height=".66146"/>
    <rect x="146.18" y="48.948" width=".66146" height=".66146"/>
    <rect x="146.18" y="49.609" width=".66146" height=".66146"/>
    <rect x="146.18" y="50.271" width=".66146" height=".66146"/>
    <rect x="145.52" y="48.948" width=".66146" height=".66146"/>
    <rect x="144.86" y="48.948" width=".66146" height=".66146"/>
    <rect x="143.54" y="50.271" width=".66146" height=".66146"/>
    <rect x="143.54" y="50.932" width=".66146" height=".66146"/>
    <rect x="143.54" y="49.609" width=".66146" height=".66146"/>
    <rect x="144.2" y="49.609" width=".66146" height=".66146"/>
    <rect x="144.2" y="50.271" width=".66146" height=".66146"/>
    <rect x="144.2" y="50.932" width=".66146" height=".66146"/>
   </g>
   <rect x="150.15" y="48.948" width="1.3229" height="3.3073" stroke-width=".21187"/>
   <rect x="152.8" y="48.948" width="1.3229" height="3.3073" stroke-width=".21187"/>
   <g stroke-width=".067">
    <rect x="151.47" y="48.948" width=".66146" height=".66146"/>
    <rect x="152.14" y="48.948" width=".66146" height=".66146"/>
    <rect x="152.14" y="49.609" width=".66146" height=".66146"/>
    <rect x="151.47" y="49.609" width=".66146" height=".66146"/>
    <rect x="151.47" y="51.594" width=".66146" height=".66146"/>
    <rect x="152.14" y="51.594" width=".66146" height=".66146"/>
    <rect x="152.14" y="50.932" width=".66146" height=".66146"/>
    <rect x="151.47" y="50.932" width=".66146" height=".66146"/>
    <rect x="152.8" y="54.24" width=".66146" height=".66146"/>
    <rect x="152.8" y="54.901" width=".66146" height=".66146"/>
    <rect x="152.8" y="55.562" width=".66146" height=".66146"/>
    <rect x="152.14" y="55.562" width=".66146" height=".66146"/>
    <rect x="151.47" y="55.562" width=".66146" height=".66146"/>
    <rect x="150.81" y="55.562" width=".66146" height=".66146"/>
    <rect x="150.81" y="54.901" width=".66146" height=".66146"/>
    <rect x="150.81" y="54.24" width=".66146" height=".66146"/>
    <rect x="150.81" y="53.578" width=".66146" height=".66146"/>
    <rect x="151.47" y="53.578" width=".66146" height=".66146"/>
    <rect x="152.14" y="53.578" width=".66146" height=".66146"/>
    <rect x="152.8" y="53.578" width=".66146" height=".66146"/>
    <rect x="150.15" y="56.224" width=".66146" height=".66146"/>
    <rect x="149.49" y="56.885" width=".66146" height=".66146"/>
    <rect x="149.49" y="57.547" width=".66146" height=".66146"/>
    <rect x="148.83" y="57.547" width=".66146" height=".66146"/>
   </g>
   <rect x="148.17" y="58.208" width=".66146" height="5.2917" stroke-width=".1895"/>
   <g stroke-width=".067">
    <rect x="149.49" y="63.5" width=".66146" height=".66146"/>
    <rect x="149.49" y="64.161" width=".66146" height=".66146"/>
    <rect x="148.83" y="63.5" width=".66146" height=".66146"/>
    <rect x="148.83" y="64.161" width=".66146" height=".66146"/>
    <rect x="150.81" y="62.839" width=".66146" height=".66146"/>
    <rect x="154.12" y="62.839" width=".66146" height=".66146"/>
    <rect x="154.78" y="63.5" width=".66146" height=".66146"/>
    <rect x="155.44" y="63.5" width=".66146" height=".66146"/>
    <rect x="155.44" y="64.161" width=".66146" height=".66146"/>
    <rect x="154.78" y="64.161" width=".66146" height=".66146"/>
   </g>
   <rect x="156.1" y="64.823" width="1.9844" height="1.3229" stroke-width=".16412"/>
   <rect x="165.36" y="63.5" width=".66146" height="2.6458" stroke-width=".134"/>
   <rect x="165.36" y="60.193" width=".66146" height="2.6458" stroke-width=".134"/>
   <rect x="165.36" y="58.208" width=".66146" height=".66146" stroke-width=".067"/>
   <rect x="164.04" y="55.562" width=".66146" height="2.6458" stroke-width=".134"/>
   <g stroke-width=".067">
    <rect x="164.7" y="57.547" width=".66146" height=".66146"/>
    <rect x="163.38" y="54.901" width=".66146" height=".66146"/>
    <rect x="163.38" y="54.24" width=".66146" height=".66146"/>
    <rect x="162.72" y="54.24" width=".66146" height=".66146"/>
    <rect x="162.06" y="53.578" width=".66146" height=".66146"/>
    <rect x="161.4" y="53.578" width=".66146" height=".66146"/>
    <rect x="160.73" y="53.578" width=".66146" height=".66146"/>
   </g>
   <rect x="158.09" y="52.255" width="2.6458" height="1.3229" stroke-width=".1895"/>
   <rect x="156.1" y="53.578" width="1.9844" height=".66146" stroke-width=".11605"/>
   <g stroke-width=".067">
    <rect x="159.41" y="58.208" width=".66146" height=".66146"/>
    <rect x="159.41" y="57.547" width=".66146" height=".66146"/>
    <rect x="160.07" y="57.547" width=".66146" height=".66146"/>
    <rect x="160.07" y="58.208" width=".66146" height=".66146"/>
    <rect x="160.73" y="58.87" width=".66146" height=".66146"/>
    <rect x="160.73" y="59.531" width=".66146" height=".66146"/>
    <rect x="161.4" y="58.87" width=".66146" height=".66146"/>
   </g>
  </g>
  <g fill="#a0a0a0">
   <g stroke-width=".067">
    <rect x="161.4" y="59.531" width=".66146" height=".66146"/>
    <rect x="164.7" y="64.823" width=".66146" height=".66146"/>
    <rect x="164.7" y="65.484" width=".66146" height=".66146"/>
   </g>
   <rect x="160.73" y="64.823" width="3.9687" height="1.3229" stroke-width=".23209"/>
   <rect x="158.09" y="65.484" width="2.6458" height=".66146" stroke-width=".134"/>
   <g stroke-width=".067">
    <rect x="161.4" y="56.885" width=".66146" height=".66146"/>
    <rect x="162.06" y="56.885" width=".66146" height=".66146"/>
    <rect x="162.06" y="57.547" width=".66146" height=".66146"/>
    <rect x="161.4" y="57.547" width=".66146" height=".66146"/>
   </g>
   <rect x="162.72" y="58.208" width="2.6458" height=".66146" stroke-width=".134"/>
   <rect x="162.72" y="60.193" width="2.6458" height="2.6458" stroke-width=".268"/>
   <g stroke-width=".067">
    <rect x="158.75" y="60.193" width=".66146" height=".66146"/>
    <rect x="158.09" y="60.193" width=".66146" height=".66146"/>
    <rect x="158.09" y="60.854" width=".66146" height=".66146"/>
    <rect x="158.75" y="60.854" width=".66146" height=".66146"/>
   </g>
  </g>
  <rect x="144.86" y="42.333" width="4.6302" height=".66146" stroke-width=".17726"/>
  <rect x="143.54" y="41.01" width="6.6146" height="1.3229" stroke-width=".29963"/>
  <rect x="146.84" y="39.026" width="3.3073" height="1.9844" stroke-width=".25949"/>
  <rect x="146.84" y="37.703" width="1.9844" height="1.3229" stroke-width=".16412"/>
  <rect x="146.84" y="36.38" width="1.3229" height="1.3229" stroke-width=".134"/>
  <g stroke-width=".067">
   <rect x="143.54" y="40.349" width=".66146" height=".66146"/>
   <rect x="143.54" y="39.688" width=".66146" height=".66146"/>
   <rect x="143.54" y="39.026" width=".66146" height=".66146"/>
   <rect x="143.54" y="38.365" width=".66146" height=".66146"/>
   <rect x="144.2" y="37.703" width=".66146" height=".66146"/>
  </g>
  <rect x="144.86" y="37.042" width="1.9844" height="1.3229" stroke-width=".16412"/>
  <rect x="144.2" y="38.365" width=".66146" height="2.6458" stroke-width=".134"/>
  <rect x="144.86" y="38.365" width="1.9844" height=".66146" stroke-width=".11605"/>
  <g fill="#fff">
   <rect x="151.47" y="50.271" width=".66146" height=".66146" stroke-width=".067"/>
   <rect x="152.14" y="50.271" width=".66146" height=".66146" stroke-width=".067"/>
   <rect x="144.86" y="39.026" width="1.9844" height="1.9844" stroke-width=".201"/>
   <rect x="142.21" y="42.333" width="1.3229" height=".66146" stroke-width=".094752"/>
   <rect x="142.21" y="42.995" width="2.6458" height="1.3229" stroke-width=".1895"/>
   <rect x="139.57" y="44.318" width="6.6146" height="4.6302" stroke-width=".56056"/>
   <rect x="146.18" y="44.318" width="3.3073" height=".66146" stroke-width=".14982"/>
   <rect x="146.18" y="44.979" width="4.6302" height="1.9844" stroke-width=".30703"/>
   <rect x="146.84" y="47.625" width="1.3229" height="2.6458" stroke-width=".1895"/>
   <g stroke-width=".067">
    <rect x="148.17" y="48.948" width=".66146" height=".66146"/>
    <rect x="148.83" y="48.948" width=".66146" height=".66146"/>
    <rect x="148.83" y="49.609" width=".66146" height=".66146"/>
    <rect x="148.17" y="49.609" width=".66146" height=".66146"/>
   </g>
   <rect x="143.54" y="48.948" width="1.3229" height=".66146" stroke-width=".094752"/>
   <rect x="140.89" y="48.948" width="2.6458" height="2.6458" stroke-width=".268"/>
   <rect x="144.86" y="49.609" width="1.3229" height="2.6458" stroke-width=".1895"/>
   <rect x="146.18" y="50.932" width=".66146" height=".66146" stroke-width=".067"/>
   <rect x="146.18" y="51.594" width=".66146" height=".66146" stroke-width=".067"/>
   <rect x="151.47" y="54.24" width="1.3229" height="1.3229" stroke-width=".134"/>
   <rect x="153.46" y="55.562" width="1.3229" height=".66146" stroke-width=".094752"/>
   <rect x="150.81" y="56.224" width="3.9687" height="2.6458" stroke-width=".32823"/>
   <rect x="150.15" y="56.885" width=".66146" height="1.3229" stroke-width=".094752"/>
   <rect x="148.83" y="58.208" width="1.9844" height=".66146" stroke-width=".11605"/>
   <g stroke-width=".134">
    <rect x="150.15" y="58.87" width="1.3229" height="1.3229"/>
    <rect x="148.83" y="60.193" width="1.3229" height="1.3229"/>
    <rect x="150.15" y="61.516" width="1.3229" height="1.3229"/>
    <rect x="148.83" y="62.177" width="1.3229" height="1.3229"/>
   </g>
   <rect x="152.8" y="58.87" width=".66146" height="1.3229" stroke-width=".094752"/>
   <rect x="153.46" y="58.87" width="1.3229" height="3.9688" stroke-width=".2321"/>
   <rect x="154.78" y="59.531" width="1.3229" height="3.9688" stroke-width=".2321"/>
   <rect x="156.1" y="61.516" width="1.3229" height="3.3073" stroke-width=".21187"/>
   <rect x="157.43" y="62.177" width=".66146" height="2.6458" stroke-width=".134"/>
   <rect x="158.09" y="63.5" width="2.6458" height="1.9844" stroke-width=".23209"/>
   <rect x="160.73" y="63.5" width="4.6302" height="1.3229" stroke-width=".25069"/>
   <rect x="159.41" y="62.177" width="1.9844" height=".66146" stroke-width=".11605"/>
   <rect x="159.41" y="60.193" width="2.6458" height="1.9844" stroke-width=".2321"/>
   <rect x="156.1" y="57.547" width="3.3073" height="1.3229" stroke-width=".21187"/>
   <rect x="157.43" y="58.87" width="3.3073" height="1.3229" stroke-width=".21187"/>
   <rect x="162.72" y="56.885" width="1.3229" height="1.3229" stroke-width=".134"/>
   <rect x="160.73" y="55.563" width="3.3073" height="1.3229" stroke-width=".21187"/>
   <rect x="162.72" y="54.901" width=".66146" height=".66146" stroke-width=".067"/>
   <rect x="160.73" y="54.24" width="1.9844" height="1.3229" stroke-width=".16412"/>
   <rect x="159.41" y="53.578" width="1.3229" height="1.3229" stroke-width=".134"/>
   <rect x="158.09" y="53.578" width="1.3229" height="2.6458" stroke-width=".1895"/>
   <rect x="156.1" y="54.24" width="1.9844" height="2.6458" stroke-width=".23209"/>
   <rect x="149.49" y="42.995" width=".66146" height="1.3229" stroke-width=".094752"/>
   <rect x="150.15" y="42.333" width="1.3229" height="1.9844" stroke-width=".16412"/>
   <rect x="152.8" y="45.641" width="1.9844" height="1.3229" stroke-width=".16412"/>
   <rect x="151.47" y="38.365" width="4.6302" height="7.276" stroke-width=".58792"/>
   <rect x="150.15" y="35.057" width="1.3229" height="3.9687" stroke-width=".23209"/>
   <rect x="149.49" y="35.057" width=".66146" height="2.6458" stroke-width=".134"/>
   <rect x="148.17" y="35.057" width="1.3229" height="1.3229" stroke-width=".134"/>
   <rect x="151.47" y="35.057" width="1.9844" height="10.583" stroke-width=".46419"/>
   <rect x="153.46" y="36.38" width="1.3229" height="9.2604" stroke-width=".35453"/>
  </g>
  <rect x="154.78" y="54.24" width="1.3229" height="5.2917" stroke-width=".1895"/>
  <rect x="156.1" y="56.885" width="1.9844" height=".66146" stroke-width=".11605"/>
  <g stroke-width=".067">
   <rect x="158.09" y="56.224" width="1.3229" height="1.3229"/>
   <rect x="159.41" y="54.901" width="1.3229" height="2.6458"/>
   <rect x="160.73" y="56.885" width=".66146" height="1.9844"/>
   <rect x="161.4" y="58.208" width="1.3229" height=".66146"/>
   <rect x="162.06" y="58.87" width=".66146" height="3.9688"/>
   <rect x="162.72" y="58.87" width="3.3073" height="1.3229"/>
   <rect x="158.09" y="62.839" width="7.9375" height=".66146"/>
   <rect x="161.4" y="62.177" width=".66146" height=".66146"/>
   <rect x="158.09" y="61.516" width="1.3229" height="1.3229"/>
   <rect x="157.43" y="60.193" width=".66146" height="1.9844"/>
   <rect x="156.1" y="58.87" width="1.3229" height="2.6458"/>
  </g>
  <rect x="152.14" y="68.13" width="9.2604" height="1.3229" fill="#e4355b" stroke-width=".067"/>
  <rect x="156.1" y="66.807" width="4.6302" height="1.3229" fill="#e4355b" stroke-width=".067"/>
 </g>
</svg>
