<?xml version="1.0" encoding="UTF-8"?>
<svg version="1.1" viewBox="0 0 27.12 7.9375" xmlns="http://www.w3.org/2000/svg" xmlns:cc="http://creativecommons.org/ns#" xmlns:dc="http://purl.org/dc/elements/1.1/" xmlns:rdf="http://www.w3.org/1999/02/22-rdf-syntax-ns#">
 <metadata>
  <rdf:RDF>
   <cc:Work rdf:about="">
    <dc:format>image/svg+xml</dc:format>
    <dc:type rdf:resource="http://purl.org/dc/dcmitype/StillImage"/>
    <dc:title/>
   </cc:Work>
  </rdf:RDF>
 </metadata>
 <g transform="translate(-79.375 -168.67)">
  <g>
   <g fill="#737c7a">
    <rect x="80.036" y="174.62" width="1.3229" height="1.9844" stroke-width=".16412"/>
    <rect x="81.359" y="175.29" width=".66146" height="1.3229" stroke-width=".067"/>
    <rect x="82.021" y="175.95" width="1.9844" height=".66146" stroke-width=".11605"/>
    <rect x="80.698" y="173.3" width="1.9844" height=".66146" stroke-width=".11605"/>
    <rect x="80.036" y="171.98" width="1.9844" height="1.3229" stroke-width=".16412"/>
    <rect x="79.375" y="169.99" width="1.3229" height="1.9844" stroke-width=".16412"/>
    <rect x="80.698" y="169.33" width=".66146" height=".66146" stroke-width=".067"/>
    <rect x="81.359" y="168.67" width="1.3229" height=".66146" stroke-width=".094752"/>
    <rect x="84.667" y="171.32" width=".66146" height="1.9844" stroke-width=".11605"/>
    <rect x="84.005" y="173.3" width="2.6458" height="1.3229" stroke-width=".1895"/>
    <rect x="83.344" y="173.96" width=".66146" height=".66146" stroke-width=".067"/>
    <rect x="86.651" y="173.96" width="5.2916" height=".66146" stroke-width=".1895"/>
    <rect x="85.328" y="174.62" width="1.3229" height="1.3229" stroke-width=".134"/>
    <rect x="86.651" y="175.95" width="3.9687" height=".66146" stroke-width=".16412"/>
    <rect x="89.958" y="171.98" width="1.3229" height="1.9844" stroke-width=".16412"/>
    <rect x="89.297" y="171.98" width=".66146" height=".66146" stroke-width=".067"/>
    <rect x="92.604" y="174.62" width="1.3229" height="1.9844" stroke-width=".16412"/>
    <rect x="93.927" y="175.95" width="2.6458" height=".66146" stroke-width=".134"/>
    <rect x="95.911" y="174.62" width="5.2917" height="1.3229" stroke-width=".268"/>
    <rect x="99.219" y="173.96" width="1.3229" height=".66146" stroke-width=".094752"/>
    <rect x="100.54" y="172.64" width=".66146" height="1.3229" stroke-width=".094752"/>
    <rect x="103.85" y="174.62" width=".66146" height="1.3229" stroke-width=".094753"/>
    <rect x="103.19" y="175.95" width=".66146" height=".66146" stroke-width=".067"/>
    <rect x="100.54" y="175.95" width=".66146" height=".66146" stroke-width=".067"/>
   </g>
   <g fill="#fff">
    <rect x="103.88" y="175.95" width="2.6159" height=".66146" stroke-width=".13324"/>
    <rect x="104.51" y="175.29" width="1.9844" height=".66146" stroke-width=".11605"/>
    <rect x="104.51" y="174.62" width="1.3229" height=".66146" stroke-width=".094752"/>
    <rect x="103.85" y="173.96" width="1.3229" height=".66146" stroke-width=".094752"/>
    <rect x="101.2" y="172.64" width="2.6458" height="3.3073" stroke-width=".29963"/>
    <rect x="100.54" y="173.96" width=".66146" height=".66146" stroke-width=".067"/>
    <rect x="101.2" y="175.95" width="1.9844" height=".66146" stroke-width=".11605"/>
    <rect x="96.573" y="175.95" width="3.9688" height=".66146" stroke-width=".16412"/>
    <rect x="93.927" y="175.29" width="1.9844" height=".66146" stroke-width=".11605"/>
    <rect x="93.927" y="174.62" width="1.3229" height=".66146" stroke-width=".094752"/>
    <rect x="92.604" y="173.96" width="1.9844" height=".66146" stroke-width=".11605"/>
    <rect x="91.281" y="171.98" width="1.9844" height="1.9844" stroke-width=".201"/>
    <rect x="90.62" y="174.62" width="1.9844" height="1.9844" stroke-width=".201"/>
    <rect x="86.651" y="174.62" width="3.9688" height="1.3229" stroke-width=".2321"/>
    <rect x="84.005" y="175.95" width="2.6458" height=".66146" stroke-width=".134"/>
    <rect x="82.021" y="174.62" width="3.3073" height="1.3229" stroke-width=".21187"/>
    <rect x="81.359" y="174.62" width=".66146" height=".66146" stroke-width=".067"/>
    <rect x="80.698" y="173.96" width="2.6458" height=".66146" stroke-width=".134"/>
    <rect x="82.682" y="173.3" width="1.3229" height=".66146" stroke-width=".094752"/>
    <rect x="82.021" y="171.98" width="2.6458" height="1.3229" stroke-width=".1895"/>
    <rect x="80.698" y="171.32" width="3.3073" height=".66146" stroke-width=".14982"/>
    <rect x="80.698" y="170.66" width="2.6458" height=".66146" stroke-width=".134"/>
    <rect x="80.698" y="169.99" width="1.9844" height=".66146" stroke-width=".11605"/>
    <rect x="81.359" y="169.33" width="1.3229" height=".66146" stroke-width=".094752"/>
    <rect x="86.651" y="173.3" width="3.3073" height=".66146" stroke-width=".14982"/>
    <rect x="85.328" y="172.64" width="4.6302" height=".66146" stroke-width=".17726"/>
    <rect x="85.328" y="171.98" width="3.9688" height=".66146" stroke-width=".16412"/>
    <rect x="87.974" y="171.32" width=".66146" height=".66146" stroke-width=".067"/>
    <rect x="85.328" y="171.32" width="1.9844" height=".66146" stroke-width=".11605"/>
    <rect x="89.297" y="170.66" width=".66146" height=".66146" stroke-width=".067"/>
    <rect x="88.635" y="168.67" width=".66146" height="2.6458" stroke-width=".134"/>
    <rect x="89.297" y="168.67" width="2.6458" height=".66146" stroke-width=".134"/>
    <rect x="89.297" y="169.33" width="1.9844" height=".66146" stroke-width=".11605"/>
    <rect x="89.297" y="169.99" width=".66146" height=".66146" stroke-width=".067"/>
   </g>
  </g>
 </g>
</svg>
