<?xml version="1.0" encoding="UTF-8"?>
<svg version="1.1" viewBox="0 0 87.5 110" xmlns="http://www.w3.org/2000/svg" xmlns:cc="http://creativecommons.org/ns#" xmlns:dc="http://purl.org/dc/elements/1.1/" xmlns:rdf="http://www.w3.org/1999/02/22-rdf-syntax-ns#">
 <metadata>
  <rdf:RDF>
   <cc:Work rdf:about="">
    <dc:format>image/svg+xml</dc:format>
    <dc:type rdf:resource="http://purl.org/dc/dcmitype/StillImage"/>
    <dc:title/>
   </cc:Work>
  </rdf:RDF>
 </metadata>
 <g transform="translate(2.5 12.5)">
  <g transform="matrix(-1 0 0 1 -32.5 17.5)">
   <g fill="#6f7071">
    <g stroke-width=".25323">
     <rect x="-87.5" y="-30" width="17.5" height="2.5"/>
     <rect x="-70" y="-27.5" width="2.5" height="2.5"/>
     <rect x="-67.5" y="-25" width="2.5" height="2.5"/>
    </g>
    <rect x="-65" y="-22.5" width="2.5" height="7.5" stroke-width=".4386"/>
    <rect x="-62.5" y="-15" width="2.5" height="25" stroke-width=".80078"/>
    <rect x="-65" y="7.5" width="2.5" height="5" stroke-width=".35812"/>
    <rect x="-77.5" y="10" width="12.5" height="2.5" stroke-width=".56624"/>
    <rect x="-77.5" y="5" width="2.5" height="5" stroke-width=".35812"/>
    <rect x="-85" y="5" width="7.5" height="2.5" stroke-width=".4386"/>
    <rect x="-92.5" y="7.5" width="7.5" height="2.5" stroke-width=".4386"/>
    <rect x="-95" y="10" width="2.5" height="15" stroke-width=".62028"/>
    <rect x="-100" y="17.5" width="5" height="2.5" stroke-width=".35812"/>
    <rect x="-102.5" y="20" width="2.5" height="5" stroke-width=".35812"/>
    <rect x="-110" y="25" width="7.5" height="2.5" stroke-width=".4386"/>
    <rect x="-112.5" y="17.5" width="2.5" height="7.5" stroke-width=".4386"/>
    <rect x="-115" y="17.5" width="2.5" height="2.5" stroke-width=".25323"/>
    <rect x="-117.5" y="2.5" width="2.5" height="15" stroke-width=".62028"/>
    <rect x="-115" y="-1e-6" width="7.5" height="2.5" stroke-width=".4386"/>
    <rect x="-110" y="-7.5" width="2.5" height="7.5" stroke-width=".4386"/>
    <rect x="-107.5" y="-7.5" width="5" height="2.5" stroke-width=".35812"/>
    <rect x="-102.5" y="-5" width="2.5" height="2.5" stroke-width=".25323"/>
    <rect x="-100" y="-2.5" width="2.5" height="2.5" stroke-width=".25323"/>
    <rect x="-100" y="-1e-6" width="15" height="2.5" stroke-width=".62028"/>
    <rect x="-85" y="-2.5" width="2.5" height="2.5" stroke-width=".25323"/>
    <rect x="-82.5" y="-5" width="2.5" height="2.5" stroke-width=".25323"/>
    <rect x="-80" y="-15" width="2.5" height="10" stroke-width=".50646"/>
    <g stroke-width=".25323">
     <rect x="-82.5" y="-17.5" width="2.5" height="2.5"/>
     <rect x="-85" y="-20" width="2.5" height="2.5"/>
     <rect x="-87.5" y="-22.5" width="2.5" height="2.5"/>
    </g>
    <rect x="-92.5" y="-25" width="5" height="2.5" stroke-width=".35812"/>
    <rect x="-90" y="-27.5" width="2.5" height="2.5" stroke-width=".25323"/>
    <rect x="-80" y="17.5" width="10" height="2.5" stroke-width=".50646"/>
    <rect x="-72.5" y="20" width="2.5" height="7.5" stroke-width=".4386"/>
    <rect x="-80" y="25" width="7.5" height="2.5" stroke-width=".4386"/>
    <rect x="-80" y="20" width="2.5" height="5" stroke-width=".35812"/>
    <rect x="-77.5" y="30" width="10" height="2.5" stroke-width=".50646"/>
    <rect x="-70" y="32.5" width="2.5" height="5" stroke-width=".35812"/>
    <rect x="-77.5" y="37.5" width="10" height="2.5" stroke-width=".50646"/>
    <rect x="-77.5" y="32.5" width="2.5" height="5" stroke-width=".35812"/>
    <g stroke-width=".25323">
     <rect x="-77.5" y="40" width="2.5" height="2.5"/>
     <rect x="-80" y="42.5" width="2.5" height="2.5"/>
     <rect x="-82.5" y="45" width="2.5" height="2.5"/>
    </g>
    <rect x="-85" y="47.5" width="2.5" height="17.399" stroke-width=".66804"/>
    <rect x="-82.5" y="65" width="2.5" height="2.5" stroke-width=".25323"/>
    <rect x="-80" y="65" width="2.5" height="5" stroke-width=".35812"/>
    <rect x="-77.5" y="65" width="2.5" height="2.5" stroke-width=".25323"/>
    <rect x="-75" y="62.5" width="2.5" height="2.5" stroke-width=".25323"/>
    <rect x="-72.5" y="47.5" width="2.5" height="10" stroke-width=".50646"/>
    <rect x="-70" y="62.5" width="5" height="2.5" stroke-width=".35812"/>
    <rect x="-65" y="65" width="2.5" height="5" stroke-width=".35812"/>
    <rect x="-52.5" y="70" width="22.5" height="2.5" stroke-width=".75968"/>
    <rect x="-32.5" y="65" width="2.5" height="5" stroke-width=".35812"/>
    <rect x="-32.5" y="55" width="2.5" height="7.5" stroke-width=".4386"/>
    <rect x="-32.5" y="47.5" width="2.5" height="2.5" stroke-width=".25323"/>
    <rect x="-35" y="40" width="2.5" height="7.5" stroke-width=".4386"/>
    <rect x="-40" y="37.5" width="5" height="2.5" stroke-width=".35812"/>
    <rect x="-40" y="35" width="2.5" height="2.5" stroke-width=".25323"/>
    <g stroke-width=".4386">
     <rect x="-47.5" y="32.5" width="7.5" height="2.5"/>
     <rect x="-55" y="30" width="7.5" height="2.5"/>
     <rect x="-62.5" y="32.5" width="7.5" height="2.5"/>
    </g>
    <rect x="-50" y="47.5" width="2.5" height="2.5" stroke-width=".25323"/>
    <rect x="-47.5" y="52.5" width="5" height="2.5" stroke-width=".35812"/>
    <rect x="-45" y="55" width="2.5" height="7.5" stroke-width=".4386"/>
   </g>
   <g fill="#fff">
    <rect x="-87.5" y="-27.5" width="17.5" height="5" stroke-width=".25323"/>
    <rect x="-70" y="-25" width="2.5" height="2.5" stroke-width=".25323"/>
    <rect x="-85" y="-22.5" width="20" height="2.5" stroke-width=".71624"/>
    <rect x="-82.5" y="-20" width="17.5" height="2.5" stroke-width=".66998"/>
    <rect x="-80" y="-17.5" width="15" height="2.5" stroke-width=".62028"/>
    <rect x="-75" y="-15" width="12.5" height="22.5" stroke-width="1.6987"/>
    <rect x="-75" y="7.5" width="10" height="2.5" stroke-width=".50646"/>
    <rect x="-77.5" y="-15" width="2.5" height="20" stroke-width=".71624"/>
    <rect x="-80" y="-5" width="2.5" height="10" stroke-width=".50646"/>
    <rect x="-82.5" y="-2.5" width="2.5" height="7.5" stroke-width=".4386"/>
    <rect x="-85" y="-1e-6" width="2.5" height="5" stroke-width=".35812"/>
    <rect x="-107.5" y="-5" width="5" height="30" stroke-width="1.2406"/>
    <rect x="-110" y="17.5" width="2.5" height="7.5" stroke-width=".4386"/>
    <rect x="-115" y="2.5" width="7.5" height="15" stroke-width="1.0744"/>
    <rect x="-102.5" y="-2.5" width="2.5" height="22.5" stroke-width=".75968"/>
    <rect x="-100" y="2.5" width="5" height="15" stroke-width=".87721"/>
    <rect x="-95" y="7.5" width="2.5" height="2.5" stroke-width=".25323"/>
    <rect x="-95" y="2.5" width="10" height="5" stroke-width=".71624"/>
    <rect x="-100" y="-17.5" width="7.5" height="7.5" stroke-width=".75968"/>
    <rect x="-85" y="7.5" width="5" height="2.5" stroke-width=".35812"/>
    <rect x="-92.5" y="15" width="5" height="7.5" stroke-width=".62028"/>
    <rect x="-87.5" y="17.5" width="2.5" height="5" stroke-width=".35812"/>
    <rect x="-100" y="22.5" width="5" height="7.5" stroke-width=".62028"/>
    <rect x="-95" y="25" width="2.5" height="5" stroke-width=".35812"/>
   </g>
   <rect x="-87.5" y="15" width="2.5" height="2.5" fill="#6f7071" stroke-width=".25323"/>
   <g fill="#fff">
    <rect x="-77.5" y="20" width="5" height="5" stroke-width=".25323"/>
    <rect x="-75" y="32.5" width="5" height="5" stroke-width=".50646"/>
    <rect x="-75" y="40" width="2.5" height="15" stroke-width=".62028"/>
    <rect x="-77.5" y="42.5" width="2.5" height="12.5" stroke-width=".56624"/>
    <rect x="-80" y="45" width="2.5" height="7.5" stroke-width=".4386"/>
    <rect x="-82.5" y="47.5" width="2.5" height="17.399" stroke-width=".66804"/>
    <rect x="-80" y="55" width="2.5" height="2.5" stroke-width=".25323"/>
    <rect x="-77.5" y="57.5" width="5" height="5" stroke-width=".50646"/>
    <rect x="-80" y="62.5" width="5" height="2.5" stroke-width=".35812"/>
    <rect x="-72.5" y="40" width="5" height="7.5" stroke-width=".62028"/>
    <rect x="-70" y="47.5" width="2.5" height="15" stroke-width=".62028"/>
    <rect x="-67.5" y="50" width="5" height="12.5" stroke-width=".80078"/>
    <rect x="-65" y="62.5" width="2.5" height="2.5" stroke-width=".25323"/>
    <rect x="-62.5" y="60" width="2.5" height="10" stroke-width=".50646"/>
    <rect x="-60" y="62.5" width="2.5" height="7.5" stroke-width=".4386"/>
    <rect x="-57.5" y="65" width="2.5" height="5" stroke-width=".35812"/>
    <rect x="-55" y="67.5" width="22.5" height="2.5" stroke-width=".75968"/>
    <rect x="-62.5" y="47.5" width="12.5" height="2.5" stroke-width=".56624"/>
    <rect x="-60" y="50" width="12.5" height="2.5" stroke-width=".56624"/>
    <rect x="-57.5" y="52.5" width="10" height="5" stroke-width=".71624"/>
    <rect x="-50" y="55" width="5" height="7.5" stroke-width=".62028"/>
    <rect x="-52.5" y="57.5" width="2.5" height="2.5" stroke-width=".25323"/>
    <rect x="-40" y="55" width="7.5" height="7.5" stroke-width=".75968"/>
    <rect x="-40" y="47.5" width="7.5" height="2.5" stroke-width=".4386"/>
    <rect x="-42.5" y="40" width="7.5" height="7.5" stroke-width=".75968"/>
    <rect x="-47.5" y="35" width="7.5" height="10" stroke-width=".87721"/>
    <rect x="-55" y="32.5" width="7.5" height="5" stroke-width=".62028"/>
    <rect x="-62.5" y="35" width="7.5" height="7.5" stroke-width=".75968"/>
    <rect x="-55" y="37.5" width="5" height="2.5" stroke-width=".35812"/>
   </g>
   <rect x="-50" y="75" width="15" height="2.5" fill="#b32549" stroke-width=".62028"/>
   <rect x="-62.5" y="77.5" width="30" height="2.5" fill="#b32549" stroke-width=".25323"/>
   <g>
    <g stroke-width=".25323">
     <rect x="-82.5" y="-15" width="2.5" height="10"/>
     <rect x="-85" y="-17.5" width="2.5" height="15"/>
     <rect x="-87.5" y="-20" width="2.5" height="20"/>
     <rect x="-92.5" y="-22.5" width="5" height="22.5"/>
     <rect x="-97.5" y="-10" width="5" height="10"/>
     <rect x="-100" y="-10" width="2.5" height="7.5"/>
    </g>
    <rect x="-97.5" y="-20" width="5" height="2.5" stroke-width=".35812"/>
    <rect x="-102.5" y="-10" width="2.5" height="5" stroke-width=".35812"/>
   </g>
  </g>
 </g>
</svg>
