<svg xmlns="http://www.w3.org/2000/svg" xml:space="preserve" viewBox="0 0 26.987 11.113"><path fill="#fafcfe" d="M20.63 5.55h-1.587v1.323h1.587zM26.98 1.05h-7.408v1.323h7.408z"/><path fill="#fafcfe" d="M25.39 2.11h-5.821v1.323h5.821zM24.87 0h-4.498v1.323h4.498z"/><path fill="#fafcfe" d="M21.69 3.17h-5.027v1.323h5.027z"/><path fill="#fafcfe" d="M19.57 1.85h-1.323v1.323h1.323zM16.93 3.44h-6.35v1.323h6.35z"/><path fill="#fafcfe" d="M13.75 2.38H8.987v1.323h4.763zM13.22 1.05h-2.91v1.323h2.91z"/><path fill="#fafcfe" d="M13.22 0h-2.117v1.323h2.117zM16.13 4.23h-4.763v1.323h4.763zM17.19 6.08h-2.381v1.323h2.381z"/><path fill="#fafcfe" d="M17.46 7.4h-1.323v1.323h1.323z"/><path fill="#fafcfe" d="M16.93 8.2h-1.323v1.323h1.323z"/><path fill="#fafcfe" d="M15.61 8.73h-1.587v1.323h1.587zM17.99 9.52h-2.117v1.323h2.117zM13.75 6.08h-3.44v1.323h3.44z"/><path fill="#fafcfe" d="M11.9 7.4H9.254v1.323H11.9z"/><path fill="#fafcfe" d="M10.31 8.2H7.929v1.323h2.381zM10.31 4.76H8.987v1.323h1.323z"/><path fill="#fafcfe" d="M8.99 3.7H7.667v1.323H8.99z"/><path fill="#fafcfe" d="M7.67 2.38H5.553v1.323H7.67zM8.2 5.29H6.083v2.381H8.2z"/><path fill="#fafcfe" d="M8.99 6.08H7.667v1.323H8.99zM6.08 7.14H4.757v1.587H6.08zM5.55 3.7H3.169v1.323H5.55z"/><path fill="#fafcfe" d="M4.23 4.76H1.584v1.323H4.23z"/><path fill="#fafcfe" d="M3.43 5.82H.255v1.323H3.43zM3.43 7.67H.255v1.323H3.43zM7.4 9.26H-.008v.794H7.4z"/><path fill="#b32549" d="M13.49 10.05H3.965v1.058h9.525z"/><path fill="#fafcfe" d="M25.39 5.55h-1.587v1.323h1.587z"/></svg>