<svg xmlns="http://www.w3.org/2000/svg" viewBox="0 0 87.5 110"><g fill="#6f7071"><g stroke-width=".253"><path d="M57.5 0H40v2.5h17.5zM40 2.5h-2.5V5H40zM37.5 5H35v2.5h2.5z"/></g><path d="M35 7.5h-2.5V15H35zM32.5 15H30v25h2.5zM35 37.5h-2.5v5H35zM47.5 40H35v2.5h12.5zM47.5 35H45v5h2.5zM55 35h-7.5v2.5H55zM62.5 37.5H55V40h7.5zM65 40h-2.5v15H65zM70 47.5h-5V50h5zM72.5 50H70v5h2.5zM80 55h-7.5v2.5H80zM82.5 47.5H80V55h2.5zM85 47.5h-2.5V50H85zM87.5 32.5H85v15h2.5zM85 30h-7.5v2.5H85zM80 22.5h-2.5V30H80zM77.5 22.5h-5V25h5zM72.5 25H70v2.5h2.5zM70 27.5h-2.5V30H70zM70 30H55v2.5h15zM55 27.5h-2.5V30H55zM52.5 25H50v2.5h2.5zM50 15h-2.5v10H50z"/><g stroke-width=".253"><path d="M52.5 12.5H50V15h2.5zM55 10h-2.5v2.5H55zM57.5 7.5H55V10h2.5z"/></g><path d="M62.5 5h-5v2.5h5zM60 2.5h-2.5V5H60zM50 47.5H40V50h10zM42.5 50H40v7.5h2.5zM50 55h-7.5v2.5H50zM50 50h-2.5v5H50zM47.5 60h-10v2.5h10zM40 62.5h-2.5v5H40zM47.5 67.5h-10V70h10zM47.5 62.5H45v5h2.5z"/><g stroke-width=".253"><path d="M47.5 70H45v2.5h2.5zM50 72.5h-2.5V75H50zM52.5 75H50v2.5h2.5z"/></g><path d="M55 77.5h-2.5v17.399H55zM52.5 95H50v2.5h2.5zM50 95h-2.5v5H50zM47.5 95H45v2.5h2.5zM45 92.5h-2.5V95H45zM42.5 77.5H40v10h2.5zM40 92.5h-5V95h5zM35 95h-2.5v5H35zM22.5 100H0v2.5h22.5zM2.5 95H0v5h2.5zM2.5 85H0v7.5h2.5zM2.5 77.5H0V80h2.5zM5 70H2.5v7.5H5zM10 67.5H5V70h5zM10 65H7.5v2.5H10z"/><g stroke-width=".439"><path d="M17.5 62.5H10V65h7.5zM25 60h-7.5v2.5H25zM32.5 62.5H25V65h7.5z"/></g><path d="M20 77.5h-2.5V80H20zM17.5 82.5h-5V85h5zM15 85h-2.5v7.5H15z"/></g><g fill="#fff"><path d="M57.5 2.5H40v5h17.5zM40 5h-2.5v2.5H40zM55 7.5H35V10h20zM52.5 10H35v2.5h17.5zM50 12.5H35V15h15zM45 15H32.5v22.5H45zM45 37.5H35V40h10zM47.5 15H45v20h2.5zM50 25h-2.5v10H50zM52.5 27.5H50V35h2.5zM55 30h-2.5v5H55zM77.5 25h-5v30h5zM80 47.5h-2.5V55H80zM85 32.5h-7.5v15H85zM72.5 27.5H70V50h2.5zM70 32.5h-5v15h5zM65 37.5h-2.5V40H65zM65 32.5H55v5h10zM70 12.5h-7.5V20H70zM55 37.5h-5V40h5zM62.5 45h-5v7.5h5zM57.5 47.5H55v5h2.5zM70 52.5h-5V60h5zM65 55h-2.5v5H65z"/></g><path fill="#6f7071" d="M57.5 45H55v2.5h2.5z"/><g fill="#fff"><path d="M47.5 50h-5v5h5zM45 62.5h-5v5h5zM45 70h-2.5v15H45zM47.5 72.5H45V85h2.5zM50 75h-2.5v7.5H50zM52.5 77.5H50v17.399h2.5zM50 85h-2.5v2.5H50zM47.5 87.5h-5v5h5zM50 92.5h-5V95h5zM42.5 70h-5v7.5h5zM40 77.5h-2.5v15H40zM37.5 80h-5v12.5h5zM35 92.5h-2.5V95H35zM32.5 90H30v10h2.5zM30 92.5h-2.5v7.5H30zM27.5 95H25v5h2.5zM25 97.5H2.5v2.5H25zM32.5 77.5H20V80h12.5zM30 80H17.5v2.5H30zM27.5 82.5h-10v5h10z"/><path d="M20 85h-5v7.5h5zM22.5 87.5H20V90h2.5zM10 85H2.5v7.5H10zM10 77.5H2.5V80H10zM12.5 70H5v7.5h7.5z"/><path d="M17.5 65H10v10h7.5zM25 62.5h-7.5v5H25zM32.5 65H25v7.5h7.5zM25 67.5h-5V70h5z"/></g><path fill="#b32549" d="M20 105H5v2.5h15zM32.5 107.5h-30v2.5h30z"/><g stroke-width=".253"><path d="M52.5 15H50v10h2.5zM55 12.5h-2.5v15H55zM57.5 10H55v20h2.5zM62.5 7.5h-5V30h5zM67.5 20h-5v10h5zM70 20h-2.5v7.5H70z"/></g><path d="M67.5 10h-5v2.5h5zM72.5 20H70v5h2.5z"/></svg>