<svg xmlns="http://www.w3.org/2000/svg" viewBox="0 0 27.781 35.719"><g fill="#4e4e4e"><g stroke-width=".067"><path d="M27.79 10.584h-1.323v1.323h1.323zM27.79 11.907h-1.323v1.323h1.323zM27.79 13.23h-1.323v1.323h1.323zM26.46 9.261h-1.323v1.323h1.323z"/><path d="M25.14 9.261h-1.323v1.323h1.323zM25.14 7.938h-1.323v1.323h1.323zM14.56 11.907h-.661v.661h.661zM14.56 12.568h-.661v.661h.661zM14.56 13.23h-.661v.661h.661zM13.89 13.23h-.661v.661h.661z"/><path d="M13.23 13.23h-.661v.661h.661z"/><path d="M12.57 13.23h-.661v.661h.661z"/><path d="M11.91 13.23h-.661v.661h.661z"/><path d="M11.25 13.23h-.661v.661h.661z"/><path d="M10.59 13.23h-.661v.661h.661zM10.59 12.568h-.661v.661h.661z"/><path d="M11.25 12.568h-.661v.661h.661zM11.25 11.907h-.661v.661h.661z"/><path d="M10.59 11.907h-.661v.661h.661zM13.89 12.568h-.661v.661h.661zM13.89 11.907h-.661v.661h.661zM9.93 12.568h-.661v.661h.661zM9.26 12.568h-.661v.661h.661zM9.26 11.907h-.661v.661h.661z"/><path d="M9.93 11.907h-.661v.661h.661z"/></g><path d="M9.93 4.631H8.607v7.276H9.93zM11.25 2.646H9.927V4.63h1.323zM12.57 1.323h-1.323v1.323h1.323zM17.86 0h-5.292v1.323h5.292z"/><g stroke-width=".067"><path d="M18.52 1.323h-.661v.661h.661zM18.52 1.985h-.661v.661h.661zM19.19 1.985h-.661v.661h.661zM17.86 2.646h-.661v.661h.661zM17.86 3.308h-.661v.661h.661z"/><path d="M17.2 2.646h-.661v.661h.661zM17.2 3.308h-.661v.661h.661zM17.2 3.969h-.661v.661h.661z"/><path d="M16.54 3.969h-.661v.661h.661zM16.54 4.631h-.661v.661h.661z"/><path d="M17.2 4.631h-.661v.661h.661z"/></g><path d="M15.88 5.292h-1.323v3.307h1.323zM16.54 8.599h-.661v.661h.661zM21.17 9.261h-4.63v1.323h4.63z"/><g stroke-width=".067"><path d="M21.83 8.599h-.661v.661h.661z"/><path d="M22.49 8.599h-.661v.661h.661zM23.15 7.938h-.661v.661h.661z"/></g><path d="M25.14 7.276h-1.984v.661h1.984z"/><g stroke-width=".067"><path d="M23.15 7.276h-.661v.661h.661zM23.82 7.938h-.661v.661h.661zM27.12 14.552h-.661v.661h.661zM25.8 15.214h-.661v.661h.661zM25.8 15.875h-.661v.661h.661zM25.8 16.537h-.661v.661h.661zM25.8 17.198h-.661v.661h.661zM25.14 17.86h-.661v.661h.661z"/><path d="M24.48 17.86h-.661v.661h.661z"/><path d="M23.82 17.86h-.661v.661h.661zM23.15 17.86h-.661v.661h.661zM15.22 11.245h-.661v.661h.661zM15.22 10.584h-.661v.661h.661z"/><path d="M15.88 10.584h-.661v.661h.661z"/><path d="M16.54 10.584h-.661v.661h.661zM19.85 13.23h-.661v.661h.661zM19.85 13.891h-.661v.661h.661zM17.86 13.891h-.661v.661h.661zM17.86 14.552h-.661v.661h.661z"/><path d="M17.2 14.552h-.661v.661h.661zM17.2 13.891h-.661v.661h.661zM19.85 14.552h-.661v.661h.661zM19.85 15.214h-.661v.661h.661zM19.85 15.875h-.661v.661h.661zM19.85 16.537h-.661v.661h.661z"/><path d="M20.51 15.214h-.661v.661h.661z"/><path d="M21.17 15.214h-.661v.661h.661zM22.49 16.537h-.661v.661h.661zM22.49 17.198h-.661v.661h.661zM22.49 15.875h-.661v.661h.661z"/><path d="M21.83 15.875h-.661v.661h.661zM21.83 16.537h-.661v.661h.661zM21.83 17.198h-.661v.661h.661z"/></g><path d="M15.88 15.214h-1.323v3.307h1.323zM13.23 15.214h-1.323v3.307h1.323z"/><g stroke-width=".067"><path d="M14.56 15.214h-.661v.661h.661zM13.89 15.214h-.661v.661h.661zM13.89 15.875h-.661v.661h.661zM14.56 15.875h-.661v.661h.661zM14.56 17.86h-.661v.661h.661zM13.89 17.86h-.661v.661h.661zM13.89 17.198h-.661v.661h.661zM14.56 17.198h-.661v.661h.661zM13.23 20.506h-.661v.661h.661zM13.23 21.167h-.661v.661h.661z"/><path d="M13.23 21.828h-.661v.661h.661z"/><path d="M13.89 21.828h-.661v.661h.661zM14.56 21.828h-.661v.661h.661z"/><path d="M15.22 21.828h-.661v.661h.661z"/><path d="M15.22 21.167h-.661v.661h.661zM15.22 20.506h-.661v.661h.661zM15.22 19.844h-.661v.661h.661z"/><path d="M14.56 19.844h-.661v.661h.661zM13.89 19.844h-.661v.661h.661z"/><path d="M13.23 19.844h-.661v.661h.661zM15.88 22.49h-.661v.661h.661zM16.54 23.151h-.661v.661h.661zM16.54 23.813h-.661v.661h.661z"/><path d="M17.2 23.813h-.661v.661h.661z"/></g><path d="M17.86 24.474h-.661v5.292h.661z"/><g stroke-width=".067"><path d="M16.54 29.766h-.661v.661h.661zM16.54 30.427h-.661v.661h.661z"/><path d="M17.2 29.766h-.661v.661h.661zM17.2 30.427h-.661v.661h.661zM15.22 29.105h-.661v.661h.661zM11.91 29.105h-.661v.661h.661z"/><path d="M11.25 29.766h-.661v.661h.661z"/><path d="M10.59 29.766h-.661v.661h.661zM10.59 30.427h-.661v.661h.661z"/><path d="M11.25 30.427h-.661v.661h.661z"/></g><path d="M9.93 31.089H7.946v1.323H9.93zM.67 29.766H.009v2.646H.67zM.67 26.459H.009v2.646H.67zM.67 24.474H.009v.661H.67zM1.99 21.828h-.661v2.646h.661z"/><g stroke-width=".067"><path d="M1.33 23.813H.669v.661h.661zM2.65 21.167h-.661v.661h.661zM2.65 20.506h-.661v.661h.661z"/><path d="M3.31 20.506h-.661v.661h.661zM3.97 19.844h-.661v.661h.661z"/><path d="M4.63 19.844h-.661v.661h.661zM5.3 19.844h-.661v.661H5.3z"/></g><path d="M7.94 18.521H5.294v1.323H7.94zM9.93 19.844H7.946v.661H9.93z"/><g stroke-width=".067"><path d="M6.62 24.474h-.661v.661h.661zM6.62 23.813h-.661v.661h.661z"/><path d="M5.96 23.813h-.661v.661h.661zM5.96 24.474h-.661v.661h.661zM5.3 25.136h-.661v.661H5.3zM5.3 25.797h-.661v.661H5.3zM4.63 25.136h-.661v.661h.661z"/></g></g><g fill="#a0a0a0"><g stroke-width=".067"><path d="M4.63 25.797h-.661v.661h.661zM1.33 31.089H.669v.661h.661zM1.33 31.75H.669v.661h.661z"/></g><path d="M5.3 31.089H1.331v1.323H5.3z"/><path d="M7.94 31.75H5.294v.661H7.94z"/><g stroke-width=".067"><path d="M4.63 23.151h-.661v.661h.661z"/><path d="M3.97 23.151h-.661v.661h.661zM3.97 23.813h-.661v.661h.661z"/><path d="M4.63 23.813h-.661v.661h.661z"/></g><path d="M3.31 24.474H.664v.661H3.31zM3.31 26.459H.664v2.646H3.31z"/><g stroke-width=".067"><path d="M7.28 26.459h-.661v.661h.661z"/><path d="M7.94 26.459h-.661v.661h.661zM7.94 27.12h-.661v.661h.661z"/><path d="M7.28 27.12h-.661v.661h.661z"/></g></g><path d="M21.17 8.599h-4.63v.661h4.63zM22.49 7.276h-6.615v1.323h6.615zM19.19 5.292h-3.307v1.984h3.307zM19.19 3.969h-1.984v1.323h1.984zM19.19 2.646h-1.323v1.323h1.323z"/><g stroke-width=".067"><path d="M22.49 6.615h-.661v.661h.661zM22.49 5.954h-.661v.661h.661zM22.49 5.292h-.661v.661h.661zM22.49 4.631h-.661v.661h.661zM21.83 3.969h-.661v.661h.661z"/></g><path d="M21.17 3.308h-1.984v1.323h1.984zM21.83 4.631h-.661v2.646h.661z"/><path d="M21.17 4.631h-1.984v.661h1.984z"/><g fill="#fff"><path d="M14.56 16.537h-.661v.661h.661zM13.89 16.537h-.661v.661h.661zM21.17 5.292h-1.984v1.984h1.984zM23.82 8.599h-1.323v.661h1.323zM23.82 9.261h-2.646v1.323h2.646zM26.46 10.584h-6.615v4.63h6.615z"/><path d="M19.85 10.584h-3.307v.661h3.307zM19.85 11.245h-4.63v1.984h4.63zM19.19 13.891h-1.323v2.646h1.323z"/><g stroke-width=".067"><path d="M17.86 15.214h-.661v.661h.661z"/><path d="M17.2 15.214h-.661v.661h.661zM17.2 15.875h-.661v.661h.661z"/><path d="M17.86 15.875h-.661v.661h.661z"/></g><path d="M22.49 15.214h-1.323v.661h1.323zM25.14 15.214h-2.646v2.646h2.646zM21.17 15.875h-1.323v2.646h1.323z"/><path d="M19.85 17.198h-.661v.661h.661zM19.85 17.86h-.661v.661h.661zM14.56 20.506h-1.323v1.323h1.323zM12.57 21.828h-1.323v.661h1.323zM15.22 22.49h-3.969v2.646h3.969z"/><path d="M15.88 23.151h-.661v1.323h.661zM17.2 24.474h-1.984v.661H17.2z"/><g stroke-width=".134"><path d="M15.88 25.136h-1.323v1.323h1.323zM17.2 26.459h-1.323v1.323H17.2zM15.88 27.782h-1.323v1.323h1.323z"/><path d="M17.2 28.443h-1.323v1.323H17.2z"/></g><path d="M13.23 25.136h-.661v1.323h.661z"/><path d="M12.57 25.136h-1.323v3.969h1.323z"/><path d="M11.25 25.797H9.927v3.969h1.323z"/><path d="M9.93 27.782H8.607v3.307H9.93zM8.6 28.443h-.661v2.646H8.6z"/><path d="M7.94 29.766H5.294v1.984H7.94z"/><path d="M5.3 29.766H.67v1.323H5.3zM6.62 28.443H4.636v.661H6.62zM6.62 26.459H3.974v1.984H6.62zM9.93 23.813H6.623v1.323H9.93zM8.6 25.136H5.293v1.323H8.6zM3.31 23.151H1.987v1.323H3.31z"/><path d="M5.3 21.829H1.993v1.323H5.3zM3.31 21.167h-.661v.661h.661zM5.3 20.506H3.316v1.323H5.3z"/><path d="M6.62 19.844H5.297v1.323H6.62z"/><path d="M7.94 19.844H6.617v2.646H7.94zM9.93 20.506H7.946v2.646H9.93zM16.54 9.261h-.661v1.323h.661z"/><path d="M15.88 8.599h-1.323v1.984h1.323zM13.23 11.907h-1.984v1.323h1.984z"/><path d="M14.56 4.631H9.93v7.276h4.63z"/><path d="M15.88 1.323h-1.323v3.969h1.323z"/><path d="M16.54 1.323h-.661v2.646h.661z"/><path d="M17.86 1.323h-1.323v1.323h1.323zM14.56 1.323h-1.984v10.583h1.984zM12.57 2.646h-1.323v9.26h1.323z"/></g><path d="M11.25 20.506H9.927v5.292h1.323z"/><path d="M9.93 23.151H7.946v.661H9.93z"/><g stroke-width=".067"><path d="M7.94 22.49H6.617v1.323H7.94z"/><path d="M6.62 21.167H5.297v2.646H6.62z"/><path d="M5.3 23.151h-.661v1.984H5.3zM4.63 24.474H3.307v.661H4.63zM3.97 25.136h-.661v3.969h.661z"/><path d="M3.31 25.136H.003v1.323H3.31zM7.94 29.105H.002v.661H7.94zM4.63 28.443h-.661v.661h.661zM7.94 27.782H6.617v1.323H7.94z"/><path d="M8.6 26.459h-.661v1.984H8.6zM9.93 25.136H8.607v2.646H9.93z"/></g><path fill="#e4355b" d="M13.89 34.396H4.63v1.323h9.26zM9.93 33.073H5.3v1.323h4.63z"/></svg>