<svg xmlns="http://www.w3.org/2000/svg" viewBox="0 0 27.12 7.938"><g fill="#737c7a"><path d="M.661 5.95h1.323v1.984H.661zM1.984 6.62h.661v1.323h-.661zM2.646 7.28H4.63v.661H2.646zM1.323 4.63h1.984v.661H1.323z"/><path d="M.661 3.31h1.984v1.323H.661zM0 1.32h1.323v1.984H0zM1.323.66h.661v.661h-.661zM1.984 0h1.323v.661H1.984zM5.292 2.65h.661v1.984h-.661z"/><path d="M4.63 4.63h2.646v1.323H4.63zM3.969 5.29h.661v.661h-.661zM7.276 5.29h5.292v.661H7.276z"/><path d="M5.953 5.95h1.323v1.323H5.953zM7.276 7.28h3.969v.661H7.276zM10.583 3.31h1.323v1.984h-1.323zM9.922 3.31h.661v.661h-.661zM13.229 5.95h1.323v1.984h-1.323zM14.552 7.28h2.646v.661h-2.646zM16.536 5.95h5.292v1.323h-5.292z"/><path d="M19.844 5.29h1.323v.661h-1.323z"/><path d="M21.165 3.97h.661v1.323h-.661zM24.475 5.95h.661v1.323h-.661zM23.815 7.28h.661v.661h-.661zM21.165 7.28h.661v.661h-.661z"/></g><g fill="#fff"><path d="M24.505 7.28h2.616v.661h-2.616z"/><path d="M25.135 6.62h1.984v.661h-1.984zM25.135 5.95h1.323v.661h-1.323z"/><path d="M24.475 5.29h1.323v.661h-1.323zM21.825 3.97h2.646v3.307h-2.646z"/><path d="M21.165 5.29h.661v.661h-.661zM21.825 7.28h1.984v.661h-1.984zM17.198 7.28h3.969v.661h-3.969zM14.552 6.62h1.984v.661h-1.984zM14.552 5.95h1.323v.661h-1.323z"/><path d="M13.229 5.29h1.984v.661h-1.984z"/><path d="M11.906 3.31h1.984v1.984h-1.984zM11.245 5.95h1.984v1.984h-1.984zM7.276 5.95h3.969v1.323H7.276zM4.63 7.28h2.646v.661H4.63zM2.646 5.95h3.307v1.323H2.646zM1.984 5.95h.661v.661h-.661z"/><path d="M1.323 5.29h2.646v.661H1.323z"/><path d="M3.307 4.63H4.63v.661H3.307z"/><path d="M2.646 3.31h2.646v1.323H2.646z"/><path d="M1.323 2.65H4.63v.661H1.323z"/><path d="M1.323 1.99h2.646v.661H1.323zM1.323 1.32h1.984v.661H1.323z"/><path d="M1.984.66h1.323v.661H1.984zM7.276 4.63h3.307v.661H7.276z"/><path d="M5.953 3.97h4.63v.661h-4.63z"/><path d="M5.953 3.31h3.969v.661H5.953z"/><path d="M8.599 2.65h.661v.661h-.661zM5.953 2.65h1.984v.661H5.953zM9.922 1.99h.661v.661h-.661zM9.26 0h.661v2.646H9.26zM9.922 0h2.646v.661H9.922z"/><path d="M9.922.66h1.984v.661H9.922z"/><path d="M9.922 1.32h.661v.661h-.661z"/></g></svg>