<?xml version="1.0" encoding="UTF-8"?>
<svg version="1.1" viewBox="0 0 111.12 121.71" xml:space="preserve" xmlns="http://www.w3.org/2000/svg"><g transform="translate(-44.979 -74.083)" fill="#fbd50c"><g fill="#fbd50c"><rect x="60.854" y="79.375" width="5.2917" height="5.2917" stroke-width=".077365"/><rect x="66.146" y="84.667" width="9.2604" height="100.54" stroke-width=".44611"/><rect x="60.854" y="185.21" width="5.2917" height="5.2917" stroke-width=".077365"/><rect x="60.854" y="100.54" width="7.9375" height="68.792" stroke-width=".34163"/><rect x="55.562" y="105.83" width="8.3186" height="59.531" stroke-width=".32535"/><rect x="50.271" y="113.77" width="7.9375" height="5.2917" stroke-width=".094752"/><rect x="44.979" y="108.48" width="13.229" height="5.2917" stroke-width=".12232"/><rect x="50.271" y="150.81" width="7.9375" height="5.2917" stroke-width=".094752"/><rect x="44.979" y="156.1" width="13.229" height="5.2917" stroke-width=".12232"/><rect x="74.083" y="89.958" width="21.167" height="89.958" stroke-width=".63797"/><rect x="89.958" y="84.667" width="5.2917" height="7.9375" stroke-width=".094752"/><rect x="89.958" y="177.27" width="5.2917" height="7.9375" stroke-width=".094752"/><rect x="95.25" y="182.56" width="5.2917" height="13.229" stroke-width=".12232"/><rect x="95.25" y="74.083" width="5.2917" height="13.229" stroke-width=".12232"/><rect x="95.25" y="84.667" width="5.2917" height="100.54" stroke-width=".33722"/><rect transform="scale(-1,1)" x="-140.23" y="79.375" width="5.2917" height="5.2917" stroke-width=".077365"/><rect transform="scale(-1,1)" x="-134.94" y="84.667" width="9.2604" height="100.54" stroke-width=".44611"/><rect transform="scale(-1,1)" x="-140.23" y="185.21" width="5.2917" height="5.2917" stroke-width=".077365"/><rect transform="scale(-1,1)" x="-140.23" y="100.54" width="7.9375" height="68.792" stroke-width=".34163"/><rect transform="scale(-1,1)" x="-145.52" y="105.83" width="8.3186" height="58.208" stroke-width=".32171"/><rect transform="scale(-1,1)" x="-150.81" y="113.77" width="7.9375" height="5.2917" stroke-width=".094752"/><rect transform="scale(-1,1)" x="-156.1" y="108.48" width="13.229" height="5.2917" stroke-width=".12232"/><rect transform="scale(-1,1)" x="-150.81" y="150.81" width="7.9375" height="5.2917" stroke-width=".094752"/><rect transform="scale(-1,1)" x="-156.1" y="156.1" width="13.229" height="5.2917" stroke-width=".12232"/><rect transform="scale(-1,1)" x="-127" y="89.958" width="21.167" height="89.958" stroke-width=".63797"/><rect transform="scale(-1,1)" x="-111.12" y="84.667" width="5.2917" height="7.9375" stroke-width=".094752"/><rect transform="scale(-1,1)" x="-111.12" y="177.27" width="5.2917" height="7.9375" stroke-width=".094752"/><rect transform="scale(-1,1)" x="-105.83" y="182.56" width="5.2917" height="13.229" stroke-width=".12232"/><rect transform="scale(-1,1)" x="-105.83" y="74.083" width="5.2917" height="13.229" stroke-width=".12232"/><rect transform="scale(-1,1)" x="-105.83" y="84.667" width="5.2917" height="100.54" stroke-width=".33722"/></g></g><g transform="translate(-44.979 -74.083)" fill="#ff8510"><rect x="95.25" y="84.667" width="5.2917" height="9.2604" stroke-width=".062673"/><rect x="89.958" y="89.958" width="6.6146" height="3.9687" stroke-width=".045872"/><rect transform="scale(1,-1)" x="95.25" y="-185.21" width="5.2917" height="10.583" stroke-width=".067"/><rect transform="scale(1,-1)" x="89.958" y="-179.92" width="7.9375" height="5.2917" stroke-width=".058024"/><rect x="70.115" y="89.958" width="5.2917" height="89.958" stroke-width=".19534"/><rect x="74.083" y="93.927" width="6.6146" height="80.698" stroke-width=".20685"/><rect x="66.146" y="105.83" width="6.6146" height="63.5" stroke-width=".18349"/><rect x="59.531" y="108.48" width="9.2604" height="52.917" stroke-width=".19819"/><rect x="55.562" y="156.1" width="6.6146" height="5.2917" stroke-width=".052968"/><rect x="55.562" y="108.48" width="6.6146" height="5.2917" stroke-width=".052968"/></g><g transform="matrix(-1 0 0 1 157.43 -74.083)" fill="#ff8510"><rect x="96.573" y="84.667" width="6.6146" height="9.2604" stroke-width=".07007"/><rect x="91.281" y="89.958" width="6.6146" height="3.9687" stroke-width=".045872"/><rect transform="scale(1,-1)" x="96.573" y="-185.21" width="6.6146" height="10.583" stroke-width=".074908"/><rect transform="scale(1,-1)" x="91.281" y="-179.92" width="6.6146" height="5.2917" stroke-width=".052968"/><rect x="71.437" y="89.958" width="5.2917" height="89.958" stroke-width=".19534"/><rect x="74.083" y="93.927" width="6.6146" height="80.698" stroke-width=".20685"/><rect x="67.469" y="104.51" width="5.2917" height="64.823" stroke-width=".16582"/><rect x="62.177" y="108.48" width="7.9375" height="52.917" stroke-width=".18349"/><rect x="56.885" y="156.1" width="6.6146" height="5.2917" stroke-width=".052968"/><rect x="56.885" y="108.48" width="6.6146" height="5.2917" stroke-width=".052968"/></g><g transform="translate(-44.979 -74.083)" fill="#af4102"><rect x="59.531" y="119.06" width="7.9375" height="31.75" stroke-width=".14213"/><rect x="64.823" y="108.48" width="7.9375" height="52.917" stroke-width=".18349"/><rect x="70.115" y="104.51" width="9.2604" height="60.854" stroke-width=".21254"/><rect x="75.406" y="99.219" width="14.552" height="70.115" stroke-width=".28598"/><rect x="85.99" y="93.927" width="14.552" height="80.698" stroke-width=".30681"/></g><g transform="matrix(-1 0 0 1 156.1 -74.083)" fill="#af4102"><rect x="59.531" y="119.06" width="7.9375" height="31.75" stroke-width=".14213"/><rect x="64.823" y="108.48" width="7.9375" height="52.917" stroke-width=".18349"/><rect x="70.115" y="104.51" width="9.2604" height="60.854" stroke-width=".21254"/><rect x="75.406" y="99.219" width="14.552" height="70.115" stroke-width=".28598"/><rect x="85.99" y="93.927" width="15.875" height="80.698" stroke-width=".32045"/></g><g transform="translate(-44.979 -74.083)" fill="#d66c03"><rect x="76.729" y="104.51" width="10.583" height="60.854" stroke-width=".18551"/><rect x="85.99" y="99.219" width="14.552" height="70.115" stroke-width=".2335"/><rect x="70.115" y="108.48" width="7.9375" height="52.917" stroke-width=".14982"/><rect x="64.823" y="119.06" width="6.6146" height="31.75" stroke-width=".10594"/></g><g transform="matrix(-1 0 0 1 156.1 -74.083)"><rect x="76.729" y="104.51" width="10.583" height="60.854" fill="#d66c03" stroke-width=".18551"/><rect x="85.99" y="99.219" width="17.198" height="70.115" fill="#d66c03" stroke-width=".25384"/><rect x="70.115" y="108.48" width="7.9375" height="52.917" fill="#d66c03" stroke-width=".14982"/><rect x="64.823" y="119.06" width="6.6146" height="31.75" fill="#d56b01" stroke-width=".10594"/></g><g transform="translate(-44.979 -74.083)" fill="#ff9400"><rect x="89.958" y="104.51" width="10.583" height="46.302" stroke-width=".072368"/><rect x="85.99" y="108.48" width="3.9688" height="42.333" stroke-width=".042374"/><rect x="75.406" y="113.77" width="11.906" height="37.042" stroke-width=".068654"/><rect transform="scale(-1,1)" x="-111.13" y="104.51" width="11.906" height="46.302" stroke-width=".076758"/><rect transform="scale(-1,1)" x="-115.09" y="108.48" width="3.9688" height="42.333" stroke-width=".042374"/><rect transform="scale(-1,1)" x="-125.68" y="113.77" width="11.906" height="37.042" stroke-width=".068654"/></g><g transform="translate(-44.979 -74.083)"><rect x="75.406" y="113.77" width="5.2917" height="21.167" stroke-width=".094752"/><rect x="70.115" y="119.06" width="6.6146" height="10.583" stroke-width=".074908"/><rect x="80.698" y="124.35" width="5.2917" height="15.875" stroke-width=".082058"/><rect x="84.667" y="129.65" width="10.583" height="10.583" stroke-width=".094752"/><rect x="95.25" y="119.06" width="5.2917" height="15.875" stroke-width=".082058"/><rect x="75.406" y="145.52" width="25.135" height="15.875" stroke-width=".17884"/><rect x="70.115" y="150.81" width="5.2917" height="5.2917" stroke-width=".047376"/></g><g transform="matrix(-1 0 0 1 156.1 -74.083)"><rect x="75.406" y="113.77" width="5.2917" height="21.167" stroke-width=".094752"/><rect x="70.115" y="119.06" width="6.6146" height="10.583" stroke-width=".074908"/><rect x="80.698" y="124.35" width="5.2917" height="15.875" stroke-width=".082058"/><rect x="84.667" y="129.65" width="10.583" height="10.583" stroke-width=".094752"/><rect x="95.25" y="119.06" width="6.6146" height="15.875" stroke-width=".091743"/><rect x="75.406" y="145.52" width="26.458" height="15.875" stroke-width=".18349"/><rect x="70.115" y="150.81" width="5.2917" height="5.2917" stroke-width=".047376"/></g><g transform="translate(-44.979 -74.083)" fill="#fff" stroke-width=".047376"><rect x="95.25" y="150.81" width="5.2917" height="5.2917"/><rect x="84.667" y="150.81" width="5.2917" height="5.2917"/><rect x="75.406" y="124.35" width="5.2917" height="5.2917"/><rect x="75.406" y="150.81" width="5.2917" height="5.2917"/></g><g transform="matrix(-1 0 0 1 156.1 -74.083)" fill="#fff"><rect x="95.25" y="150.81" width="6.6146" height="5.2917" stroke-width=".052968"/><rect x="84.667" y="150.81" width="5.2917" height="5.2917" stroke-width=".047376"/><rect x="75.406" y="124.35" width="5.2917" height="5.2917" stroke-width=".047376"/><rect x="75.406" y="150.81" width="5.2917" height="5.2917" stroke-width=".047376"/></g></svg>
