<svg xmlns="http://www.w3.org/2000/svg" xml:space="preserve" width="70px" height="70px" viewBox="0 0 111.12 121.71"><g fill="#fbd50c"><path d="M15.875 5.292h5.292v5.292h-5.292zM21.167 10.584h9.26v100.54h-9.26zM15.875 111.127h5.292v5.292h-5.292z"/><path d="M15.875 26.457h7.938v68.792h-7.938z"/><path d="M10.583 31.747h8.319v59.531h-8.319z"/><path d="M5.292 39.687h7.938v5.292H5.292z"/><path d="M0 34.397h13.229v5.292H0zM5.292 76.727h7.938v5.292H5.292z"/><path d="M0 82.017h13.229v5.292H0zM29.104 15.875h21.167v89.958H29.104z"/><path d="M44.979 10.584h5.292v7.938h-5.292zM44.979 103.187h5.292v7.938h-5.292zM50.271 108.477h5.292v13.229h-5.292zM50.271 0h5.292v13.229h-5.292z"/><path d="M50.271 10.584h5.292v100.54h-5.292zM95.251 5.292h-5.292v5.292h5.292zM89.961 10.584h-9.26v100.54h9.26zM95.251 111.127h-5.292v5.292h5.292z"/><path d="M95.251 26.457h-7.938v68.792h7.938z"/><path d="M100.541 31.747h-8.319v58.208h8.319z"/><path d="M105.831 39.687h-7.938v5.292h7.938z"/><path d="M111.121 34.397H97.892v5.292h13.229zM105.831 76.727h-7.938v5.292h7.938z"/><path d="M111.121 82.017H97.892v5.292h13.229zM82.021 15.875H60.854v89.958h21.167z"/><path d="M66.141 10.584h-5.292v7.938h5.292zM66.141 103.187h-5.292v7.938h5.292z"/><path d="M60.851 108.477h-5.292v13.229h5.292zM60.851 0h-5.292v13.229h5.292z"/><path d="M60.851 10.584h-5.292v100.54h5.292z"/></g><g fill="#ff8510"><path d="M50.271 10.584h5.292v9.26h-5.292z"/><path d="M44.979 15.875h6.615v3.969h-6.615zM50.271 111.127h5.292v-10.583h-5.292z"/><path d="M44.979 105.837h7.938v-5.292h-7.938zM25.136 15.875h5.292v89.958h-5.292z"/><path d="M29.104 19.844h6.615v80.698h-6.615zM21.167 31.747h6.615v63.5h-6.615z"/><path d="M14.552 34.397h9.26v52.917h-9.26z"/><path d="M10.583 82.017h6.615v5.292h-6.615zM10.583 34.397h6.615v5.292h-6.615z"/></g><g fill="#ff8510"><path d="M60.857 10.584h-6.615v9.26h6.615z"/><path d="M66.149 15.875h-6.615v3.969h6.615zM60.857 111.127h-6.615v-10.583h6.615z"/><path d="M66.149 105.837h-6.615v-5.292h6.615zM85.993 15.875h-5.292v89.958h5.292z"/><path d="M83.347 19.844h-6.615v80.698h6.615zM89.961 30.427h-5.292V95.25h5.292z"/><path d="M95.253 34.397h-7.938v52.917h7.938z"/><path d="M100.545 82.017H93.93v5.292h6.615zM100.545 34.397H93.93v5.292h6.615z"/></g><g fill="#af4102"><path d="M14.552 44.977h7.938v31.75h-7.938z"/><path d="M19.844 34.397h7.938v52.917h-7.938z"/><path d="M25.136 30.427h9.26v60.854h-9.26z"/><path d="M30.427 25.136h14.552v70.115H30.427z"/><path d="M41.011 19.844h14.552v80.698H41.011z"/></g><g fill="#af4102"><path d="M96.569 44.977h-7.938v31.75h7.938z"/><path d="M91.277 34.397h-7.938v52.917h7.938z"/><path d="M85.985 30.427h-9.26v60.854h9.26z"/><path d="M80.694 25.136H66.142v70.115h14.552z"/><path d="M70.11 19.844H54.235v80.698H70.11z"/></g><g fill="#d66c03"><path d="M31.75 30.427h10.583v60.854H31.75z"/><path d="M41.011 25.136h14.552v70.115H41.011zM25.136 34.397h7.938v52.917h-7.938z"/><path d="M19.844 44.977h6.615v31.75h-6.615z"/></g><path fill="#d66c03" d="M79.371 30.427H68.788v60.854h10.583z"/><path fill="#d66c03" d="M70.11 25.136H52.912v70.115H70.11zM85.985 34.397h-7.938v52.917h7.938z"/><path fill="#d56b01" d="M91.277 44.977h-6.615v31.75h6.615z"/><g fill="#ff9400"><path d="M44.979 30.427h10.583v46.302H44.979z"/><path d="M41.011 34.397h3.969V76.73h-3.969z"/><path d="M30.427 39.687h11.906v37.042H30.427zM66.151 30.427H54.245v46.302h11.906z"/><path d="M70.111 34.397h-3.969V76.73h3.969z"/><path d="M80.701 39.687H68.795v37.042h11.906z"/></g><path d="M30.427 39.687h5.292v21.167h-5.292z"/><path d="M25.136 44.977h6.615V55.56h-6.615zM35.719 50.267h5.292v15.875h-5.292z"/><path d="M39.688 55.567h10.583V66.15H39.688zM50.271 44.977h5.292v15.875h-5.292zM30.427 71.437h25.135v15.875H30.427z"/><path d="M25.136 76.727h5.292v5.292h-5.292zM80.694 39.687h-5.292v21.167h5.292z"/><path d="M85.985 44.977H79.37V55.56h6.615zM75.402 50.267H70.11v15.875h5.292z"/><path d="M71.433 55.567H60.85V66.15h10.583zM60.85 44.977h-6.615v15.875h6.615zM80.694 71.437H54.236v15.875h26.458z"/><path d="M85.985 76.727h-5.292v5.292h5.292z"/><g fill="#fff" stroke-width=".047"><path d="M50.271 76.727h5.292v5.292h-5.292zM39.688 76.727h5.292v5.292h-5.292zM30.427 50.267h5.292v5.292h-5.292zM30.427 76.727h5.292v5.292h-5.292z"/></g><g fill="#fff"><path d="M60.85 76.727h-6.615v5.292h6.615zM71.433 76.727h-5.292v5.292h5.292zM80.694 50.267h-5.292v5.292h5.292zM80.694 76.727h-5.292v5.292h5.292z"/></g></svg>
