<?xml version="1.0" encoding="UTF-8"?>
<svg version="1.1" viewBox="0 0 34.925 21.696" xmlns="http://www.w3.org/2000/svg" xmlns:cc="http://creativecommons.org/ns#" xmlns:dc="http://purl.org/dc/elements/1.1/" xmlns:rdf="http://www.w3.org/1999/02/22-rdf-syntax-ns#">
 <metadata>
  <rdf:RDF>
   <cc:Work rdf:about="">
    <dc:format>image/svg+xml</dc:format>
    <dc:type rdf:resource="http://purl.org/dc/dcmitype/StillImage"/>
    <dc:title/>
   </cc:Work>
  </rdf:RDF>
 </metadata>
 <g transform="translate(-141.82 -83.079)">
  <g transform="translate(-19.579 -.52917)">
   <g transform="translate(19.579 .52917)">
    <g stroke-width=".067">
     <rect x="160.34" y="85.725" width=".52917" height=".52917"/>
     <rect x="160.87" y="85.725" width=".52917" height=".52917"/>
     <rect x="161.4" y="85.725" width=".52917" height=".52917"/>
     <rect x="161.92" y="85.725" width=".52917" height=".52917"/>
     <rect x="162.45" y="85.725" width=".52917" height=".52917"/>
     <rect x="162.45" y="86.254" width=".52917" height=".52917"/>
     <rect x="161.92" y="86.783" width=".52917" height=".52917"/>
     <rect x="161.4" y="87.312" width=".52917" height=".52917"/>
     <rect x="161.4" y="87.842" width=".52917" height=".52917"/>
     <rect x="161.4" y="88.371" width=".52917" height=".52917"/>
     <rect x="161.92" y="88.9" width=".52917" height=".52917"/>
     <rect x="161.92" y="89.429" width=".52917" height=".52917"/>
     <rect x="161.92" y="89.958" width=".52917" height=".52917"/>
     <rect x="161.4" y="89.958" width=".52917" height=".52917"/>
     <rect x="160.87" y="89.958" width=".52917" height=".52917"/>
     <rect x="160.87" y="89.429" width=".52917" height=".52917"/>
     <rect x="160.34" y="89.429" width=".52917" height=".52917"/>
     <rect x="159.81" y="88.9" width=".52917" height=".52917"/>
     <rect x="159.28" y="88.9" width=".52917" height=".52917"/>
     <rect x="158.75" y="88.371" width=".52917" height=".52917"/>
     <rect x="158.22" y="88.9" width=".52917" height=".52917"/>
     <rect x="157.69" y="88.9" width=".52917" height=".52917"/>
     <rect x="157.16" y="89.429" width=".52917" height=".52917"/>
     <rect x="156.63" y="89.429" width=".52917" height=".52917"/>
     <rect x="156.63" y="89.958" width=".52917" height=".52917"/>
     <rect x="156.1" y="89.958" width=".52917" height=".52917"/>
     <rect x="155.58" y="89.958" width=".52917" height=".52917"/>
     <rect x="155.58" y="89.429" width=".52917" height=".52917"/>
     <rect x="155.58" y="88.9" width=".52917" height=".52917"/>
     <rect x="156.1" y="88.371" width=".52917" height=".52917"/>
     <rect x="156.1" y="87.312" width=".52917" height=".52917"/>
     <rect x="156.63" y="87.842" width=".52917" height=".52917"/>
     <rect x="155.58" y="86.783" width=".52917" height=".52917"/>
     <rect x="155.05" y="86.254" width=".52917" height=".52917"/>
     <rect x="155.05" y="85.725" width=".52917" height=".52917"/>
     <rect x="155.58" y="85.725" width=".52917" height=".52917"/>
     <rect x="156.1" y="85.725" width=".52917" height=".52917"/>
     <rect x="156.63" y="85.725" width=".52917" height=".52917"/>
     <rect x="157.16" y="85.725" width=".52917" height=".52917"/>
     <rect x="157.16" y="85.196" width=".52917" height=".52917"/>
     <rect x="157.69" y="84.667" width=".52917" height=".52917"/>
     <rect x="157.16" y="84.667" width=".52917" height=".52917"/>
     <rect x="156.63" y="84.667" width=".52917" height=".52917"/>
     <rect x="156.1" y="84.667" width=".52917" height=".52917"/>
     <rect x="155.58" y="85.196" width=".52917" height=".52917"/>
     <rect x="157.69" y="84.137" width=".52917" height=".52917"/>
     <rect x="158.22" y="84.137" width=".52917" height=".52917"/>
     <rect x="158.75" y="83.608" width=".52917" height=".52917"/>
     <rect x="159.28" y="83.079" width=".52917" height=".52917"/>
     <rect x="159.28" y="83.608" width=".52917" height=".52917"/>
     <rect x="159.81" y="83.608" width=".52917" height=".52917"/>
     <rect x="159.81" y="84.137" width=".52917" height=".52917"/>
     <rect x="160.34" y="84.137" width=".52917" height=".52917"/>
     <rect x="159.81" y="84.667" width=".52917" height=".52917"/>
     <rect x="160.34" y="85.196" width=".52917" height=".52917"/>
     <rect x="160.87" y="84.667" width=".52917" height=".52917"/>
     <rect x="161.4" y="84.667" width=".52917" height=".52917"/>
     <rect x="161.92" y="84.667" width=".52917" height=".52917"/>
     <rect x="162.45" y="84.667" width=".52917" height=".52917"/>
     <rect x="162.98" y="84.667" width=".52917" height=".52917"/>
     <rect x="162.98" y="85.196" width=".52917" height=".52917"/>
     <rect x="162.98" y="85.725" width=".52917" height=".52917"/>
     <rect x="161.92" y="87.312" width=".52917" height=".52917"/>
     <rect x="162.45" y="87.842" width=".52917" height=".52917"/>
     <rect x="162.98" y="88.371" width=".52917" height=".52917"/>
     <rect x="162.98" y="88.9" width=".52917" height=".52917"/>
     <rect x="162.45" y="89.429" width=".52917" height=".52917"/>
     <rect x="158.22" y="85.725" width=".52917" height=".52917"/>
     <rect x="158.22" y="86.254" width=".52917" height=".52917"/>
     <rect x="159.28" y="85.725" width=".52917" height=".52917"/>
     <rect x="159.28" y="86.254" width=".52917" height=".52917"/>
    </g>
    <g fill="#ede821">
     <rect x="158.75" y="84.137" width=".52917" height="4.2333" stroke-width=".1895"/>
     <rect x="159.28" y="84.137" width=".52917" height="1.5875" stroke-width=".11605"/>
     <rect x="159.81" y="85.196" width=".52917" height="1.0583" stroke-width=".094752"/>
     <rect x="161.92" y="86.254" width=".52917" height=".52917" stroke-width=".067"/>
     <rect x="159.81" y="86.254" width="2.1167" height="1.0583" stroke-width=".1895"/>
     <rect x="159.28" y="86.783" width=".52917" height="2.1167" stroke-width=".134"/>
     <rect x="159.81" y="87.312" width="1.5875" height="1.5875" stroke-width=".201"/>
     <rect x="160.34" y="88.9" width="1.5875" height=".52917" stroke-width=".11605"/>
     <rect x="161.4" y="89.429" width=".52917" height=".52917" stroke-width=".067"/>
     <rect x="158.22" y="84.667" width=".52917" height="1.0583" stroke-width=".094752"/>
     <rect x="157.69" y="85.196" width=".52917" height="1.0583" stroke-width=".094752"/>
     <rect x="155.58" y="86.254" width="2.6459" height=".52917" stroke-width=".14982"/>
     <rect x="156.1" y="86.783" width=".52917" height=".52917" stroke-width=".067"/>
     <rect x="156.63" y="86.783" width="2.1167" height="1.0583" stroke-width=".18951"/>
     <rect x="157.16" y="87.842" width="1.5875" height="1.0583" stroke-width=".16412"/>
     <rect x="156.63" y="88.371" width=".52917" height=".52917" stroke-width=".067"/>
     <rect x="156.1" y="88.9" width="1.5875" height=".52917" stroke-width=".11605"/>
    </g>
    <rect x="156.1" y="89.429" width=".52917" height=".52917" fill="#ede820" stroke-width=".067"/>
    <g fill="#6e5033">
     <rect x="156.1" y="85.196" width="1.0583" height=".52917" stroke-width=".094752"/>
     <rect x="160.34" y="84.667" width=".52917" height=".52917" stroke-width=".067"/>
     <rect x="160.87" y="85.196" width="2.1167" height=".52917" stroke-width=".134"/>
     <rect x="161.92" y="87.842" width=".52917" height="1.0583" stroke-width=".094752"/>
     <rect x="162.45" y="88.371" width=".52917" height="1.0583" stroke-width=".094752"/>
    </g>
    <g>
     <rect x="150.81" y="93.133" width=".52917" height="8.4667" stroke-width=".268"/>
     <g stroke-width=".067">
      <rect x="153.99" y="88.371" width=".52917" height=".52917"/>
      <rect x="154.52" y="87.842" width=".52917" height=".52917"/>
      <rect x="155.05" y="87.312" width=".52917" height=".52917"/>
      <rect x="155.58" y="87.312" width=".52917" height=".52917"/>
      <rect x="153.46" y="88.9" width=".52917" height=".52917"/>
      <rect x="152.93" y="89.429" width=".52917" height=".52917"/>
     </g>
     <rect x="152.4" y="89.958" width=".52917" height="1.0583" stroke-width=".094752"/>
     <rect x="151.34" y="91.546" width=".52917" height="1.5875" stroke-width=".11605"/>
     <rect x="151.87" y="91.017" width=".52917" height=".52917" stroke-width=".067"/>
     <rect x="162.45" y="87.312" width="1.0583" height=".52917" stroke-width=".094753"/>
     <g stroke-width=".067">
      <rect x="163.51" y="87.842" width=".52917" height=".52917"/>
      <rect x="164.04" y="88.371" width=".52917" height=".52917"/>
      <rect x="164.57" y="88.9" width=".52917" height=".52917"/>
      <rect x="165.1" y="89.429" width=".52917" height=".52917"/>
      <rect x="165.63" y="89.958" width=".52917" height=".52917"/>
     </g>
     <rect x="166.16" y="90.488" width=".52917" height="1.0583" stroke-width=".094752"/>
     <rect x="166.69" y="91.546" width=".52917" height="1.5875" stroke-width=".11605"/>
     <rect x="167.22" y="93.133" width=".52917" height="8.4667" stroke-width=".268"/>
     <rect x="157.16" y="91.017" width="1.0583" height="2.6458" stroke-width=".21187"/>
     <rect x="160.34" y="91.017" width="1.0583" height="2.6458" stroke-width=".21187"/>
    </g>
    <g fill="#8278d6">
     <rect x="151.34" y="101.6" width=".52917" height=".52917" stroke-width=".067"/>
     <rect x="151.87" y="102.13" width="2.1167" height=".52917" stroke-width=".134"/>
     <rect x="153.99" y="102.66" width="2.1167" height=".52917" stroke-width=".134"/>
     <rect x="156.1" y="103.19" width="6.3501" height=".52917" stroke-width=".2321"/>
     <rect x="162.45" y="102.66" width="2.1167" height=".52917" stroke-width=".134"/>
     <rect x="163.51" y="102.13" width="2.1167" height=".52917" stroke-width=".134"/>
     <rect x="164.04" y="93.133" width="3.175" height="8.9958" stroke-width=".67667"/>
     <rect x="164.04" y="91.546" width="2.6458" height="1.5875" stroke-width=".25949"/>
     <rect x="164.04" y="90.487" width="2.1167" height="1.0583" stroke-width=".1895"/>
     <rect x="164.04" y="89.958" width="1.5875" height=".52917" stroke-width=".11605"/>
     <rect x="162.98" y="89.429" width="2.1167" height=".52917" stroke-width=".134"/>
     <rect x="163.51" y="88.9" width="1.0583" height=".52917" stroke-width=".094752"/>
     <rect x="163.51" y="88.371" width=".52917" height=".52917" stroke-width=".067"/>
     <rect x="163.51" y="89.958" width=".52917" height=".52917" stroke-width=".067"/>
     <rect x="163.51" y="90.487" width=".52917" height="3.175" stroke-width=".16412"/>
    </g>
    <g fill="#8aa9c6" stroke-width=".067">
     <rect x="160.34" y="102.13" width="2.1167" height="1.0583"/>
     <rect x="162.45" y="102.13" width="1.0583" height=".52917"/>
     <rect x="160.87" y="93.662" width="3.175" height="8.4667"/>
     <rect x="162.45" y="89.958" width="1.0583" height="3.7042"/>
     <rect x="161.92" y="90.487" width=".52917" height="3.175"/>
    </g>
    <g fill="#adeed2" stroke-width=".067">
     <rect x="161.4" y="90.487" width=".52917" height="3.175"/>
     <rect x="156.1" y="87.842" width=".52917" height=".52917"/>
     <rect x="155.05" y="87.842" width="1.0583" height="1.0583"/>
     <rect x="154.52" y="88.371" width=".52917" height=".52917"/>
     <rect x="158.75" y="88.9" width=".52917" height=".52917"/>
     <rect x="157.69" y="89.429" width="2.6458" height=".52917"/>
     <rect x="157.16" y="89.958" width="3.7042" height="1.0583"/>
     <rect x="160.87" y="90.487" width=".52917" height=".52917"/>
     <rect x="158.22" y="91.017" width="2.1167" height="12.171"/>
     <rect x="160.34" y="93.662" width=".52917" height="8.4667"/>
     <rect x="157.16" y="93.662" width="1.0583" height="9.525"/>
     <rect x="156.1" y="90.487" width="1.0583" height="12.7"/>
     <rect x="152.93" y="89.958" width="2.6458" height="12.171"/>
     <rect x="153.99" y="102.13" width="2.1167" height=".52917"/>
     <rect x="155.58" y="90.487" width=".52917" height="11.642"/>
     <rect x="152.4" y="91.017" width=".52917" height="11.112"/>
     <rect x="151.87" y="91.546" width=".52917" height="10.583"/>
     <rect x="151.34" y="93.133" width=".52917" height="8.4667"/>
     <rect x="153.46" y="89.429" width="2.1167" height=".52917"/>
     <rect x="153.99" y="88.9" width="1.5875" height=".52917"/>
     <rect x="154.52" y="88.371" width="1.5875" height=".52917"/>
     <rect x="155.05" y="87.842" width="1.5875" height=".52917"/>
    </g>
   </g>
   <g fill="#72b499" stroke-width=".067">
    <rect x="171.45" y="94.192" width=".52917" height=".52917"/>
    <rect x="173.04" y="96.838" width=".52917" height=".52917"/>
    <rect x="175.15" y="98.425" width=".52917" height=".52917"/>
    <rect x="173.04" y="100.01" width=".52917" height=".52917"/>
    <rect x="175.68" y="101.6" width=".52917" height=".52917"/>
    <rect x="178.86" y="103.19" width=".52917" height=".52917"/>
    <rect x="177.8" y="101.07" width=".52917" height=".52917"/>
    <rect x="176.74" y="99.483" width=".52917" height=".52917"/>
    <rect x="179.92" y="98.425" width=".52917" height=".52917"/>
    <rect x="177.8" y="97.896" width=".52917" height=".52917"/>
    <rect x="178.86" y="96.838" width=".52917" height=".52917"/>
    <rect x="176.21" y="95.779" width=".52917" height=".52917"/>
    <rect x="178.33" y="94.721" width=".52917" height=".52917"/>
    <rect x="179.92" y="95.779" width=".52917" height=".52917"/>
    <rect x="174.1" y="94.192" width=".52917" height=".52917"/>
    <rect x="173.57" y="91.017" width=".52917" height=".52917"/>
   </g>
  </g>
  <g>
   <g fill="#8278d6" stroke-width=".067">
    <rect x="147.11" y="93.662" width="2.6458" height=".52917"/>
    <rect x="149.22" y="91.546" width="1.0583" height="2.1167"/>
    <rect x="149.22" y="91.017" width=".52917" height=".52917"/>
   </g>
   <rect x="147.64" y="91.017" width="1.5875" height="2.6458" fill="#adeed2" stroke-width=".067"/>
   <rect x="147.11" y="91.017" width=".52917" height="2.6458" fill="#adeed2" stroke-width=".067"/>
   <g>
    <rect x="146.05" y="91.546" width=".52917" height="2.1167" stroke-width=".059926"/>
    <g stroke-width=".067">
     <rect x="147.11" y="90.487" width="2.6458" height=".52917"/>
     <rect x="149.75" y="91.017" width=".52917" height=".52917"/>
     <rect x="150.28" y="91.546" width=".52917" height="2.1167"/>
     <rect x="146.58" y="91.017" width=".52917" height=".52917"/>
    </g>
   </g>
   <rect x="146.58" y="91.546" width=".52917" height="2.1167" fill="#adeed2" stroke-width=".067"/>
  </g>
  <g transform="translate(-4.2333 3.7042)">
   <g fill="#8278d6" stroke-width=".067">
    <rect x="147.11" y="93.662" width="2.6458" height=".52917"/>
    <rect x="149.22" y="91.546" width="1.0583" height="2.1167"/>
    <rect x="149.22" y="91.017" width=".52917" height=".52917"/>
   </g>
   <rect x="147.64" y="91.017" width="1.5875" height="2.6458" fill="#adeed2" stroke-width=".067"/>
   <rect x="147.11" y="91.017" width=".52917" height="2.6458" fill="#adeed2" stroke-width=".067"/>
   <g>
    <rect x="146.05" y="91.546" width=".52917" height="2.1167" stroke-width=".059926"/>
    <g stroke-width=".067">
     <rect x="147.11" y="90.487" width="2.6458" height=".52917"/>
     <rect x="149.75" y="91.017" width=".52917" height=".52917"/>
     <rect x="150.28" y="91.546" width=".52917" height="2.1167"/>
     <rect x="146.58" y="91.017" width=".52917" height=".52917"/>
    </g>
   </g>
   <rect x="146.58" y="91.546" width=".52917" height="2.1167" fill="#adeed2" stroke-width=".067"/>
  </g>
  <g transform="translate(-4.2333 7.4083)">
   <g fill="#8278d6" stroke-width=".067">
    <rect x="147.11" y="93.662" width="2.6458" height=".52917"/>
    <rect x="149.22" y="91.546" width="1.0583" height="2.1167"/>
    <rect x="149.22" y="91.017" width=".52917" height=".52917"/>
   </g>
   <rect x="147.64" y="91.017" width="1.5875" height="2.6458" fill="#adeed2" stroke-width=".067"/>
   <rect x="147.11" y="91.017" width=".52917" height="2.6458" fill="#adeed2" stroke-width=".067"/>
   <g>
    <rect x="146.05" y="91.546" width=".52917" height="2.1167" stroke-width=".059926"/>
    <g stroke-width=".067">
     <rect x="147.11" y="90.487" width="2.6458" height=".52917"/>
     <rect x="149.75" y="91.017" width=".52917" height=".52917"/>
     <rect x="150.28" y="91.546" width=".52917" height="2.1167"/>
     <rect x="146.58" y="91.017" width=".52917" height=".52917"/>
    </g>
   </g>
   <rect x="146.58" y="91.546" width=".52917" height="2.1167" fill="#adeed2" stroke-width=".067"/>
  </g>
  <g transform="translate(4.4553e-6 10.583)">
   <g fill="#8278d6" stroke-width=".067">
    <rect x="147.11" y="93.662" width="2.6458" height=".52917"/>
    <rect x="149.22" y="91.546" width="1.0583" height="2.1167"/>
    <rect x="149.22" y="91.017" width=".52917" height=".52917"/>
   </g>
   <rect x="147.64" y="91.017" width="1.5875" height="2.6458" fill="#adeed2" stroke-width=".067"/>
   <rect x="147.11" y="91.017" width=".52917" height="2.6458" fill="#adeed2" stroke-width=".067"/>
   <g>
    <rect x="146.05" y="91.546" width=".52917" height="2.1167" stroke-width=".059926"/>
    <g stroke-width=".067">
     <rect x="147.11" y="90.487" width="2.6458" height=".52917"/>
     <rect x="149.75" y="91.017" width=".52917" height=".52917"/>
     <rect x="150.28" y="91.546" width=".52917" height="2.1167"/>
     <rect x="146.58" y="91.017" width=".52917" height=".52917"/>
    </g>
   </g>
   <rect x="146.58" y="91.546" width=".52917" height="2.1167" fill="#adeed2" stroke-width=".067"/>
  </g>
  <g transform="translate(21.696 10.583)">
   <g fill="#8278d6" stroke-width=".067">
    <rect x="147.11" y="93.662" width="2.6458" height=".52917"/>
    <rect x="149.22" y="91.546" width="1.0583" height="2.1167"/>
    <rect x="149.22" y="91.017" width=".52917" height=".52917"/>
   </g>
   <rect x="147.64" y="91.017" width="1.5875" height="2.6458" fill="#adeed2" stroke-width=".067"/>
   <rect x="147.11" y="91.017" width=".52917" height="2.6458" fill="#adeed2" stroke-width=".067"/>
   <g>
    <rect x="146.05" y="91.546" width=".52917" height="2.1167" stroke-width=".059926"/>
    <g stroke-width=".067">
     <rect x="147.11" y="90.487" width="2.6458" height=".52917"/>
     <rect x="149.75" y="91.017" width=".52917" height=".52917"/>
     <rect x="150.28" y="91.546" width=".52917" height="2.1167"/>
     <rect x="146.58" y="91.017" width=".52917" height=".52917"/>
    </g>
   </g>
   <rect x="146.58" y="91.546" width=".52917" height="2.1167" fill="#adeed2" stroke-width=".067"/>
  </g>
  <g transform="translate(25.929 7.4083)">
   <g fill="#8278d6" stroke-width=".067">
    <rect x="147.11" y="93.662" width="2.6458" height=".52917"/>
    <rect x="149.22" y="91.546" width="1.0583" height="2.1167"/>
    <rect x="149.22" y="91.017" width=".52917" height=".52917"/>
   </g>
   <rect x="147.64" y="91.017" width="1.5875" height="2.6458" fill="#adeed2" stroke-width=".067"/>
   <rect x="147.11" y="91.017" width=".52917" height="2.6458" fill="#adeed2" stroke-width=".067"/>
   <g>
    <rect x="146.05" y="91.546" width=".52917" height="2.1167" stroke-width=".059926"/>
    <g stroke-width=".067">
     <rect x="147.11" y="90.487" width="2.6458" height=".52917"/>
     <rect x="149.75" y="91.017" width=".52917" height=".52917"/>
     <rect x="150.28" y="91.546" width=".52917" height="2.1167"/>
     <rect x="146.58" y="91.017" width=".52917" height=".52917"/>
    </g>
   </g>
   <rect x="146.58" y="91.546" width=".52917" height="2.1167" fill="#adeed2" stroke-width=".067"/>
  </g>
  <g transform="translate(25.929 3.7042)">
   <g fill="#8278d6" stroke-width=".067">
    <rect x="147.11" y="93.662" width="2.6458" height=".52917"/>
    <rect x="149.22" y="91.546" width="1.0583" height="2.1167"/>
    <rect x="149.22" y="91.017" width=".52917" height=".52917"/>
   </g>
   <rect x="147.64" y="91.017" width="1.5875" height="2.6458" fill="#adeed2" stroke-width=".067"/>
   <rect x="147.11" y="91.017" width=".52917" height="2.6458" fill="#adeed2" stroke-width=".067"/>
   <g>
    <rect x="146.05" y="91.546" width=".52917" height="2.1167" stroke-width=".059926"/>
    <g stroke-width=".067">
     <rect x="147.11" y="90.487" width="2.6458" height=".52917"/>
     <rect x="149.75" y="91.017" width=".52917" height=".52917"/>
     <rect x="150.28" y="91.546" width=".52917" height="2.1167"/>
     <rect x="146.58" y="91.017" width=".52917" height=".52917"/>
    </g>
   </g>
   <rect x="146.58" y="91.546" width=".52917" height="2.1167" fill="#adeed2" stroke-width=".067"/>
  </g>
  <g transform="translate(21.696)">
   <g fill="#8278d6" stroke-width=".067">
    <rect x="147.11" y="93.662" width="2.6458" height=".52917"/>
    <rect x="149.22" y="91.546" width="1.0583" height="2.1167"/>
    <rect x="149.22" y="91.017" width=".52917" height=".52917"/>
   </g>
   <rect x="147.64" y="91.017" width="1.5875" height="2.6458" fill="#adeed2" stroke-width=".067"/>
   <rect x="147.11" y="91.017" width=".52917" height="2.6458" fill="#adeed2" stroke-width=".067"/>
   <g>
    <rect x="146.05" y="91.546" width=".52917" height="2.1167" stroke-width=".059926"/>
    <g stroke-width=".067">
     <rect x="147.11" y="90.487" width="2.6458" height=".52917"/>
     <rect x="149.75" y="91.017" width=".52917" height=".52917"/>
     <rect x="150.28" y="91.546" width=".52917" height="2.1167"/>
     <rect x="146.58" y="91.017" width=".52917" height=".52917"/>
    </g>
   </g>
   <rect x="146.58" y="91.546" width=".52917" height="2.1167" fill="#adeed2" stroke-width=".067"/>
  </g>
 </g>
</svg>
