<svg xmlns="http://www.w3.org/2000/svg" viewBox="0 0 8.459 7.408"><g stroke-width=".067"><path d="M5.29 2.646h.529v.529H5.29zM5.82 2.646h.529v.529H5.82zM6.35 2.646h.529v.529H6.35z"/><path d="M6.87 2.646h.529v.529H6.87zM7.4 2.646h.529v.529H7.4zM7.4 3.175h.529v.529H7.4zM6.87 3.704h.529v.529H6.87z"/><path d="M6.35 4.233h.529v.529H6.35zM6.35 4.763h.529v.529H6.35zM6.35 5.292h.529v.529H6.35zM6.87 5.821h.529v.529H6.87zM6.87 6.35h.529v.529H6.87zM6.87 6.879h.529v.529H6.87z"/><path d="M6.35 6.879h.529v.529H6.35zM5.82 6.879h.529v.529H5.82zM5.82 6.35h.529v.529H5.82zM5.29 6.35h.529v.529H5.29zM4.76 5.821h.529v.529H4.76zM4.23 5.821h.529v.529H4.23zM3.7 5.292h.529v.529H3.7zM3.17 5.821h.529v.529H3.17zM2.64 5.821h.529v.529H2.64zM2.11 6.35h.529v.529H2.11zM1.58 6.35h.529v.529H1.58zM1.58 6.879h.529v.529H1.58zM1.05 6.879h.529v.529H1.05z"/><path d="M.53 6.879h.529v.529H.53zM.53 6.35h.529v.529H.53zM.53 5.821h.529v.529H.53zM1.05 5.292h.529v.529H1.05zM1.05 4.233h.529v.529H1.05zM1.58 4.763h.529v.529H1.58z"/><path d="M.53 3.704h.529v.529H.53zM0 3.175h.529v.529H0zM0 2.646h.529v.529H0zM.53 2.646h.529v.529H.53z"/><path d="M1.05 2.646h.529v.529H1.05zM1.58 2.646h.529v.529H1.58zM2.11 2.646h.529v.529H2.11zM2.11 2.117h.529v.529H2.11zM2.64 1.588h.529v.529H2.64zM2.11 1.588h.529v.529H2.11zM1.58 1.588h.529v.529H1.58zM1.05 1.588h.529v.529H1.05zM.53 2.117h.529v.529H.53zM2.64 1.058h.529v.529H2.64zM3.17 1.058h.529v.529H3.17zM3.7.529h.529v.529H3.7zM4.23 0h.529v.529H4.23zM4.23.529h.529v.529H4.23zM4.76.529h.529v.529H4.76zM4.76 1.058h.529v.529H4.76zM5.29 1.058h.529v.529H5.29zM4.76 1.588h.529v.529H4.76zM5.29 2.117h.529v.529H5.29zM5.82 1.588h.529v.529H5.82zM6.35 1.588h.529v.529H6.35z"/><path d="M6.87 1.588h.529v.529H6.87zM7.4 1.588h.529v.529H7.4zM7.93 1.588h.529v.529H7.93zM7.93 2.117h.529v.529H7.93zM7.93 2.646h.529v.529H7.93zM6.87 4.233h.529v.529H6.87zM7.4 4.763h.529v.529H7.4zM7.93 5.292h.529v.529H7.93zM7.93 5.821h.529v.529H7.93zM7.4 6.35h.529v.529H7.4zM3.17 2.646h.529v.529H3.17zM3.17 3.175h.529v.529H3.17zM4.23 2.646h.529v.529H4.23zM4.23 3.175h.529v.529H4.23z"/></g><g fill="#ede821"><path d="M3.7 1.058h.529v4.233H3.7zM4.23 1.058h.529v1.587H4.23zM4.76 2.117h.529v1.058H4.76zM6.87 3.175h.529v.529H6.87z"/><path d="M4.76 3.175h2.117v1.058H4.76zM4.23 3.704h.529v2.117H4.23zM4.76 4.233h1.587V5.82H4.76zM5.29 5.821h1.587v.529H5.29zM6.35 6.35h.529v.529H6.35zM3.17 1.588h.529v1.058H3.17zM2.64 2.117h.529v1.058H2.64zM.53 3.175h2.646v.529H.53zM1.05 3.704h.529v.529H1.05zM1.58 3.704h2.117v1.058H1.58zM2.11 4.763h1.587v1.058H2.11zM1.58 5.292h.529v.529H1.58zM1.05 5.821h1.587v.529H1.05z"/></g><path fill="#ede820" d="M1.05 6.35h.529v.529H1.05z"/><g fill="#6e5033"><path d="M1.05 2.117h1.058v.529H1.05zM5.29 1.588h.529v.529H5.29zM5.82 2.117h2.117v.529H5.82zM6.87 4.763h.529v1.058H6.87zM7.4 5.292h.529V6.35H7.4z"/></g></svg>