<?xml version="1.0" encoding="UTF-8"?>
<svg version="1.1" viewBox="0 0 8.4592 7.4082" xmlns="http://www.w3.org/2000/svg">
<g transform="translate(-185.8 -62.671)">
<g transform="translate(30.75 -20.408)" stroke-width=".067">
<rect x="160.34" y="85.725" width=".52917" height=".52917"/>
<rect x="160.87" y="85.725" width=".52917" height=".52917"/>
<rect x="161.4" y="85.725" width=".52917" height=".52917"/>
<rect x="161.92" y="85.725" width=".52917" height=".52917"/>
<rect x="162.45" y="85.725" width=".52917" height=".52917"/>
<rect x="162.45" y="86.254" width=".52917" height=".52917"/>
<rect x="161.92" y="86.783" width=".52917" height=".52917"/>
<rect x="161.4" y="87.312" width=".52917" height=".52917"/>
<rect x="161.4" y="87.842" width=".52917" height=".52917"/>
<rect x="161.4" y="88.371" width=".52917" height=".52917"/>
<rect x="161.92" y="88.9" width=".52917" height=".52917"/>
<rect x="161.92" y="89.429" width=".52917" height=".52917"/>
<rect x="161.92" y="89.958" width=".52917" height=".52917"/>
<rect x="161.4" y="89.958" width=".52917" height=".52917"/>
<rect x="160.87" y="89.958" width=".52917" height=".52917"/>
<rect x="160.87" y="89.429" width=".52917" height=".52917"/>
<rect x="160.34" y="89.429" width=".52917" height=".52917"/>
<rect x="159.81" y="88.9" width=".52917" height=".52917"/>
<rect x="159.28" y="88.9" width=".52917" height=".52917"/>
<rect x="158.75" y="88.371" width=".52917" height=".52917"/>
<rect x="158.22" y="88.9" width=".52917" height=".52917"/>
<rect x="157.69" y="88.9" width=".52917" height=".52917"/>
<rect x="157.16" y="89.429" width=".52917" height=".52917"/>
<rect x="156.63" y="89.429" width=".52917" height=".52917"/>
<rect x="156.63" y="89.958" width=".52917" height=".52917"/>
<rect x="156.1" y="89.958" width=".52917" height=".52917"/>
<rect x="155.58" y="89.958" width=".52917" height=".52917"/>
<rect x="155.58" y="89.429" width=".52917" height=".52917"/>
<rect x="155.58" y="88.9" width=".52917" height=".52917"/>
<rect x="156.1" y="88.371" width=".52917" height=".52917"/>
<rect x="156.1" y="87.312" width=".52917" height=".52917"/>
<rect x="156.63" y="87.842" width=".52917" height=".52917"/>
<rect x="155.58" y="86.783" width=".52917" height=".52917"/>
<rect x="155.05" y="86.254" width=".52917" height=".52917"/>
<rect x="155.05" y="85.725" width=".52917" height=".52917"/>
<rect x="155.58" y="85.725" width=".52917" height=".52917"/>
<rect x="156.1" y="85.725" width=".52917" height=".52917"/>
<rect x="156.63" y="85.725" width=".52917" height=".52917"/>
<rect x="157.16" y="85.725" width=".52917" height=".52917"/>
<rect x="157.16" y="85.196" width=".52917" height=".52917"/>
<rect x="157.69" y="84.667" width=".52917" height=".52917"/>
<rect x="157.16" y="84.667" width=".52917" height=".52917"/>
<rect x="156.63" y="84.667" width=".52917" height=".52917"/>
<rect x="156.1" y="84.667" width=".52917" height=".52917"/>
<rect x="155.58" y="85.196" width=".52917" height=".52917"/>
<rect x="157.69" y="84.137" width=".52917" height=".52917"/>
<rect x="158.22" y="84.137" width=".52917" height=".52917"/>
<rect x="158.75" y="83.608" width=".52917" height=".52917"/>
<rect x="159.28" y="83.079" width=".52917" height=".52917"/>
<rect x="159.28" y="83.608" width=".52917" height=".52917"/>
<rect x="159.81" y="83.608" width=".52917" height=".52917"/>
<rect x="159.81" y="84.137" width=".52917" height=".52917"/>
<rect x="160.34" y="84.137" width=".52917" height=".52917"/>
<rect x="159.81" y="84.667" width=".52917" height=".52917"/>
<rect x="160.34" y="85.196" width=".52917" height=".52917"/>
<rect x="160.87" y="84.667" width=".52917" height=".52917"/>
<rect x="161.4" y="84.667" width=".52917" height=".52917"/>
<rect x="161.92" y="84.667" width=".52917" height=".52917"/>
<rect x="162.45" y="84.667" width=".52917" height=".52917"/>
<rect x="162.98" y="84.667" width=".52917" height=".52917"/>
<rect x="162.98" y="85.196" width=".52917" height=".52917"/>
<rect x="162.98" y="85.725" width=".52917" height=".52917"/>
<rect x="161.92" y="87.312" width=".52917" height=".52917"/>
<rect x="162.45" y="87.842" width=".52917" height=".52917"/>
<rect x="162.98" y="88.371" width=".52917" height=".52917"/>
<rect x="162.98" y="88.9" width=".52917" height=".52917"/>
<rect x="162.45" y="89.429" width=".52917" height=".52917"/>
<rect x="158.22" y="85.725" width=".52917" height=".52917"/>
<rect x="158.22" y="86.254" width=".52917" height=".52917"/>
<rect x="159.28" y="85.725" width=".52917" height=".52917"/>
<rect x="159.28" y="86.254" width=".52917" height=".52917"/>
</g>
<g transform="translate(30.75 -20.408)" fill="#ede821">
<rect x="158.75" y="84.137" width=".52917" height="4.2333" stroke-width=".1895"/>
<rect x="159.28" y="84.137" width=".52917" height="1.5875" stroke-width=".11605"/>
<rect x="159.81" y="85.196" width=".52917" height="1.0583" stroke-width=".094752"/>
<rect x="161.92" y="86.254" width=".52917" height=".52917" stroke-width=".067"/>
<rect x="159.81" y="86.254" width="2.1167" height="1.0583" stroke-width=".1895"/>
<rect x="159.28" y="86.783" width=".52917" height="2.1167" stroke-width=".134"/>
<rect x="159.81" y="87.312" width="1.5875" height="1.5875" stroke-width=".201"/>
<rect x="160.34" y="88.9" width="1.5875" height=".52917" stroke-width=".11605"/>
<rect x="161.4" y="89.429" width=".52917" height=".52917" stroke-width=".067"/>
<rect x="158.22" y="84.667" width=".52917" height="1.0583" stroke-width=".094752"/>
<rect x="157.69" y="85.196" width=".52917" height="1.0583" stroke-width=".094752"/>
<rect x="155.58" y="86.254" width="2.6459" height=".52917" stroke-width=".14982"/>
<rect x="156.1" y="86.783" width=".52917" height=".52917" stroke-width=".067"/>
<rect x="156.63" y="86.783" width="2.1167" height="1.0583" stroke-width=".18951"/>
<rect x="157.16" y="87.842" width="1.5875" height="1.0583" stroke-width=".16412"/>
<rect x="156.63" y="88.371" width=".52917" height=".52917" stroke-width=".067"/>
<rect x="156.1" y="88.9" width="1.5875" height=".52917" stroke-width=".11605"/>
</g>
<rect x="186.85" y="69.021" width=".52917" height=".52917" fill="#ede820" stroke-width=".067"/>
<g transform="translate(30.75 -20.408)" fill="#6e5033">
<rect x="156.1" y="85.196" width="1.0583" height=".52917" stroke-width=".094752"/>
<rect x="160.34" y="84.667" width=".52917" height=".52917" stroke-width=".067"/>
<rect x="160.87" y="85.196" width="2.1167" height=".52917" stroke-width=".134"/>
<rect x="161.92" y="87.842" width=".52917" height="1.0583" stroke-width=".094752"/>
<rect x="162.45" y="88.371" width=".52917" height="1.0583" stroke-width=".094752"/>
</g>
</g>
</svg>
