<?xml version="1.0" encoding="UTF-8"?>
<svg version="1.1" viewBox="0 0 33.073 31.75" xmlns="http://www.w3.org/2000/svg" xmlns:cc="http://creativecommons.org/ns#" xmlns:dc="http://purl.org/dc/elements/1.1/" xmlns:rdf="http://www.w3.org/1999/02/22-rdf-syntax-ns#">
 <metadata>
  <rdf:RDF>
   <cc:Work rdf:about="">
    <dc:format>image/svg+xml</dc:format>
    <dc:type rdf:resource="http://purl.org/dc/dcmitype/StillImage"/>
    <dc:title/>
   </cc:Work>
  </rdf:RDF>
 </metadata>
 <g transform="translate(-59.531 -97.896)">
  <g transform="translate(11.906 -44.979)">
   <g fill="#3e3e3e">
    <g stroke-width=".067">
     <rect x="47.625" y="150.81" width="3.9688" height="14.552"/>
     <rect x="51.594" y="146.84" width="5.2917" height="3.9688"/>
     <rect x="56.885" y="142.88" width="15.875" height="3.9688"/>
     <rect x="72.76" y="146.84" width="3.9688" height="3.9688"/>
     <rect x="76.729" y="150.81" width="3.9688" height="11.906"/>
     <rect x="74.083" y="162.72" width="3.9688" height="3.9688"/>
    </g>
    <rect x="59.531" y="166.69" width="14.552" height="3.9688" stroke-width=".082058"/>
    <rect x="47.625" y="170.66" width="11.906" height="3.9688" stroke-width=".067"/>
    <rect x="51.594" y="165.36" width="3.9688" height="5.2917" stroke-width=".067"/>
   </g>
   <g fill="#fff" stroke-width=".067">
    <rect x="60.854" y="149.49" width="5.2917" height="5.2917"/>
    <rect x="58.208" y="152.14" width="5.2917" height="7.9375"/>
    <rect x="60.854" y="160.07" width="2.6458" height="1.3229"/>
    <rect x="63.5" y="158.75" width="6.6146" height="5.2917"/>
    <rect x="67.469" y="156.1" width="5.2917" height="5.2917"/>
   </g>
   <g fill="#00d87d" stroke-width=".067">
    <rect x="51.594" y="150.81" width="6.6146" height="14.552"/>
    <rect x="58.208" y="160.07" width="2.6458" height="5.2917"/>
    <rect x="55.562" y="165.36" width="3.9688" height="5.2917"/>
    <rect x="59.531" y="164.04" width="14.552" height="2.6458"/>
    <rect x="58.208" y="161.4" width="5.2917" height="2.6458"/>
    <rect x="58.208" y="160.07" width="2.6458" height="1.3229"/>
    <rect x="56.885" y="146.84" width="3.9688" height="5.2917"/>
    <rect x="60.854" y="146.84" width="11.906" height="2.6458"/>
    <rect x="63.5" y="154.78" width="3.9688" height="3.9688"/>
    <rect x="66.146" y="149.49" width="6.6146" height="6.6146"/>
    <rect x="72.76" y="150.81" width="3.9688" height="11.906"/>
    <rect x="70.115" y="161.4" width="3.9688" height="5.2917"/>
   </g>
  </g>
 </g>
</svg>
