<svg xmlns="http://www.w3.org/2000/svg" width="50px" xml:space="preserve" viewBox="0 0 4.119 3.565"><defs><filter id="a" width="1" height="1" x="0" y="0" color-interpolation-filters="sRGB"><feGaussianBlur/></filter><filter id="b" width="1" height="1" x="0" y="0" color-interpolation-filters="sRGB"><feGaussianBlur/></filter><filter id="c" width="1" height="1" x="0" y="0" color-interpolation-filters="sRGB"><feGaussianBlur/></filter></defs><g fill-opacity=".996"><g fill="#010100" filter="url(#a)" opacity=".996" transform="translate(-19.179 -17.015) scale(.26458)"><path d="M74.75 64.28h11.328v13.474H74.75z" opacity=".996"/><path d="M73.377 65.395h13.695v11.269H73.377z" opacity=".996"/><path d="M72.487 65.986h15.566v10.072H72.487z" opacity=".996"/></g><g fill="#725525" stroke-width=".265" filter="url(#b)" transform="translate(-19.215 -17.029) scale(.26458)"><path d="M73.616 65.925h13.582v10.133H73.616z" opacity=".996"/><path d="M74.715 65.314h11.354V76.82H74.715z" opacity=".996"/></g><g fill="#d3a24f" stroke-width=".265"><path d="M.391.526h3.335V3.03H.391z" opacity=".996"/><path d="M.674.349H3.5v2.85H.674z" opacity=".996"/></g><g fill="#f8db50" filter="url(#c)" transform="translate(-19.098 -16.86) scale(.26458)"><path d="M74.559 66.657h10.808v7.783H74.559z" opacity=".996"/><path d="M75.447 65.467h9.065v9.919h-9.065z" opacity=".996"/></g><g fill="#f1eefc" stroke-width=".265" opacity=".996"><path d="M.386 1.374h.202v.267H.386zM.386.51H.62v.654H.386z" opacity=".996"/><path d="M.596.349H.79v.33H.596zM.79.349h.574v.225H.79z" opacity=".996"/></g></g><path fill="#fff" d="M1.508 1.285h1.08v.996h-1.08z"/><g fill="#4caf50"><path d="m1.255 2.57-.01-.1h.05v-.198h.052v-.043l-.005-.02-.05-.002v-.132H1.26v-.147h-.018v-.133l.007-.154h.017v-.164h.049v-.084h.035v-.067h.031v-.033l.001-.033h.05v-.066h.052v-.03c0-.017.001-.03.004-.032.002-.003.015-.005.033-.005h.029v-.034h.066v-.05h.067v-.03h.066V.996c0-.013.001-.016.008-.017A.389.389 0 0 1 1.84.968h.056V.936h.15l.15.01v.032h.146l.002.033h.033l.05-.003v.03h.067v.05h.066l.002.033.068.002v.066h.049v.066h.049v.067h.035v.066h.031v.084h.049v.164h.017v.132l-.01.154h-.018v.164h-.05v.084h-.03v.033l-.005.037h-.035v.066h-.05v.067h-.048v.033l.001.026-.068.002-.002.034H2.48v.073h-.066v.031h-.067v.035h-.146v.032l-.152-.004h-.15v-.031h-.15v-.035h-.067v-.032h-.17v.032h-.106v.017H1.33v.05h-.074zM2.4 2.258v-.016h.084V2.19h.067v-.066h.034V2.09c0-.03 0-.033.007-.033s.007.013.007-.035V1.97h-.05v-.049h-.065v-.035h-.067v-.049h-.033c-.033 0-.033 0-.033-.008v-.01l-.02.013h-.043v.066h-.033l-.033-.016v.034l-.042-.001-.034.017v-.035h-.03l-.002-.032v-.032l-.083-.002-.002-.033-.082-.002v-.031c0-.031-.008-.066 0-.066.009 0 .009 0 .009-.033v-.033h.031v-.042l.003-.007h-.017V1.5H1.94v-.05h-.035v-.067h-.033l-.037.007v-.052l-.041-.02h-.068v.036H1.66v.031h-.015c-.015 0-.016 0-.016.008 0 .009 0 .01-.017.01h-.018v.032c0 .031 0 .033-.007.033-.006 0-.001.004-.001.035 0 .033 0 .033-.01.033h-.008v.043l.006.033h.018v.115h.031v.084l.024-.009.018.011v.05h.053v.066h.049v.033l.008.028.022.004h.033v.1h.049v.032h.048l.001.017.001.017.064.002.002.014v.015l.069.002v.035h.033c.033 0 .033 0 .033.008v.01h.066l.06-.002v.031h.076l.068-.002z"/><path d="M1.724 1.318h.132v.083h-.132z"/><path d="M1.84 1.368h.083v.083H1.84z"/><path d="M1.873 1.434h.083v.1h-.083z"/><path d="M1.906 1.484h.083v.083h-.083zM1.923 1.567h.083v.083h-.083z"/><path d="M1.89 1.634h.083v.083H1.89z"/><path d="M1.857 1.684h.083v.083h-.083z"/><path d="M1.873 1.7h.083v.116h-.083zM2.022 1.85h.083v.083h-.083z"/><path d="M1.973 1.817h.15V1.9h-.15z"/><path d="M1.923 1.783h.116v.083h-.116zM2.14 1.916h.082v.083H2.14z"/><path d="M2.073 1.883h.083v.083h-.083zM2.272 1.817h.083V1.9h-.083z"/><path d="M2.338 1.833h.083v.083h-.083z"/><path d="M2.405 1.883h.083v.083h-.083z"/><path d="M2.471 1.916h.083v.083h-.083z"/><path d="M2.52 1.966h.084v.1H2.52z"/><path d="M2.504 2.049h.083v.083h-.083z"/><path d="M2.471 2.115h.083v.083h-.083z"/><path d="M2.388 2.165h.1v.083h-.1z"/><path d="M2.255 2.198h.15v.083h-.15z"/><path d="M2.122 2.165h.15v.083h-.15z"/><path d="M2.056 2.149h.1v.083h-.1z"/><path d="M1.99 2.115h.082v.083H1.99z"/><path d="M1.923 2.082h.083v.083h-.083z"/><path d="M1.873 2.049h.083v.083h-.083z"/><path d="M1.823 2h.083v.099h-.083zM1.757 1.916h.083v.083h-.083z"/><path d="M1.707 1.85h.083v.083h-.083z"/><path d="M1.657 1.783h.083v.083h-.083z"/><path d="M1.607 1.717h.083v.1h-.083z"/><path d="M1.574 1.6h.083v.134h-.083z"/><path d="M1.558 1.534h.083v.083h-.083z"/><path d="M1.574 1.468h.083v.083h-.083z"/><path d="M1.59 1.401h.084v.083H1.59z"/><path d="M1.624 1.385h.083v.083h-.083z"/><path d="M1.657 1.352h.083v.083h-.083zM2.205 1.883h.083v.083h-.083zM1.176 2.448h.083v.249h-.083z"/><path d="M1.242 2.613h.1v.083h-.1z"/><path d="M1.325 2.564h.116v.083h-.116z"/><path d="M1.408 2.547h.133v.083h-.133z"/><path d="M1.508 2.514h.133v.083h-.133zM1.225 2.265h.083v.216h-.083z"/><path d="M1.259 2.199h.1v.083h-.1z"/><path d="M1.225 2.065h.083v.15h-.083z"/><path d="M1.192 1.932h.083v.183h-.083z"/><path d="M1.176 1.85h.083v.149h-.083zM1.176 1.617h.083v.216h-.083z"/><path d="M1.192 1.451h.083v.2h-.083z"/><path d="M1.242 1.384h.083v.1h-.083z"/><path d="M1.275 1.318h.083V1.4h-.083z"/><path d="M1.308 1.252h.083v.083h-.083z"/><path d="M1.358 1.185h.083v.084h-.083z"/><path d="M1.408 1.119h.083v.083h-.083z"/><path d="M1.474 1.052h.084v.083h-.084z"/><path d="M1.54 1.02h.084v.082H1.54z"/><path d="M1.607.97h.083v.083h-.083z"/><path d="M1.674.936h.083v.083h-.083z"/><path d="M1.74.903h.167v.083H1.74z"/><path d="M1.873.87h.216v.083h-.216zM2.92 1.617h-.084v.216h.083z"/><path d="M2.903 1.451H2.82v.2h.083z"/><path d="M2.853 1.384H2.77v.1h.083z"/><path d="M2.82 1.318h-.084V1.4h.084z"/><path d="M2.786 1.252h-.083v.083h.083z"/><path d="M2.737 1.185h-.083v.084h.083z"/><path d="M2.687 1.119h-.083v.083h.083z"/><path d="M2.62 1.052h-.082v.083h.083z"/><path d="M2.554 1.02h-.083v.082h.083z"/><path d="M2.487.97h-.083v.083h.083z"/><path d="M2.42.936h-.082v.083h.083z"/><path d="M2.354.903h-.166v.083h.166z"/><path d="M2.222.87h-.15v.083h.15zM2.92 1.949h-.084v-.133h.083z"/><path d="M2.903 2.115H2.82v-.2h.083z"/><path d="M2.853 2.182H2.77v-.1h.083z"/><path d="M2.82 2.248h-.083v-.083h.083z"/><path d="M2.787 2.314h-.084v-.083h.084z"/><path d="M2.737 2.38h-.083v-.082h.083z"/><path d="M2.687 2.447h-.083v-.083h.083z"/><path d="M2.62 2.514h-.083V2.43h.083z"/><path d="M2.554 2.547h-.083v-.083h.083z"/><path d="M2.488 2.597h-.084v-.083h.084z"/><path d="M2.42 2.63h-.082v-.083h.083z"/><path d="M2.354 2.663h-.166V2.58h.166z"/><path d="M2.222 2.696h-.15v-.083h.15zM1.176 1.95h.083v-.133h-.083z"/><path d="M1.192 2.115h.083v-.2h-.083zM1.607 2.597h.083v-.083h-.083z"/><path d="M1.674 2.63h.083v-.083h-.083z"/><path d="M1.74 2.664h.167V2.58H1.74z"/><path d="M1.873 2.696h.216v-.083h-.216z"/></g></svg>
