<?xml version="1.0" encoding="UTF-8"?>
<svg version="1.1" viewBox="0 0 4.1186 3.5651" xml:space="preserve" xmlns="http://www.w3.org/2000/svg"><defs><filter id="c" x="-1.0074e-5" y="-1.1638e-5" width="1" height="1" color-interpolation-filters="sRGB"><feGaussianBlur stdDeviation="6.5338697e-05"/></filter><filter id="b" x="0" y="0" width="1" height="1" color-interpolation-filters="sRGB"><feGaussianBlur stdDeviation="8.9130634e-20"/></filter><filter id="a" x="-4.6026e-6" y="-5.015e-6" width="1" height="1" color-interpolation-filters="sRGB"><feGaussianBlur stdDeviation="2.0727186e-05"/></filter></defs><g transform="translate(-57.089 -147.35)"><g transform="matrix(.26458 0 0 .26458 34.172 127.73)"><g fill-opacity=".99608"><g transform="translate(14.129,9.844)" fill="#010100" filter="url(#c)" opacity=".996"><rect x="74.75" y="64.28" width="11.328" height="13.474" opacity=".996" stroke-width=".265"/><rect x="73.377" y="65.395" width="13.695" height="11.269" opacity=".996" stroke-width=".27484"/><rect x="72.487" y="65.986" width="15.566" height="10.072" opacity=".996" stroke-width=".265"/></g><g transform="translate(13.991,9.7931)" fill="#725525" filter="url(#b)" stroke-width=".265"><rect x="73.616" y="65.925" width="13.582" height="10.133" opacity=".996"/><rect x="74.715" y="65.314" width="11.354" height="11.506" opacity=".996"/></g><g transform="translate(14.418,10.19)" fill="#d3a24f" stroke-width=".265"><rect x="73.677" y="65.955" width="12.605" height="9.4614" opacity=".996"/><rect x="74.745" y="65.284" width="10.682" height="10.774" opacity=".996"/></g><g transform="translate(14.436,10.434)" fill="#f8db50" filter="url(#a)"><rect x="74.559" y="66.657" width="10.808" height="7.7828" opacity=".996" stroke-width=".26655"/><rect x="75.447" y="65.467" width="9.0647" height="9.9192" opacity=".996" stroke-width=".265"/></g><g transform="translate(14.185,10.068)" fill="#f1eefc" opacity=".996" stroke-width=".265"><rect x="73.891" y="69.282" width=".76302" height="1.0072" opacity=".996"/><rect x="73.891" y="66.016" width=".8851" height="2.4722" opacity=".996"/><rect x="74.684" y="65.406" width=".7325" height="1.2514" opacity=".996"/><rect x="75.417" y="65.406" width="2.1685" height=".84902" opacity=".996"/></g></g></g><g transform="matrix(.062771 0 0 .062771 55.109 140.58)"><rect x="55.562" y="128.32" width="17.198" height="15.875" fill="#fff" stroke-width=".067"/><g fill="#4caf50"><path transform="scale(.26458)" d="m194.77 562.41-0.54355-5.9939h2.9429v-11.982h3.166l-0.059-2.575-0.2692-1.2087-3.048-0.1236v-7.9694h-1.8919v-8.8287h-1.051v-7.9879l0.38216-9.3181h1.051v-9.8797h2.9429v-5.045h2.1021v-3.9939h1.8919v-1.997l0.0743-1.997h2.9429v-3.9939h3.1531v-1.7447c0-1.0767 0.0966-1.8413 0.25225-1.997 0.15567-0.15567 0.92024-0.25224 1.997-0.25224h1.7447v-2.1021h3.9939v-2.9429h3.9939v-1.8919h3.9939v-0.92142c0-0.77784 0.0737-0.94116 0.47296-1.0482 0.26013-0.0697 2.8194-0.70611 5.045-0.70769l3.4159-3e-3v-1.8919h9.0389l9.0028 0.59455v1.8919h8.8056l0.1282 1.997 1.9444 0.0604 3.0539-0.25336v1.8761h3.9939v2.9429h3.9709l0.1282 1.997 4.099 0.1204v3.9787h2.9429v3.9939h2.9429v3.9939h2.1021v3.9939h1.8919v5.045h2.9429v9.8797h1.051v7.9879l-0.66888 9.2513h-1.051v9.8797h-2.9429v5.045h-1.8919v1.997l-0.29728 2.2199h-2.1021v3.9939h-2.9429v3.9939h-2.9429v1.9894l0.0743 1.6178-4.099 0.1204-0.1282 1.997h-3.9709v4.4174h-3.9939v1.8919h-3.9939v2.1021h-8.8287v1.8919l-9.1515-0.22296h-9.04v-1.8919h-9.0389v-2.1021h-3.9939v-1.8919h-10.212v1.8919h-6.3933v1.051h-4.6362v2.9429h-4.4898zm68.985-18.811v-0.94593h5.045v-3.1531h3.9939v-3.9939h2.1021v-1.997c0-1.8568 0.0295-1.997 0.42042-1.997 0.40108 0 0.38325 0.7517 0.38325-2.1562v-3.048h-2.9429v-2.9429h-3.9939v-2.1021h-3.9939v-2.9429h-1.997c-1.99 0-1.997-2e-3 -1.997-0.52552v-0.52551l-1.1521 0.72962h-2.6276v3.9939h-1.997l-2.003-0.99393v2.051l-2.5385-0.0563-2.006 1.0552v-2.1021h-1.8761l-0.0604-1.9444-0.0604-1.9444-4.9174-0.1182-0.1276-1.9838-4.9399-0.1184v-1.8852c0-1.8707-0.5209-3.9596 6.2e-4 -3.9596 0.52367 0 0.52552-7e-3 0.52552-1.997v-1.997h1.8919v-2.5225l0.15918-0.43255h-1.051v-5.045h-1.8919v-2.9429h-2.1021v-1.997l-0.00607-2.0601h-1.997l-2.2072 0.39413v-3.1531l-2.5096-1.139h-4.099v2.1021h-3.9939v1.8919h-0.94593c-0.86885 0-0.91965 0.0165-0.91965 0.49924 0 0.49048-0.0701 0.52551-1.051 0.52551h-1.051v1.997c0 1.8568-0.0295 1.997-0.42041 1.997-0.39092 0-0.10853 0.20093-0.10853 2.0578 0 1.99-2e-3 1.997-0.52552 1.997h-0.52551v2.6276l0.3716 1.9587h1.051v6.9368h1.8919v5.045l1.4343-0.52023 1.0998 0.66887v2.9429h3.1531v3.9939h2.9429v1.997l0.48308 1.6997 1.3281 0.22296h1.997v6.096h2.9429v1.8919h2.9199l0.0641 0.99849 0.0641 0.99848 3.8654 0.1206 0.0643 0.88565 0.0643 0.88564 4.099 0.1204v2.0868h1.997c1.99 0 1.997 2e-3 1.997 0.52552v0.52552h3.9939l3.6223-0.0743v1.8919h4.5194l4.1478-0.14864z" stroke-width=".05323"/><g transform="translate(-42.069 -2.1167)"><rect x="101.07" y="130.97" width="2.1167" height="1.3229" stroke-width=".084749"/><rect x="102.92" y="131.76" width="1.3229" height="1.3229" stroke-width=".067"/><rect x="103.45" y="132.82" width="1.3229" height="1.5875" stroke-width=".073395"/><rect x="103.98" y="133.61" width="1.3229" height="1.3229" stroke-width=".067"/><rect x="104.25" y="134.94" width="1.3229" height="1.3229" stroke-width=".067"/><rect x="103.72" y="136" width="1.3229" height="1.3229" stroke-width=".067"/><rect x="103.19" y="136.79" width="1.3229" height="1.3229" stroke-width=".067"/><rect x="103.45" y="137.05" width="1.3229" height="1.8521" stroke-width=".079275"/><rect x="105.83" y="139.44" width="1.3229" height="1.3229" stroke-width=".067"/><rect x="105.04" y="138.91" width="2.3813" height="1.3229" stroke-width=".08989"/><rect x="104.25" y="138.38" width="1.8521" height="1.3229" stroke-width=".079276"/><rect x="107.69" y="140.49" width="1.3229" height="1.3229" stroke-width=".067"/><rect x="106.63" y="139.96" width="1.3229" height="1.3229" stroke-width=".067"/><rect x="109.8" y="138.91" width="1.3229" height="1.3229" stroke-width=".067"/><rect x="110.86" y="139.17" width="1.3229" height="1.3229" stroke-width=".067"/><rect x="111.92" y="139.96" width="1.3229" height="1.3229" stroke-width=".067"/><rect x="112.98" y="140.49" width="1.3229" height="1.3229" stroke-width=".067"/><rect x="113.77" y="141.29" width="1.3229" height="1.5875" stroke-width=".073394"/><rect x="113.51" y="142.61" width="1.3229" height="1.3229" stroke-width=".067"/><rect x="112.98" y="143.67" width="1.3229" height="1.3229" stroke-width=".067"/><rect x="111.65" y="144.46" width="1.5875" height="1.3229" stroke-width=".073395"/><rect x="109.54" y="144.99" width="2.3812" height="1.3229" stroke-width=".08989"/><rect x="107.42" y="144.46" width="2.3813" height="1.3229" stroke-width=".08989"/><rect x="106.36" y="144.2" width="1.5875" height="1.3229" stroke-width=".073395"/><rect x="105.3" y="143.67" width="1.3229" height="1.3229" stroke-width=".067"/><rect x="104.25" y="143.14" width="1.3229" height="1.3229" stroke-width=".067"/><rect x="103.45" y="142.61" width="1.3229" height="1.3229" stroke-width=".067"/><rect x="102.66" y="141.82" width="1.3229" height="1.5875" stroke-width=".073395"/><rect x="101.6" y="140.49" width="1.3229" height="1.3229" stroke-width=".067"/><rect x="100.81" y="139.44" width="1.3229" height="1.3229" stroke-width=".067"/><rect x="100.01" y="138.38" width="1.3229" height="1.3229" stroke-width=".067"/><rect x="99.219" y="137.32" width="1.3229" height="1.5875" stroke-width=".073395"/><rect x="98.69" y="135.47" width="1.3229" height="2.1167" stroke-width=".084749"/><rect x="98.425" y="134.41" width="1.3229" height="1.3229" stroke-width=".067"/><rect x="98.69" y="133.35" width="1.3229" height="1.3229" stroke-width=".067"/><rect x="98.954" y="132.29" width="1.3229" height="1.3229" stroke-width=".067"/><rect x="99.483" y="132.03" width="1.3229" height="1.3229" stroke-width=".067"/><rect x="100.01" y="131.5" width="1.3229" height="1.3229" stroke-width=".067"/><rect x="108.74" y="139.96" width="1.3229" height="1.3229" stroke-width=".067"/></g><g transform="translate(-42.069 -1.8521)"><g transform="translate(-.26458 .52917)"><rect x="92.604" y="148.17" width="1.3229" height="3.9688" stroke-width=".11605"/><rect x="93.662" y="150.81" width="1.5875" height="1.3229" stroke-width=".073395"/><rect x="94.985" y="150.02" width="1.8521" height="1.3229" stroke-width=".079275"/><rect x="96.308" y="149.75" width="2.1167" height="1.3229" stroke-width=".084749"/><rect x="97.896" y="149.23" width="2.1167" height="1.3229" stroke-width=".084749"/><rect x="93.398" y="145.26" width="1.3229" height="3.4396" stroke-width=".10803"/><rect x="93.927" y="144.2" width="1.5875" height="1.3229" stroke-width=".073395"/><rect x="93.398" y="142.08" width="1.3229" height="2.3813" stroke-width=".08989"/><rect x="92.869" y="139.96" width="1.3229" height="2.9104" stroke-width=".099377"/><rect x="92.604" y="138.64" width="1.3229" height="2.3813" stroke-width=".08989"/></g><rect x="92.34" y="135.47" width="1.3229" height="3.4396" stroke-width=".10803"/><rect x="92.604" y="132.82" width="1.3229" height="3.175" stroke-width=".1038"/><rect x="93.398" y="131.76" width="1.3229" height="1.5875" stroke-width=".073395"/><rect x="93.927" y="130.7" width="1.3229" height="1.3229" stroke-width=".067"/><rect x="94.456" y="129.65" width="1.3229" height="1.3229" stroke-width=".067"/><rect x="95.25" y="128.59" width="1.3229" height="1.3229" stroke-width=".067"/><rect x="96.044" y="127.53" width="1.3229" height="1.3229" stroke-width=".067"/><rect x="97.102" y="126.47" width="1.3229" height="1.3229" stroke-width=".067"/><rect x="98.16" y="125.94" width="1.3229" height="1.3229" stroke-width=".067"/><rect x="99.219" y="125.15" width="1.3229" height="1.3229" stroke-width=".067"/><rect x="100.28" y="124.62" width="1.3229" height="1.3229" stroke-width=".067"/><rect x="101.34" y="124.09" width="2.6458" height="1.3229" stroke-width=".094752"/><rect x="103.45" y="123.56" width="3.4396" height="1.3229" stroke-width=".10803"/><rect transform="scale(-1,1)" x="-120.12" y="135.47" width="1.3229" height="3.4396" stroke-width=".10803"/><rect transform="scale(-1,1)" x="-119.86" y="132.82" width="1.3229" height="3.175" stroke-width=".1038"/><rect transform="scale(-1,1)" x="-119.06" y="131.76" width="1.3229" height="1.5875" stroke-width=".073395"/><rect transform="scale(-1,1)" x="-118.53" y="130.7" width="1.3229" height="1.3229" stroke-width=".067"/><rect transform="scale(-1,1)" x="-118" y="129.65" width="1.3229" height="1.3229" stroke-width=".067"/><rect transform="scale(-1,1)" x="-117.21" y="128.59" width="1.3229" height="1.3229" stroke-width=".067"/><rect transform="scale(-1,1)" x="-116.42" y="127.53" width="1.3229" height="1.3229" stroke-width=".067"/><rect transform="scale(-1,1)" x="-115.36" y="126.47" width="1.3229" height="1.3229" stroke-width=".067"/><rect transform="scale(-1,1)" x="-114.3" y="125.94" width="1.3229" height="1.3229" stroke-width=".067"/><rect transform="scale(-1,1)" x="-113.24" y="125.15" width="1.3229" height="1.3229" stroke-width=".067"/><rect transform="scale(-1,1)" x="-112.18" y="124.62" width="1.3229" height="1.3229" stroke-width=".067"/><rect transform="scale(-1,1)" x="-111.12" y="124.09" width="2.6458" height="1.3229" stroke-width=".094752"/><rect transform="scale(-1,1)" x="-109.01" y="123.56" width="2.3813" height="1.3229" stroke-width=".08989"/><g transform="rotate(180 106.23 138.11)"><rect x="92.34" y="135.47" width="1.3229" height="2.1167" stroke-width=".084749"/><rect x="92.604" y="132.82" width="1.3229" height="3.175" stroke-width=".1038"/><rect x="93.398" y="131.76" width="1.3229" height="1.5875" stroke-width=".073395"/><rect x="93.927" y="130.7" width="1.3229" height="1.3229" stroke-width=".067"/><rect x="94.456" y="129.65" width="1.3229" height="1.3229" stroke-width=".067"/><rect x="95.25" y="128.59" width="1.3229" height="1.3229" stroke-width=".067"/><rect x="96.044" y="127.53" width="1.3229" height="1.3229" stroke-width=".067"/><rect x="97.102" y="126.47" width="1.3229" height="1.3229" stroke-width=".067"/><rect x="98.16" y="125.94" width="1.3229" height="1.3229" stroke-width=".067"/><rect x="99.219" y="125.15" width="1.3229" height="1.3229" stroke-width=".067"/><rect x="100.28" y="124.62" width="1.3229" height="1.3229" stroke-width=".067"/><rect x="101.34" y="124.09" width="2.6458" height="1.3229" stroke-width=".094752"/><rect x="103.45" y="123.56" width="2.3813" height="1.3229" stroke-width=".08989"/></g><rect transform="scale(1,-1)" x="92.34" y="-140.76" width="1.3229" height="2.1167" stroke-width=".084749"/><rect transform="scale(1,-1)" x="92.604" y="-143.4" width="1.3229" height="3.175" stroke-width=".1038"/><rect transform="scale(1,-1)" x="99.219" y="-151.08" width="1.3229" height="1.3229" stroke-width=".067"/><rect transform="scale(1,-1)" x="100.28" y="-151.61" width="1.3229" height="1.3229" stroke-width=".067"/><rect transform="scale(1,-1)" x="101.34" y="-152.14" width="2.6458" height="1.3229" stroke-width=".094752"/><rect transform="scale(1,-1)" x="103.45" y="-152.66" width="3.4396" height="1.3229" stroke-width=".10803"/></g></g></g></g></svg>
